<svg width="270" height="246" viewBox="0 0 270 246" fill="none" xmlns="http://www.w3.org/2000/svg">
<path d="M241.526 201.612H252.45" stroke="#263238" stroke-width="0.953494" stroke-linecap="round" stroke-linejoin="round"/>
<path d="M155.363 201.612H167.486" stroke="#263238" stroke-width="0.953494" stroke-linecap="round" stroke-linejoin="round"/>
<path d="M60.145 201.612H100.845" stroke="#263238" stroke-width="0.953494" stroke-linecap="round" stroke-linejoin="round"/>
<path d="M44.3447 201.612H53.5571" stroke="#263238" stroke-width="0.953494" stroke-linecap="round" stroke-linejoin="round"/>
<path d="M86.0544 88.196C86.0544 88.196 86.7294 92.2009 83.0034 93.8983C83.0034 93.8983 87.5016 94.7741 87.9174 98.7347C87.9174 98.7347 88.0038 93.3227 90.585 92.6683C90.585 92.6683 87.0912 92.6191 86.0544 88.196Z" fill="white"/>
<path d="M139.574 88.6978C139.574 88.6978 139.363 91.1578 136.874 91.6842C136.874 91.6842 139.401 92.7764 139.034 95.1725C139.034 95.1725 139.914 91.9794 141.545 91.9204C141.572 91.9204 139.509 91.4431 139.574 88.6978Z" fill="white"/>
<path d="M142.56 80.3337C142.56 80.3337 142.344 82.7937 139.86 83.3202C139.86 83.3202 142.382 84.4124 142.02 86.8085C142.02 86.8085 142.9 83.6154 144.531 83.5563C144.536 83.5563 142.473 83.0791 142.56 80.3337Z" fill="white"/>
<path d="M79.4771 80.5107C79.4771 80.5107 79.2881 84.1712 76.8149 85.2979C77.885 85.5917 78.837 86.165 79.553 86.9468C80.269 87.7286 80.7176 88.6846 80.8433 89.6964C80.8433 89.6964 80.3033 85.598 83.0897 84.7321C82.1956 84.2995 81.4117 83.6999 80.7892 82.9725C80.1667 82.2451 79.7196 81.4063 79.4771 80.5107Z" fill="white"/>
<path d="M203.515 212.632C223.13 212.632 239.031 209.388 239.031 205.385C239.031 201.383 223.13 198.138 203.515 198.138C183.9 198.138 168 201.383 168 205.385C168 209.388 183.9 212.632 203.515 212.632Z" fill="white" stroke="#263238" stroke-width="0.953494" stroke-linecap="round" stroke-linejoin="round"/>
<path d="M203.715 209.863C220.905 209.863 234.841 207.259 234.841 204.047C234.841 200.835 220.905 198.232 203.715 198.232C186.525 198.232 172.59 200.835 172.59 204.047C172.59 207.259 186.525 209.863 203.715 209.863Z" stroke="#263238" stroke-width="0.953494" stroke-linecap="round" stroke-linejoin="round"/>
<path d="M182.59 196.308C181.188 195.692 179.588 195.559 178.087 195.934C177.345 196.132 176.675 196.507 176.147 197.021C175.619 197.535 175.252 198.169 175.084 198.856C174.994 199.517 175.072 200.188 175.314 200.816C175.556 201.444 175.954 202.013 176.477 202.478C177.535 203.398 178.788 204.112 180.16 204.573C183.883 205.997 187.884 206.722 191.921 206.704C195.307 206.704 198.693 206.153 202.063 206.458C205.303 206.743 208.37 207.796 211.567 208.268C214.832 208.75 218.171 208.628 221.384 207.909C224.699 207.166 228.231 205.336 228.809 202.271C228.96 201.212 228.778 200.135 228.284 199.167C227.789 198.198 227.003 197.377 226.017 196.8C225.019 196.243 223.899 195.891 222.736 195.768C221.573 195.646 220.395 195.756 219.283 196.091C219.872 195.924 219.008 191.171 218.857 190.532C217.777 186.104 212.036 182.97 207.263 183.206C204.055 183.363 200.853 185.346 200.178 188.205C199.098 187.649 197.548 187.86 196.452 188.411C195.907 188.695 195.448 189.099 195.118 189.585C194.787 190.071 194.594 190.625 194.557 191.196C192.445 189.444 189.157 189.036 186.457 189.833C185.299 190.124 184.289 190.773 183.6 191.668C183.183 192.339 182.895 193.069 182.747 193.828C182.547 194.635 182.795 195.511 182.59 196.308Z" fill="#FFC100"/>
<path d="M182.369 196.396C180.967 195.779 179.366 195.648 177.865 196.027C177.124 196.225 176.454 196.601 175.926 197.115C175.398 197.629 175.031 198.263 174.863 198.95C174.774 199.61 174.853 200.28 175.096 200.908C175.339 201.535 175.738 202.103 176.262 202.566C177.316 203.489 178.568 204.205 179.939 204.667C183.663 206.088 187.663 206.813 191.7 206.797C195.086 206.797 198.477 206.241 201.847 206.546C205.087 206.837 208.149 207.885 211.345 208.362C214.613 208.844 217.953 208.722 221.168 208.003C224.484 207.255 228.015 205.43 228.588 202.359C228.74 201.301 228.558 200.226 228.065 199.258C227.572 198.29 226.787 197.47 225.801 196.893C224.801 196.338 223.681 195.986 222.517 195.863C221.354 195.74 220.175 195.848 219.062 196.18C219.651 196.013 218.792 191.26 218.635 190.62C217.555 186.192 211.815 183.063 207.042 183.294C203.834 183.452 200.632 185.435 199.957 188.293C198.877 187.742 197.327 187.949 196.236 188.505C195.69 188.788 195.231 189.192 194.899 189.678C194.567 190.164 194.373 190.718 194.335 191.289C192.224 189.533 188.962 189.13 186.235 189.922C185.08 190.216 184.071 190.864 183.379 191.757C182.964 192.43 182.676 193.162 182.526 193.922C182.326 194.724 182.574 195.594 182.369 196.396Z" stroke="#263238" stroke-width="0.953494" stroke-linecap="round" stroke-linejoin="round"/>
<path opacity="0.19" d="M182.601 196.426C181.201 195.809 179.602 195.678 178.103 196.057C177.362 196.255 176.693 196.629 176.165 197.142C175.637 197.656 175.269 198.288 175.1 198.975C175.01 199.635 175.089 200.306 175.33 200.934C175.572 201.562 175.97 202.131 176.494 202.596C177.551 203.516 178.804 204.23 180.176 204.692C183.9 206.115 187.9 206.841 191.938 206.827C195.323 206.827 198.709 206.271 202.079 206.576C205.319 206.866 208.386 207.914 211.583 208.391C214.849 208.874 218.188 208.75 221.4 208.027C224.716 207.284 228.247 205.454 228.825 202.389C228.976 201.33 228.794 200.255 228.3 199.287C227.806 198.319 227.02 197.499 226.033 196.923C225.035 196.365 223.916 196.012 222.753 195.889C221.59 195.766 220.411 195.875 219.299 196.209C219.888 196.042 219.024 191.29 218.867 190.65C217.787 186.222 212.053 183.093 207.274 183.324C204.071 183.481 200.869 185.464 200.194 188.323C199.114 187.772 197.564 187.978 196.468 188.534C195.924 188.818 195.466 189.221 195.135 189.706C194.804 190.191 194.611 190.744 194.573 191.314C192.461 189.563 189.2 189.159 186.473 189.951C185.32 190.248 184.313 190.895 183.622 191.786C183.204 192.459 182.915 193.191 182.768 193.951C182.563 194.753 182.812 195.624 182.601 196.426Z" fill="white"/>
<path opacity="0.2" d="M217.01 187.531C214.488 185.45 210.314 185.759 207.587 187.609C204.86 189.459 203.38 192.505 202.754 195.55C202.198 195.231 201.555 195.059 200.898 195.054C200.241 195.049 199.595 195.21 199.033 195.521C197.917 196.161 197.051 197.107 196.56 198.222C195.593 197.59 194.434 197.247 193.243 197.24C192.053 197.233 190.889 197.562 189.913 198.182C189.243 198.684 188.601 199.216 187.99 199.777C186.173 201.242 183.804 202.009 181.38 201.918C178.955 201.826 176.664 200.882 174.987 199.285C174.987 199.285 173.059 201.779 180.463 204.608C187.866 207.437 192.677 207.068 196.663 206.615C200.648 206.163 205.67 206.979 209.174 208.091C212.679 209.203 222.89 209.277 226.492 205.72C230.094 202.163 229.694 195.23 219.283 195.88C219.305 195.85 219.424 189.518 217.01 187.531Z" fill="black"/>
<path d="M196.258 181.681C194.794 181.071 194.098 179.422 194.325 177.966C194.551 176.51 195.405 175.221 196.377 174.03C197.349 172.84 198.391 171.708 199.006 170.35C201.399 165.036 196.247 158.754 198.542 153.406" stroke="#263238" stroke-width="0.953494" stroke-linecap="round" stroke-linejoin="round"/>
<path d="M217.21 181.272C215.833 180.889 215.05 179.56 214.774 178.271C213.959 174.227 217.015 170.399 217.674 166.35C218.214 162.98 217.096 159.585 215.984 156.328" stroke="#263238" stroke-width="0.953494" stroke-linecap="round" stroke-linejoin="round"/>
<path d="M207.042 180.072C205.578 178.817 205.74 176.628 206.502 174.945C207.263 173.263 208.581 171.777 209.121 170.025C209.43 168.982 209.465 167.887 209.224 166.829C208.983 165.771 208.472 164.779 207.733 163.934" stroke="#263238" stroke-width="0.953494" stroke-linecap="round" stroke-linejoin="round"/>
<path d="M194.119 157.361C193.991 159.213 194.118 161.073 194.497 162.896" stroke="#263238" stroke-width="0.953494" stroke-linecap="round" stroke-linejoin="round"/>
<path d="M194.227 168.672C194.416 170.508 193.083 172.141 192.019 173.71C190.773 175.48 189.93 177.459 189.54 179.531C189.149 181.614 189.517 183.757 190.588 185.632" stroke="#263238" stroke-width="0.953494" stroke-linecap="round" stroke-linejoin="round"/>
<path d="M121.684 94.5327L122.224 100.55V100.693C121.77 100.644 121.314 100.619 120.858 100.619C117.272 100.619 111.678 101.691 107.709 102.587C104.922 103.217 102.913 103.758 102.913 103.758L102.314 101.588L100.041 93.4799C98.1992 92.0383 95.3912 86.3754 95.3912 86.3754C93.107 86.0556 90.2666 84.1663 89.651 81.5243C89.0354 78.8822 92.6048 79.143 92.6048 79.143L94.916 77.849L97.8104 70.6511C97.8104 70.6511 95.267 65.2932 100.273 63.1382C105.279 60.9833 122.299 68.4912 122.299 68.4912L124.141 75.5317C126.506 76.4075 124.006 81.6817 124.006 81.6817C124.006 81.6817 124.233 81.7653 124.492 84.8797C124.751 87.9941 121.684 94.5327 121.684 94.5327Z" fill="white"/>
<path d="M115.998 77.8098C116.754 80.4273 119.416 82.2919 119.319 82.966C119.194 83.8319 118.023 85.0029 116.959 85.0176" stroke="#263238" stroke-width="0.953494" stroke-linecap="round" stroke-linejoin="round"/>
<path d="M121.241 73.5983C121.241 73.5983 118.903 71.8616 117.094 74.0903" stroke="#263238" stroke-width="1.90699" stroke-linecap="round" stroke-linejoin="round"/>
<path d="M107.833 86.8232C107.833 86.8232 109.021 89.6473 113.773 89.5538" stroke="#263238" stroke-width="0.953494" stroke-linecap="round" stroke-linejoin="round"/>
<path d="M110.873 75.8171C109.167 74.8577 106.801 74.9414 105.549 77.0619" stroke="#263238" stroke-width="1.90699" stroke-linecap="round" stroke-linejoin="round"/>
<path d="M110.619 79.9401C110.776 80.7076 110.544 81.4161 110.079 81.4702C109.615 81.5243 109.129 80.9782 108.967 80.2254C108.805 79.4727 109.048 78.774 109.507 78.7002C109.966 78.6264 110.457 79.1775 110.619 79.9401Z" fill="#263238"/>
<path d="M120.355 78.2279C120.512 78.9954 120.28 79.7039 119.815 79.758C119.351 79.8121 118.865 79.266 118.703 78.5133C118.541 77.7605 118.784 77.0618 119.243 76.9831C119.702 76.9044 120.193 77.4505 120.355 78.2279Z" fill="#263238"/>
<path d="M95.1696 81.0324C95.1696 81.0324 91.2168 77.9032 89.964 80.0484C88.7112 82.1935 92.7774 87.1725 96.5952 85.6522" stroke="#263238" stroke-width="0.953494" stroke-linecap="round" stroke-linejoin="round"/>
<path d="M121.754 69.3228C121.754 69.3228 122.056 78.3411 123.152 80.3485C124.249 82.3558 125.188 83.3546 124.033 88.5895C122.877 93.8243 118.471 99.9399 113.773 100.348C109.075 100.757 98.28 94.2327 95.2236 86.0999" stroke="#263238" stroke-width="0.953494" stroke-linecap="round" stroke-linejoin="round"/>
<path d="M95.2776 81.4012C95.2776 81.4012 98.145 80.0482 97.6266 77.7063C97.1082 75.3644 97.47 75.0741 99.5274 73.8687C101.585 72.6633 100.31 70.1738 98.3394 67.7236C96.3684 65.2735 100.116 62.3412 103.167 63.5712C106.218 64.8012 123.606 71.0348 128.277 69.1849C132.948 67.3349 131.609 61.4211 125.318 58.1149C125.318 58.1149 121.921 54.4199 122.834 51.0202C123.746 47.6205 101.963 37.3525 91.7514 58.2625C91.7514 58.2625 86.8914 59.9894 85.8924 65.9327C84.8988 71.7826 91.9242 79.3496 91.9242 79.3496C91.9242 79.3496 94.4082 80.5156 95.2776 81.4012Z" fill="#263238"/>
<path d="M98.2153 62.5085C99.8353 60.5405 102.784 59.837 105.435 60.1814C108.087 60.5258 110.495 61.7607 112.758 63.0645C115.02 64.3683 117.245 65.7951 119.778 66.602C121.2 67.1235 122.763 67.2384 124.26 66.9316C124.843 66.7904 125.388 66.5393 125.859 66.1943C126.329 65.8494 126.715 65.4184 126.992 64.9292" stroke="white" stroke-width="0.953494" stroke-linecap="round" stroke-linejoin="round"/>
<path d="M93.6848 60.9194C91.7408 61.0375 90.0452 62.3659 89.2892 64.0043C88.5996 65.679 88.552 67.517 89.1542 69.2195C89.5522 70.4187 90.0955 71.5738 90.7742 72.6635" stroke="white" stroke-width="0.953494" stroke-linecap="round" stroke-linejoin="round"/>
<path d="M122.067 93.7258C121.783 94.7356 121.691 95.7825 121.797 96.8205C121.857 98.0402 122.007 99.2549 122.245 100.456" stroke="#263238" stroke-width="0.953494" stroke-linecap="round" stroke-linejoin="round"/>
<path d="M100.019 93.1257C100.953 96.1368 101.99 99.7628 102.946 103.797" stroke="#263238" stroke-width="0.953494" stroke-linecap="round" stroke-linejoin="round"/>
<path d="M122.359 77.1258C122.359 77.1258 123.244 74.9315 124.918 75.9056C126.592 76.8798 123.925 81.8096 123.925 81.8096" stroke="#263238" stroke-width="0.953494" stroke-linecap="round" stroke-linejoin="round"/>
<path d="M124.805 67.8074C124.805 67.8074 125.642 74.0115 123.611 75.9696L122.056 76.4075L121.235 68.1665L124.805 67.8074Z" fill="#263238"/>
<path d="M84.8773 60.024C84.8773 60.024 79.4017 59.6747 74.1097 53.938C68.8177 48.2013 73.0945 44.1718 75.7297 42.0168C78.3649 39.8619 84.8665 33.953 87.5827 31.1928C90.2989 28.4327 95.7421 24.9395 101.893 25.8546C108.043 26.7698 114.032 30.1646 119.88 31.7291C125.728 33.2937 131.555 39.1091 132.414 42.9024C133.272 46.6957 131.425 52.644 129.282 54.0757L125.593 53.9724L127.213 59.0646C127.213 59.0646 105.3 51.168 85.7251 65.992L87.3829 60.6882L84.8773 60.024Z" fill="white"/>
<path d="M94.9483 53.249C94.9483 55.5171 94.9861 57.7853 95.1427 60.0435L86.0437 66.2034L88.2685 56.2158L94.9483 53.249Z" fill="#FFC100"/>
<path opacity="0.6" d="M94.9483 53.249C94.9483 55.5171 95.0618 58.0362 95.213 60.2945L86.033 66.1985L88.2578 56.2109L94.9483 53.249Z" fill="white"/>
<path d="M96.0284 26.012C96.4681 25.8881 96.9385 25.8876 97.3786 26.0104C97.8187 26.1332 98.2081 26.3738 98.4962 26.7008C99.0582 27.3656 99.345 28.1896 99.3062 29.028C99.2792 31.7586 97.049 34.071 94.6028 35.6552C92.1566 37.2395 89.3594 38.3908 87.2102 40.2997C85.9849 41.3879 85.0111 42.6886 84.3462 44.125C83.6813 45.5615 83.3387 47.1047 83.3387 48.6637C83.3387 50.2227 83.6813 51.7659 84.3462 53.2024C85.0111 54.6389 85.9849 55.9395 87.2102 57.0277C87.4532 57.2393 87.7016 57.441 87.9392 57.6624L87.1886 60.457C87.1886 60.457 77.4686 59.3008 74.1314 53.938C70.7942 48.5752 71.8472 46.066 74.7578 42.9172C77.6684 39.7684 81.4484 38.0562 85.1528 33.2494C88.8572 28.4425 96.0284 26.012 96.0284 26.012Z" fill="#FFC100"/>
<path opacity="0.6" d="M96.0284 26.012C96.4681 25.8881 96.9385 25.8876 97.3786 26.0104C97.8187 26.1332 98.2081 26.3738 98.4962 26.7008C99.0582 27.3656 99.345 28.1896 99.3062 29.028C99.2792 31.7586 97.049 34.071 94.6028 35.6552C92.1566 37.2395 89.3594 38.3908 87.2102 40.2997C85.9849 41.3879 85.0111 42.6886 84.3462 44.125C83.6813 45.5615 83.3387 47.1047 83.3387 48.6637C83.3387 50.2227 83.6813 51.7659 84.3462 53.2024C85.0111 54.6389 85.9849 55.9395 87.2102 57.0277C87.4532 57.2393 87.7016 57.441 87.9392 57.6624L87.1886 60.457C87.1886 60.457 77.4686 59.3008 74.1314 53.938C70.7942 48.5752 71.8472 46.066 74.7578 42.9172C77.6684 39.7684 81.4484 38.0562 85.1528 33.2494C88.8572 28.4425 96.0284 26.012 96.0284 26.012Z" fill="white"/>
<path d="M86.0437 66.2035C86.0437 66.2035 101.11 51.9749 127.192 59.3155L123.984 51.2516C123.984 51.2516 105.84 46.74 88.2685 56.2159L86.0437 66.2035Z" stroke="#263238" stroke-width="0.953494" stroke-linecap="round" stroke-linejoin="round"/>
<path d="M125.718 55.5959C127.57 55.3253 131.182 53.4508 132.003 51.9108C132.754 50.3322 133.089 48.6151 132.981 46.8974C132.997 44.4505 132.373 42.0353 131.161 39.8519C128.369 35.1435 122.478 32.836 117.018 30.8631L106.801 27.1682C104.733 26.4203 102.622 25.6626 100.402 25.5298C96.0014 25.269 91.8434 27.4978 88.625 30.2579C85.4066 33.018 82.82 36.3341 79.553 39.0401C77.96 40.3587 76.2104 41.5001 74.7362 42.9761C73.262 44.4521 72.0362 46.1544 71.8256 48.1077C71.5124 50.917 73.3268 53.5886 75.557 55.5516C77.7872 57.5147 79.9634 59.7828 87.1238 60.5553" stroke="#263238" stroke-width="0.953494" stroke-linecap="round" stroke-linejoin="round"/>
<path d="M114.966 50.1839C116.453 49.383 117.755 48.327 118.8 47.0745" stroke="#263238" stroke-width="0.953494" stroke-linecap="round" stroke-linejoin="round"/>
<path d="M93.2797 53.7756C91.9851 53.3665 90.8025 52.7077 89.8128 51.8442C88.8231 50.9807 88.0496 49.9327 87.5449 48.772" stroke="#263238" stroke-width="0.953494" stroke-linecap="round" stroke-linejoin="round"/>
<path d="M95.1751 29.8792C92.7559 29.7217 90.6391 31.3552 89.0893 33.0378C87.5395 34.7205 86.1571 36.6983 83.9917 37.6971" stroke="#263238" stroke-width="0.953494" stroke-linecap="round" stroke-linejoin="round"/>
<path d="M182.434 126.739L160.142 142.591C160.142 142.591 151.583 117.184 151.081 114.021C149.71 110.975 144.736 106.72 144.736 106.72C144.736 106.72 126.457 105.898 125.14 105.209C123.822 104.52 123.676 100.54 123.676 100.54C123.201 100.54 122.704 100.54 122.202 100.54C121.7 100.54 121.306 100.579 120.847 100.609C116.466 100.987 112.13 101.709 107.887 102.769C104.414 103.595 101.984 104.333 101.984 104.333L103.334 109.676L102.357 111.015C99.1548 113.194 81.6102 118.493 77.0688 120.363C75.0805 121.795 73.1736 123.319 71.3556 124.928C71.3556 124.928 55.62 153.061 53.1792 156.495C51.694 158.648 50.8887 161.131 50.8518 163.673C52.6608 167.191 55.3176 167.423 58.0554 168.284C58.5152 168.424 58.966 168.588 59.4054 168.776C62.6076 170.143 90.8442 168.106 90.8442 168.106C90.8442 168.106 88.8138 177.267 98.0694 173.784C112.882 168.205 148.289 172.067 148.289 172.067L147.442 151.403L155.466 159.767C155.466 159.767 159.219 161.779 163.733 159.211C170.597 155.172 190.496 132.86 190.496 132.86C188.573 128.722 182.434 126.739 182.434 126.739ZM93.0096 158.955L91.3896 157.479C88.5924 155.934 78.1596 154.143 78.1596 154.143L85.5036 144.476C85.5036 144.476 93.2526 155.398 93.6036 156.323C93.9546 157.248 93.0096 158.955 93.0096 158.955Z" fill="white"/>
<path d="M108.459 181.002L110.122 213.656C110.122 213.656 104.679 212.416 103.167 210.35C101.655 208.283 98.28 177.332 98.28 177.332C98.28 177.332 101.52 180.038 108.459 181.002Z" fill="#FFC100"/>
<path opacity="0.56" d="M108.459 181.002L110.122 213.656C110.122 213.656 104.679 212.416 103.167 210.35C101.655 208.283 98.28 177.332 98.28 177.332C98.28 177.332 101.52 180.038 108.459 181.002Z" fill="white"/>
<path d="M93.8305 156.864L85.3201 144.79L92.4427 136.205C92.4427 136.205 92.9827 141.061 96.1417 143.314C101.201 146.911 100.089 157.966 100.089 157.966L93.8305 156.864Z" fill="#FFC100"/>
<path opacity="0.6" d="M93.8305 156.864L85.3201 144.79L92.4427 136.205C92.4427 136.205 92.9827 141.061 96.1417 143.314C101.201 146.911 100.089 157.966 100.089 157.966L93.8305 156.864Z" fill="white"/>
<path d="M145.584 125.411C145.584 125.411 151.762 150.449 155.342 154.439C158.922 158.429 158.998 142.872 160.261 142.655C161.525 142.439 163.636 151.772 162.821 154.591C162.821 154.591 163.307 156.067 165.1 154.591C166.892 153.115 189.167 134.316 189.167 134.316C189.167 134.316 166.277 160.702 159.732 160.539C154.197 161.238 148.219 152.225 148.219 152.225L145.584 125.411Z" fill="#FFC100"/>
<path opacity="0.6" d="M145.584 125.411C145.584 125.411 151.762 150.449 155.342 154.439C158.922 158.429 158.998 142.872 160.261 142.655C161.525 142.439 163.636 151.772 162.821 154.591C162.821 154.591 163.307 156.067 165.1 154.591C166.892 153.115 189.167 134.316 189.167 134.316C189.167 134.316 166.277 160.702 159.732 160.539C154.197 161.238 148.219 152.225 148.219 152.225L145.584 125.411Z" fill="white"/>
<path d="M79.2666 152.594L77.895 154.267C77.895 154.267 66.9168 153.012 58.0554 168.264C55.3176 167.403 52.6554 167.172 50.8518 163.654C50.8887 161.112 51.694 158.628 53.1792 156.476C55.62 153.032 71.5392 124.589 71.5392 124.589C73.1709 122.961 75.03 121.535 77.0688 120.348C88.4088 114.887 99.1548 113.185 102.357 111L103.334 109.662L101.984 104.319C101.984 104.319 104.414 103.581 107.887 102.754L109.679 109.726C109.975 110.879 109.803 112.09 109.197 113.138C108.591 114.185 107.591 114.998 106.38 115.428L80.46 124.535C78.7871 125.12 77.4179 126.259 76.626 127.723L62.4348 153.839C62.721 153.607 68.364 148.377 79.2666 152.594Z" fill="#FFC100"/>
<path opacity="0.6" d="M79.2666 152.594L77.895 154.267C77.895 154.267 66.9168 153.012 58.0554 168.264C55.3176 167.403 52.6554 167.172 50.8518 163.654C50.8887 161.112 51.694 158.628 53.1792 156.476C55.62 153.032 71.5392 124.589 71.5392 124.589C71.5392 124.589 74.9412 121.78 77.0688 120.348C87.8202 115.3 99.1548 113.185 102.357 111L103.334 109.662L101.984 104.319C101.984 104.319 104.414 103.581 107.887 102.754L109.679 109.726C109.975 110.879 109.803 112.09 109.197 113.138C108.591 114.185 107.591 114.998 106.38 115.428L80.46 124.535C78.7871 125.12 77.4179 126.259 76.626 127.723L62.4348 153.839C62.721 153.607 68.364 148.377 79.2666 152.594Z" fill="white"/>
<path d="M184.68 125.485L191.516 116.683C191.516 116.683 196.344 113.731 198.094 112.963C199.843 112.196 200.097 110.685 200.929 111.217C201.76 111.748 201.01 114.862 199.26 115.846C197.51 116.83 195.512 117.814 195.761 118.503C196.009 119.192 206.177 118.351 206.177 118.351C206.177 118.351 219.137 118.193 219.326 119.108C219.515 120.023 211.259 121.386 211.259 121.386C211.259 121.386 220.131 121.298 220.153 121.76C220.174 122.223 215.093 123.817 215.093 123.817C215.093 123.817 218.684 123.989 218.511 124.697C218.338 125.406 214.677 126.321 214.677 126.321C214.677 126.321 207.176 130.498 205.497 131.182C203.818 131.866 192.418 130.572 192.418 130.572L190.469 132.869C190.469 132.869 187.169 128.599 183.67 126.779L184.68 125.485Z" fill="white"/>
<path d="M159.516 152.559C159.992 149.306 160.223 146.026 160.207 142.744" stroke="#263238" stroke-width="0.953494" stroke-linecap="round" stroke-linejoin="round"/>
<path d="M122.234 100.589C122.774 100.589 123.352 100.56 123.925 100.555L124.465 103.728C124.551 104.238 124.834 104.702 125.262 105.039C125.691 105.375 126.237 105.561 126.803 105.563L144.38 106.651C145.67 106.651 150.568 112.757 151.4 115.059L160.261 142.68L182.439 126.636C182.439 126.636 186.759 127.172 190.501 132.884C190.501 132.884 176.224 150.198 163.264 159.452C161.368 160.8 157.124 161.1 155.434 159.546C152.582 156.928 150.001 154.586 148.009 152.166" stroke="#263238" stroke-width="0.953494" stroke-linecap="round" stroke-linejoin="round"/>
<path d="M89.0137 144.126L93.4579 141.514" stroke="#263238" stroke-width="0.953494" stroke-linecap="round" stroke-linejoin="round"/>
<path d="M90.6606 145.007C91.8366 144.661 93.0713 144.511 94.3056 144.564" stroke="#263238" stroke-width="0.953494" stroke-linecap="round" stroke-linejoin="round"/>
<path d="M85.5144 144.717C88.2148 148.148 90.7166 151.705 93.0096 155.374C93.5163 156.196 93.6703 157.16 93.4416 158.08L82.6416 201.562" stroke="#263238" stroke-width="0.953494" stroke-linecap="round" stroke-linejoin="round"/>
<path d="M144.391 118.616L148.111 151.364C148.36 158.714 148.959 163.369 149.315 172.579" stroke="#263238" stroke-width="0.953494" stroke-linecap="round" stroke-linejoin="round"/>
<path d="M102.886 110.764L107.887 139.959L114.583 137.922C119.192 136.52 124.043 135.895 128.898 136.077L135.734 136.338L127.494 105.288H130.621L148.219 152.225L149.299 173.041C149.299 173.041 116.548 166.493 98.199 175.324L99.6354 188.116C99.6354 188.116 100.51 191.619 101.434 201.818L86.8536 201.577H82.6416L93.2796 159.034C93.2796 159.034 102.46 159.649 102.195 152.918C101.93 146.188 99.3924 112.368 99.3924 112.368L102.886 110.764Z" fill="#263238"/>
<path d="M116.214 110.488C116.214 110.763 116.124 111.031 115.957 111.259C115.79 111.487 115.552 111.665 115.274 111.77C114.995 111.875 114.689 111.903 114.394 111.849C114.098 111.796 113.827 111.663 113.614 111.469C113.401 111.275 113.256 111.028 113.197 110.759C113.138 110.49 113.169 110.211 113.284 109.957C113.399 109.704 113.594 109.487 113.845 109.335C114.095 109.182 114.39 109.101 114.691 109.101C115.095 109.101 115.482 109.247 115.768 109.507C116.053 109.767 116.214 110.12 116.214 110.488Z" fill="#263238"/>
<path d="M116.43 118.616C117.271 118.616 117.952 117.995 117.952 117.229C117.952 116.462 117.271 115.841 116.43 115.841C115.589 115.841 114.907 116.462 114.907 117.229C114.907 117.995 115.589 118.616 116.43 118.616Z" fill="#263238"/>
<path d="M125.95 154.296C131.454 153.44 136.991 152.774 142.56 152.299" stroke="white" stroke-width="0.953494" stroke-linecap="round" stroke-linejoin="round"/>
<path d="M116.435 155.964C118.696 155.528 120.965 155.123 123.244 154.749" stroke="white" stroke-width="0.953494" stroke-linecap="round" stroke-linejoin="round"/>
<path d="M142.56 154.099C138.082 155.739 133.569 157.296 129.022 158.768" stroke="white" stroke-width="0.953494" stroke-linecap="round" stroke-linejoin="round"/>
<path d="M141.512 119.266C141.978 121.93 142.651 124.561 143.527 127.138" stroke="#263238" stroke-width="0.953494" stroke-linecap="round" stroke-linejoin="round"/>
<path d="M206.28 122.114C206.28 122.114 219.24 120.146 219.332 119.108C219.424 118.07 210.001 118.616 207.781 118.439C205.562 118.262 196.263 119.349 195.955 118.818C195.647 118.287 196.403 118.164 198.45 116.609C200.497 115.054 202.003 112.309 201.452 111.438C200.902 110.567 199.076 112.501 197.672 113.209C196.544 113.785 192.272 115.989 191.5 116.953C190.728 117.918 185.593 124.373 183.649 126.833" stroke="#263238" stroke-width="0.953494" stroke-linecap="round" stroke-linejoin="round"/>
<path d="M206.577 122.016C206.577 122.016 220.228 120.874 220.174 121.78C220.088 123.29 210.935 124.481 207.187 124.732" stroke="#263238" stroke-width="0.953494" stroke-linecap="round" stroke-linejoin="round"/>
<path d="M207.101 124.776C207.101 124.776 218.705 123.3 218.533 124.697C218.36 126.095 205.168 128.373 205.168 128.373" stroke="#263238" stroke-width="0.953494" stroke-linecap="round" stroke-linejoin="round"/>
<path d="M190.021 133.43C191.322 131.728 192.181 130.557 192.181 130.557C192.181 130.557 203.359 131.674 204.963 131.394C206.566 131.113 214.11 126.71 214.11 126.71" stroke="#263238" stroke-width="0.953494" stroke-linecap="round" stroke-linejoin="round"/>
<path d="M194.94 122.055C196.179 122.193 197.356 122.626 198.354 123.31C199.351 123.994 200.133 124.905 200.621 125.952" stroke="#263238" stroke-width="0.953494" stroke-linecap="round" stroke-linejoin="round"/>
<path d="M162 143.738C163.258 145.494 163.399 147.703 163.501 149.799" stroke="#263238" stroke-width="0.953494" stroke-linecap="round" stroke-linejoin="round"/>
<path d="M98.28 175.905L102.281 207.024C102.281 207.024 102.092 210.3 105.111 211.944C108.13 213.587 121.36 216.263 128.747 215.845C136.134 215.427 145.487 215.004 148.9 212.618C152.312 210.232 151.513 203.786 151.513 203.786L153.976 184.303C153.976 184.303 156.217 176.864 153.517 174.63C148.581 170.576 106.985 167.496 98.28 175.905Z" fill="white"/>
<path d="M98.2801 177.331C99.8875 178.601 101.764 179.555 103.793 180.136C107.033 181.021 146.907 179.978 151.854 179.098C156.8 178.217 155.007 174.527 152.253 173.494C149.499 172.461 123.919 169.066 112.622 171.408C102.6 173.484 96.3361 173.641 98.2801 177.331Z" fill="#FFC100"/>
<path opacity="0.6" d="M98.2802 177.332C99.8876 178.601 101.764 179.555 103.794 180.136C107.034 181.022 146.907 179.978 151.854 179.098C156.8 178.217 155.007 174.527 152.253 173.494C149.499 172.461 126.938 169.474 113.33 171.172C103.275 173.238 96.3362 173.642 98.2802 177.332Z" fill="white"/>
<path d="M155.034 176.436C155.034 177.42 153.884 178.306 151.848 179.098C147.091 180.967 137.506 182.237 126.468 182.237C115.927 182.237 106.715 181.08 101.769 179.354C99.3115 178.497 97.9021 177.504 97.9021 176.436C97.9021 173.228 110.695 170.63 126.468 170.63C142.242 170.63 155.034 173.228 155.034 176.436Z" stroke="#263238" stroke-width="0.953494" stroke-linecap="round" stroke-linejoin="round"/>
<path d="M151.848 179.088C147.091 180.958 137.506 182.227 126.468 182.227C115.927 182.227 106.715 181.071 101.769 179.344C105.468 177.238 115.387 175.723 127.046 175.723C138.24 175.732 147.825 177.12 151.848 179.088Z" fill="#263238"/>
<path d="M97.8914 176.436L102.357 208.549C102.456 209.283 102.761 209.981 103.241 210.577C103.721 211.174 104.361 211.647 105.1 211.954C110.722 214.266 125.82 218.905 147.366 213.469C148.272 213.235 149.081 212.76 149.69 212.106C150.299 211.451 150.68 210.646 150.784 209.794L152.151 199.093L152.286 198L153.393 189.361L153.636 187.452L155.034 176.436" stroke="#263238" stroke-width="0.953494" stroke-linecap="round" stroke-linejoin="round"/>
<path d="M121.538 215.924C120.809 215.076 120.31 214.083 120.082 213.027C119.854 211.97 119.903 210.879 120.226 209.843C120.226 209.843 116.937 211.343 116.84 213.985C116.84 213.985 111.98 212.755 112.579 206.32C112.579 206.32 109.879 210.286 112.293 214.605C114.707 218.925 121.538 215.924 121.538 215.924Z" fill="#263238"/>
<path d="M134.136 215.944C136.509 213.736 138.062 210.905 138.575 207.85C139.252 210.025 139.213 212.333 138.461 214.487C139.504 214.064 140.42 213.419 141.133 212.607C141.846 211.794 142.336 210.838 142.56 209.818C142.56 209.818 143.246 213.754 141.194 215.944C139.142 218.133 134.136 215.944 134.136 215.944Z" fill="#263238"/>
<path d="M163.28 190.404C161.995 194.497 157.394 198.955 152.15 199.083L152.285 197.99C156.784 197.779 160.979 193.794 162.13 190.118C162.41 189.223 162.88 187.029 161.185 186.035C160.771 185.772 160.301 185.593 159.806 185.508C159.311 185.423 158.802 185.435 158.312 185.543C155.752 186.114 153.846 189.071 153.83 189.1C153.785 189.173 153.722 189.235 153.646 189.281C153.57 189.327 153.483 189.356 153.392 189.366L153.635 187.457C154.521 186.404 156.076 184.923 158.026 184.505C158.674 184.364 159.347 184.347 160.002 184.457C160.658 184.566 161.281 184.798 161.833 185.139C163.501 186.094 164.025 188.027 163.28 190.404Z" fill="#263238"/>
<path d="M122.159 178.188C125.086 179.698 128.693 179.782 131.965 179.078C133.119 178.874 134.219 178.47 135.205 177.887" stroke="white" stroke-width="0.953494" stroke-linecap="round" stroke-linejoin="round"/>
<path d="M139.477 178.384C138.57 179.22 137.46 179.851 136.237 180.224" stroke="white" stroke-width="0.953494" stroke-linecap="round" stroke-linejoin="round"/>
<path d="M101.785 200.018C91.0874 201.174 90.0236 189.912 92.8802 188.136C95.7368 186.36 101.418 192.451 101.418 192.451" stroke="white" stroke-width="1.90699" stroke-linecap="round" stroke-linejoin="round"/>
<path d="M130.048 177.883L108.81 142.714C108.81 142.714 106.488 141.44 106.65 143.984C106.812 146.527 126.36 178.104 126.36 178.104L130.048 177.883Z" fill="white" stroke="#263238" stroke-width="0.953494" stroke-linecap="round" stroke-linejoin="round"/>
<path d="M121.981 185.484C128.407 185.843 136.561 185.7 143.538 183.737" stroke="#263238" stroke-width="0.953494" stroke-linecap="round" stroke-linejoin="round"/>
<path d="M110.668 184.249C110.668 184.249 112.828 184.648 116.235 185.022" stroke="#263238" stroke-width="0.953494" stroke-linecap="round" stroke-linejoin="round"/>
<path d="M90.4932 139.123C86.1374 143.598 82.1844 148.386 78.6726 153.44" stroke="#263238" stroke-width="0.953494" stroke-linecap="round" stroke-linejoin="round"/>
<path d="M76.221 153.248C73.5876 152.693 70.837 152.81 68.2722 153.588" stroke="#263238" stroke-width="0.953494" stroke-linecap="round" stroke-linejoin="round"/>
<path d="M75.3572 123.826C75.3572 123.826 85.0772 128.899 88.679 136.692" stroke="#263238" stroke-width="0.953494" stroke-linecap="round" stroke-linejoin="round"/>
<path d="M83.4031 155.516C83.5867 161.873 87.9337 168.372 87.9337 168.372L103.912 166.148L102.832 163.329C103.372 163.57 104.485 163.487 105.235 163.649C109.939 164.633 117.655 164.451 117.655 164.451C118.807 163.573 119.769 162.507 120.49 161.307C121.792 159.211 120.566 158.641 120.566 158.641C122.45 156.235 121.003 154.498 121.003 154.498C123.79 153.046 122.623 152.254 122.623 152.254C120.83 149.701 110.252 150.803 110.252 150.803L100.98 157.932L94.6837 156.948L83.4031 155.516Z" fill="white"/>
<path d="M100.122 158.025L101.52 157.607L110.268 150.803C110.268 150.803 121.695 150.252 122.51 152.121C123.325 153.991 120.949 154.857 118.897 155.605" stroke="#263238" stroke-width="0.953494" stroke-linecap="round" stroke-linejoin="round"/>
<path d="M120.668 154.941C120.668 154.941 123.493 156.062 119.588 159.196" stroke="#263238" stroke-width="0.953494" stroke-linecap="round" stroke-linejoin="round"/>
<path d="M120.296 158.719C121.538 158.08 122.353 160.963 118.001 162.35" stroke="#263238" stroke-width="0.953494" stroke-linecap="round" stroke-linejoin="round"/>
<path d="M120.614 161.494L117.423 164.623C117.423 164.623 110.23 165.194 103.766 163.295L103.059 163.482" stroke="#263238" stroke-width="0.953494" stroke-linecap="round" stroke-linejoin="round"/>
<path d="M66.0637 158.99C67.5872 157.515 69.423 156.336 71.4601 155.525C73.4973 154.714 75.6936 154.288 77.9167 154.271C78.8341 154.283 79.7444 154.421 80.6167 154.68C83.7433 155.57 96.5899 156.899 100.51 158.153L103.918 165.981C90.4663 169.081 72.5329 169.331 61.7545 168.874C59.0527 168.683 56.4217 167.993 54.0217 166.847C53.3222 166.52 52.701 166.069 52.194 165.522C51.687 164.974 51.3044 164.34 51.0683 163.657C50.8322 162.974 50.7474 162.255 50.8187 161.541C50.89 160.828 51.116 160.135 51.4837 159.501L70.8319 125.553C71.3719 124.633 75.1519 121.386 76.1941 121.002L86.0545 116.668C87.1099 116.206 88.1914 115.795 89.2945 115.438L100.197 112.107C101.023 111.802 103.437 110.06 103.199 109.268L101.866 104.304C108.387 102.064 115.269 100.816 122.234 100.609" stroke="#263238" stroke-width="0.953494" stroke-linecap="round" stroke-linejoin="round"/>
<path d="M48.2112 97.3518H36.5417V103.767H48.2112V97.3518Z" stroke="#263238" stroke-width="0.953494" stroke-linecap="round" stroke-linejoin="round"/>
<path d="M53.4006 105.622H41.7312V112.038H53.4006V105.622Z" stroke="#263238" stroke-width="0.953494" stroke-linecap="round" stroke-linejoin="round"/>
<path d="M238.718 95.2708H227.048V101.686H238.718V95.2708Z" stroke="#263238" stroke-width="0.953494" stroke-linecap="round" stroke-linejoin="round"/>
<path d="M231.444 103.541H219.775V109.957H231.444V103.541Z" stroke="#263238" stroke-width="0.953494" stroke-linecap="round" stroke-linejoin="round"/>
<path d="M67.1057 184.805H57.3533V187.196H67.1057V184.805Z" stroke="#263238" stroke-width="0.953494" stroke-linecap="round" stroke-linejoin="round"/>
<path d="M72.6354 177.066H61.7004V183.481H72.6354V177.066Z" stroke="#263238" stroke-width="0.953494" stroke-linecap="round" stroke-linejoin="round"/>
<path d="M158.355 57.0129V30.0513H232.573V77.731H221.513" stroke="#263238" stroke-width="0.953494" stroke-linecap="round" stroke-linejoin="round"/>
<path d="M158.355 66.848V62.7988" stroke="#263238" stroke-width="0.953494" stroke-linecap="round" stroke-linejoin="round"/>
<path d="M168.307 77.7309H158.355V69.5046" stroke="#263238" stroke-width="0.953494" stroke-linecap="round" stroke-linejoin="round"/>
<path d="M178.416 34.873C178.42 35.0606 178.363 35.2451 178.252 35.403C178.14 35.5609 177.98 35.6851 177.791 35.7596C177.602 35.8341 177.393 35.8557 177.19 35.8215C176.988 35.7873 176.801 35.6989 176.654 35.5676C176.507 35.4363 176.406 35.268 176.364 35.0843C176.322 34.9005 176.342 34.7096 176.419 34.5358C176.497 34.3621 176.63 34.2134 176.801 34.1087C176.972 34.004 177.173 33.948 177.379 33.948C177.65 33.9479 177.911 34.0448 178.105 34.2177C178.298 34.3906 178.41 34.6258 178.416 34.873V34.873Z" stroke="#263238" stroke-width="0.953494" stroke-linecap="round" stroke-linejoin="round"/>
<path d="M195.48 35.8912C196.053 35.8912 196.517 35.4683 196.517 34.9466C196.517 34.4249 196.053 34.002 195.48 34.002C194.907 34.002 194.443 34.4249 194.443 34.9466C194.443 35.4683 194.907 35.8912 195.48 35.8912Z" stroke="#263238" stroke-width="0.953494" stroke-linecap="round" stroke-linejoin="round"/>
<path d="M214.801 34.873C214.805 35.0606 214.748 35.2451 214.637 35.403C214.526 35.5609 214.365 35.6851 214.176 35.7596C213.987 35.8341 213.778 35.8557 213.576 35.8215C213.373 35.7873 213.186 35.6989 213.039 35.5676C212.892 35.4363 212.791 35.268 212.749 35.0843C212.708 34.9005 212.727 34.7096 212.805 34.5358C212.882 34.3621 213.015 34.2134 213.186 34.1087C213.357 34.004 213.558 33.948 213.764 33.948C214.036 33.9479 214.296 34.0448 214.49 34.2177C214.684 34.3906 214.795 34.6258 214.801 34.873V34.873Z" stroke="#263238" stroke-width="0.953494" stroke-linecap="round" stroke-linejoin="round"/>
<path d="M180.392 71.0644C180.178 71.0699 179.965 71.0354 179.765 70.9631C179.566 70.8909 179.385 70.7824 179.234 70.6442C179.082 70.506 178.963 70.3412 178.884 70.1596C178.804 69.9781 178.766 69.7837 178.772 69.5884L179.28 41.3968C179.334 40.3735 178.951 39.478 177.827 39.478H177.061C175.954 39.478 175.057 39.9405 175.084 40.954L175.797 69.6278C175.803 69.8197 175.766 70.0108 175.69 70.1897C175.613 70.3685 175.498 70.5316 175.351 70.6692C175.204 70.8068 175.028 70.9162 174.834 70.9908C174.64 71.0654 174.431 71.1039 174.22 71.1038H174.112C173.698 71.105 173.301 71.2541 173.006 71.519C172.712 71.7839 172.543 72.1436 172.535 72.5208L172.336 85.5834C172.331 85.9187 172.401 86.2515 172.539 86.5622C172.678 86.8728 172.883 87.1551 173.143 87.3925C173.403 87.6299 173.713 87.8176 174.054 87.9445C174.394 88.0715 174.759 88.1352 175.127 88.1319L180.225 88.0729C180.591 88.0691 180.953 87.999 181.289 87.8666C181.625 87.7342 181.929 87.5422 182.182 87.3018C182.436 87.0614 182.635 86.7774 182.767 86.4663C182.899 86.1552 182.962 85.8233 182.952 85.4899L182.52 72.447C182.507 72.0668 182.33 71.7067 182.026 71.4456C181.722 71.1846 181.317 71.044 180.9 71.0546L180.392 71.0644Z" stroke="#263238" stroke-width="0.953494" stroke-linecap="round" stroke-linejoin="round"/>
<path d="M176.38 41.5346C176.38 41.3692 176.434 41.2075 176.535 41.07C176.636 40.9324 176.779 40.8252 176.947 40.7619C177.115 40.6986 177.299 40.682 177.477 40.7143C177.655 40.7466 177.819 40.8262 177.947 40.9432C178.076 41.0602 178.163 41.2092 178.199 41.3715C178.234 41.5337 178.216 41.7019 178.146 41.8547C178.077 42.0075 177.959 42.1382 177.808 42.2301C177.657 42.322 177.48 42.371 177.298 42.371C177.055 42.371 176.821 42.2829 176.649 42.1261C176.477 41.9692 176.38 41.7565 176.38 41.5346Z" stroke="#263238" stroke-width="0.953494" stroke-linecap="round" stroke-linejoin="round"/>
<path d="M174.01 84.4517V77.175" stroke="#263238" stroke-width="0.953494" stroke-linecap="round" stroke-linejoin="round"/>
<path d="M175.538 84.4517V77.175" stroke="#263238" stroke-width="0.953494" stroke-linecap="round" stroke-linejoin="round"/>
<path d="M177.287 84.3336L177.266 77.1799" stroke="#263238" stroke-width="0.953494" stroke-linecap="round" stroke-linejoin="round"/>
<path d="M179.15 84.4271V77.1504" stroke="#263238" stroke-width="0.953494" stroke-linecap="round" stroke-linejoin="round"/>
<path d="M181.121 84.4075V77.1309" stroke="#263238" stroke-width="0.953494" stroke-linecap="round" stroke-linejoin="round"/>
<path d="M212.895 41.9822C212.892 41.816 212.943 41.6527 213.042 41.5131C213.141 41.3735 213.284 41.264 213.451 41.1986C213.619 41.1332 213.805 41.1148 213.984 41.1458C214.163 41.1767 214.328 41.2557 214.458 41.3726C214.588 41.4894 214.676 41.6389 214.713 41.8018C214.749 41.9648 214.731 42.1339 214.661 42.2875C214.591 42.4411 214.473 42.5723 214.321 42.6642C214.169 42.7562 213.99 42.8048 213.808 42.8039C213.568 42.8026 213.338 42.716 213.168 42.5624C212.997 42.4089 212.899 42.2007 212.895 41.9822V41.9822Z" stroke="#263238" stroke-width="0.953494" stroke-linecap="round" stroke-linejoin="round"/>
<path d="M213.991 72.8699L215.919 41.6132C215.934 41.3696 215.894 41.1259 215.802 40.8969C215.71 40.6678 215.567 40.4583 215.383 40.2811C215.199 40.1038 214.978 39.9626 214.732 39.8659C214.486 39.7693 214.221 39.7193 213.953 39.719H213.597C213.335 39.719 213.076 39.7665 212.834 39.8589C212.592 39.9513 212.373 40.0867 212.19 40.2571C212.006 40.4275 211.862 40.6296 211.765 40.8514C211.668 41.0733 211.621 41.3105 211.626 41.5492L212.058 60.137C212.155 64.401 212.256 68.6765 212.361 72.9634C212.366 73.1483 212.319 73.3313 212.224 73.4949C212.13 73.6586 211.991 73.7974 211.821 73.8982C210.513 74.7292 209.559 75.9455 209.121 77.3422C208.503 79.2229 208.372 81.2083 208.737 83.1429C209.131 85.2191 210.714 87.4873 213.187 87.7972C215.66 88.1072 217.366 86.1441 217.998 84.2204C218.708 82.1839 218.832 80.0157 218.36 77.9228C218.086 76.9688 217.597 76.0773 216.924 75.3053C216.316 74.7027 215.566 74.2333 214.731 73.9327C214.5 73.8498 214.304 73.7022 214.171 73.5112C214.038 73.3202 213.975 73.0956 213.991 72.8699V72.8699Z" stroke="#263238" stroke-width="0.953494" stroke-linecap="round" stroke-linejoin="round"/>
<path d="M210.146 82.6607V78.4836" stroke="#263238" stroke-width="0.953494" stroke-linecap="round" stroke-linejoin="round"/>
<path d="M216.691 82.6607V78.4836" stroke="#263238" stroke-width="0.953494" stroke-linecap="round" stroke-linejoin="round"/>
<path d="M212.096 83.6253V77.4211" stroke="#263238" stroke-width="0.953494" stroke-linecap="round" stroke-linejoin="round"/>
<path d="M215.195 83.6253V77.4211" stroke="#263238" stroke-width="0.953494" stroke-linecap="round" stroke-linejoin="round"/>
<path d="M213.608 85.6473V76.4666" stroke="#263238" stroke-width="0.953494" stroke-linecap="round" stroke-linejoin="round"/>
<path d="M195.442 42.6909C195.949 42.6909 196.36 42.3164 196.36 41.8545C196.36 41.3925 195.949 41.0181 195.442 41.0181C194.935 41.0181 194.524 41.3925 194.524 41.8545C194.524 42.3164 194.935 42.6909 195.442 42.6909Z" stroke="#263238" stroke-width="0.953494" stroke-linecap="round" stroke-linejoin="round"/>
<path d="M196.695 69.3719L198.137 41.2196C198.145 40.9786 198.101 40.7385 198.006 40.5135C197.911 40.2885 197.767 40.0832 197.583 39.9097C197.399 39.7363 197.179 39.5983 196.936 39.5038C196.692 39.4093 196.43 39.3604 196.166 39.3599H194.81C194.543 39.3602 194.278 39.4102 194.032 39.5068C193.786 39.6034 193.565 39.7447 193.381 39.9219C193.197 40.0992 193.054 40.3087 192.962 40.5377C192.87 40.7668 192.83 41.0105 192.845 41.2541L194.524 69.5982C194.541 69.7914 194.499 69.9851 194.404 70.1584C194.309 70.3318 194.164 70.4783 193.984 70.5822C192.364 71.5121 187.871 74.5477 187.763 79.8121C187.628 86.2524 195.615 89.1158 200.183 86.7296C204.665 84.3975 207.895 74.7593 197.37 70.4297C197.152 70.3382 196.969 70.1875 196.849 69.9982C196.728 69.8088 196.674 69.5901 196.695 69.3719V69.3719Z" stroke="#263238" stroke-width="0.953494" stroke-linecap="round" stroke-linejoin="round"/>
<path d="M196.285 84.8994C196.559 84.8994 196.781 84.6968 196.781 84.4468C196.781 84.1968 196.559 83.9941 196.285 83.9941C196.01 83.9941 195.788 84.1968 195.788 84.4468C195.788 84.6968 196.01 84.8994 196.285 84.8994Z" stroke="#263238" stroke-width="0.953494" stroke-linecap="round" stroke-linejoin="round"/>
<path d="M192.602 83.3104C192.595 83.2466 192.602 83.1822 192.624 83.1213C192.646 83.0603 192.681 83.0042 192.728 82.9566C192.775 82.909 192.833 82.871 192.897 82.8449C192.961 82.8189 193.031 82.8054 193.101 82.8054C193.172 82.8054 193.241 82.8189 193.305 82.8449C193.37 82.871 193.427 82.909 193.474 82.9566C193.521 83.0042 193.557 83.0603 193.579 83.1213C193.601 83.1822 193.608 83.2466 193.601 83.3104C193.588 83.4229 193.53 83.5271 193.438 83.6029C193.345 83.6786 193.226 83.7205 193.101 83.7205C192.977 83.7205 192.857 83.6786 192.765 83.6029C192.673 83.5271 192.615 83.4229 192.602 83.3104Z" stroke="#263238" stroke-width="0.953494" stroke-linecap="round" stroke-linejoin="round"/>
<path d="M199.525 83.7629C199.799 83.7629 200.021 83.5603 200.021 83.3103C200.021 83.0603 199.799 82.8577 199.525 82.8577C199.25 82.8577 199.028 83.0603 199.028 83.3103C199.028 83.5603 199.25 83.7629 199.525 83.7629Z" stroke="#263238" stroke-width="0.953494" stroke-linecap="round" stroke-linejoin="round"/>
<path d="M196.285 81.9426C196.559 81.9426 196.781 81.74 196.781 81.49C196.781 81.24 196.559 81.0374 196.285 81.0374C196.01 81.0374 195.788 81.24 195.788 81.49C195.788 81.74 196.01 81.9426 196.285 81.9426Z" stroke="#263238" stroke-width="0.953494" stroke-linecap="round" stroke-linejoin="round"/>
<path d="M192.602 80.3534C192.601 80.2627 192.629 80.1737 192.684 80.0978C192.738 80.0219 192.816 79.9625 192.908 79.9271C193 79.8917 193.101 79.882 193.199 79.8991C193.296 79.9162 193.386 79.9594 193.457 80.0231C193.528 80.0869 193.576 80.1685 193.596 80.2573C193.616 80.3462 193.606 80.4385 193.568 80.5224C193.531 80.6063 193.466 80.678 193.384 80.7285C193.301 80.779 193.204 80.806 193.104 80.806C192.972 80.806 192.845 80.7585 192.751 80.6737C192.657 80.589 192.603 80.4739 192.602 80.3534V80.3534Z" stroke="#263238" stroke-width="0.953494" stroke-linecap="round" stroke-linejoin="round"/>
<path d="M199.525 80.8059C199.799 80.8059 200.021 80.6033 200.021 80.3533C200.021 80.1033 199.799 79.9006 199.525 79.9006C199.25 79.9006 199.028 80.1033 199.028 80.3533C199.028 80.6033 199.25 80.8059 199.525 80.8059Z" stroke="#263238" stroke-width="0.953494" stroke-linecap="round" stroke-linejoin="round"/>
<path d="M196.285 78.9905C196.559 78.9905 196.781 78.7878 196.781 78.5378C196.781 78.2879 196.559 78.0852 196.285 78.0852C196.01 78.0852 195.788 78.2879 195.788 78.5378C195.788 78.7878 196.01 78.9905 196.285 78.9905Z" stroke="#263238" stroke-width="0.953494" stroke-linecap="round" stroke-linejoin="round"/>
<path d="M192.602 77.4014C192.595 77.3377 192.602 77.2733 192.624 77.2123C192.646 77.1514 192.681 77.0953 192.728 77.0477C192.775 77.0001 192.833 76.9621 192.897 76.936C192.961 76.91 193.031 76.8965 193.101 76.8965C193.172 76.8965 193.241 76.91 193.305 76.936C193.37 76.9621 193.427 77.0001 193.474 77.0477C193.521 77.0953 193.557 77.1514 193.579 77.2123C193.601 77.2733 193.608 77.3377 193.601 77.4014C193.588 77.514 193.53 77.6182 193.438 77.6939C193.345 77.7697 193.226 77.8116 193.101 77.8116C192.977 77.8116 192.857 77.7697 192.765 77.6939C192.673 77.6182 192.615 77.514 192.602 77.4014V77.4014Z" stroke="#263238" stroke-width="0.953494" stroke-linecap="round" stroke-linejoin="round"/>
<path d="M199.525 77.854C199.799 77.854 200.021 77.6514 200.021 77.4014C200.021 77.1514 199.799 76.9487 199.525 76.9487C199.25 76.9487 199.028 77.1514 199.028 77.4014C199.028 77.6514 199.25 77.854 199.525 77.854Z" stroke="#263238" stroke-width="0.953494" stroke-linecap="round" stroke-linejoin="round"/>
<path d="M196.285 73.9868C196.559 73.9868 196.781 73.7842 196.781 73.5342C196.781 73.2842 196.559 73.0815 196.285 73.0815C196.01 73.0815 195.788 73.2842 195.788 73.5342C195.788 73.7842 196.01 73.9868 196.285 73.9868Z" stroke="#263238" stroke-width="0.953494" stroke-linecap="round" stroke-linejoin="round"/>
<path d="M192.602 74.6707C192.595 74.7344 192.602 74.7988 192.624 74.8598C192.646 74.9207 192.681 74.9768 192.728 75.0244C192.775 75.072 192.833 75.1101 192.897 75.1361C192.961 75.1622 193.031 75.1756 193.101 75.1756C193.172 75.1756 193.241 75.1622 193.305 75.1361C193.37 75.1101 193.427 75.072 193.474 75.0244C193.521 74.9768 193.557 74.9207 193.579 74.8598C193.601 74.7988 193.608 74.7344 193.601 74.6707C193.588 74.5581 193.53 74.4539 193.438 74.3782C193.345 74.3024 193.226 74.2605 193.101 74.2605C192.977 74.2605 192.857 74.3024 192.765 74.3782C192.673 74.4539 192.615 74.5581 192.602 74.6707V74.6707Z" stroke="#263238" stroke-width="0.953494" stroke-linecap="round" stroke-linejoin="round"/>
<path d="M199.525 75.1233C199.799 75.1233 200.021 74.9206 200.021 74.6707C200.021 74.4207 199.799 74.218 199.525 74.218C199.25 74.218 199.028 74.4207 199.028 74.6707C199.028 74.9206 199.25 75.1233 199.525 75.1233Z" stroke="#263238" stroke-width="0.953494" stroke-linecap="round" stroke-linejoin="round"/>
</svg>
