<svg width="180" height="160" viewBox="0 0 180 160" fill="none" xmlns="http://www.w3.org/2000/svg">
  <path
    d="M142.814 127.493C142.814 127.493 160.704 122.141 165.651 100.743C170.599 79.3457 153.135 62.5594 137.626 59.9583C122.117 57.3571 115.997 62.4653 103.021 61.0122C90.0449 59.5591 69.8436 47.1194 53.3646 54.751C36.8855 62.3826 40.9496 89.5092 52.3173 110.59C63.685 131.671 111.798 143.968 142.814 127.493Z"
    fill="#FFC100" />
  <path
    d="M48.8709 63.8478C48.8417 63.8477 48.8129 63.8405 48.787 63.8268C48.7611 63.8131 48.7389 63.7934 48.7221 63.7693L47.1002 61.5253L44.4962 62.3892C44.4588 62.401 44.4187 62.4008 44.3814 62.3888C44.3441 62.3767 44.3115 62.3534 44.2879 62.3219C44.2641 62.2901 44.2512 62.2514 44.2512 62.2116C44.2512 62.1718 44.2641 62.133 44.2879 62.1012L45.8949 59.8572L44.273 57.6132C44.2498 57.5813 44.2372 57.5427 44.2372 57.5031C44.2371 57.4635 44.2496 57.4249 44.2728 57.3929C44.2959 57.3609 44.3286 57.3371 44.3661 57.3249C44.4036 57.3128 44.4439 57.3129 44.4813 57.3253L47.0853 58.1705L48.6924 55.9265C48.7155 55.8944 48.7479 55.8703 48.7853 55.8575C48.8226 55.8448 48.8629 55.8441 48.9007 55.8555C48.9378 55.8689 48.97 55.8932 48.9932 55.9251C49.0164 55.9571 49.0295 55.9954 49.0309 56.035V58.7951L51.6349 59.6403C51.6728 59.6523 51.706 59.6762 51.7294 59.7085C51.7528 59.7408 51.7653 59.7799 51.7651 59.8198C51.7648 59.8587 51.7525 59.8966 51.7298 59.9281C51.7071 59.9596 51.6753 59.9832 51.6386 59.9956L49.0346 60.8596V63.6234C49.0361 63.6627 49.0245 63.7014 49.0016 63.7333C48.9786 63.7651 48.9457 63.7883 48.9081 63.7992C48.8991 63.8177 48.8865 63.8343 48.8709 63.8478ZM47.1709 61.1326C47.2001 61.133 47.2288 61.1403 47.2546 61.154C47.2805 61.1676 47.3028 61.1872 47.3197 61.2111L48.6849 63.0811V60.7586C48.685 60.7192 48.6972 60.6808 48.7199 60.6486C48.7425 60.6165 48.7745 60.5922 48.8114 60.5791L51.0062 59.8535L48.8077 59.1429C48.7697 59.1322 48.7364 59.1091 48.7128 59.0773C48.6893 59.0455 48.6769 59.0068 48.6775 58.9671V56.6446L47.3271 58.5146C47.304 58.5465 47.2713 58.5702 47.2339 58.5823C47.1964 58.5944 47.1562 58.5943 47.1188 58.5819L44.9166 57.8713L46.2818 59.7413C46.3057 59.7731 46.3186 59.8118 46.3186 59.8516C46.3186 59.8914 46.3057 59.9302 46.2818 59.962L44.9315 61.832L47.1263 61.1064C47.1424 61.1127 47.1575 61.1216 47.1709 61.1326Z"
    fill="#263238" />
  <path
    d="M105.817 33.3181C105.778 33.3184 105.74 33.3066 105.709 33.2844L103.882 31.9493L102.06 33.2844C102.027 33.3063 101.989 33.318 101.95 33.318C101.911 33.318 101.872 33.3063 101.84 33.2844C101.808 33.2615 101.784 33.2287 101.772 33.1909C101.76 33.1532 101.76 33.1125 101.773 33.075L102.469 30.917L100.642 29.5818C100.611 29.5583 100.588 29.5255 100.576 29.488C100.565 29.4505 100.565 29.4103 100.577 29.3731C100.59 29.3359 100.613 29.3035 100.645 29.2805C100.677 29.2576 100.715 29.2452 100.754 29.2452H103.008L103.707 27.0873C103.723 27.0529 103.747 27.0238 103.779 27.0033C103.81 26.9828 103.847 26.9719 103.884 26.9719C103.922 26.9719 103.958 26.9828 103.989 27.0033C104.021 27.0238 104.046 27.0529 104.061 27.0873L104.757 29.2452H107.011C107.051 29.245 107.089 29.2576 107.122 29.2811C107.154 29.3047 107.177 29.338 107.189 29.3761C107.201 29.4131 107.201 29.453 107.189 29.49C107.177 29.527 107.154 29.5591 107.122 29.5818L105.296 30.917L105.995 33.075C106.007 33.113 106.006 33.1535 105.993 33.1911C105.981 33.2286 105.957 33.2612 105.925 33.2844C105.893 33.3066 105.855 33.3184 105.817 33.3181ZM103.882 31.5304C103.923 31.5301 103.962 31.5433 103.994 31.5678L105.463 32.6412L104.902 30.9021C104.89 30.8645 104.89 30.8242 104.902 30.7867C104.914 30.7492 104.937 30.7163 104.969 30.6926L106.457 29.6192H104.637C104.598 29.6195 104.559 29.6069 104.527 29.5833C104.495 29.5598 104.471 29.5265 104.459 29.4883L103.897 27.7492L103.335 29.4883C103.324 29.5265 103.3 29.5598 103.268 29.5833C103.235 29.6069 103.197 29.6195 103.157 29.6192H101.342L102.811 30.6926C102.843 30.7155 102.867 30.7483 102.879 30.7861C102.891 30.8239 102.891 30.8646 102.878 30.9021L102.316 32.6412L103.804 31.5678C103.827 31.5488 103.854 31.5359 103.882 31.5304Z"
    fill="#263238" />
  <path
    d="M136.737 137.398C136.7 137.399 136.663 137.388 136.633 137.366C136.602 137.345 136.579 137.314 136.566 137.279L135.692 135.072L133.334 135.229C133.294 135.232 133.254 135.222 133.221 135.2C133.187 135.179 133.162 135.147 133.148 135.11C133.133 135.073 133.131 135.033 133.14 134.995C133.149 134.957 133.17 134.922 133.2 134.896L135.019 133.378L134.145 131.171C134.13 131.135 134.127 131.094 134.137 131.056C134.146 131.018 134.168 130.983 134.198 130.958C134.228 130.933 134.265 130.918 134.305 130.915C134.344 130.912 134.383 130.922 134.416 130.943L136.414 132.211L138.233 130.696C138.264 130.673 138.302 130.66 138.341 130.66C138.38 130.66 138.418 130.673 138.449 130.696C138.483 130.716 138.51 130.746 138.524 130.783C138.539 130.82 138.541 130.86 138.53 130.898L137.946 133.202L139.948 134.47C139.981 134.492 140.006 134.523 140.02 134.56C140.034 134.597 140.036 134.638 140.026 134.676C140.017 134.714 139.996 134.748 139.965 134.773C139.935 134.798 139.898 134.813 139.858 134.814L137.5 134.971L136.92 137.271C136.91 137.31 136.888 137.345 136.857 137.37C136.826 137.396 136.788 137.411 136.749 137.413L136.737 137.398ZM135.815 134.691C135.852 134.691 135.888 134.702 135.919 134.724C135.95 134.745 135.973 134.775 135.986 134.81L136.7 136.606L137.173 134.736C137.183 134.697 137.205 134.663 137.236 134.637C137.266 134.612 137.304 134.597 137.344 134.593L139.263 134.47L137.634 133.434C137.601 133.414 137.575 133.383 137.561 133.346C137.547 133.31 137.545 133.27 137.556 133.232L138.028 131.362L136.54 132.6C136.508 132.623 136.47 132.635 136.43 132.635C136.391 132.635 136.353 132.623 136.321 132.6L134.695 131.568L135.406 133.367C135.42 133.403 135.422 133.443 135.413 133.482C135.404 133.52 135.383 133.554 135.354 133.58L133.866 134.818L135.785 134.691H135.815Z"
    fill="#263238" />
  <path
    d="M174.492 41.9762C174.466 41.9759 174.44 41.9701 174.416 41.9592C174.392 41.9482 174.371 41.9324 174.354 41.9126L173.004 40.4466L171.192 41.2843C171.157 41.3011 171.117 41.3061 171.079 41.2987C171.041 41.2913 171.006 41.2719 170.98 41.2432C170.953 41.214 170.935 41.1769 170.931 41.1372C170.926 41.0974 170.934 41.0573 170.954 41.0225L171.925 39.2797L170.574 37.8099C170.547 37.7816 170.53 37.7451 170.525 37.7059C170.52 37.6666 170.528 37.6269 170.548 37.5929C170.567 37.5585 170.597 37.5309 170.632 37.5141C170.667 37.4973 170.707 37.4922 170.746 37.4994L172.699 37.8734L173.669 36.1306C173.688 36.0957 173.717 36.0678 173.753 36.051C173.788 36.0341 173.828 36.0293 173.867 36.0371C173.905 36.0452 173.94 36.065 173.966 36.0938C173.993 36.1226 174.01 36.159 174.015 36.1979L174.25 38.1839L176.199 38.5579C176.238 38.5649 176.273 38.5844 176.3 38.6134C176.327 38.6424 176.344 38.6793 176.348 38.7187C176.353 38.758 176.346 38.7981 176.327 38.833C176.309 38.868 176.279 38.8961 176.244 38.9132L174.436 39.7509L174.67 41.7369C174.675 41.7756 174.667 41.8148 174.649 41.849C174.63 41.8832 174.601 41.9107 174.566 41.9276C174.545 41.9492 174.52 41.9658 174.492 41.9762ZM173.048 40.0314C173.1 40.0328 173.149 40.0542 173.186 40.0913L174.239 41.2394L174.056 39.6873C174.05 39.646 174.057 39.6036 174.077 39.567C174.098 39.5303 174.13 39.5016 174.168 39.4854L175.578 38.8309L174.056 38.5279C174.018 38.5198 173.983 38.5 173.957 38.4712C173.93 38.4424 173.913 38.4061 173.908 38.3671L173.725 36.8188L172.981 38.1801C172.963 38.2147 172.933 38.2422 172.898 38.2585C172.862 38.2747 172.822 38.2787 172.784 38.2699L171.263 37.9669L172.308 39.1114C172.335 39.1408 172.352 39.1779 172.356 39.2175C172.361 39.2571 172.353 39.2971 172.334 39.332L171.59 40.6934L173 40.0389C173.017 40.0341 173.034 40.0316 173.052 40.0314H173.048Z"
    fill="#263238" />
  <path
    d="M168.752 111.435C168.713 111.436 168.674 111.422 168.644 111.398C168.611 111.375 168.587 111.343 168.575 111.305C168.563 111.267 168.563 111.226 168.577 111.189L169.663 107.823L166.814 105.739C166.782 105.716 166.758 105.683 166.746 105.646C166.734 105.608 166.734 105.567 166.747 105.53C166.76 105.493 166.784 105.461 166.816 105.438C166.848 105.415 166.886 105.403 166.925 105.403H170.448L171.534 102.037C171.549 102.002 171.574 101.973 171.606 101.953C171.637 101.932 171.674 101.921 171.711 101.921C171.748 101.921 171.785 101.932 171.816 101.953C171.848 101.973 171.872 102.002 171.888 102.037L172.978 105.403H176.5C176.539 105.403 176.577 105.415 176.608 105.438C176.639 105.461 176.663 105.493 176.675 105.53C176.689 105.567 176.69 105.608 176.677 105.646C176.665 105.684 176.641 105.717 176.608 105.739L173.759 107.823L174.849 111.189C174.86 111.226 174.86 111.266 174.848 111.304C174.836 111.341 174.813 111.374 174.782 111.398C174.75 111.422 174.712 111.435 174.672 111.435C174.632 111.435 174.594 111.422 174.562 111.398L171.713 109.319L168.863 111.398C168.831 111.423 168.792 111.436 168.752 111.435ZM167.494 105.777L169.99 107.598C170.022 107.621 170.046 107.654 170.059 107.691C170.072 107.729 170.072 107.77 170.061 107.808L169.105 110.758L171.601 108.937C171.633 108.914 171.671 108.901 171.711 108.901C171.75 108.901 171.789 108.914 171.821 108.937L174.317 110.758L173.364 107.808C173.352 107.77 173.351 107.729 173.363 107.692C173.375 107.654 173.399 107.621 173.431 107.598L175.928 105.777H172.84C172.801 105.776 172.763 105.763 172.731 105.74C172.7 105.716 172.677 105.683 172.665 105.646L171.713 102.691L170.757 105.638C170.746 105.677 170.723 105.71 170.692 105.734C170.66 105.757 170.621 105.77 170.582 105.769L167.494 105.777Z"
    fill="#263238" />
  <path
    d="M15.8048 159.369H175.807C176.401 156.762 179.837 140.959 179.998 124.384C180.168 106.229 166.65 82.0253 152.107 73.7021C137.563 65.3789 114.816 44.2011 93.7626 44.5812C72.7087 44.9613 59.71 55.9421 55.9457 63.3033C52.1815 70.6644 46.8777 77.108 29.0776 87.3198C11.2775 97.5315 3.58248 108.878 1.18853 121.548C-1.10332 133.672 9.76215 154.455 15.8048 159.369Z"
    fill="#FFC100" />
  <path
    d="M169.144 53.7504C169.144 61.0131 163.089 72.4805 157.879 72.4805C153.544 72.4805 146.614 61.0131 146.614 53.7504C146.614 46.4876 151.66 40.6086 157.879 40.6086C164.098 40.6086 169.144 46.4876 169.144 53.7504Z"
    fill="#263238" stroke="#263238" stroke-linecap="round" stroke-linejoin="round" />
  <path d="M157.562 72.8283L157.673 75.4582L159.863 74.9116L157.879 72.4805" fill="#263238" />
  <path d="M157.562 72.8283L157.673 75.4582L159.863 74.9116L157.879 72.4805" stroke="#263238" stroke-linecap="round"
    stroke-linejoin="round" />
  <path
    d="M165.922 45.853C167.248 47.8522 167.21 50.2068 165.841 51.1166C164.473 52.0263 162.287 51.1433 160.964 49.1442C159.641 47.145 159.672 44.7904 161.044 43.8844C162.417 42.9785 164.595 43.8577 165.922 45.853Z"
    fill="white" />
  <path
    d="M159.84 43.1009C159.752 43.5443 159.125 43.7966 158.445 43.659C157.765 43.5214 157.298 43.0551 157.367 42.6078C157.436 42.1606 158.082 41.9121 158.762 42.0459C159.443 42.1797 159.928 42.6652 159.84 43.1009Z"
    fill="white" />
  <path
    d="M158.567 74.0325C158.181 75.5846 157.925 77.1662 157.803 78.7609C157.696 80.004 157.653 81.2518 157.673 82.4993C157.636 83.3092 157.716 84.1202 157.91 84.9074C158.292 86.1994 159.083 87.3577 159.794 88.4891C160.714 89.8645 161.522 91.3115 162.21 92.8162C162.555 93.6176 162.82 94.4511 163.001 95.3046C163.101 95.7721 163.169 96.2459 163.204 96.7228C163.204 96.8451 163.204 96.9712 163.204 97.105C163.204 97.2923 163.204 96.9139 163.204 96.9101C163.204 96.9062 163.204 97.0438 163.204 97.0782C163.185 97.3649 163.166 97.6478 163.131 97.9307C162.814 100.411 161.633 102.575 160.28 104.639C159.053 106.512 157.742 108.32 156.43 110.136C155.49 111.356 154.658 112.656 153.942 114.02C152.447 117.077 152.532 120.629 152.684 123.958C152.715 124.635 152.757 125.307 152.807 125.984C152.807 125.758 152.83 125.349 152.807 125.063C152.551 121.512 152.424 117.857 154.122 114.62C154.852 113.315 155.675 112.065 156.583 110.877C157.86 109.119 159.129 107.353 160.322 105.526C161.614 103.554 162.738 101.486 163.093 99.1195C163.341 97.4869 163.293 95.8231 162.952 94.2076C162.26 91.0961 160.31 88.6076 158.77 85.8936C158.425 85.3141 158.14 84.7005 157.921 84.0627C157.539 82.9159 157.642 81.7004 157.719 80.5307C157.822 78.6602 158.107 76.804 158.567 74.9881C158.648 74.6899 158.487 74.3306 158.567 74.0325Z"
    fill="#263238" />
  <path
    d="M142.945 25.0282C142.945 32.2909 136.89 43.7584 131.68 43.7584C127.345 43.7584 120.415 32.2909 120.415 25.0282C120.415 17.7655 125.457 11.8865 131.68 11.8865C137.903 11.8865 142.945 17.7693 142.945 25.0282Z"
    fill="#FFC100" stroke="#263238" stroke-linecap="round" stroke-linejoin="round" />
  <path d="M131.363 44.1176L131.47 46.7475L133.664 46.2009L131.68 43.7698" fill="#263238" />
  <path d="M131.363 44.1176L131.47 46.7475L133.664 46.2009L131.68 43.7698" stroke="#263238" stroke-linecap="round"
    stroke-linejoin="round" />
  <path
    d="M139.722 17.1424C141.045 19.1416 141.011 21.4963 139.642 22.406C138.274 23.3158 136.087 22.4328 134.761 20.4336C133.434 18.4344 133.473 16.0798 134.841 15.1739C136.21 14.2679 138.396 15.1433 139.722 17.1424Z"
    fill="white" />
  <path
    d="M133.641 14.3786C133.549 14.8258 132.926 15.0781 132.242 14.9405C131.558 14.8029 131.095 14.3366 131.168 13.8893C131.24 13.4421 131.879 13.1936 132.563 13.3274C133.247 13.4612 133.721 13.9429 133.641 14.3786Z"
    fill="white" />
  <path
    d="M132.36 46.2772C134.803 48.5463 136.982 51.0825 138.859 53.8381C139.929 55.4474 140.907 57.2019 140.984 59.1896C140.984 59.2775 140.984 59.3693 140.984 59.4572C140.984 59.5451 141.007 58.7462 140.984 59.1246C140.984 59.2737 140.984 59.4189 140.953 59.568C140.928 59.8002 140.886 60.0301 140.827 60.2561C140.707 60.6859 140.521 61.0946 140.277 61.4678C139.512 62.6451 138.53 63.6772 137.666 64.7704C135.864 67.0199 134.216 69.3889 132.735 71.8611C132.127 72.8584 131.658 73.9334 131.34 75.0567C131.139 75.9336 131.058 76.8338 131.099 77.7325C131.169 79.2764 131.709 80.762 132.647 81.9907C133.671 83.4662 134.891 84.8003 135.904 86.2872C137.16 88.1023 138.033 90.1548 138.469 92.3191C138.593 92.9853 138.681 93.6578 138.732 94.3335C138.706 94.0163 138.755 93.6952 138.732 93.3779C138.563 90.9842 137.862 88.6584 136.68 86.5701C135.732 84.9188 134.501 83.4777 133.343 81.9831C132.379 80.737 131.454 79.3876 131.183 77.8051C131.149 77.5949 131.129 77.3846 131.11 77.1744C131.068 76.6737 131.076 77.7516 131.11 77.4573C131.11 77.3235 131.11 77.1897 131.141 77.075C131.198 76.6075 131.295 76.1458 131.431 75.6951C131.812 74.5174 132.346 73.3953 133.022 72.3581C134.516 69.935 136.154 67.603 137.926 65.3744C138.748 64.35 139.703 63.3676 140.376 62.2323C140.839 61.3509 141.051 60.3591 140.988 59.3654C141.022 58.5981 140.974 57.8293 140.846 57.0719C140.616 56.1163 140.245 55.2003 139.745 54.3542C137.914 51.0362 135.235 48.1082 132.528 45.4822L132.353 45.314C132.398 45.356 132.353 45.7268 132.353 45.7918C132.353 45.8568 132.299 46.2122 132.353 46.2696L132.36 46.2772Z"
    fill="#263238" />
  <path
    d="M39.7758 14.1379C39.7758 21.4006 33.721 32.8681 28.511 32.8681C24.1763 32.8681 17.2461 21.4006 17.2461 14.1379C17.2461 6.87516 22.288 1 28.511 1C34.734 1 39.7758 6.87899 39.7758 14.1379Z"
    fill="#FFC100" stroke="#263238" stroke-linecap="round" stroke-linejoin="round" />
  <path d="M28.1899 33.2272L28.3007 35.8571L30.491 35.3105L28.511 32.8794" fill="#263238" />
  <path d="M28.1899 33.2272L28.3007 35.8571L30.491 35.3105L28.511 32.8794" stroke="#263238" stroke-linecap="round"
    stroke-linejoin="round" />
  <path
    d="M36.5497 6.25218C37.8761 8.25134 37.8378 10.606 36.4694 11.5157C35.1009 12.4255 32.9145 11.5425 31.5919 9.54334C30.2693 7.54418 30.3037 5.20482 31.6607 4.2836C33.0177 3.36238 35.2271 4.25684 36.5497 6.25218Z"
    fill="white" />
  <path
    d="M30.4681 3.49987C30.3801 3.94328 29.7533 4.19556 29.0729 4.05795C28.3924 3.92034 27.907 3.454 27.9949 3.00677C28.0828 2.55954 28.7097 2.31107 29.3939 2.44486C30.0782 2.57865 30.556 3.05264 30.4681 3.49987Z"
    fill="white" />
  <path
    d="M29.1914 35.4024C31.6339 37.6713 33.8136 40.2075 35.6896 42.9633C36.7637 44.5726 37.7423 46.3271 37.8187 48.3148C37.8187 48.4027 37.8187 48.4944 37.8187 48.5823C37.8187 48.6703 37.8417 47.8714 37.8187 48.2498C37.8187 48.3989 37.8187 48.5441 37.7882 48.6932C37.7665 48.9255 37.7256 49.1557 37.6658 49.3812C37.5445 49.8112 37.3575 50.22 37.1116 50.593C36.3471 51.7703 35.3685 52.8024 34.5046 53.8994C32.6993 56.145 31.0517 58.513 29.5736 60.9863C28.9647 61.9828 28.4953 63.058 28.1784 64.1819C27.9761 65.0586 27.8938 65.9588 27.9338 66.8577C27.9988 68.3995 28.5322 69.8849 29.4628 71.1159C30.491 72.5952 31.7104 73.9254 32.7195 75.4124C33.9755 77.2278 34.8483 79.2802 35.2844 81.4443C35.4125 82.1099 35.5005 82.7826 35.5482 83.4587C35.5253 83.1414 35.5749 82.8204 35.5482 82.5031C35.3814 80.1089 34.68 77.7826 33.4955 75.6952C32.5513 74.0478 31.3205 72.6029 30.1585 71.1083C29.199 69.8621 28.2702 68.5128 28.0026 66.9303C27.9644 66.72 27.9491 66.5098 27.93 66.2996C27.8879 65.7988 27.8917 66.8768 27.93 66.5824C27.93 66.4486 27.9491 66.3149 27.9644 66.2002C28.017 65.7307 28.1142 65.2674 28.2549 64.8164C28.6339 63.6389 29.1673 62.5168 29.8412 61.4794C31.3406 59.0639 32.9821 56.7396 34.7569 54.5187C35.5788 53.4942 36.5344 52.5157 37.2071 51.3766C37.6706 50.4954 37.881 49.5031 37.8149 48.5097C37.8502 47.7425 37.804 46.9737 37.6773 46.2162C37.4442 45.2617 37.0734 44.3461 36.5764 43.4984C34.7416 40.1805 32.0659 37.2563 29.3596 34.6264L29.1837 34.4583C29.2047 34.6168 29.2047 34.7775 29.1837 34.9361C29.1837 35.0163 29.1302 35.3604 29.1837 35.4139L29.1914 35.4024Z"
    fill="#263238" />
  <path
    d="M45.2763 94.5133C45.2763 94.5133 25.9269 103.022 25.8275 103.63C25.7281 104.238 16.3707 136.534 16.3707 136.534L32.6048 139.401L32.4251 159.369H77.7483L77.9127 116.057C77.9127 116.057 98.0572 110.759 99.3607 109.631C100.664 108.504 103.095 104.941 101.88 101.222C100.664 97.5025 96.4097 95.6639 95.6261 95.6639C94.8425 95.6639 78.5205 95.144 78.5205 95.144C78.5205 95.144 61.9462 92.3574 61.4263 92.3574C60.9065 92.3574 45.2763 94.5133 45.2763 94.5133Z"
    fill="white" stroke="#263238" stroke-miterlimit="10" />
  <path d="M86.2916 107.456C86.2916 107.456 87.6715 111.523 89.2349 112.712" stroke="#263238" stroke-miterlimit="10" />
  <path d="M84.1663 104.517C84.1663 104.517 82.6641 111.275 83.0387 113.526" stroke="#263238" stroke-miterlimit="10" />
  <path d="M33.4725 132.176L33.9121 109.96" stroke="#263238" stroke-miterlimit="10" />
  <path d="M33.721 122.1L29.5927 107.831" stroke="#263238" stroke-miterlimit="10" />
  <path
    d="M47.7074 104.498L55.6964 119.952L57.4318 120.212L65.8528 100.503L63.5096 99.6355L57.4318 115.698H55.3486L50.1385 104.41L47.7074 104.498Z"
    fill="#263238" stroke="#263238" stroke-miterlimit="10" />
  <path d="M55.6964 119.952L56.6482 139.573L59.603 143.655L61.7742 137.925L57.4319 120.212L55.6964 119.952Z"
    fill="#263238" stroke="#263238" stroke-miterlimit="10" />
  <path d="M55.6964 119.952L52.0459 151.469L55.0007 157.026L57.8638 151.556L57.4318 120.212L55.6964 119.952Z"
    fill="#263238" stroke="#263238" stroke-miterlimit="10" />
  <path
    d="M46.144 92.1663C46.144 92.1663 44.8405 92.1663 44.6685 93.034C44.4965 93.9017 42.3253 101.719 40.934 103.022C39.5426 104.326 39.9783 105.193 40.674 104.758C41.3697 104.322 43.625 102.151 44.2328 101.719C44.8405 101.287 45.6241 103.106 45.7082 104.062C45.7923 105.017 46.316 105.277 48.3152 105.277C50.3143 105.277 55.6085 107.449 55.6085 107.449C55.6085 107.449 61.0785 104.773 62.2061 103.802C63.3337 102.831 62.466 101.199 63.2496 100.763C64.0332 100.327 65.9254 102.326 67.5041 102.067C69.0827 101.807 67.936 101.111 67.3282 100.243C66.7204 99.3755 64.5493 94.5974 63.6816 92.7741C62.8139 90.9507 61.9462 90.0983 60.7306 89.9951C59.5151 89.8919 46.144 92.1663 46.144 92.1663Z"
    fill="white" stroke="#263238" stroke-miterlimit="10" />
  <path
    d="M45.4483 88.6075C45.4483 88.6075 45.972 98.4199 46.5951 100.155C47.2181 101.891 54.8402 108.056 55.6238 107.449C56.4074 106.841 61.8736 99.5475 62.0494 98.3319C62.2252 97.1164 61.7015 87.22 61.7015 87.22C61.7015 87.22 56.5794 89.8231 54.6682 90.1709C52.7569 90.5188 45.4483 88.6075 45.4483 88.6075Z"
    fill="white" stroke="#263238" stroke-miterlimit="10" />
  <path d="M55.9716 93.4966L46.0982 95.6792L45.6127 89.6091L55.9716 93.4966Z" fill="#263238" stroke="#263238"
    stroke-miterlimit="10" />
  <path
    d="M85.229 99.4443C85.229 99.4443 83.3521 103.515 84.1663 104.517C84.9805 105.518 86.2304 109.146 90.6645 109.272C95.0986 109.398 101.176 107.017 102.132 103.015C103.088 99.0124 103.065 97.5063 101.994 96.1799C100.924 94.8535 98.363 92.4262 96.6123 92.6747C94.8616 92.9231 85.229 99.4443 85.229 99.4443Z"
    fill="white" stroke="#263238" stroke-miterlimit="10" />
  <path
    d="M69.7097 67.2781C69.7097 67.2781 67.3932 64.1474 65.7649 63.2721C64.1365 62.3967 61.6366 60.8295 61.1779 60.9557C60.7192 61.0818 62.8865 76.3029 62.8865 76.3029C62.8865 76.3029 64.8284 78.7455 66.2044 79.4947C67.5805 80.2439 70.2104 81.4365 70.2104 81.4365C70.2104 81.4365 86.6051 103.339 87.4842 103.966C88.3634 104.593 94.2424 104.842 96.1804 103.531C98.1184 102.219 99.9379 98.3969 99.1849 96.2678C98.4318 94.1387 91.3641 90.0639 88.1723 88.1183C84.9805 86.1726 71.9611 74.9765 71.9611 74.9765C71.9611 74.9765 70.9596 70.0302 70.8335 69.5295C70.5116 68.7538 70.1361 68.0015 69.7097 67.2781Z"
    fill="white" stroke="#263238" stroke-miterlimit="10" />
  <path
    d="M42.2374 76.624C42.2374 76.624 40.762 75.7563 39.8942 76.5399C39.0265 77.3235 39.7184 80.7064 40.3262 82.3577C40.934 84.0091 43.0019 83.4854 43.0019 83.4854C43.0019 83.4854 44.5653 89.3032 45.0011 89.5631C45.4369 89.8231 50.9909 93.4697 52.0345 93.9055C53.078 94.3412 56.373 93.6417 57.0687 93.0339C57.7644 92.4262 62.726 88.1717 63.005 86.6236C63.1856 84.9799 63.2724 83.3272 63.2649 81.6735C63.2649 81.6735 65.8681 80.458 66.128 78.9978C66.3879 77.5376 66.6517 74.2197 65.696 73.264C65.44 72.9986 65.0967 72.8345 64.7293 72.8022C64.362 72.7699 63.9953 72.8715 63.6969 73.0882L62.5692 68.5012L41.9813 74.4567L42.2374 76.624Z"
    fill="white" stroke="#263238" stroke-miterlimit="10" />
  <path
    d="M41.9813 74.4568C41.9813 74.4568 41.9813 80.2708 42.3292 80.4466C42.677 80.6224 43.7167 80.4466 43.8046 79.8388C43.8926 79.231 43.5447 74.021 43.5447 74.021L41.9813 74.4568Z"
    fill="#263238" stroke="#263238" stroke-miterlimit="10" />
  <path
    d="M61.0938 68.6579C61.0938 68.6579 60.1382 71.8687 60.5739 72.3045C61.2967 72.8923 62.0495 73.4422 62.8292 73.952C62.8292 73.952 62.5693 77.9465 63.265 78.2064C63.9606 78.4664 64.3926 78.1223 64.3926 77.1667C64.3926 76.2111 63.6969 73.0843 63.6969 73.0843L62.5693 68.4973L61.0938 68.6579Z"
    fill="#263238" stroke="#263238" stroke-miterlimit="10" />
  <path
    d="M56.9961 78.5354C57.2832 78.5354 57.5159 78.0887 57.5159 77.5377C57.5159 76.9867 57.2832 76.54 56.9961 76.54C56.709 76.54 56.4762 76.9867 56.4762 77.5377C56.4762 78.0887 56.709 78.5354 56.9961 78.5354Z"
    fill="#263238" />
  <path
    d="M48.923 79.2732C49.2101 79.2732 49.4428 78.8265 49.4428 78.2755C49.4428 77.7245 49.2101 77.2778 48.923 77.2778C48.6359 77.2778 48.4031 77.7245 48.4031 78.2755C48.4031 78.8265 48.6359 79.2732 48.923 79.2732Z"
    fill="#263238" />
  <path
    d="M50.7463 82.358C50.7463 82.358 52.5696 83.5735 53.0895 83.5735C53.6093 83.5735 55.0007 82.702 55.4326 82.1821"
    stroke="#263238" stroke-miterlimit="10" />
  <path
    d="M60.4707 83.2253C60.4707 83.2253 57.4318 85.9011 53.9725 86.5241C50.5131 87.1472 46.4193 84.2651 46.4193 84.2651"
    stroke="#263238" stroke-miterlimit="10" />
  <path
    d="M46.0026 77.4076C46.0026 77.4076 48.621 75.3014 50.3985 75.9321L50.3067 74.6707C49.4239 74.4517 48.4955 74.5054 47.6439 74.8248C46.7922 75.1442 46.0574 75.7141 45.5363 76.4596L46.0026 77.4076Z"
    fill="#263238" />
  <path
    d="M58.8729 75.2366C58.8729 75.2366 56.2545 73.1304 54.4809 73.7611L54.5726 72.4997C55.4554 72.2813 56.3837 72.3353 57.2352 72.6546C58.0867 72.9739 58.8216 73.5436 59.3431 74.2886L58.8729 75.2366Z"
    fill="#263238" />
  <path
    d="M41.4309 66.4409C41.4309 66.4409 44.1066 62.2744 48.621 60.7798C53.1354 59.2852 57.0305 60.4587 57.6421 61.1621L58.269 61.8807L41.4309 66.4409Z"
    fill="#263238" stroke="#263238" stroke-miterlimit="10" />
  <path
    d="M58.1963 57.267C58.1379 57.7004 58.1964 58.1416 58.3658 58.5448C58.5352 58.9481 58.8092 59.2987 59.1596 59.5605C59.4397 59.8105 59.6145 60.1575 59.6488 60.5314L54.8287 62.1598L54.0642 61.2806C54.0642 61.2806 54.9625 59.1591 54.5879 58.7616C54.2133 58.364 51.786 57.2937 51.786 57.2937C51.786 57.2937 50.1691 59.9924 50.6125 60.5467C51.0559 61.1009 52.5734 61.6934 52.5734 61.6934L52.539 62.9166L49.8059 63.834L46.9849 64.5985L46.1631 63.6582C46.1631 63.6582 47.0614 61.5367 46.6906 61.1392C46.3198 60.7416 43.8849 59.6713 43.8849 59.6713C43.8849 59.6713 42.268 62.37 42.7152 62.9243C43.1625 63.4785 44.6723 64.071 44.6723 64.071L44.6418 65.2178L39.7719 66.5136C39.5972 66.1812 39.551 65.7961 39.642 65.4318C39.7912 65.0212 39.8277 64.578 39.7477 64.1485C39.6677 63.719 39.4741 63.3187 39.1871 62.9893C38.3614 61.9763 36.733 62.3853 36.733 62.3853L40.7696 75.5385L63.7695 68.6083L59.9088 55.4131C59.9088 55.4131 58.3263 55.9712 58.1963 57.267Z"
    fill="#FFC100" stroke="#263238" stroke-linecap="round" stroke-linejoin="round" />
  <path
    d="M30.9688 133.365C30.9688 133.365 22.2688 130.361 20.9538 130.307C19.6389 130.254 13.8211 134.627 12.5711 136.565C11.3212 138.503 11.3785 144.764 12.1889 145.891C12.9992 147.019 19.7001 149.144 20.8889 148.831C22.0777 148.517 31.5268 136.064 31.5268 136.064C31.5268 136.064 31.7829 134.367 30.9688 133.365Z"
    fill="white" stroke="#263238" stroke-miterlimit="10" />
  <path
    d="M35.9762 131.729C35.9762 131.729 24.7113 133.854 21.6457 134.73C18.58 135.605 15.8852 137.922 15.3233 139.924C14.7614 141.927 15.0098 147.952 18.8285 149.565C22.6472 151.178 26.6493 148.8 28.0292 147.562C29.4092 146.323 38.1053 139.049 38.1053 139.049C38.1053 139.049 38.9233 133.258 38.1588 132.429C37.3943 131.599 35.9762 131.729 35.9762 131.729Z"
    fill="white" stroke="#263238" stroke-miterlimit="10" />
  <path
    d="M46.1861 125.166C46.772 124.918 47.3032 124.557 47.7495 124.103C48.3764 123.415 49.3129 123.667 49.1256 125.231C48.9383 126.794 46.748 128.358 46.748 128.358L46.1861 125.166Z"
    fill="white" stroke="#263238" stroke-miterlimit="10" />
  <path
    d="M42.5853 136.274C41.3785 136.274 40.2209 135.796 39.3661 134.944C38.5113 134.092 38.0291 132.936 38.0251 131.729L38.7093 117.792H46.4575L47.1417 131.729C47.1387 132.935 46.6573 134.091 45.8031 134.943C44.9489 135.795 43.7917 136.274 42.5853 136.274Z"
    fill="white" stroke="#263238" stroke-miterlimit="10" />
  <path
    d="M38.5984 120.04L38.0251 131.729C38.0594 132.915 38.5547 134.041 39.4058 134.868C40.2569 135.695 41.3968 136.157 42.5834 136.157C43.77 136.157 44.9098 135.695 45.7609 134.868C46.612 134.041 47.1073 132.915 47.1417 131.729L46.5683 120.04H38.5984Z"
    fill="#FFC100" stroke="#263238" stroke-linecap="round" stroke-linejoin="round" />
  <path
    d="M43.1051 144.186V135.494H42.0616V144.186L36.7751 146.086V146.491H42.5738H42.5929H48.3916V146.086L43.1051 144.186Z"
    fill="white" stroke="#263238" stroke-miterlimit="10" />
  <path
    d="M35.2232 133.117C35.2232 133.117 35.6055 129.677 36.0374 128.235C36.4693 126.794 41.0448 126.481 41.9202 126.481C42.0831 126.466 42.2475 126.485 42.4022 126.539C42.5569 126.592 42.6984 126.678 42.8172 126.79C42.936 126.903 43.0293 127.04 43.0908 127.191C43.1523 127.343 43.1807 127.506 43.174 127.67C43.109 128.17 42.6732 128.109 41.6717 128.549C40.6702 128.988 38.5411 129.925 38.5411 129.925L38.3538 130.487L39.5197 130.013C41.9661 129.409 46.2931 128.358 46.7404 128.358C47.3672 128.358 47.6807 129.237 47.7419 129.55C47.803 129.864 47.3596 130.361 47.3596 130.361C47.3596 130.361 48.5484 130.426 48.6096 131.301C48.6336 131.846 48.4553 132.381 48.1088 132.803C48.1088 132.803 48.7969 133.679 48.4223 134.367C48.0476 135.055 43.1281 138.185 42.1075 138.61C41.0869 139.034 38.9234 140.001 37.7766 140.062C36.6299 140.123 35.896 138.812 35.5863 138.312"
    fill="white" />
  <path
    d="M35.2232 133.117C35.2232 133.117 35.6055 129.677 36.0374 128.235C36.4693 126.794 41.0448 126.481 41.9202 126.481C42.0831 126.466 42.2475 126.485 42.4022 126.539C42.5569 126.592 42.6984 126.678 42.8172 126.79C42.936 126.903 43.0293 127.04 43.0908 127.191C43.1523 127.343 43.1807 127.506 43.174 127.67C43.109 128.17 42.6732 128.109 41.6717 128.549C40.6702 128.988 38.5411 129.925 38.5411 129.925L38.3538 130.487L39.5197 130.013C41.9661 129.409 46.2931 128.358 46.7404 128.358C47.3672 128.358 47.6807 129.237 47.7419 129.55C47.803 129.864 47.3596 130.361 47.3596 130.361C47.3596 130.361 48.5484 130.426 48.6096 131.301C48.6336 131.846 48.4553 132.381 48.1088 132.803C48.1088 132.803 48.7969 133.679 48.4223 134.367C48.0476 135.055 43.1281 138.185 42.1075 138.61C41.0869 139.034 38.9234 140.001 37.7766 140.062C36.6299 140.123 35.896 138.812 35.5863 138.312"
    stroke="#263238" stroke-miterlimit="10" />
  <path d="M47.3672 130.361L38.2277 133.365" stroke="#263238" stroke-miterlimit="10" />
  <path d="M48.1165 132.803L39.0419 136.87" stroke="#263238" stroke-miterlimit="10" />
  <path
    d="M37.6657 130.926C37.6657 130.926 37.165 131.802 37.2835 132.49C37.3805 132.978 37.5082 133.459 37.6657 133.931C37.6657 133.931 37.2835 135.433 37.5396 135.934C37.7503 136.294 38.0264 136.612 38.3538 136.87C38.4541 137.171 38.6264 137.442 38.8556 137.66C39.0848 137.879 39.3639 138.038 39.6687 138.124"
    stroke="#263238" stroke-miterlimit="10" />
  <path d="M36.0374 128.235C35.9474 129.109 36.1461 129.989 36.6031 130.739" stroke="#263238" stroke-miterlimit="10" />
  <path
    d="M74.2775 78.5429C74.2775 78.5429 73.0237 70.2825 72.523 69.281C72.0223 68.2795 67.4544 65.6496 65.7037 64.6481C63.953 63.6466 64.0141 65.5885 64.641 66.7123C65.2679 67.8361 69.2701 69.7703 69.2701 69.7703C69.2701 69.7703 68.0201 75.4658 68.7082 77.1553C69.3962 78.8448 71.4603 79.7202 71.7126 79.7202"
    fill="white" />
  <path
    d="M74.2775 78.5429C74.2775 78.5429 73.0237 70.2825 72.523 69.281C72.0223 68.2795 67.4544 65.6496 65.7037 64.6481C63.953 63.6466 64.0141 65.5885 64.641 66.7123C65.2679 67.8361 69.2701 69.7703 69.2701 69.7703C69.2701 69.7703 68.0201 75.4658 68.7082 77.1553C69.3962 78.8448 71.4603 79.7202 71.7126 79.7202"
    stroke="#263238" stroke-miterlimit="10" />
  <path d="M108.89 159.369L110.259 147.948L99.1504 146.461L98.4165 159.369H108.89Z" fill="white" stroke="#263238"
    stroke-miterlimit="10" />
  <path
    d="M98.0916 104.666L98.9631 132.111L98.4395 144.458L109.039 145.761L110.255 134.294C110.255 134.294 101.742 105.969 101.394 105.449C101.046 104.93 98.0916 104.666 98.0916 104.666Z"
    fill="white" stroke="#263238" stroke-miterlimit="10" />
  <path
    d="M97.5335 140.184C97.5335 140.184 97.5335 147.791 97.8202 147.791C98.1069 147.791 109.227 149.121 109.227 149.121V141.706L97.5335 140.184Z"
    fill="white" stroke="#263238" stroke-miterlimit="10" />
  <path
    d="M107.128 136.985C107.292 137.398 108.695 157.156 108.852 159.369H149.588L146.572 136.465C146.572 136.465 145.357 110.472 144.141 106.229C142.926 101.986 138.579 96.8487 135.349 95.9772C132.119 95.1057 121.103 92.9192 121.103 92.9192L107.461 96.1339C107.461 96.1339 98.6 103.519 98.0763 104.647C97.5527 105.774 98.8408 113.859 100.599 119.069C102.358 124.279 106.964 136.553 107.128 136.985Z"
    fill="white" stroke="#263238" stroke-miterlimit="10" />
  <path
    d="M107.678 102.69L111.375 109.62L110.45 151.373L113.531 156.61L117.846 150.295L113.531 109.157L116.306 103.152L109.529 97.2961L107.678 102.69Z"
    fill="#263238" stroke="#263238" stroke-miterlimit="10" />
  <path d="M104.957 101.367L105.217 107.273L108.691 103.626L104.957 101.367Z" fill="white" stroke="#263238"
    stroke-miterlimit="10" />
  <path d="M111.822 106.057L104.957 101.367L107.476 96.1531L111.822 106.057Z" fill="white" stroke="#263238"
    stroke-miterlimit="10" />
  <path
    d="M97.5718 70.3475C97.5718 70.3475 94.617 77.5606 95.1407 78.3403C95.5912 79.1459 95.9686 79.9902 96.2683 80.8632C96.2683 80.8632 93.3135 84.8577 93.7493 85.5534C94.185 86.2491 96.8073 87.2047 96.8073 87.2047C96.8073 87.2047 99.3263 97.0208 100.63 97.3687C101.933 97.7165 104.188 96.3252 104.188 96.3252L111.833 106.057L114.265 99.1079L118.595 90.0639L117.38 87.5449L117.12 84.678C117.12 84.678 119.899 81.8112 120.075 77.6408C120.251 73.4705 117.223 66.4409 116.787 65.8332C116.352 65.2254 107.996 63.9984 104.697 63.2186C101.398 62.4388 100.351 62.7828 100.179 63.6505C100.007 64.5182 99.3951 61.1315 98.0916 62.0871C96.7882 63.0428 96.4441 64.954 96.792 65.4777C97.1398 66.0014 93.5773 64.3309 93.5773 65.8255C93.5773 67.3201 95.3127 70.0876 97.5718 70.3475Z"
    fill="white" stroke="#263238" stroke-miterlimit="10" />
  <path
    d="M112.254 91.0273C113.21 89.204 111.906 79.0362 112.342 78.2564C112.778 77.4766 114.861 76.3452 116.336 77.7327C117.812 79.1203 117.483 81.819 116.512 83.1224C115.997 83.8414 115.415 84.5095 114.773 85.1178L117.219 84.575C117.709 84.0284 119.918 81.3565 120.075 77.6486C120.247 73.4783 117.223 66.4488 116.787 65.841C116.352 65.2332 107.996 64.0062 104.697 63.2264C101.398 62.4466 100.351 62.7906 100.179 63.6583C100.007 64.526 99.3951 61.1393 98.0916 62.0949C96.7882 63.0506 96.4441 64.9618 96.792 65.4855C97.1398 66.0092 93.5773 64.3387 93.5773 65.8333C93.5773 67.3279 95.3127 70.0878 97.5718 70.3477C97.5718 70.3477 105.217 69.8278 105.477 70.8714C105.737 71.9149 103.481 74.174 104.089 75.0417C104.697 75.9094 109.299 78.3405 109.299 78.3405L109.563 85.4771C109.563 85.4771 109.475 86.0849 108.259 85.6529C107.044 85.221 103.741 82.6867 101.918 83.5659C100.095 84.445 96.792 87.2163 96.792 87.2163C96.792 87.2163 99.311 97.0325 100.614 97.3803C101.918 97.7282 104.173 96.3368 104.173 96.3368C104.173 96.3368 111.298 92.8507 112.254 91.0273Z"
    fill="#263238" stroke="#263238" stroke-miterlimit="10" />
  <path
    d="M99.0931 81.643C99.3085 81.643 99.483 81.1964 99.483 80.6454C99.483 80.0944 99.3085 79.6477 99.0931 79.6477C98.8778 79.6477 98.7032 80.0944 98.7032 80.6454C98.7032 81.1964 98.8778 81.643 99.0931 81.643Z"
    fill="#263238" />
  <path d="M97.136 78.7762C97.136 78.7762 98.0916 76.6051 100.267 77.7327" stroke="#263238" stroke-miterlimit="10" />
  <path
    d="M99.3186 88.2483L101.926 85.5535C101.926 85.5535 103.053 89.116 102.01 90.0716C100.966 91.0273 99.3186 88.2483 99.3186 88.2483Z"
    fill="white" stroke="#263238" stroke-miterlimit="10" />
  <path d="M111.906 101.975L111.822 106.057L114.773 102.407L111.906 101.975Z" fill="white" stroke="#263238"
    stroke-miterlimit="10" />
  <path d="M118.248 89.0281L111.906 101.975L117.904 107.013L122.506 92.4148L118.248 89.0281Z" fill="white"
    stroke="#263238" stroke-miterlimit="10" />
  <path
    d="M115.304 137.727C114.098 137.817 112.906 137.425 111.989 136.637C111.072 135.848 110.506 134.728 110.415 133.522L110.033 119.574L117.758 118.985L119.498 132.83C119.59 134.035 119.201 135.228 118.415 136.146C117.628 137.064 116.51 137.633 115.304 137.727Z"
    fill="white" stroke="#263238" stroke-miterlimit="10" />
  <path
    d="M110.102 121.836L110.404 133.526C110.496 134.731 111.062 135.851 111.98 136.638C112.897 137.425 114.089 137.816 115.295 137.725C116.5 137.633 117.62 137.066 118.407 136.149C119.195 135.232 119.585 134.039 119.494 132.834L118.049 121.232L110.102 121.836Z"
    fill="#FFC100" stroke="#263238" stroke-linecap="round" stroke-linejoin="round" />
  <path
    d="M116.424 145.574L115.767 136.905L114.727 136.985L115.385 145.654L110.259 147.948L110.289 148.353L116.069 147.914L116.092 147.91L121.871 147.47L121.841 147.069L116.424 145.574Z"
    fill="white" stroke="#263238" stroke-miterlimit="10" />
  <path
    d="M140.926 129.6L129.283 136.637C129.283 136.637 125.373 133.961 123.377 131.251C121.382 128.541 118.336 126.909 117.728 127.081C117.12 127.253 110.343 128.992 109.995 129.864C109.647 130.735 108.955 132.207 109.911 132.731C110.866 133.254 112.342 130.991 112.342 130.991C112.342 130.991 115.992 130.472 116.336 130.384C116.68 130.296 113.038 131.947 112.69 132.643C112.342 133.338 109.039 136.377 109.299 137.509C109.559 138.64 110.343 138.376 110.343 138.376C110.343 138.376 110.691 140.116 111.906 139.768C113.122 139.42 115.037 137.509 115.381 137.249C115.725 136.989 119.379 136.985 119.815 136.901C120.251 136.817 116.336 138.117 115.904 138.636C115.472 139.156 113.905 141.243 114.165 141.694C114.425 142.145 116.164 141.434 116.684 141.087C117.204 140.739 119.119 139.867 119.119 139.867L122.682 140.391C122.682 140.391 125.633 142.562 127.112 142.65C128.126 142.684 129.141 142.655 130.151 142.562C130.499 142.562 139.535 139.867 140.403 139.504C141.27 139.141 148.812 136.637 148.812 136.637L140.926 129.6Z"
    fill="white" stroke="#263238" stroke-miterlimit="10" />
  <path
    d="M119.196 132.903C119.196 132.903 115.109 133.422 114.414 134.118C113.718 134.814 110.331 138.376 110.331 138.376"
    stroke="#263238" stroke-miterlimit="10" />
  <path d="M116.336 130.383L117.904 129.688" stroke="#263238" stroke-miterlimit="10" />
  <path
    d="M128.155 113.878C128.155 113.878 130.415 118.656 132.846 120.567C135.277 122.479 143.01 127.066 143.01 127.066L154.305 132.975C154.305 132.975 161.514 125.85 161.95 124.722C162.386 123.595 160.211 121.592 158.995 120.552C157.78 119.512 145.953 104.494 142.13 101.715C138.308 98.9359 136.569 97.1087 133.53 97.1966"
    fill="white" />
  <path
    d="M128.155 113.878C128.155 113.878 130.415 118.656 132.846 120.567C135.277 122.479 143.01 127.066 143.01 127.066L154.305 132.975C154.305 132.975 161.514 125.85 161.95 124.722C162.386 123.595 160.211 121.592 158.995 120.552C157.78 119.512 145.953 104.494 142.13 101.715C138.308 98.9359 136.569 97.1087 133.53 97.1966"
    stroke="#263238" stroke-miterlimit="10" />
  <path d="M145.953 123.434C145.953 123.434 152.035 120.999 152.295 120.915" stroke="#263238" stroke-miterlimit="10" />
  <path d="M151.35 116.397C151.35 116.397 145.269 122.651 145.009 123.258" stroke="#263238" stroke-miterlimit="10" />
  <path d="M147.964 111.007L144.141 124.39" stroke="#263238" stroke-miterlimit="10" />
  <path
    d="M144.141 124.39C144.141 124.39 138.927 128.82 139.795 130.035C140.663 131.251 148.587 138.548 149.003 138.464C149.42 138.38 155.349 133.858 155.433 132.99C155.517 132.123 146.484 123.782 145.964 123.434C145.445 123.086 144.141 124.39 144.141 124.39Z"
    fill="white" stroke="#263238" stroke-miterlimit="10" />
  <path
    d="M88.157 133.369C87.0102 130.185 81.8881 122.547 80.6802 120.258C79.4723 117.968 76.2996 108.58 76.2996 108.58L75.302 108.832V108.79L74.5566 109.023L73.7921 109.214V109.26L72.8097 109.57C72.8097 109.57 75.0573 119.222 75.2331 121.802C75.409 124.382 75.0726 133.575 75.7759 136.885C76.3379 139.538 79.5678 150.478 80.8216 154.694C81.0515 155.473 81.5796 156.13 82.2912 156.522C83.0027 156.913 83.8401 157.008 84.6212 156.785L87.1134 156.074L88.6119 155.65L91.1041 154.939C91.8851 154.717 92.5471 154.196 92.9464 153.489C93.3457 152.782 93.4501 151.946 93.2371 151.162C92.0903 146.919 89.0744 135.934 88.157 133.369Z"
    fill="#263238" stroke="#263238" stroke-miterlimit="10" />
  <path
    d="M76.185 108.614L72.9359 109.535C72.8342 109.565 72.7278 109.573 72.6228 109.561C72.5177 109.549 72.4161 109.516 72.3237 109.465C72.2314 109.413 72.1501 109.344 72.0846 109.261C72.0191 109.178 71.9706 109.083 71.942 108.981C71.9129 108.879 71.9041 108.773 71.9162 108.668C71.9284 108.563 71.9611 108.461 72.0126 108.369C72.0641 108.277 72.1333 108.195 72.2163 108.13C72.2994 108.064 72.3945 108.016 72.4963 107.987L75.7416 107.062C75.9473 107.004 76.1676 107.03 76.3545 107.134C76.5414 107.238 76.6796 107.411 76.7392 107.617C76.7961 107.822 76.7698 108.042 76.6662 108.229C76.5625 108.415 76.3897 108.554 76.185 108.614Z"
    fill="#263238" stroke="#263238" stroke-miterlimit="10" />
  <path d="M75.7025 105.794L71.8641 106.886L72.158 107.919L75.9964 106.827L75.7025 105.794Z" fill="#FFC100"
    stroke="#263238" stroke-linecap="round" stroke-linejoin="round" />
  <path d="M90.2553 140.664L77.8652 144.188L80.8523 154.689L93.2425 151.164L90.2553 140.664Z" fill="white"
    stroke="#263238" stroke-miterlimit="10" />
  <path
    d="M82.5914 123.465C81.7467 122.096 81.0395 120.938 80.6802 120.258C79.4685 117.964 76.2996 108.58 76.2996 108.58L75.302 108.832V108.79L74.5566 109.023L73.7921 109.214V109.26L72.8097 109.57C72.8097 109.57 75.0573 119.222 75.2331 121.802C75.2867 122.566 75.2943 123.923 75.2981 125.533L82.5914 123.465Z"
    fill="#FFC100" stroke="#263238" stroke-linecap="round" stroke-linejoin="round" />
  <path d="M93.4626 159.369H76.3952L72.737 132.149H97.1207L93.4626 159.369Z" fill="#A6A6A6" stroke="#263238"
    stroke-miterlimit="10" />
  <path d="M74.3119 133.537L77.7178 159.105H79.0021L75.5963 134.255L74.3119 133.537Z" fill="#263238" />
  <path d="M75.4357 133.537L78.8416 159.105H80.1221L76.7163 134.255L75.4357 133.537Z" fill="white" />
  <path d="M72.737 132.149L84.9308 145.761L97.1207 132.149H72.737Z" fill="white" stroke="#263238"
    stroke-miterlimit="10" />
  <path
    d="M99.7009 137.684C99.7016 138.006 99.6068 138.322 99.4283 138.59C99.2498 138.858 98.9958 139.067 98.6983 139.191C98.4008 139.315 98.0733 139.348 97.7572 139.286C97.441 139.223 97.1505 139.068 96.9224 138.841C96.6943 138.613 96.5388 138.323 96.4757 138.007C96.4126 137.691 96.4446 137.363 96.5677 137.066C96.6908 136.768 96.8996 136.513 97.1674 136.334C97.4353 136.155 97.7503 136.06 98.0725 136.06C98.2862 136.059 98.4978 136.101 98.6954 136.182C98.8929 136.264 99.0725 136.383 99.2237 136.534C99.375 136.685 99.495 136.864 99.5769 137.062C99.6587 137.259 99.7009 137.47 99.7009 137.684Z"
    fill="#A6A6A6" stroke="#263238" stroke-miterlimit="10" />
  <path
    d="M73.3257 137.684C73.3265 138.006 73.2316 138.322 73.0532 138.59C72.8747 138.858 72.6206 139.067 72.3232 139.191C72.0257 139.315 71.6981 139.348 71.382 139.286C71.0659 139.223 70.7754 139.068 70.5473 138.841C70.3192 138.613 70.1637 138.323 70.1005 138.007C70.0374 137.691 70.0694 137.363 70.1926 137.066C70.3157 136.768 70.5244 136.513 70.7923 136.334C71.0601 136.155 71.3751 136.06 71.6973 136.06C71.911 136.059 72.1227 136.101 72.3202 136.182C72.5178 136.264 72.6973 136.383 72.8486 136.534C72.9998 136.685 73.1198 136.864 73.2017 137.062C73.2836 137.259 73.3257 137.47 73.3257 137.684Z"
    fill="#A6A6A6" stroke="#263238" stroke-miterlimit="10" />
</svg>