<svg width="150" height="150" viewBox="0 0 150 150" fill="none" xmlns="http://www.w3.org/2000/svg">
  <path
    d="M146.676 70.4729C144.879 62.6394 140.986 55.4418 135.414 49.6499C130.236 44.2499 122.562 37.9679 113.136 35.2499C95.103 30.0329 98.436 38.5739 82.056 17.2199C65.676 -4.13408 23.928 10.7999 19.896 32.6309C15.864 54.4619 26.538 61.1009 17.523 72.9629C8.50799 84.8249 -5.96701 122.547 18.723 138.918C43.413 155.289 85.359 126.249 95.571 132C105.783 137.751 124.047 139.401 136.149 123.507C146.235 110.247 151.2 90.2339 146.676 70.4729Z"
    fill="#FFC100" />
  <path
    d="M114.9 57.393C114.9 57.393 113.895 56.742 113.718 54.792C113.541 52.842 115.848 51.423 117.858 51.837C119.868 52.251 121.995 53.49 121.404 56.271C120.813 59.052 117.675 59.208 116.703 58.773C116.022 58.4281 115.411 57.9602 114.9 57.393Z"
    fill="#263238" stroke="#263238" stroke-linecap="round" stroke-linejoin="round" />
  <path d="M115.86 53.5502C115.86 53.5502 117.102 52.4282 117.93 52.7222" stroke="#263238" stroke-linecap="round"
    stroke-linejoin="round" />
  <path
    d="M119.655 53.4C119.671 53.5144 119.651 53.631 119.599 53.734C119.547 53.8371 119.465 53.9217 119.363 53.9767C119.262 54.0317 119.146 54.0543 119.031 54.0416C118.916 54.0288 118.808 53.9813 118.721 53.9054C118.634 53.8295 118.572 53.7289 118.544 53.6169C118.515 53.5049 118.522 53.387 118.563 53.2788C118.603 53.1707 118.676 53.0775 118.771 53.0118C118.866 52.9461 118.979 52.9109 119.094 52.911C119.233 52.902 119.37 52.9483 119.475 53.0399C119.58 53.1315 119.645 53.261 119.655 53.4Z"
    fill="white" stroke="#263238" stroke-linecap="round" stroke-linejoin="round" />
  <path
    d="M115.251 53.619C115.251 53.796 115.056 53.937 114.813 53.937C114.57 53.937 114.372 53.796 114.372 53.619C114.372 53.442 114.57 53.301 114.813 53.301C115.056 53.301 115.251 53.445 115.251 53.619Z"
    fill="white" stroke="#263238" stroke-linecap="round" stroke-linejoin="round" />
  <path
    d="M119.13 52.0351C119.13 52.0351 118.125 51.3841 117.948 49.4341C117.771 47.4841 120.075 46.0621 122.085 46.4761C124.095 46.8901 126.225 48.1321 125.634 50.9101C125.043 53.6881 121.902 53.8471 120.93 53.4151C120.25 53.0695 119.64 52.6017 119.13 52.0351Z"
    fill="#263238" stroke="#263238" stroke-linecap="round" stroke-linejoin="round" />
  <path d="M120.075 48.1921C120.075 48.1921 121.317 47.0671 122.145 47.3641" stroke="#263238" stroke-linecap="round"
    stroke-linejoin="round" />
  <path
    d="M123.309 48.528C123.62 48.528 123.873 48.3091 123.873 48.039C123.873 47.769 123.62 47.55 123.309 47.55C122.998 47.55 122.745 47.769 122.745 48.039C122.745 48.3091 122.998 48.528 123.309 48.528Z"
    fill="white" stroke="#263238" stroke-linecap="round" stroke-linejoin="round" />
  <path
    d="M119.469 48.2611C119.469 48.4351 119.271 48.5791 119.028 48.5791C118.785 48.5791 118.587 48.4351 118.587 48.2611C118.587 48.0871 118.785 47.9431 119.028 47.9431C119.271 47.9431 119.469 48.0841 119.469 48.2611Z"
    fill="white" stroke="#263238" stroke-linecap="round" stroke-linejoin="round" />
  <path
    d="M126.708 43.0801C126.571 43.0808 126.438 43.0377 126.327 42.9571C126.256 42.9072 126.196 42.8438 126.15 42.7706C126.104 42.6974 126.073 42.6158 126.058 42.5305C126.044 42.4452 126.046 42.3579 126.066 42.2736C126.085 42.1892 126.121 42.1096 126.171 42.0391L129 38.0701C129.105 37.9365 129.257 37.8484 129.425 37.8242C129.593 37.7999 129.764 37.8413 129.902 37.9398C130.041 38.0383 130.136 38.1863 130.168 38.3531C130.2 38.5198 130.166 38.6924 130.074 38.8351L127.257 42.8011C127.195 42.8889 127.113 42.9603 127.017 43.0089C126.922 43.0576 126.815 43.082 126.708 43.0801Z"
    fill="white" stroke="#263238" stroke-linecap="round" stroke-linejoin="round" />
  <path d="M127.713 40.8211L106.287 38.0161L139.401 55.8481L127.713 40.8211Z" fill="#FFC100" stroke="#263238"
    stroke-linecap="round" stroke-linejoin="round" />
  <path d="M127.011 41.2832L116.922 41.2322" stroke="#263238" stroke-linecap="round" stroke-linejoin="round" />
  <path d="M126.501 42.3181L124.953 43.7551" stroke="#263238" stroke-linecap="round" stroke-linejoin="round" />
  <path d="M127.989 42.0571L129.999 45.4531" stroke="#263238" stroke-linecap="round" stroke-linejoin="round" />
  <path d="M130.41 46.5872L132.573 50.7572" stroke="#263238" stroke-linecap="round" stroke-linejoin="round" />
  <path d="M117.951 44.1662L120.885 43.1882" stroke="#263238" stroke-linecap="round" stroke-linejoin="round" />
  <path d="M107.862 38.8142L114.657 39.5852" stroke="#263238" stroke-linecap="round" stroke-linejoin="round" />
  <path d="M136.692 54.411L133.911 50.448" stroke="#263238" stroke-linecap="round" stroke-linejoin="round" />
  <path
    d="M100.2 56.5952L107.277 78.6392L125.967 64.5002C125.317 63.4815 124.486 62.5899 123.516 61.8692C122.607 61.2723 121.504 61.0448 120.432 61.2332L120.162 59.9642C119.124 59.2722 118.031 58.6652 116.895 58.1492C115.533 57.6062 113.721 56.7902 113.448 57.0632C113.244 57.2339 112.988 57.3292 112.722 57.3332C112.722 57.3332 111.996 56.3372 111.633 56.1542C111.27 55.9712 107.643 55.7012 106.191 55.7012C105.374 55.6775 104.574 55.9336 103.923 56.4272C103.923 56.4272 103.023 55.7012 102.564 55.7012C102.105 55.7012 100.2 56.5952 100.2 56.5952Z"
    fill="#FFC100" stroke="#263238" stroke-linecap="round" stroke-linejoin="round" />
  <path
    d="M111.453 56.778C111.09 56.595 107.46 56.325 106.011 56.325C105.194 56.3013 104.394 56.5574 103.743 57.051C103.743 57.051 102.843 56.325 102.381 56.325C102.048 56.325 100.926 56.817 100.359 57.075L107.28 78.639L125.565 64.8C124.957 63.9133 124.204 63.1363 123.336 62.502C122.426 61.9053 121.323 61.6779 120.252 61.866L119.979 60.597C118.942 59.9042 117.851 59.2972 116.715 58.782C115.353 58.239 113.538 57.42 113.268 57.693C113.065 57.8654 112.808 57.9619 112.542 57.966C112.542 57.966 111.816 56.958 111.453 56.778Z"
    fill="white" stroke="#263238" stroke-linecap="round" stroke-linejoin="round" />
  <path d="M123.336 62.4932L121.563 64.4942" stroke="#263238" stroke-linecap="round" stroke-linejoin="round" />
  <path d="M118.899 66.3901L118.275 67.2031" stroke="#263238" stroke-linecap="round" stroke-linejoin="round" />
  <path d="M120.498 64.302L119.298 65.868" stroke="#263238" stroke-linecap="round" stroke-linejoin="round" />
  <path d="M113.094 60.3481L112.857 61.1101" stroke="#263238" stroke-linecap="round" stroke-linejoin="round" />
  <path d="M113.727 58.3052L113.346 59.5352" stroke="#263238" stroke-linecap="round" stroke-linejoin="round" />
  <path d="M103.743 57.051L104.346 60.336" stroke="#263238" stroke-linecap="round" stroke-linejoin="round" />
  <path d="M105.312 58.9832L105.603 61.6892" stroke="#263238" stroke-linecap="round" stroke-linejoin="round" />
  <path
    d="M93.861 77.883L91.308 78.5311L90.948 77.1001L90.321 74.6311L89.175 70.1041L88.554 67.6351L87.408 63.1081L86.787 60.6391L85.638 56.1091L85.014 53.6431L83.871 49.1131L83.247 46.6471L82.389 43.2571L84.945 42.6121L85.188 43.5721L85.812 46.0411L86.958 50.5681L87.582 53.0371L88.725 57.5671L89.349 60.0331L90.495 64.5631L91.119 67.0321L92.262 71.5591L92.886 74.0251L93.861 77.883Z"
    fill="#FFC100" stroke="#263238" stroke-linecap="round" stroke-linejoin="round" />
  <path
    d="M88.725 57.5672L86.787 60.6392L87.408 63.1082L89.349 60.0332L88.725 57.5672ZM86.958 50.5682L85.014 53.6432L85.638 56.1092L87.582 53.0372L86.958 50.5682ZM90.495 64.5632L88.554 67.6352L89.175 70.1042L91.119 67.0322L90.495 64.5632ZM85.188 43.5632L83.247 46.6382L83.871 49.1042L85.8 46.0412L85.188 43.5632ZM90.324 74.6222L92.262 71.5502L92.886 74.0162L90.948 77.1002L90.324 74.6222Z"
    fill="#263238" />
  <path
    d="M113.418 138.507H84.24C84.24 138.507 83.967 137.691 85.602 137.238C87.237 136.785 94.398 134.151 95.124 133.065C95.85 131.979 96.123 131.976 95.85 130.887C95.577 129.798 93.855 127.887 94.308 126.444C94.761 125.001 95.58 123.72 95.67 122.544C95.7392 121.895 95.6453 121.239 95.397 120.636C94.3684 120.055 93.3945 119.382 92.487 118.626C89.685 116.34 85.83 112.11 85.587 106.026C85.224 96.4111 90.303 85.074 88.488 75.369C86.673 65.664 84.405 63.846 85.314 62.769H112.314C113.214 63.858 110.952 65.673 109.14 75.369C107.328 85.065 112.404 96.4111 112.041 106.026C111.813 112.104 107.958 116.334 105.141 118.626C104.233 119.382 103.259 120.054 102.231 120.636C101.983 121.239 101.889 121.895 101.958 122.544C102.051 123.72 102.858 124.992 103.32 126.444C103.782 127.896 102.051 129.798 101.778 130.887C101.505 131.976 101.778 131.976 102.504 133.065C103.23 134.154 110.394 136.785 112.029 137.238C113.664 137.691 113.418 138.507 113.418 138.507Z"
    stroke="#263238" stroke-linecap="round" stroke-linejoin="round" />
  <path
    d="M113.418 138.507H84.24C84.24 138.507 83.967 137.691 85.602 137.238C87.237 136.785 94.398 134.151 95.124 133.065C95.85 131.979 96.123 131.976 95.85 130.887C95.577 129.798 93.855 127.887 94.308 126.444C94.761 125.001 95.58 123.72 95.67 122.544C95.7392 121.895 95.6453 121.24 95.397 120.636C94.3684 120.055 93.3944 119.383 92.487 118.626H105.168C104.26 119.382 103.286 120.054 102.258 120.636C102.01 121.24 101.916 121.895 101.985 122.544C102.078 123.72 102.885 124.992 103.347 126.444C103.809 127.896 102.078 129.798 101.805 130.887C101.532 131.976 101.805 131.976 102.531 133.065C103.257 134.154 110.421 136.785 112.056 137.238C113.691 137.691 113.418 138.507 113.418 138.507Z"
    fill="#E0E0E0" stroke="#263238" stroke-linecap="round" stroke-linejoin="round" />
  <path
    d="M92.739 135.03C91.2897 135.803 89.7698 136.434 88.2 136.917C86.007 137.517 87.9 137.988 89.934 137.325C91.968 136.662 92.076 136.152 94.218 136.152C96.36 136.152 95.4 135.225 94.323 135.279C93.246 135.333 93.3 134.673 92.739 135.03Z"
    fill="white" />
  <path
    d="M100.377 121.467C100.377 121.467 96.261 122.181 97.041 122.067C97.821 121.953 99.141 122.694 100.713 122.367C101.188 122.933 101.462 123.639 101.493 124.377C101.607 125.718 98.592 124.713 97.362 127.17C96.132 129.627 98.262 129.849 99.162 130.518C100.062 131.187 100.278 131.748 99.384 132.318C98.49 132.888 97.977 130.935 97.152 131.76C96.327 132.585 97.599 133.545 98.379 133.545C99.159 133.545 100.725 133.212 100.947 131.871C101.169 130.53 102.51 129.192 102.624 127.182C102.669 126.406 102.609 125.627 102.447 124.866C102.18 123.69 101.433 122.997 101.433 121.98C101.433 120.963 100.776 121.293 100.377 121.467Z"
    fill="#B8B8B8" />
  <path
    d="M102.831 133.887C102.872 133.982 102.893 134.084 102.892 134.186C102.891 134.289 102.869 134.391 102.827 134.485C102.784 134.579 102.723 134.663 102.646 134.731C102.569 134.8 102.479 134.852 102.381 134.883C101.637 135.183 94.323 135.279 94.323 135.279C94.323 135.279 99.15 135.879 101.823 135.579C104.496 135.279 103.623 134.583 104.31 134.832C104.997 135.081 105.951 135.828 105.255 136.425C104.559 137.022 105.603 137.568 100.38 136.773C95.157 135.978 93.666 136.821 92.67 137.319C91.674 137.817 85.407 138.219 85.407 138.219H112.269C112.269 138.219 111.771 137.523 110.43 137.223C109.089 136.923 108.837 137.421 107.841 137.223C106.845 137.025 107.445 136.923 107.196 136.323C106.947 135.723 102.831 133.887 102.831 133.887Z"
    fill="#B8B8B8" />
  <path
    d="M99.429 122.934C99.429 122.934 98.547 122.844 97.443 122.712C96.339 122.58 95.145 125.982 95.322 126.645C95.499 127.308 96.117 125.805 97.398 125.187C98.679 124.569 100.098 125.319 100.269 123.906C100.44 122.493 99.429 122.934 99.429 122.934Z"
    fill="white" />
  <path
    d="M98.325 130.575C98.325 130.575 96.384 128.499 96.117 129.693C95.85 130.887 98.988 132.564 99.117 131.724C99.246 130.884 98.325 130.575 98.325 130.575Z"
    fill="white" />
  <path
    d="M99.981 133.602C99.981 133.602 98.4 134.112 97.38 133.704C96.36 133.296 96.156 133.5 95.136 134.061C94.116 134.622 94.626 135.081 97.686 134.979C100.746 134.877 102.429 134.316 102.021 133.908C101.613 133.5 101.715 133.041 99.981 133.602Z"
    fill="white" />
  <path d="M88.584 63.489H106.464" stroke="#263238" stroke-linecap="round" stroke-linejoin="round" />
  <path d="M86.055 63.489H87.792" stroke="#263238" stroke-linecap="round" stroke-linejoin="round" />
  <path
    d="M109.152 75.372C109.422 73.938 109.701 72.672 109.977 71.562H87.678C87.957 72.678 88.233 73.938 88.503 75.372C90.318 85.08 85.236 96.417 85.599 106.032C85.962 115.647 95.4 120.636 95.4 120.636C95.4 120.636 97.605 121.092 102.261 120.636C102.261 120.636 111.696 115.647 112.059 106.032C112.422 96.417 107.34 85.08 109.152 75.372Z"
    fill="white" stroke="#263238" stroke-linecap="round" stroke-linejoin="round" />
  <path opacity="0.19"
    d="M109.341 137.1C107.709 136.65 100.545 134.043 99.819 132.966C99.093 131.889 98.82 131.889 99.093 130.809C99.366 129.729 101.088 127.845 100.635 126.408C100.182 124.971 99.363 123.708 99.273 122.544C99.2038 121.902 99.2977 121.253 99.546 120.657C100.573 120.081 101.547 119.414 102.456 118.665C105.258 116.4 109.113 112.209 109.356 106.188C109.719 96.6662 104.64 85.4312 106.455 75.8192C108.27 66.2071 110.538 64.4191 109.629 63.3271H111.285C112.185 64.4071 109.923 66.2041 108.111 75.8192C106.299 85.4342 111.36 96.6782 111 106.2C110.772 112.221 106.917 116.4 104.115 118.677C103.206 119.426 102.232 120.093 101.205 120.669C100.957 121.265 100.863 121.914 100.932 122.556C101.022 123.723 101.832 124.983 102.294 126.42C102.756 127.857 101.022 129.744 100.752 130.821C100.482 131.898 100.752 131.901 101.478 132.978C102.204 134.055 109.368 136.662 111 137.1C112.632 137.538 112.362 138.36 112.362 138.36H110.7C110.7 138.36 110.976 137.559 109.341 137.1Z"
    fill="black" />
  <path
    d="M56.04 80.1C56.04 80.1 54.72 78.237 52.857 78C51.5078 77.8844 50.1491 77.9621 48.822 78.231C48.822 78.231 49.674 76.602 50.451 76.131C51.0543 75.7867 51.6762 75.4762 52.314 75.201C51.8914 74.3474 51.2481 73.6223 50.451 73.101C49.131 72.249 46.956 70.929 46.956 70.929C46.956 70.929 49.752 71.16 51.072 71.55C52.0432 71.8692 52.9799 72.2853 53.868 72.792C53.868 72.792 51.849 70.617 50.217 69.066C48.585 67.515 45.171 64.638 45.171 64.638L42.6 63C44.2897 63.5112 45.9511 64.1121 47.577 64.8C49.677 65.733 54.255 68.76 54.255 68.76C54.255 68.76 52.314 65.49 50.217 62.7C48.12 59.91 43.851 56.331 43.851 56.331L52.935 63.231L49.287 57.408L47.733 55.854C47.733 55.854 51.615 57.954 52.857 59.58C54.099 61.206 57.129 64.704 57.129 64.704C57.129 64.704 53.169 52.44 51.384 49.566C49.599 46.692 46.647 43.743 46.647 43.743C46.647 43.743 51.693 45.45 53.013 46.227C54.333 47.004 54.798 47.469 54.954 47.703C55.11 47.937 54.489 44.442 52.47 40.173C50.451 35.904 49.518 33.651 49.518 33.651C49.518 33.651 53.1 36 54.798 39.093C56.496 42.186 58.758 47.1 58.758 47.1C58.758 47.1 56.358 33.978 55.188 31.5C54.018 29.022 51.693 25.602 51.693 25.602C51.693 25.602 57.438 30.027 58.593 35.229L59.757 40.428C59.757 40.428 58.68 34.515 57.9 29.469C57.12 24.423 56.97 22.17 56.97 21.936C56.97 21.702 58.989 24.42 60.153 26.982C61.0152 29.003 61.6404 31.1171 62.016 33.282C62.172 34.134 61.86 30.486 62.403 27.924C62.946 25.362 63.414 23.886 63.492 23.424C63.57 22.962 64.5 27.924 64.734 31.809C64.968 35.694 64.887 41.436 64.887 41.436C64.887 41.436 67.527 36.078 68.07 34.758C68.613 33.438 69.702 32.058 69.78 31.731C69.5672 33.9991 69.2064 36.2509 68.7 38.472C68.001 41.346 67.692 42.588 67.692 42.588L67.77 44.607C67.77 44.607 72.57 35.607 74.37 32.805C76.17 30.003 79.17 27.603 79.17 27.603C79.17 27.603 78.87 29.313 76.77 35.214C75.3318 39.2339 73.5114 43.1066 71.334 46.779C70.791 47.634 70.014 49.179 69.783 49.653C69.552 50.127 69.936 53.379 69.936 53.379C69.936 53.379 74.136 50.895 77.391 49.341C80.646 47.787 86.628 46.704 86.628 46.704C86.628 46.704 79.488 49.575 77.235 51.828C74.982 54.081 70.248 57.804 70.248 57.804L70.326 61.143C70.326 61.143 75.915 56.874 79.719 55.242C83.523 53.61 86.241 53.301 86.241 53.301L76.227 60.3C73.665 62.085 70.713 64.416 70.713 64.416C70.713 64.416 76.926 61.389 81.894 61.233C81.894 61.233 73.194 66.666 72.345 67.908C71.496 69.15 70.17 70.548 70.014 70.782C69.858 71.016 74.052 69.384 76.458 68.763C78.1204 68.3542 79.8053 68.0427 81.504 67.83C79.0451 68.4694 76.7122 69.5202 74.604 70.938C70.956 73.338 69.537 73.836 69.159 74.289L68.781 74.742C68.781 74.742 76.779 71.868 78.72 71.403C80.047 71.1272 81.4106 71.0745 82.755 71.247C82.755 71.247 77.265 72.081 74.73 74.547C72.195 77.013 68.862 80.127 65.25 79.923C61.638 79.719 59.622 79.719 58.923 79.641C58.224 79.563 56.04 80.1 56.04 80.1Z"
    fill="#FFC100" stroke="#263238" stroke-miterlimit="10" />
  <path opacity="0.2"
    d="M56.04 80.1C56.04 80.1 54.72 78.237 52.857 78C51.5078 77.8844 50.1491 77.9621 48.822 78.231C48.822 78.231 49.674 76.602 50.451 76.131C51.0543 75.7867 51.6762 75.4762 52.314 75.201C51.8914 74.3474 51.2481 73.6223 50.451 73.101C49.131 72.249 46.956 70.929 46.956 70.929C46.956 70.929 49.752 71.16 51.072 71.55C52.0432 71.8692 52.9799 72.2853 53.868 72.792C53.868 72.792 51.849 70.617 50.217 69.066C48.585 67.515 45.171 64.638 45.171 64.638L42.6 63C44.2897 63.5112 45.9511 64.1121 47.577 64.8C49.677 65.733 54.255 68.76 54.255 68.76C54.255 68.76 52.314 65.49 50.217 62.7C48.12 59.91 43.851 56.331 43.851 56.331L52.935 63.231L49.287 57.408L47.733 55.854C47.733 55.854 51.615 57.954 52.857 59.58C54.099 61.206 57.129 64.704 57.129 64.704C57.129 64.704 53.169 52.44 51.384 49.566C49.599 46.692 46.647 43.743 46.647 43.743C46.647 43.743 51.693 45.45 53.013 46.227C54.333 47.004 54.798 47.469 54.954 47.703C55.11 47.937 54.489 44.442 52.47 40.173C50.451 35.904 49.518 33.651 49.518 33.651C49.518 33.651 53.1 36 54.798 39.093C56.496 42.186 58.758 47.1 58.758 47.1C58.758 47.1 56.358 33.978 55.188 31.5C54.018 29.022 51.693 25.602 51.693 25.602C51.693 25.602 57.438 30.027 58.593 35.229L59.757 40.428C59.757 40.428 58.68 34.515 57.9 29.469C57.12 24.423 56.97 22.17 56.97 21.936C56.97 21.702 58.989 24.42 60.153 26.982C61.0152 29.003 61.6404 31.1171 62.016 33.282C62.172 34.134 61.86 30.486 62.403 27.924C62.946 25.362 63.414 23.886 63.492 23.424C63.57 22.962 64.5 27.924 64.734 31.809C64.968 35.694 64.887 41.436 64.887 41.436C64.887 41.436 67.527 36.078 68.07 34.758C68.613 33.438 69.702 32.058 69.78 31.731C69.5672 33.9991 69.2064 36.2509 68.7 38.472C68.001 41.346 67.692 42.588 67.692 42.588L67.77 44.607C67.77 44.607 72.57 35.607 74.37 32.805C76.17 30.003 79.17 27.603 79.17 27.603C79.17 27.603 78.87 29.313 76.77 35.214C75.3318 39.2339 73.5114 43.1066 71.334 46.779C70.791 47.634 70.014 49.179 69.783 49.653C69.552 50.127 69.936 53.379 69.936 53.379C69.936 53.379 74.136 50.895 77.391 49.341C80.646 47.787 86.628 46.704 86.628 46.704C86.628 46.704 79.488 49.575 77.235 51.828C74.982 54.081 70.248 57.804 70.248 57.804L70.326 61.143C70.326 61.143 75.915 56.874 79.719 55.242C83.523 53.61 86.241 53.301 86.241 53.301L76.227 60.3C73.665 62.085 70.713 64.416 70.713 64.416C70.713 64.416 76.926 61.389 81.894 61.233C81.894 61.233 73.194 66.666 72.345 67.908C71.496 69.15 70.17 70.548 70.014 70.782C69.858 71.016 74.052 69.384 76.458 68.763C78.1204 68.3542 79.8053 68.0427 81.504 67.83C79.0451 68.4694 76.7122 69.5202 74.604 70.938C70.956 73.338 69.537 73.836 69.159 74.289L68.781 74.742C68.781 74.742 76.779 71.868 78.72 71.403C80.047 71.1272 81.4106 71.0745 82.755 71.247C82.755 71.247 77.265 72.081 74.73 74.547C72.195 77.013 68.862 80.127 65.25 79.923C61.638 79.719 59.622 79.719 58.923 79.641C58.224 79.563 56.04 80.1 56.04 80.1Z"
    fill="black" stroke="#263238" stroke-miterlimit="10" />
  <path
    d="M56.04 80.1C56.04 80.1 54.72 78.237 52.857 78C51.5078 77.8844 50.1491 77.9621 48.822 78.231C48.822 78.231 49.674 76.602 50.451 76.131C51.0543 75.7867 51.6762 75.4762 52.314 75.201C51.8914 74.3474 51.2481 73.6223 50.451 73.101C49.131 72.249 46.956 70.929 46.956 70.929C46.956 70.929 49.752 71.16 51.072 71.55C52.0432 71.8692 52.9799 72.2853 53.868 72.792C53.868 72.792 51.849 70.617 50.217 69.066C48.585 67.515 45.171 64.638 45.171 64.638L42.6 63C44.2897 63.5112 45.9511 64.1121 47.577 64.8C49.677 65.733 54.255 68.76 54.255 68.76C54.255 68.76 52.314 65.49 50.217 62.7C48.12 59.91 43.851 56.331 43.851 56.331L52.935 63.231L49.287 57.408L47.733 55.854C47.733 55.854 51.615 57.954 52.857 59.58C54.099 61.206 57.129 64.704 57.129 64.704C57.129 64.704 53.169 52.44 51.384 49.566C49.599 46.692 46.647 43.743 46.647 43.743C46.647 43.743 51.693 45.45 53.013 46.227C54.333 47.004 54.798 47.469 54.954 47.703C55.11 47.937 54.489 44.442 52.47 40.173C50.451 35.904 49.518 33.651 49.518 33.651C49.518 33.651 53.1 36 54.798 39.093C56.496 42.186 58.758 47.1 58.758 47.1C58.758 47.1 56.358 33.978 55.188 31.5C54.018 29.022 51.693 25.602 51.693 25.602C51.693 25.602 57.438 30.027 58.593 35.229L59.757 40.428C59.757 40.428 58.68 34.515 57.9 29.469C57.12 24.423 56.97 22.17 56.97 21.936C56.97 21.702 58.989 24.42 60.153 26.982C61.0152 29.003 61.6404 31.1171 62.016 33.282C62.172 34.134 61.86 30.486 62.403 27.924C62.946 25.362 63.414 23.886 63.492 23.424C63.57 22.962 64.5 27.924 64.734 31.809C64.968 35.694 64.887 41.436 64.887 41.436C64.887 41.436 67.527 36.078 68.07 34.758C68.613 33.438 69.702 32.058 69.78 31.731C69.5672 33.9991 69.2064 36.2509 68.7 38.472C68.001 41.346 67.692 42.588 67.692 42.588L67.77 44.607C67.77 44.607 72.57 35.607 74.37 32.805C76.17 30.003 79.17 27.603 79.17 27.603C79.17 27.603 78.87 29.313 76.77 35.214C75.3318 39.2339 73.5114 43.1066 71.334 46.779C70.791 47.634 70.014 49.179 69.783 49.653C69.552 50.127 69.936 53.379 69.936 53.379C69.936 53.379 74.136 50.895 77.391 49.341C80.646 47.787 86.628 46.704 86.628 46.704C86.628 46.704 79.488 49.575 77.235 51.828C74.982 54.081 70.248 57.804 70.248 57.804L70.326 61.143C70.326 61.143 75.915 56.874 79.719 55.242C83.523 53.61 86.241 53.301 86.241 53.301L76.227 60.3C73.665 62.085 70.713 64.416 70.713 64.416C70.713 64.416 76.926 61.389 81.894 61.233C81.894 61.233 73.194 66.666 72.345 67.908C71.496 69.15 70.17 70.548 70.014 70.782C69.858 71.016 74.052 69.384 76.458 68.763C78.1204 68.3542 79.8053 68.0427 81.504 67.83C79.0451 68.4694 76.7122 69.5202 74.604 70.938C70.956 73.338 69.537 73.836 69.159 74.289L68.781 74.742C68.781 74.742 76.779 71.868 78.72 71.403C80.047 71.1272 81.4106 71.0745 82.755 71.247C82.755 71.247 77.265 72.081 74.73 74.547C72.195 77.013 68.862 80.127 65.25 79.923C61.638 79.719 59.622 79.719 58.923 79.641C58.224 79.563 56.04 80.1 56.04 80.1Z"
    stroke="#263238" stroke-linecap="round" stroke-linejoin="round" />
  <path
    d="M61.845 52.4999C61.845 52.4999 61.545 41.0999 63.456 35.7239C65.367 30.3479 66.3 28.7129 66.3 28.7129C66.3 28.7129 69.951 38.8649 69.765 44.5619C69.579 50.2589 66.732 58.1819 66.732 58.1819L61.845 52.4999Z"
    fill="#FFC100" stroke="#263238" stroke-linecap="round" stroke-linejoin="round" />
  <path
    d="M60.42 57.4379C60.42 57.4379 57.45 51.5549 57.945 44.7479C58.44 37.9409 59.184 34.9019 58.872 32.7989C58.56 30.6959 58.317 28.7129 58.317 28.7129C58.317 28.7129 62.154 37.0709 64.755 43.5089C66.3798 47.6173 67.0368 52.0447 66.675 56.4479C66.612 56.8199 64.755 59.7899 64.755 59.7899L63.456 63.1319L60.42 57.4379Z"
    fill="#FFC100" stroke="#263238" stroke-linecap="round" stroke-linejoin="round" />
  <path
    d="M60.111 65.982C60.111 65.982 55.716 60.657 52.248 56.139C49.9827 53.2307 47.4996 50.4988 44.82 47.967C44.82 47.967 50.022 49.767 52.992 52.608C55.962 55.449 60.915 60.225 62.154 63.504C63.393 66.783 62.217 68.829 62.217 68.829L60.111 65.982Z"
    fill="#FFC100" stroke="#263238" stroke-linecap="round" stroke-linejoin="round" />
  <path
    d="M66.054 64.0619C66.054 64.0619 70.254 57.1289 73.236 49.8839C76.218 42.6389 78.621 39.4829 78.621 39.4829C78.621 39.4829 69.522 47.7809 67.788 50.8829C66.054 53.9849 64.569 55.3379 63.888 58.6199C63.207 61.9019 64.074 65.9879 64.137 66.2969C64.2 66.6059 66.054 64.0619 66.054 64.0619Z"
    fill="#FFC100" stroke="#263238" stroke-linecap="round" stroke-linejoin="round" />
  <path
    d="M63.456 59.6041C63.456 59.6041 62.217 53.7241 58.935 49.3891C55.653 45.0541 50.145 42.6421 50.145 42.6421C50.145 42.6421 52.62 42.8281 54.291 48.0901C55.962 53.3521 58.44 58.1821 59.865 59.5441C61.29 60.9061 63.021 62.6371 63.021 62.6371L63.456 59.6041Z"
    fill="#FFC100" stroke="#263238" stroke-linecap="round" stroke-linejoin="round" />
  <path
    d="M60.111 65.9819C58.897 65.0381 57.7567 64.0031 56.7 62.8859C55.7148 61.8263 54.6605 60.8331 53.544 59.9129C53.544 59.9129 55.524 59.6129 56.763 59.9129C58.002 60.2129 59.859 61.4609 59.859 61.4609C59.2512 60.5474 58.8499 59.5123 58.683 58.4279C58.497 56.8199 58.497 56.1389 58.497 56.1389C59.8357 56.7237 61.1198 57.4265 62.334 58.2389C64.005 59.4149 65.493 62.4389 65.493 62.4389C65.493 62.4389 65.058 61.4489 67.41 58.7249C69.762 56.0009 73.725 54.4529 73.725 54.4529C73.725 54.4529 72.486 58.5389 71.496 60.0869C70.907 61.0098 70.267 61.8992 69.579 62.7509C69.579 62.7509 71.745 61.0169 73.353 60.5819C74.961 60.1469 75.336 60.0869 75.336 60.0869C75.336 60.0869 73.836 62.6249 73.236 63.4919C72.26 64.7564 71.2059 65.9588 70.08 67.0919C69.087 68.0999 65.931 70.1999 65.931 70.1999L63.207 71.6249L60.111 65.9819Z"
    fill="#FFC100" stroke="#263238" stroke-linecap="round" stroke-linejoin="round" />
  <path
    d="M58.689 71.304C58.689 71.304 57.141 70.254 57.078 67.59C57.015 64.926 57.141 62.949 57.141 62.949C57.141 62.949 59.541 63.753 61.041 64.749C61.9174 65.3246 62.6568 66.0855 63.207 66.978C63.207 66.978 63.456 65.478 65.307 64.317C67.158 63.156 71.124 62.217 71.124 62.217C71.124 62.217 70.629 65.25 70.074 67.107C69.519 68.964 68.031 70.512 67.164 71.502C66.297 72.492 62.964 74.847 62.964 74.847L58.689 71.304Z"
    fill="#FFC100" stroke="#263238" stroke-linecap="round" stroke-linejoin="round" />
  <path
    d="M57.51 75.081C57.51 75.081 56.211 72.915 55.53 71.553C54.849 70.191 54.726 69.882 54.726 69.882C55.8306 69.9991 56.9268 70.1854 58.008 70.44C58.895 70.7355 59.7627 71.0862 60.606 71.49C60.606 71.49 60.732 70.191 62.217 68.829C63.0867 68.0274 64.0413 67.3232 65.064 66.729C65.064 66.729 66.735 68.649 66.864 69.765C66.993 70.881 67.11 71.865 67.11 71.865L69.402 70.503C69.5717 71.766 69.487 73.0502 69.153 74.28C68.595 76.137 68.04 76.941 67.854 77.127C67.6246 77.3017 67.3748 77.4478 67.11 77.562C67.11 77.562 66.924 78.243 64.758 77.808C62.592 77.373 60.672 76.755 60.486 76.632C60.3 76.509 59.805 76.2 59.556 76.074C59.307 75.948 57.51 75.081 57.51 75.081Z"
    fill="#FFC100" stroke="#263238" stroke-linecap="round" stroke-linejoin="round" />
  <path
    d="M54.105 78.9209C54.105 78.9209 53.61 77.9909 51.321 77.1869C49.709 76.659 48.0506 76.2853 46.368 76.0709C46.368 76.0709 48.534 75.0809 50.64 75.2069C52.746 75.3329 55.779 76.8779 56.211 77.3729C56.643 77.8679 56.274 76.1969 53.673 73.9049C51.072 71.6129 47.172 68.9519 46.059 68.3999C45.4731 68.1004 44.8723 67.8311 44.259 67.5929C44.259 67.5929 48.408 67.5329 51.441 69.2639C53.3391 70.3638 55.123 71.6502 56.766 73.1039C56.1038 71.0283 54.9584 69.1396 53.424 67.5929C51.9906 66.1374 50.4135 64.8308 48.717 63.6929C48.717 63.6929 52.68 65.2409 55.341 67.0979C58.002 68.9549 62.955 74.3429 62.955 74.3429C62.955 74.3429 63.822 70.2569 67.041 67.6559C69.0361 66.0679 71.3369 64.9078 73.8 64.2479C73.6777 65.9971 73.1475 67.6933 72.252 69.2009C71.5019 70.4879 70.6744 71.7282 69.774 72.9149C69.774 72.9149 74.541 70.0679 76.71 69.5099C78.879 68.9519 81.162 68.3999 81.162 68.3999C81.162 68.3999 73.917 72.6689 72.618 74.2169C71.319 75.7649 70.947 76.2599 70.947 76.2599C70.947 76.2599 74.166 74.9609 75.714 74.5889C77.262 74.2169 80.046 74.1569 80.046 74.1569C80.046 74.1569 73.545 76.5569 72.309 77.3759C71.073 78.1949 68.778 79.4189 68.778 79.4189C68.778 79.4189 60.051 79.1699 58.194 79.1189C56.337 79.0679 54.105 78.9209 54.105 78.9209Z"
    fill="#FFC100" stroke="#263238" stroke-linecap="round" stroke-linejoin="round" />
  <path
    d="M58.254 80.9009C58.1491 80.8198 58.0489 80.7326 57.954 80.6399C57.2705 79.971 56.7225 79.1765 56.34 78.2999C55.536 76.4999 53.121 73.7189 53.121 73.7189C54.228 73.7722 55.3266 73.938 56.4 74.2139C57.4465 74.5354 58.4461 74.9933 59.373 75.5759C59.6709 74.781 60.1111 74.047 60.672 73.4099L61.539 72.4829C61.539 72.4829 63.828 74.7719 64.449 75.6389C64.8142 76.1437 65.0864 76.7096 65.253 77.3099C65.253 77.3099 65.553 76.1969 68.595 75.7619C71.637 75.3269 74.724 74.5259 74.724 74.5259C74.724 74.5259 71.568 78.4859 70.524 79.3529C69.5919 80.0436 68.5976 80.6462 67.554 81.1529L58.254 80.9009Z"
    fill="#FFC100" stroke="#263238" stroke-linecap="round" stroke-linejoin="round" />
  <path
    d="M57.573 82.2631C57.573 82.2631 54.786 82.0771 53.373 80.8381C51.96 79.5991 50.973 78.8581 50.973 78.8581C50.973 78.8581 52.893 78.4261 54.129 78.9211C55.365 79.4161 57.573 80.4001 57.573 80.4001C57.573 80.4001 57.273 80.2771 57.015 78.8521C56.8824 78.1781 56.8002 77.4952 56.769 76.8091C56.769 76.8091 59.058 76.9321 60.42 77.8621C61.782 78.7921 62.22 79.4101 62.22 79.4101C62.22 79.4101 61.476 79.2241 63.72 78.6061C65.4907 78.1692 67.2903 77.8584 69.105 77.6761C69.105 77.6761 69.291 78.7891 69.477 80.2141C69.663 81.6391 69.105 82.4431 69.105 82.4431L57.573 82.2631Z"
    fill="#FFC100" stroke="#263238" stroke-linecap="round" stroke-linejoin="round" />
  <path
    d="M54.264 82.0171C51.144 83.2171 48.693 84.4651 46.386 87.0301C42.702 91.1251 41.424 97.1281 41.133 102.501C40.668 111.117 41.607 121.521 44.928 129.561C46.617 133.641 50.31 137.706 54.945 138.261C57.195 138.534 61.083 138.534 62.925 138.669C64.767 138.804 64.968 138.807 67.695 138.603C81.954 137.532 85.479 120.249 85.62 108.687C85.647 106.656 85.596 104.607 85.497 102.579C85.125 94.9741 82.71 87.0091 75.741 82.9651C74.6143 82.2885 73.4272 81.7181 72.195 81.2611L72.741 79.9651C72.741 79.9651 71.652 80.0341 71.241 80.3731C70.83 80.7121 69.537 81.0571 69.537 81.0571L68.037 79.2151L67.152 80.3071L65.241 79.8961L64.491 81.4651L61.968 80.7841L60.879 81.8071L58.968 81.0001C58.7223 81.322 58.4229 81.5991 58.083 81.8191C57.606 82.0891 55.491 81.5461 55.491 81.5461L54.264 82.0171Z"
    fill="#E0E0E0" stroke="#263238" stroke-linecap="round" stroke-linejoin="round" />
  <path
    d="M57.096 84.201C56.094 85.89 54.309 87.66 52.332 88.161C50.355 88.662 50.115 85.719 51.948 84.159C53.781 82.599 56.712 82.635 57.999 81.864C59.286 81.093 58.098 82.5 57.096 84.201Z"
    fill="#E0E0E0" stroke="#263238" stroke-linecap="round" stroke-linejoin="round" />
  <path
    d="M56.958 84.4199C56.472 83.7209 55.782 84.0209 55.566 84.0839C55.281 84.1649 55.941 83.1179 55.941 83.1179C55.941 83.1179 54.66 84.5339 53.307 84.0869C52.656 83.8709 52.368 83.8679 52.191 83.9369L51.948 84.1589C50.115 85.7189 50.352 88.6589 52.332 88.1609C54.225 87.6839 55.926 86.0219 56.958 84.4199Z"
    fill="white" stroke="#263238" stroke-linecap="round" stroke-linejoin="round" />
  <path
    d="M62.022 84.1801C61.917 85.8901 60.159 87.4201 58.497 88.0141C56.835 88.6081 56.097 85.8901 57.096 84.2011C58.095 82.5121 60.501 82.1461 61.317 81.3931C62.133 80.6401 62.124 82.4671 62.022 84.1801Z"
    fill="#E0E0E0" stroke="#263238" stroke-linecap="round" stroke-linejoin="round" />
  <path
    d="M61.998 84.399C61.7419 84.1915 61.445 84.0402 61.1267 83.9549C60.8083 83.8696 60.4755 83.8523 60.15 83.904C59.79 83.937 59.697 82.8 59.697 82.8C59.697 82.8 59.238 84.7291 58.086 84.1441C57.531 83.8621 57.294 83.862 57.186 83.943C57.1655 84.0321 57.1353 84.1186 57.096 84.2011C56.094 85.8901 56.838 88.6051 58.497 88.0141C60.087 87.4471 61.8 86.034 61.998 84.399Z"
    fill="white" stroke="#263238" stroke-linecap="round" stroke-linejoin="round" />
  <path
    d="M66.438 83.3761C67.23 85.1341 65.961 86.9911 64.683 87.7891C63.405 88.5871 61.917 85.8901 62.022 84.1891C62.127 82.4881 64.203 81.9841 64.686 80.9881C65.169 79.9921 65.646 81.6151 66.438 83.3761Z"
    fill="#E0E0E0" stroke="#263238" stroke-linecap="round" stroke-linejoin="round" />
  <path
    d="M66.528 83.6039C65.523 83.0039 64.974 83.4659 64.728 83.5469C64.392 83.6549 63.528 82.4939 63.528 82.4939C63.528 82.4939 64.101 84.4769 62.808 83.9939C62.187 83.7599 61.989 83.7929 61.947 83.8949C61.9845 83.9911 62.0088 84.0921 62.019 84.1949C61.914 85.9049 63.405 88.6019 64.68 87.7949C65.907 87.0269 67.149 85.2839 66.528 83.6039Z"
    fill="white" stroke="#263238" stroke-linecap="round" stroke-linejoin="round" />
  <path
    d="M70.8 83.6999C72.492 85.3589 72.204 85.8869 70.68 86.6579C69.156 87.4289 67.242 85.1579 66.45 83.3909C65.658 81.6239 67.014 80.5319 67.719 79.6739C68.424 78.8159 69.093 82.0259 70.8 83.6999Z"
    fill="#E0E0E0" stroke="#263238" stroke-linecap="round" stroke-linejoin="round" />
  <path
    d="M70.995 83.8979C69.96 83.0489 69.684 82.9679 69.3 82.6349C68.793 82.1999 66.993 81.2429 66.993 81.2429C66.993 81.2429 68.493 83.5349 67.038 83.0999C66.333 82.8929 66.18 82.9439 66.201 83.0609C66.2904 83.1577 66.3698 83.2632 66.438 83.3759C67.23 85.1339 69.138 87.4169 70.668 86.6429C72.126 85.9049 72.474 85.4489 70.995 83.8979Z"
    fill="white" stroke="#263238" stroke-linecap="round" stroke-linejoin="round" />
  <path
    d="M75.672 83.0399C78.162 84.5399 78.285 86.6159 76.296 87.2159C74.307 87.8159 72.48 85.3439 70.8 83.6999C69.12 82.0559 69.213 81.3899 70.566 80.8529C71.919 80.3159 73.182 81.5309 75.672 83.0399Z"
    fill="#E0E0E0" stroke="#263238" stroke-linecap="round" stroke-linejoin="round" />
  <path
    d="M75.984 83.2349C74.808 82.8929 74.184 83.4659 73.695 83.4929C73.065 83.5319 70.191 82.2749 70.191 82.2749C70.191 82.2749 72.168 84.6509 70.911 83.7479C70.311 83.3129 70.269 83.2769 70.386 83.3669C70.503 83.4569 70.707 83.6069 70.788 83.6849C72.48 85.3439 74.307 87.8159 76.296 87.2159C78.198 86.6429 78.207 84.7019 75.984 83.2349Z"
    fill="white" stroke="#263238" stroke-linecap="round" stroke-linejoin="round" />
  <path
    d="M52.128 88.5839C51.171 90.7499 49.2 93.1469 46.62 92.6339C44.652 92.2409 44.007 90.1439 45.648 87.9929C47.034 86.1749 49.752 84.3539 51.612 84.4499C52.836 84.5159 53.145 86.2799 52.128 88.5839Z"
    fill="#E0E0E0" stroke="#263238" stroke-linecap="round" stroke-linejoin="round" />
  <path
    d="M51.978 88.89C51.183 88.509 50.028 88.557 49.611 88.272C49.059 87.9 49.869 86.052 49.869 86.052C49.869 86.052 48.828 87.531 47.169 87.513C46.368 87.513 46.05 87.591 45.891 87.699C45.81 87.798 45.729 87.894 45.654 87.999C44.016 90.165 44.604 92.166 46.626 92.64C48.549 93.084 50.85 91.143 51.978 88.89Z"
    fill="white" stroke="#263238" stroke-linecap="round" stroke-linejoin="round" />
  <path
    d="M58.416 88.4461C57.972 90.8251 56.103 93.4501 54.069 93.0751C52.035 92.7001 51.042 90.9151 52.128 88.5751C53.214 86.2351 55.479 84.0751 56.928 84.5101C58.377 84.9451 58.857 86.0671 58.416 88.4461Z"
    fill="#E0E0E0" stroke="#263238" stroke-linecap="round" stroke-linejoin="round" />
  <path
    d="M58.347 88.7579C57.549 88.4219 56.505 88.8059 56.106 88.5179C55.578 88.1369 55.851 86.2139 55.851 86.2139C55.851 86.2139 54.735 87.5039 53.511 87.7439C53.0698 87.8185 52.6524 87.9964 52.293 88.2629C52.236 88.3679 52.179 88.4759 52.128 88.5839C51.042 90.9149 52.038 92.6999 54.069 93.0839C56.016 93.4319 57.828 91.0619 58.347 88.7579Z"
    fill="white" stroke="#263238" stroke-linecap="round" stroke-linejoin="round" />
  <path
    d="M64.719 88.224C64.911 90.624 63.651 93.294 61.557 93.054C59.463 92.814 57.972 90.825 58.416 88.446C58.86 86.067 60.516 84.198 62.001 84.501C63.486 84.804 64.53 85.836 64.719 88.224Z"
    fill="#E0E0E0" stroke="#263238" stroke-linecap="round" stroke-linejoin="round" />
  <path
    d="M64.737 88.539C63.978 88.311 63.048 88.689 62.601 88.431C62.001 88.092 61.677 86.22 61.677 86.22C61.1903 86.9468 60.435 87.4508 59.577 87.621C58.896 87.753 58.605 87.948 58.476 88.116C58.449 88.224 58.422 88.335 58.404 88.446C57.96 90.825 59.448 92.817 61.545 93.054C63.558 93.3 64.824 90.867 64.737 88.539Z"
    fill="white" stroke="#263238" stroke-linecap="round" stroke-linejoin="round" />
  <path
    d="M70.83 87.0779C71.697 89.4779 70.704 92.4779 68.52 92.3429C66.336 92.2079 64.92 90.6149 64.719 88.2239C64.518 85.8329 65.052 83.4719 66.579 83.7029C68.106 83.9339 69.963 84.6839 70.83 87.0779Z"
    fill="#E0E0E0" stroke="#263238" stroke-linecap="round" stroke-linejoin="round" />
  <path
    d="M70.929 87.3959C69.867 87.1559 69.129 87.8609 68.61 87.6299C67.92 87.3299 66.978 85.4639 66.978 85.4639C66.978 85.4639 66.711 86.7929 65.529 87.2639C64.962 87.4889 64.77 87.7169 64.701 87.8969C64.701 88.0079 64.701 88.1189 64.719 88.2299C64.911 90.6299 66.339 92.2079 68.52 92.3489C70.608 92.4779 71.619 89.7269 70.929 87.3959Z"
    fill="white" stroke="#263238" stroke-linecap="round" stroke-linejoin="round" />
  <path
    d="M76.575 87.615C78.075 89.799 77.226 92.622 75.444 92.19C73.662 91.758 71.697 89.475 70.83 87.09C69.963 84.705 69.954 83.271 71.094 84.009C72.234 84.747 75.084 85.428 76.575 87.615Z"
    fill="#E0E0E0" stroke="#263238" stroke-linecap="round" stroke-linejoin="round" />
  <path
    d="M76.749 87.9001C75.288 87.6331 74.808 88.2211 74.331 87.9001C73.701 87.4771 72.294 85.6021 72.294 85.6021C72.294 85.6021 73.101 87.348 71.667 86.547C70.977 86.163 70.767 86.5681 70.719 86.7481C70.755 86.8561 70.788 86.9671 70.83 87.0781C71.697 89.4781 73.659 91.7551 75.444 92.1781C77.148 92.6041 77.982 90.0271 76.749 87.9001Z"
    fill="white" stroke="#263238" stroke-linecap="round" stroke-linejoin="round" />
  <path
    d="M54.186 93.7741C53.832 96.2041 51.786 98.8051 49.749 98.9821C47.553 99.1771 46.029 95.6011 46.653 93.3211C47.253 91.0951 50.079 89.4781 52.101 89.0851C53.97 88.7221 54.6 90.9931 54.186 93.7741Z"
    fill="#E0E0E0" stroke="#263238" stroke-linecap="round" stroke-linejoin="round" />
  <path
    d="M54.117 94.1341C53.127 93.1891 52.089 93.5791 51.663 93.4711C51.099 93.3331 51.063 91.3711 51.063 91.3711C51.063 91.3711 50.256 93.7711 48.297 93.1261C47.355 92.8261 46.965 92.8261 46.797 92.9491C46.752 93.0691 46.707 93.1921 46.671 93.3181C46.005 95.6191 47.385 99.0181 49.767 98.9791C51.732 98.9401 53.583 96.7651 54.117 94.1341Z"
    fill="white" stroke="#263238" stroke-linecap="round" stroke-linejoin="round" />
  <path
    d="M61.779 93.7411C61.8013 94.9602 61.4017 96.1496 60.6478 97.1079C59.8939 98.0663 58.8321 98.7347 57.642 99.0001C54.912 99.6541 53.862 95.8291 54.186 93.7621C54.627 90.9571 56.763 89.5171 58.503 88.9381C60.243 88.3591 61.782 90.9541 61.779 93.7411Z"
    fill="#E0E0E0" stroke="#263238" stroke-linecap="round" stroke-linejoin="round" />
  <path
    d="M61.761 94.1009C60.645 93.2249 59.433 93.5009 58.944 93.4079C58.302 93.2849 57.981 91.2869 57.981 91.2869C57.981 91.2869 57.456 94.1099 55.641 93.5009C54.768 93.2009 54.414 93.2579 54.264 93.3899C54.234 93.5159 54.207 93.6419 54.186 93.7739C53.862 95.8409 54.816 99.5999 57.642 99.0119C58.7747 98.7636 59.7933 98.147 60.5385 97.2584C61.2837 96.3699 61.7136 95.2596 61.761 94.1009Z"
    fill="white" stroke="#263238" stroke-linecap="round" stroke-linejoin="round" />
  <path
    d="M68.853 93.024C69.237 95.856 67.254 98.19 65.49 98.82C63.726 99.45 61.752 96.549 61.779 93.741C61.806 90.933 63.561 89.493 64.914 88.71C66.267 87.927 68.469 90.192 68.853 93.024Z"
    fill="#E0E0E0" stroke="#263238" stroke-linecap="round" stroke-linejoin="round" />
  <path
    d="M68.889 93.3869C67.614 92.5619 66.465 93.1319 66.039 93.0869C65.475 93.0299 64.923 91.0769 64.923 91.0769C64.923 91.0769 64.89 93.8909 63.123 93.3869C62.277 93.1439 61.923 93.2159 61.791 93.3569C61.791 93.4829 61.773 93.6089 61.773 93.7409C61.746 96.5489 63.72 99.4409 65.484 98.8199C67.176 98.2169 69.09 96.0599 68.889 93.3869Z"
    fill="white" stroke="#263238" stroke-linecap="round" stroke-linejoin="round" />
  <path
    d="M75.831 92.8711C76.656 95.5261 75.381 97.0171 73.374 97.6891C70.74 98.5741 69.138 95.1181 68.853 93.0241C68.469 90.1921 69.975 87.7531 71.205 87.5671C72.852 87.3181 75.213 90.8701 75.831 92.8711Z"
    fill="#E0E0E0" stroke="#263238" stroke-linecap="round" stroke-linejoin="round" />
  <path
    d="M75.921 93.216C74.751 92.28 73.92 92.562 73.407 92.22C72.732 91.773 71.715 89.937 71.715 89.937C71.715 89.937 72.159 92.961 70.215 92.583C69.279 92.4 68.928 92.487 68.817 92.637C68.817 92.763 68.838 92.892 68.856 93.024C69.156 95.124 70.743 98.574 73.377 97.689C75.3 97.044 76.53 95.751 75.921 93.216Z"
    fill="white" stroke="#263238" stroke-linecap="round" stroke-linejoin="round" />
  <path
    d="M82.932 91.431C83.94 93.456 82.839 96.666 80.697 97.431C77.997 98.376 76.44 94.968 75.831 92.88C75.048 90.18 75.159 88.68 77.142 88.08C79.578 87.327 81.936 89.427 82.932 91.431Z"
    fill="#E0E0E0" stroke="#263238" stroke-linecap="round" stroke-linejoin="round" />
  <path
    d="M83.064 91.7609C82.017 91.2749 80.817 92.0609 80.268 92.0609C79.539 92.0459 78.084 90.2339 78.084 90.2339C78.084 90.2339 78.147 92.6339 76.818 92.5979C76.179 92.5769 75.795 92.3789 75.732 92.5019C75.765 92.6219 75.795 92.7449 75.831 92.8709C76.431 94.9709 77.907 98.3159 80.697 97.4219C82.854 96.7259 83.976 94.1819 83.064 91.7609Z"
    fill="white" stroke="#263238" stroke-linecap="round" stroke-linejoin="round" />
  <path
    d="M49.602 100.365C49.302 102.618 47.661 105.705 45.069 104.847C42.969 104.154 41.382 101.469 41.727 99.108C42.126 96.408 44.169 94.143 46.308 94.608C48.657 95.13 49.878 98.265 49.602 100.365Z"
    fill="#E0E0E0" stroke="#263238" stroke-linecap="round" stroke-linejoin="round" />
  <path
    d="M49.554 100.743C48.378 100.113 47.154 100.293 46.587 99.936C45.822 99.465 45.552 97.062 45.552 97.062C45.552 97.062 45.231 99.132 43.287 98.709C42.351 98.505 41.931 98.601 41.787 98.733C41.763 98.859 41.739 98.982 41.721 99.108C41.376 101.469 42.945 104.118 45.063 104.847C47.058 105.531 49.152 103.515 49.554 100.743Z"
    fill="white" stroke="#263238" stroke-linecap="round" stroke-linejoin="round" />
  <path
    d="M57.6 100.425C57.531 102.825 56.067 106.212 53.271 105.78C50.904 105.411 49.329 102.726 49.605 100.365C49.848 98.289 51.273 94.644 53.997 95.115C56.1 95.481 57.681 97.434 57.6 100.425Z"
    fill="#E0E0E0" stroke="#263238" stroke-linecap="round" stroke-linejoin="round" />
  <path
    d="M57.57 100.8C56.4 100.233 55.17 100.824 54.612 100.5C53.874 100.083 53.463 97.656 53.463 97.656C53.463 97.656 52.764 99.69 51.087 99.579C50.28 99.522 49.818 99.756 49.659 99.939C49.638 100.074 49.617 100.209 49.602 100.344C49.365 102.726 50.898 105.387 53.268 105.759C55.923 106.2 57.396 103.122 57.57 100.8Z"
    fill="white" stroke="#263238" stroke-linecap="round" stroke-linejoin="round" />
  <path
    d="M65.535 100.242C65.616 102.609 64.635 106.095 61.788 105.825C59.307 105.591 57.474 102.948 57.588 100.425C57.702 98.0249 58.929 94.8569 61.758 95.0819C63.864 95.2499 65.436 97.2299 65.535 100.242Z"
    fill="#E0E0E0" stroke="#263238" stroke-linecap="round" stroke-linejoin="round" />
  <path
    d="M65.535 100.635C64.56 100.149 63.402 100.737 62.859 100.449C62.145 100.065 61.518 97.665 61.518 97.665C61.518 97.665 61.17 100.137 59.091 99.642C58.092 99.405 57.765 99.816 57.624 100.008C57.624 100.146 57.603 100.287 57.597 100.425C57.492 102.93 59.268 105.546 61.797 105.825C63.9 106.062 65.499 103.515 65.535 100.635Z"
    fill="white" stroke="#263238" stroke-linecap="round" stroke-linejoin="round" />
  <path
    d="M73.536 99.1229C73.776 101.502 72.798 105.336 69.792 105.279C67.02 105.225 65.559 102.786 65.535 100.242C65.517 98.1059 66.045 94.1819 69.027 94.3769C71.247 94.5209 73.23 96.0869 73.536 99.1229Z"
    fill="#E0E0E0" stroke="#263238" stroke-linecap="round" stroke-linejoin="round" />
  <path
    d="M73.56 99.5191C72.384 99.0901 71.304 99.9781 70.695 99.7291C69.894 99.3991 69.048 96.9961 69.048 96.9961C69.048 96.9961 68.379 99.0211 66.714 99.2731C65.913 99.3931 65.64 99.6151 65.535 99.8221V100.242C65.562 102.78 67.014 105.216 69.792 105.279C72.651 105.342 73.671 101.817 73.56 99.5191Z"
    fill="white" stroke="#263238" stroke-linecap="round" stroke-linejoin="round" />
  <path
    d="M80.943 98.757C81.276 100.857 80.073 104.742 77.715 104.673C75.357 104.604 73.776 101.427 73.536 99.123C73.215 96.087 74.334 93.795 76.188 94.164C78.042 94.533 80.499 95.937 80.943 98.757Z"
    fill="#E0E0E0" stroke="#263238" stroke-linecap="round" stroke-linejoin="round" />
  <path
    d="M81 99.1289C79.677 98.7689 78.699 99.6539 78.177 99.3779C77.484 99.0089 76.557 96.6509 76.557 96.6509C76.557 96.6509 76.647 99.0869 74.832 98.5049C73.956 98.2229 73.632 98.4839 73.518 98.6969C73.518 98.8379 73.518 98.9819 73.548 99.1229C73.788 101.427 75.255 104.457 77.727 104.673C79.572 104.835 81.264 101.856 81 99.1289Z"
    fill="white" stroke="#263238" stroke-linecap="round" stroke-linejoin="round" />
  <path
    d="M53.373 106.5C53.34 108.93 51.516 111.777 49.296 111.69C46.929 111.597 45.12 108.072 45.171 105.549C45.228 102.738 47.343 101.334 49.671 101.049C52.353 100.704 53.4 104.475 53.373 106.5Z"
    fill="#E0E0E0" stroke="#263238" stroke-linecap="round" stroke-linejoin="round" />
  <path
    d="M53.349 106.884C52.149 105.924 51.015 106.305 50.493 106.11C49.806 105.852 49.233 103.665 49.233 103.665C49.233 103.665 48.867 106.191 46.752 105.423C45.735 105.051 45.345 105.045 45.201 105.165C45.201 105.291 45.174 105.42 45.171 105.549C45.12 108.072 46.797 111.465 49.296 111.69C51.3 111.87 53.136 109.68 53.349 106.884Z"
    fill="white" stroke="#263238" stroke-linecap="round" stroke-linejoin="round" />
  <path
    d="M61.914 106.551C61.932 109.209 60.306 111.726 57.612 112.047C54.759 112.389 53.334 108.888 53.373 106.5C53.418 103.8 55.443 101.556 57.702 101.1C60.171 100.614 61.899 104.25 61.914 106.551Z"
    fill="#E0E0E0" stroke="#263238" stroke-linecap="round" stroke-linejoin="round" />
  <path
    d="M61.899 106.944C60.699 106.044 59.352 106.389 58.773 106.236C58.011 106.035 57.399 103.812 57.399 103.812C57.399 103.812 57.006 106.71 54.924 106.146C53.922 105.876 53.544 105.942 53.4 106.092C53.4 106.224 53.376 106.362 53.373 106.5C53.316 108.9 54.711 112.284 57.612 112.047C59.967 111.855 61.983 109.236 61.899 106.944Z"
    fill="white" stroke="#263238" stroke-linecap="round" stroke-linejoin="round" />
  <path
    d="M69.945 106.014C70.026 108.714 67.959 111.48 65.787 112.047C63.513 112.647 62.007 108.579 61.914 106.551C61.812 104.322 63.687 101.565 65.655 100.923C68.022 100.152 69.882 103.995 69.945 106.014Z"
    fill="#E0E0E0" stroke="#263238" stroke-linecap="round" stroke-linejoin="round" />
  <path
    d="M69.939 106.416C68.619 105.567 67.173 106.167 66.687 106.053C66.042 105.906 65.52 103.68 65.52 103.68C65.52 103.68 65.22 106.611 63.366 106.119C62.466 105.882 62.07 105.975 61.929 106.119C61.929 106.257 61.914 106.395 61.914 106.536C61.914 108.636 63.498 112.62 65.787 112.032C67.839 111.522 69.939 109.005 69.939 106.416Z"
    fill="white" stroke="#263238" stroke-linecap="round" stroke-linejoin="round" />
  <path
    d="M77.865 105.393C78.003 107.793 76.764 110.559 74.229 111.069C71.463 111.624 70.002 108.237 69.945 106.014C69.879 103.461 71.823 100.152 73.719 99.8009C75.681 99.4379 77.733 103.101 77.865 105.393Z"
    fill="#E0E0E0" stroke="#263238" stroke-linecap="round" stroke-linejoin="round" />
  <path
    d="M77.871 105.786C76.749 104.946 75.66 105.453 75.123 105.165C74.412 104.784 73.704 102.6 73.704 102.6C73.704 102.6 73.653 105.756 71.529 105.447C70.506 105.3 70.095 105.414 69.951 105.585C69.951 105.729 69.951 105.87 69.951 106.014C69.999 108.246 71.451 111.822 74.235 111.069C76.278 110.514 77.874 108.645 77.871 105.786Z"
    fill="white" stroke="#263238" stroke-linecap="round" stroke-linejoin="round" />
  <path
    d="M85.446 103.254C85.584 105.972 84.246 108.936 81.846 110.013C79.845 110.913 78.045 108.405 77.862 105.393C77.721 103.074 78.762 100.188 81.162 99.393C83.415 98.643 85.302 100.35 85.446 103.254Z"
    fill="#E0E0E0" stroke="#263238" stroke-linecap="round" stroke-linejoin="round" />
  <path
    d="M85.452 103.635C84.582 103.182 83.235 104.127 82.707 104.106C82.008 104.076 81.24 102.027 81.24 102.027C81.24 102.027 80.742 104.706 79.14 104.805C78.363 104.853 77.982 104.805 77.865 104.976C77.865 105.114 77.865 105.252 77.865 105.393C78.018 108.438 79.842 110.91 81.849 110.013C84.123 108.993 85.5 106.239 85.452 103.635Z"
    fill="white" stroke="#263238" stroke-linecap="round" stroke-linejoin="round" />
  <path
    d="M49.176 112.704C49.236 115.653 47.286 117.966 45.348 117.111C43.11 116.121 41.517 113.157 41.388 110.607C41.247 107.781 42.834 105.807 45.024 106.488C47.679 107.316 49.119 110.025 49.176 112.704Z"
    fill="#E0E0E0" stroke="#263238" stroke-linecap="round" stroke-linejoin="round" />
  <path
    d="M49.164 113.1C47.919 112.287 46.764 112.44 46.164 112.041C45.387 111.513 44.754 109.002 44.754 109.002C44.754 109.002 44.694 111.198 42.777 110.448C41.853 110.088 41.484 110.115 41.376 110.235C41.376 110.361 41.376 110.487 41.376 110.619C41.505 113.169 43.098 116.133 45.336 117.123C47.202 117.93 49.05 115.89 49.164 113.1Z"
    fill="white" stroke="#263238" stroke-linecap="round" stroke-linejoin="round" />
  <path
    d="M57.489 113.1C57.489 115.5 55.989 118.896 53.31 118.551C50.844 118.23 49.2 115.173 49.176 112.716C49.152 110.52 50.523 107.031 53.226 107.517C55.779 107.967 57.486 110.487 57.489 113.1Z"
    fill="#E0E0E0" stroke="#263238" stroke-linecap="round" stroke-linejoin="round" />
  <path
    d="M57.477 113.475C56.199 112.812 54.93 113.373 54.339 113.07C53.559 112.668 52.944 110.181 52.944 110.181C52.944 110.181 52.479 112.458 50.643 112.134C49.761 111.975 49.329 112.134 49.188 112.296C49.188 112.431 49.173 112.566 49.188 112.704C49.224 115.173 50.82 118.176 53.322 118.539C55.686 118.881 57.528 115.605 57.477 113.475Z"
    fill="white" stroke="#263238" stroke-linecap="round" stroke-linejoin="round" />
  <path
    d="M65.7 113.1C65.679 115.44 64.56 118.845 61.884 118.68C59.388 118.524 57.504 115.65 57.501 113.097C57.498 110.544 59.058 107.313 61.803 107.592C64.272 107.835 65.7 110.622 65.7 113.1Z"
    fill="#E0E0E0" stroke="#263238" stroke-linecap="round" stroke-linejoin="round" />
  <path
    d="M65.676 113.481C64.677 112.881 63.453 113.433 62.916 113.154C62.208 112.785 61.548 110.313 61.548 110.313C61.548 110.313 61.248 112.866 59.061 112.413C58.014 112.191 57.645 112.5 57.501 112.683C57.501 112.818 57.501 112.956 57.501 113.097C57.516 115.644 59.301 118.425 61.884 118.68C63.924 118.872 65.559 116.325 65.676 113.481Z"
    fill="white" stroke="#263238" stroke-linecap="round" stroke-linejoin="round" />
  <path
    d="M74.127 112.119C74.109 114.618 72.831 118.182 69.912 118.305C66.993 118.428 65.661 115.632 65.7 113.1C65.724 110.616 66.72 106.905 69.846 107.1C72.495 107.238 74.142 109.5 74.127 112.119Z"
    fill="#E0E0E0" stroke="#263238" stroke-linecap="round" stroke-linejoin="round" />
  <path
    d="M74.115 112.5C72.951 112.044 71.748 112.872 71.139 112.647C70.335 112.347 69.618 109.884 69.618 109.884C69.618 109.884 68.742 112.182 66.957 112.263C66.099 112.299 65.814 112.485 65.7 112.674C65.7 112.809 65.7 112.95 65.7 113.085C65.673 115.626 67.029 118.41 69.924 118.299C72.699 118.2 73.995 114.9 74.115 112.5Z"
    fill="white" stroke="#263238" stroke-linecap="round" stroke-linejoin="round" />
  <path
    d="M81.735 111C81.699 113.319 80.304 116.787 77.889 117.243C76.005 117.597 74.175 115.074 74.127 112.122C74.088 109.842 75.126 106.476 77.802 106.422C79.779 106.401 81.777 108.3 81.735 111Z"
    fill="#E0E0E0" stroke="#263238" stroke-linecap="round" stroke-linejoin="round" />
  <path
    d="M81.72 111.354C80.565 111.054 79.479 111.972 78.972 111.783C78.303 111.537 77.679 109.17 77.679 109.17C77.679 109.17 77.421 111.756 75.54 111.429C74.64 111.273 74.265 111.507 74.136 111.708C74.136 111.846 74.136 111.984 74.136 112.119C74.169 115.086 75.993 117.582 77.898 117.24C80.214 116.823 81.534 113.58 81.72 111.354Z"
    fill="white" stroke="#263238" stroke-linecap="round" stroke-linejoin="round" />
  <path
    d="M53.463 119.442C53.565 122.517 51.837 124.938 49.917 124.515C47.421 123.963 45.792 120.573 45.537 118.011C45.237 115.071 47.037 113.511 49.314 113.568C52.044 113.643 53.382 117.096 53.463 119.442Z"
    fill="#E0E0E0" stroke="#263238" stroke-linecap="round" stroke-linejoin="round" />
  <path
    d="M53.463 119.835C52.263 118.89 51.132 119.283 50.592 119.016C49.875 118.662 49.134 116.247 49.134 116.247C49.134 116.247 48.942 118.854 46.944 117.948C45.981 117.513 45.633 117.489 45.516 117.606C45.516 117.738 45.516 117.873 45.537 118.011C45.792 120.573 47.421 123.963 49.917 124.515C51.756 124.92 53.424 122.718 53.463 119.835Z"
    fill="white" stroke="#263238" stroke-linecap="round" stroke-linejoin="round" />
  <path
    d="M62.001 119.574C62.025 122.094 60.564 124.974 57.876 125.097C55.092 125.235 53.58 121.878 53.463 119.442C53.334 116.772 55.122 114.216 57.63 113.943C60.318 113.649 61.977 117.111 62.001 119.574Z"
    fill="#E0E0E0" stroke="#263238" stroke-linecap="round" stroke-linejoin="round" />
  <path
    d="M61.989 119.973C60.819 119.073 59.499 119.523 58.902 119.325C58.116 119.061 57.402 116.688 57.402 116.688C57.402 116.688 57.051 119.538 54.96 119.025C53.952 118.779 53.589 118.86 53.46 119.025C53.46 119.163 53.46 119.304 53.46 119.448C53.544 121.92 55.008 125.169 57.873 125.103C60.267 125.04 62.1 122.19 61.989 119.973Z"
    fill="white" stroke="#263238" stroke-linecap="round" stroke-linejoin="round" />
  <path
    d="M70.029 119.208C69.96 121.794 67.791 124.869 65.625 125.19C63.459 125.511 62.025 121.695 62.001 119.574C61.959 116.907 63.531 114.474 65.793 113.937C68.055 113.4 70.086 117 70.029 119.208Z"
    fill="#E0E0E0" stroke="#263238" stroke-linecap="round" stroke-linejoin="round" />
  <path
    d="M70.002 119.613C68.733 118.806 67.191 119.439 66.702 119.277C66.057 119.064 65.583 116.703 65.583 116.703C65.583 116.703 65.127 119.553 63.381 119.103C62.544 118.884 62.145 118.989 62.013 119.154C62.013 119.292 61.998 119.436 62.013 119.58C62.031 121.71 63.426 125.511 65.637 125.196C67.674 124.899 69.882 122.1 70.002 119.613Z"
    fill="white" stroke="#263238" stroke-linecap="round" stroke-linejoin="round" />
  <path
    d="M77.961 118.098C77.793 120.612 76.434 123.624 73.827 124.257C71.127 124.917 69.975 121.281 70.029 119.208C70.092 116.55 72.012 113.406 74.253 112.947C76.494 112.488 78.108 115.872 77.961 118.098Z"
    fill="#E0E0E0" stroke="#263238" stroke-linecap="round" stroke-linejoin="round" />
  <path
    d="M77.925 118.5C76.905 117.846 75.756 118.518 75.225 118.302C74.538 118.02 73.995 115.746 73.995 115.746C73.995 115.746 73.695 118.788 71.622 118.578C70.617 118.479 70.197 118.605 70.044 118.785C70.044 118.926 70.023 119.07 70.02 119.217C69.96 121.299 71.097 124.917 73.818 124.266C76.305 123.66 77.67 120.9 77.925 118.5Z"
    fill="white" stroke="#263238" stroke-linecap="round" stroke-linejoin="round" />
  <path
    d="M85.107 115.302C84.759 118.029 83.256 121.026 80.952 122.325C79.203 123.312 77.823 121.125 77.952 118.098C78.066 115.587 79.383 112.725 81.852 111.744C84 110.889 85.47 112.44 85.107 115.302Z"
    fill="#E0E0E0" stroke="#263238" stroke-linecap="round" stroke-linejoin="round" />
  <path
    d="M85.05 115.68C84.306 115.38 83.052 116.403 82.59 116.409C81.99 116.409 81.546 114.363 81.546 114.363C81.546 114.363 80.895 117.063 79.281 117.309C78.504 117.426 78.126 117.495 77.994 117.681C77.994 117.819 77.967 117.957 77.961 118.098C77.802 121.131 79.197 123.312 80.961 122.325C83.154 121.089 84.6 118.275 85.05 115.68Z"
    fill="white" stroke="#263238" stroke-linecap="round" stroke-linejoin="round" />
  <path
    d="M49.968 126.129C50.316 129.039 48.951 130.893 47.37 129.894C45.27 128.565 43.71 125.694 43.095 123.213C42.426 120.513 43.584 118.755 45.582 119.613C48.12 120.669 49.647 123.438 49.968 126.129Z"
    fill="#E0E0E0" stroke="#263238" stroke-linecap="round" stroke-linejoin="round" />
  <path
    d="M49.998 126.504C48.798 125.535 47.82 125.652 47.28 125.22C46.569 124.653 45.687 122.127 45.687 122.127C45.687 122.127 45.858 124.359 44.187 123.303C43.377 122.796 43.095 122.751 43.029 122.844C43.053 122.967 43.074 123.09 43.107 123.213C43.707 125.703 45.279 128.565 47.382 129.894C48.882 130.851 50.175 129.231 49.998 126.504Z"
    fill="white" stroke="#263238" stroke-linecap="round" stroke-linejoin="round" />
  <path
    d="M57.801 126.777C57.891 129.777 55.953 132.201 54.162 131.91C51.762 131.52 50.244 128.46 49.962 126.129C49.62 123.21 51.315 120.819 53.403 121.128C55.992 121.5 57.726 124.179 57.801 126.777Z"
    fill="#E0E0E0" stroke="#263238" stroke-linecap="round" stroke-linejoin="round" />
  <path
    d="M57.801 127.167C56.544 126.411 55.344 126.954 54.777 126.666C54.03 126.291 53.313 123.84 53.313 123.84C53.313 123.84 53.079 126.282 51.276 125.757C50.409 125.505 50.049 125.58 49.938 125.724C49.938 125.859 49.938 125.994 49.968 126.129C50.244 128.46 51.75 131.529 54.168 131.91C55.875 132.189 57.744 129.999 57.801 127.167Z"
    fill="white" stroke="#263238" stroke-linecap="round" stroke-linejoin="round" />
  <path
    d="M65.457 126.9C65.277 129.921 63.657 132.372 61.857 132.195C59.412 131.955 57.885 129.129 57.81 126.774C57.732 124.293 59.31 121.074 61.899 121.275C64.35 121.476 65.601 124.5 65.457 126.9Z"
    fill="#E0E0E0" stroke="#263238" stroke-linecap="round" stroke-linejoin="round" />
  <path
    d="M65.43 127.299C64.545 126.579 63.354 127.11 62.886 126.837C62.265 126.477 61.665 124.032 61.665 124.032C61.665 124.032 61.389 126.591 59.319 126.174C58.32 125.973 57.939 126.174 57.819 126.36C57.819 126.498 57.819 126.636 57.819 126.777C57.894 129.135 59.421 131.958 61.866 132.198C63.6 132.369 65.181 130.2 65.43 127.299Z"
    fill="white" stroke="#263238" stroke-linecap="round" stroke-linejoin="round" />
  <path
    d="M73.545 126C73.137 128.334 71.718 131.823 69.006 132.072C66.906 132.264 65.34 129.945 65.457 126.891C65.559 124.293 66.777 121.011 69.846 120.936C72.324 120.9 73.917 123.867 73.545 126Z"
    fill="#E0E0E0" stroke="#263238" stroke-linecap="round" stroke-linejoin="round" />
  <path
    d="M73.5 126.417C72.495 125.889 71.265 126.696 70.716 126.492C69.987 126.219 69.48 123.771 69.48 123.771C69.48 123.771 68.409 126.285 66.699 126.189C65.877 126.144 65.616 126.297 65.499 126.489C65.499 126.63 65.475 126.771 65.466 126.912C65.331 129.984 66.903 132.279 69.015 132.093C71.589 131.856 73.107 128.781 73.5 126.417Z"
    fill="white" stroke="#263238" stroke-linecap="round" stroke-linejoin="round" />
  <path
    d="M80.547 124.002C80.025 126.471 78.447 129.654 76.119 130.602C74.499 131.256 73.227 129.12 73.545 126.021C73.8 123.525 75.129 120.321 77.745 119.802C79.653 119.4 81.159 121.11 80.547 124.002Z"
    fill="#E0E0E0" stroke="#263238" stroke-linecap="round" stroke-linejoin="round" />
  <path
    d="M80.46 124.386C79.635 124.107 78.534 125.1 78.105 124.986C77.538 124.842 77.292 122.559 77.292 122.559C77.292 122.559 76.692 125.241 74.961 125.178C74.121 125.145 73.761 125.367 73.605 125.577C73.581 125.721 73.56 125.877 73.545 126.009C73.212 129.12 74.487 131.238 76.119 130.59C78.36 129.705 79.839 126.729 80.46 124.386Z"
    fill="white" stroke="#263238" stroke-linecap="round" stroke-linejoin="round" />
  <path
    d="M54.426 133.446C54.726 136.164 53.859 138.18 52.425 137.499C50.259 136.473 48.549 133.749 47.85 131.4C47.094 128.853 48.3 127.341 50.271 127.755C52.713 128.268 54.171 131.073 54.426 133.446Z"
    fill="#E0E0E0" stroke="#263238" stroke-linecap="round" stroke-linejoin="round" />
  <path
    d="M54.45 133.8C53.391 132.978 52.437 133.284 51.942 132.969C51.288 132.552 50.406 130.269 50.406 130.269C50.406 130.269 50.493 132.561 48.864 131.541C48.081 131.049 47.826 130.98 47.763 131.067C47.79 131.184 47.817 131.301 47.85 131.421C48.549 133.77 50.25 136.494 52.425 137.52C53.796 138.15 54.6 136.317 54.45 133.8Z"
    fill="white" stroke="#263238" stroke-linecap="round" stroke-linejoin="round" />
  <path
    d="M61.917 133.743C61.824 136.479 60.642 138.459 58.689 138.39C56.736 138.321 54.72 136.167 54.426 133.446C54.132 130.725 55.752 128.43 57.987 128.427C60.624 128.421 61.995 131.376 61.917 133.743Z"
    fill="#E0E0E0" stroke="#263238" stroke-linecap="round" stroke-linejoin="round" />
  <path
    d="M61.893 134.1C60.954 133.32 59.793 133.773 59.25 133.554C58.536 133.254 57.837 131.046 57.837 131.046C57.837 131.046 57.537 133.485 55.686 133.059C54.786 132.855 54.486 132.933 54.399 133.074C54.399 133.197 54.399 133.32 54.426 133.449C54.726 136.17 56.739 138.324 58.689 138.393C60.558 138.456 61.701 136.656 61.893 134.1Z"
    fill="white" stroke="#263238" stroke-linecap="round" stroke-linejoin="round" />
  <path
    d="M68.895 133.65C68.451 136.455 65.982 138.663 64.665 138.651C63.348 138.639 61.842 136.497 61.917 133.743C61.992 130.989 63.753 128.733 65.469 128.574C67.185 128.415 69.339 130.842 68.895 133.65Z"
    fill="#E0E0E0" stroke="#263238" stroke-linecap="round" stroke-linejoin="round" />
  <path
    d="M68.823 134.01C67.821 133.341 66.282 133.929 65.877 133.737C65.343 133.482 65.118 131.244 65.118 131.244C65.118 131.244 64.398 133.701 63.054 133.308C62.406 133.116 62.055 133.215 61.938 133.365C61.938 133.491 61.92 133.617 61.917 133.743C61.842 136.497 63.348 138.639 64.665 138.651C65.925 138.663 68.256 136.635 68.823 134.01Z"
    fill="white" stroke="#263238" stroke-linecap="round" stroke-linejoin="round" />
  <path
    d="M75.795 132.078C75.099 134.322 73.491 137.025 71.295 137.832C69.753 138.396 68.442 136.449 68.895 133.65C69.303 131.103 71.028 128.46 73.458 127.683C75.396 127.065 76.626 129.408 75.795 132.078Z"
    fill="#E0E0E0" stroke="#263238" stroke-linecap="round" stroke-linejoin="round" />
  <path
    d="M75.681 132.429C75.006 132.057 73.881 132.834 73.479 132.729C72.942 132.582 72.837 130.44 72.837 130.44C72.837 130.44 72.141 133.098 70.368 133.014C69.516 132.975 69.126 133.101 68.97 133.266C68.943 133.395 68.916 133.524 68.895 133.656C68.451 136.461 69.636 138.345 71.295 137.838C72.9 137.346 74.787 135 75.681 132.429Z"
    fill="white" stroke="#263238" stroke-linecap="round" stroke-linejoin="round" />
  <path
    d="M81.414 128.631C80.1999 131.029 78.5603 133.187 76.575 135C75.375 136.047 74.991 134.793 75.795 132.09C76.539 129.6 78.024 126.846 80.295 125.568C82.035 124.578 82.707 126.114 81.414 128.631Z"
    fill="#E0E0E0" stroke="#263238" stroke-linecap="round" stroke-linejoin="round" />
  <path
    d="M81.237 128.967C80.901 128.898 79.824 129.948 79.536 130.002C79.152 130.071 79.428 128.202 79.428 128.202C79.428 128.202 78.384 130.716 77.049 131.136C76.407 131.34 76.068 131.517 75.918 131.709C75.876 131.835 75.834 131.961 75.795 132.087C74.988 134.787 75.381 136.044 76.575 134.997C78.417 133.371 80.007 131.166 81.237 128.967Z"
    fill="white" stroke="#263238" stroke-linecap="round" stroke-linejoin="round" />
  <path
    d="M50.199 95.259L56.121 97.749C60.411 99.549 65.217 103.926 66.762 110.964C68.307 118.002 66.333 125.808 63.6 130.2C60.867 134.592 56.82 137.4 50.211 139.638C43.602 141.876 38.283 141.438 33.48 139.554C28.677 137.67 25.755 135.354 24.48 133.032C23.205 130.71 20.682 119.886 24.3 111.822C27.918 103.758 37.344 100.323 41.634 98.862C44.5571 97.8299 47.417 96.6268 50.199 95.259Z"
    fill="#FFC100" stroke="#263238" stroke-linecap="round" stroke-linejoin="round" />
  <path
    d="M63.072 108.561C61.872 105.561 61.272 103.068 59.382 101.265C57.492 99.4621 53.547 97.5001 52.089 96.5461C50.631 95.5921 50.457 95.2591 49.599 95.2591C48.741 95.2591 48.399 95.0881 48.141 95.2591C47.8681 95.4708 47.6096 95.7003 47.367 95.9461C47.367 95.9461 44.967 95.7751 44.367 95.6011C43.767 95.4271 43.167 94.7431 41.967 95.1721C40.767 95.6011 40.338 95.1721 37.167 96.3721C33.996 97.5721 32.178 97.8331 29.1 99.9001C26.022 101.967 22.578 107.193 21.462 109.167C20.346 111.141 19.317 118.434 19.317 121.182C19.317 123.93 21.462 129.933 22.407 131.307C23.352 132.681 28.755 136.542 32.361 137.907C35.967 139.272 40.941 139.452 43.602 138.681C46.263 137.91 49.695 137.22 53.469 134.391C57.243 131.562 61.02 124.092 62.394 121.002C63.768 117.912 64.272 111.564 63.072 108.561Z"
    fill="#263238" />
  <path
    d="M45.222 96.462C45.222 96.462 45.111 96.432 44.907 96.396C43.0436 96.0727 41.1324 96.1535 39.303 96.633C36.213 97.491 31.836 99.207 29.433 101.01C27.03 102.813 22.911 108.474 21.711 111.648C20.511 114.822 20.337 121.176 20.853 123.75C21.369 126.324 22.14 130.2 26.7 133.275C31.26 136.35 36.825 138.765 39.657 138.252C42.489 137.739 46.779 136.107 49.182 135.162C51.585 134.217 56.649 128.562 58.278 125.979C59.907 123.396 61.278 117.999 61.278 112.68C61.278 107.361 59.649 103.239 57.933 101.181C56.217 99.123 51.669 97.32 49.695 96.981C47.721 96.642 45.222 96.462 45.222 96.462Z"
    fill="#E5E5E5" />
  <path
    d="M61.269 112.68C61.2712 111.272 61.1518 109.867 60.912 108.48C59.73 106.533 56.85 102.243 55.092 101.949C53.031 101.61 45.3 101.01 45.3 101.01L39.723 101.523C39.723 101.523 37.284 103.134 35.778 104.223C38.9354 104.798 41.8754 106.226 44.28 108.351C48.555 112.251 48.555 119.817 46.71 123.318C44.865 126.819 41.268 129.633 36.699 129.918C34.1822 130.069 31.6568 129.979 29.157 129.651C29.3243 130.092 29.5961 130.487 29.949 130.8C32.265 133.116 33.21 135.948 40.332 136.635C41.649 136.764 43.101 136.839 44.598 136.872C46.314 136.272 47.976 135.645 49.17 135.177C51.57 134.232 56.637 128.577 58.266 125.994C59.895 123.411 61.269 117.999 61.269 112.68Z"
    fill="#C7C7C7" />
  <path
    d="M45.222 96.462C45.222 96.462 45.111 96.432 44.907 96.396C43.0436 96.0727 41.1324 96.1535 39.303 96.633C36.213 97.491 31.836 99.207 29.433 101.01C27.03 102.813 22.911 108.474 21.711 111.648C20.511 114.822 20.337 121.176 20.853 123.75C21.369 126.324 22.14 130.2 26.7 133.275C28.3102 134.369 29.9965 135.346 31.746 136.2C32.3359 135.355 32.8537 134.462 33.294 133.53C33.981 132.072 34.326 131.643 34.068 130.956C33.81 130.269 33.381 128.982 33.381 128.982C31.9308 128.498 30.6522 127.604 29.7 126.408C28.155 124.434 26.61 118.428 26.61 117.741C26.61 117.054 26.352 117.054 26.697 115.425C27.0553 113.871 27.543 112.35 28.155 110.877C28.497 110.106 28.413 109.932 29.271 109.077C29.8162 108.502 30.4194 107.984 31.071 107.532C32.9416 106.421 34.8896 105.445 36.9 104.613C38.529 104.013 40.5 103.497 41.019 103.326C41.538 103.155 41.532 102.897 42.219 102.897C43.1404 102.962 44.0421 103.195 44.88 103.584C45.567 103.926 45.138 104.013 45.996 104.013H47.454C47.6847 104.024 47.9143 104.052 48.141 104.097C49.0036 102.94 49.8047 101.738 50.541 100.497C51.228 99.21 51.57 98.181 51.57 97.923C51.57 97.788 51.384 97.563 51.207 97.374C50.7078 97.21 50.1988 97.0778 49.683 96.978C47.7 96.633 45.222 96.462 45.222 96.462Z"
    fill="white" />
  <path d="M45.996 104.013L45.396 103.947C45.5879 104.017 45.7936 104.039 45.996 104.013Z" fill="#969696" />
  <path
    d="M51.573 97.92C51.573 97.785 51.387 97.56 51.21 97.371C50.7109 97.207 50.2018 97.0748 49.686 96.975C48.375 96.747 46.845 96.597 45.96 96.519L46.683 97.062C47.025 97.32 48.141 97.749 47.796 98.178C47.0667 99.0297 46.5917 100.069 46.425 101.178C46.08 102.978 45.996 104.01 45.996 104.01H47.454C47.6847 104.021 47.9144 104.049 48.141 104.094C49.0036 102.937 49.8048 101.735 50.541 100.494C51.231 99.207 51.573 98.178 51.573 97.92Z"
    fill="#C7C7C7" />
  <path
    d="M58.266 125.979C59.898 123.405 61.266 117.999 61.266 112.68C61.266 107.361 59.637 103.239 57.921 101.181C56.577 99.5702 53.502 98.1182 51.282 97.3982C51.096 97.8932 49.974 100.845 49.425 101.868C48.825 102.981 48.567 104.355 48.738 104.784C48.909 105.213 50.712 106.242 52.257 106.758C53.802 107.274 53.886 106.929 54.315 107.787C54.744 108.645 54.915 108.819 55.089 109.848C55.263 110.877 55.602 115.338 55.602 116.448C55.602 117.558 55.089 119.967 54.918 120.483C54.747 120.999 54.489 121.854 54.318 122.37C54.147 122.886 53.805 123.744 53.46 123.828C53.115 123.912 52.089 124.773 51.573 125.115C51.057 125.457 51.315 125.373 50.373 126.147C49.431 126.921 47.373 128.721 46.596 129.147C45.819 129.573 45.738 130.089 44.622 130.263C43.506 130.437 42.993 130.692 42.39 130.692H40.5C39.729 130.692 39.213 130.776 38.526 130.776C37.839 130.776 37.755 130.947 37.326 130.776C36.897 130.605 35.865 130.347 35.094 129.918C34.323 129.489 34.752 129.576 33.72 129.06C32.688 128.544 31.662 131.721 31.746 132.06C31.83 132.399 32.262 132.318 32.262 132.66C32.262 133.002 32.262 133.692 31.92 133.776C31.578 133.86 30.72 135.408 30.72 135.408C30.72 135.408 30.72 135.516 30.75 135.687C34.2 137.487 37.623 138.606 39.645 138.24C42.477 137.724 46.767 136.095 49.17 135.15C51.573 134.205 56.637 128.553 58.266 125.979Z"
    fill="white" />
  <path d="M26.859 110.964L22.38 110.178C22.227 110.478 22.08 110.76 21.966 111.033L26.859 110.964Z" fill="#E5E5E5" />
  <path d="M20.982 114.6C20.949 114.816 20.916 115.038 20.886 115.263L26.259 114.987L20.982 114.6Z" fill="#E5E5E5" />
  <path d="M20.7 117.126C20.679 117.39 20.661 117.657 20.646 117.921L25.41 117.054L20.7 117.126Z" fill="#E5E5E5" />
  <path d="M20.631 118.035C20.631 118.359 20.601 118.683 20.592 119.004L25.83 117.741L20.631 118.035Z" fill="#E5E5E5" />
  <path d="M25.5 132.39C25.832 132.666 26.19 132.936 26.574 133.2L28.308 130.956L25.5 132.39Z" fill="#E5E5E5" />
  <path d="M33.3 103.41L31.152 99.9001C30.918 100.032 30.69 100.164 30.474 100.299L33.3 103.41Z" fill="#E5E5E5" />
  <path d="M25.743 121.089L20.643 121.959C20.667 122.313 20.697 122.643 20.733 122.943L25.743 121.089Z"
    fill="#E5E5E5" />
  <path d="M21.027 124.593C21.09 124.893 21.162 125.193 21.243 125.523L26.7 123.405L21.027 124.593Z" fill="#E5E5E5" />
  <path d="M28.059 109.761L24.129 107.241C23.913 107.565 23.703 107.892 23.502 108.216L28.059 109.761Z"
    fill="#E5E5E5" />
  <path d="M22.644 129.039C22.785 129.279 22.944 129.522 23.1 129.762L28.575 126.408L22.644 129.039Z" fill="#E5E5E5" />
  <path d="M27.717 125.037L21.381 126.03C21.498 126.429 21.633 126.843 21.795 127.263L27.717 125.037Z" fill="#E5E5E5" />
  <path d="M33.675 98.6582L36.126 102.639L34.182 98.4392L33.675 98.6582Z" fill="#E5E5E5" />
  <path d="M36.159 97.6531C35.919 97.7401 35.679 97.8331 35.436 97.9261L36.9 99.8071L36.159 97.6531Z" fill="#E5E5E5" />
  <path d="M38.757 96.789L40.59 102.21C40.59 102.21 39.63 98.058 39.258 96.645L38.757 96.789Z" fill="#E5E5E5" />
  <path d="M28.404 132.33L26.757 133.32C27.057 133.512 27.333 133.698 27.627 133.887L28.404 132.33Z" fill="#E5E5E5" />
  <path d="M23.292 130.035C23.5448 130.385 23.8162 130.722 24.105 131.043L27.804 128.382L23.292 130.035Z"
    fill="#E5E5E5" />
  <path d="M27.33 103.047C27.051 103.362 26.766 103.695 26.481 104.046L31.065 106.416L27.33 103.047Z" fill="#E5E5E5" />
  <path
    d="M29.574 100.908C29.526 100.944 29.478 100.974 29.433 101.01C29.328 101.088 29.22 101.175 29.112 101.268L33.21 105.213L29.574 100.908Z"
    fill="#E5E5E5" />
  <path
    d="M58.857 102.531C58.5843 102.056 58.2722 101.604 57.924 101.181C57.882 101.13 57.834 101.082 57.789 101.034L56.55 104.1L58.857 102.531Z"
    fill="#E5E5E5" />
  <path
    d="M53.757 131.442C52.527 132.324 51.057 133.359 51.057 133.359L50.373 132.33L50.598 134.307C51.7222 133.434 52.7782 132.476 53.757 131.442Z"
    fill="#E5E5E5" />
  <path d="M50.487 134.4L48.387 131.826L48.9 135.27L49.179 135.162C49.6443 134.962 50.0835 134.706 50.487 134.4Z"
    fill="#E5E5E5" />
  <path d="M41.574 137.799C42.081 137.661 42.603 137.499 43.131 137.34L42.135 132.84L41.574 137.799Z" fill="#E5E5E5" />
  <path d="M38.283 138.3L38.358 136.539L37.824 138.255C37.983 138.27 38.136 138.3 38.283 138.3Z" fill="#E5E5E5" />
  <path
    d="M58.953 104.1L58.008 104.787H59.898L59.124 105.3C59.124 105.3 59.382 105.213 59.382 105.642C59.4605 106.334 59.5746 107.022 59.724 107.703L60.24 108.819C60.5504 108.996 60.8292 109.223 61.065 109.491C60.827 107.514 60.2972 105.583 59.493 103.761L58.953 104.1Z"
    fill="#E5E5E5" />
  <path
    d="M59.469 119.115C58.953 120.573 58.695 122.115 58.095 122.805C57.495 123.495 57.237 125.637 56.979 126.153C56.721 126.669 56.892 126.753 56.292 127.782C56.0533 128.225 55.8872 128.703 55.8 129.198C56.6919 128.181 57.5157 127.105 58.266 125.979C59.898 123.405 61.266 117.999 61.266 112.68C61.2672 111.7 61.2101 110.72 61.095 109.746V111.993L60.237 112.851L60.753 113.88L60.237 114.396C60.237 114.396 59.982 117.657 59.469 119.115Z"
    fill="#E5E5E5" />
  <path
    d="M48.741 104.784C48.912 105.213 50.715 106.242 52.26 106.758C53.313 107.109 53.688 107.058 53.955 107.268C53.913 107.148 53.847 107.061 53.805 106.929C53.718 106.671 53.205 106.071 52.689 105.558C52.1972 105.102 51.6815 104.672 51.144 104.271C51.144 104.271 49.428 103.755 48.999 103.839C48.822 103.875 48.735 104.112 48.699 104.379C48.6885 104.516 48.7027 104.653 48.741 104.784Z"
    fill="#C7C7C7" />
</svg>