<svg width="178" height="131" viewBox="0 0 178 131" fill="none" xmlns="http://www.w3.org/2000/svg">
  <path d="M82.9485 62.7809V0.627441H77.6649" stroke="#263238" stroke-linecap="round" stroke-linejoin="round" />
  <path d="M82.9485 72.9423V70.6768" stroke="#263238" stroke-linecap="round" stroke-linejoin="round" />
  <path d="M64.068 0.627441H9.53052V80.901H82.9485" stroke="#263238" stroke-linecap="round" stroke-linejoin="round" />
  <path d="M70.7581 0.627441H65.9631" stroke="#263238" stroke-linecap="round" stroke-linejoin="round" />
  <path d="M12.2924 78.1431L80.1865 78.1431L80.1865 3.37762L12.2924 3.37762L12.2924 78.1431Z" stroke="#263238"
    stroke-linecap="round" stroke-linejoin="round" />
  <path d="M15.4484 8.62964V37.7068H77.0306V35.0552" stroke="#263238" stroke-linecap="round" stroke-linejoin="round" />
  <path d="M77.0306 28.8339V6.26953H15.4484" stroke="#263238" stroke-linecap="round" stroke-linejoin="round" />
  <path d="M77.0306 33.0143V30.4336" stroke="#263238" stroke-linecap="round" stroke-linejoin="round" />
  <path d="M25.85 40.7642H12.2925" stroke="#263238" stroke-linecap="round" stroke-linejoin="round" />
  <path d="M30.6687 40.7642H28.7499" stroke="#263238" stroke-linecap="round" stroke-linejoin="round" />
  <path d="M80.1865 40.7642H32.9617" stroke="#263238" stroke-linecap="round" stroke-linejoin="round" />
  <path d="M49.6515 37.7068V36.3081H43.974V37.104H46.2395V37.7068" stroke="#263238" stroke-linecap="round"
    stroke-linejoin="round" />
  <path
    d="M80.0683 65.8186C80.0683 65.8186 79.1306 66.5318 78.4647 70.8461C78.4647 70.8461 77.3261 63.959 75.9431 63.8486C74.5602 63.7383 74.8438 68.3324 74.8438 68.3324C74.8438 68.3324 74.6153 66.0708 73.5318 66.1732C72.4483 66.2757 73.5318 70.8461 73.5318 70.8461C73.5318 70.8461 72.2316 67.3001 71.0023 67.3474C69.7731 67.3946 71.8179 73.7971 71.8179 73.7971C71.8179 73.7971 68.6659 71.5119 67.3854 72.6151C66.1049 73.7183 68.0946 76.5551 68.0946 76.5551C68.0946 76.5551 63.5676 75.5741 62.8623 78.2296"
    stroke="#263238" stroke-linecap="round" stroke-linejoin="round" />
  <path
    d="M62.8623 75.6688C62.8623 75.6688 60.8923 74.3764 59.34 74.9793C59.34 74.9793 60.325 73.4742 59.34 72.5562C58.355 71.6381 57.0823 74.9793 57.0823 74.9793C57.0823 74.9793 56.9444 69.3805 54.9705 69.6642C52.9966 69.9479 54.9705 74.9793 54.9705 74.9793C54.9705 74.9793 51.4245 71.8548 50.601 72.9423C49.7776 74.0297 51.1645 75.6688 51.1645 75.6688C51.1645 75.6688 49.0487 74.995 47.5003 76.571C47.5003 76.571 45.1363 74.1597 42.5122 73.813C42.5122 73.813 44.2576 68.7462 43.4105 67.7257C42.5634 66.7053 41.0268 72.1464 41.0268 72.1464C41.0268 72.1464 40.357 68.6004 38.1506 68.3325C38.1506 68.3325 39.9867 67.3357 39.443 65.8188C38.8992 64.3019 36.3619 66.1733 36.3619 66.1733C36.3619 66.1733 37.406 63.5139 35.7551 62.781C34.1043 62.0482 33.4187 65.011 33.4187 65.011C33.4187 65.011 32.9617 61.9103 31.0192 62.0797C29.0768 62.2491 29.7112 65.8188 29.7112 65.8188C29.7112 65.8188 27.883 62.982 26.9019 63.2735C24.9319 63.8488 25.5387 68.3325 25.5387 68.3325C25.5387 68.3325 22.8083 66.4334 22.107 67.3081C21.3465 68.2497 24.9438 70.6768 24.9438 70.6768C24.9438 70.6768 22.237 70.988 20.5507 72.564"
    stroke="#263238" stroke-linecap="round" stroke-linejoin="round" />
  <path
    d="M12.2925 66.8432C12.2925 66.8432 12.6037 63.9985 15.4445 63.8488C18.2852 63.6991 14.6565 70.0858 14.6565 70.0858C14.6565 70.0858 17.0205 68.1473 17.8439 68.7423C18.6674 69.3372 15.4405 72.631 15.4405 72.631C15.4405 72.631 17.0165 71.189 18.6438 71.6342C20.271 72.0794 17.7021 76.6616 17.7021 76.6616C20.1405 76.1692 22.6724 76.4644 24.932 77.5048"
    stroke="#263238" stroke-linecap="round" stroke-linejoin="round" />
  <path d="M158.029 112.504C158.455 110.431 154.538 45.8863 163.667 18.2905" stroke="#263238" stroke-linecap="round"
    stroke-linejoin="round" />
  <path d="M148.758 27.4944C148.758 27.4944 156.504 34.5864 159.038 43.9163" stroke="#263238" stroke-linecap="round"
    stroke-linejoin="round" />
  <path d="M158.029 59.1681C158.029 59.1681 163.652 52.1037 169.676 49.6648" stroke="#263238" stroke-linecap="round"
    stroke-linejoin="round" />
  <path d="M149.932 65.3972C149.932 65.3972 155.027 65.9212 157.679 69.2584" stroke="#263238" stroke-linecap="round"
    stroke-linejoin="round" />
  <path
    d="M153.904 28.042C154.179 29.8186 154.152 31.6287 153.825 33.3965C153.825 33.3965 150.78 32.9749 149.566 33.1325"
    stroke="#263238" stroke-linecap="round" stroke-linejoin="round" />
  <path
    d="M159.885 21.218C159.885 21.218 160.811 24.5631 161.595 26.1509C162.968 25.1726 164.401 24.2817 165.886 23.4835"
    stroke="#263238" stroke-linecap="round" stroke-linejoin="round" />
  <path
    d="M158.029 30.1538C158.029 30.1538 159.361 32.6715 160.196 34.0938C160.196 34.0938 163.624 31.9859 165.259 31.454"
    stroke="#263238" stroke-linecap="round" stroke-linejoin="round" />
  <path d="M167.131 46.5994C167.131 46.5994 165.098 49.905 164.83 52.5369C164.83 52.5369 168.143 54.0026 168.77 54.8615"
    stroke="#263238" stroke-linecap="round" stroke-linejoin="round" />
  <path
    d="M153.179 63.3523C153.179 63.3523 154.881 65.3223 155.354 67.249C155.354 67.249 153.179 68.4625 152.635 69.2584"
    stroke="#263238" stroke-linecap="round" stroke-linejoin="round" />
  <path d="M152.635 49.8184C152.635 49.8184 157.099 51.1067 158.254 54.3415" stroke="#263238" stroke-linecap="round"
    stroke-linejoin="round" />
  <path d="M157.596 73.9981C159.2 72.8981 160.876 71.9057 162.611 71.0273" stroke="#263238" stroke-linecap="round"
    stroke-linejoin="round" />
  <path
    d="M164.656 17.7586C164.652 17.9136 164.603 18.0639 164.514 18.1909C164.425 18.3179 164.301 18.4158 164.156 18.4724C164.012 18.5291 163.854 18.5419 163.703 18.5093C163.551 18.4767 163.413 18.4001 163.305 18.2892C163.196 18.1782 163.123 18.0378 163.094 17.8855C163.065 17.7333 163.082 17.5758 163.142 17.433C163.203 17.2902 163.304 17.1682 163.433 17.0825C163.562 16.9967 163.713 16.951 163.868 16.9509C163.973 16.9509 164.078 16.9719 164.175 17.0127C164.271 17.0536 164.359 17.1134 164.433 17.1886C164.506 17.2639 164.564 17.3531 164.602 17.451C164.641 17.5489 164.659 17.6535 164.656 17.7586Z"
    fill="white" stroke="#263238" stroke-linecap="round" stroke-linejoin="round" />
  <path
    d="M166.063 24.2872C166.507 24.2872 166.867 23.9273 166.867 23.4834C166.867 23.0395 166.507 22.6797 166.063 22.6797C165.619 22.6797 165.259 23.0395 165.259 23.4834C165.259 23.9273 165.619 24.2872 166.063 24.2872Z"
    fill="white" stroke="#263238" stroke-linecap="round" stroke-linejoin="round" />
  <path
    d="M166.063 31.466C166.063 31.6218 166.017 31.7742 165.93 31.9038C165.843 32.0334 165.72 32.1344 165.576 32.194C165.432 32.2537 165.274 32.2693 165.121 32.2389C164.968 32.2084 164.828 32.1334 164.718 32.0232C164.607 31.913 164.532 31.7726 164.502 31.6197C164.472 31.4669 164.487 31.3084 164.547 31.1644C164.606 31.0204 164.707 30.8974 164.837 30.8108C164.967 30.7242 165.119 30.678 165.275 30.678C165.484 30.678 165.684 30.761 165.832 30.9088C165.98 31.0566 166.063 31.257 166.063 31.466Z"
    fill="white" stroke="#263238" stroke-linecap="round" stroke-linejoin="round" />
  <path
    d="M160.689 20.6859C160.689 20.8418 160.642 20.9942 160.556 21.1237C160.469 21.2533 160.346 21.3543 160.202 21.414C160.058 21.4736 159.9 21.4892 159.747 21.4588C159.594 21.4284 159.454 21.3534 159.343 21.2431C159.233 21.1329 159.158 20.9925 159.128 20.8397C159.097 20.6868 159.113 20.5284 159.173 20.3844C159.232 20.2404 159.333 20.1173 159.463 20.0307C159.592 19.9442 159.745 19.8979 159.901 19.8979C160.11 19.8979 160.31 19.981 160.458 20.1287C160.606 20.2765 160.689 20.477 160.689 20.6859Z"
    fill="white" stroke="#263238" stroke-linecap="round" stroke-linejoin="round" />
  <path
    d="M154.692 28.0419C154.692 28.1978 154.646 28.3501 154.559 28.4797C154.473 28.6093 154.35 28.7103 154.206 28.7699C154.062 28.8296 153.903 28.8452 153.75 28.8148C153.597 28.7844 153.457 28.7093 153.347 28.5991C153.237 28.4889 153.162 28.3485 153.131 28.1956C153.101 28.0428 153.116 27.8843 153.176 27.7404C153.236 27.5964 153.337 27.4733 153.466 27.3867C153.596 27.3001 153.748 27.2539 153.904 27.2539C154.113 27.2539 154.313 27.3369 154.461 27.4847C154.609 27.6325 154.692 27.8329 154.692 28.0419Z"
    fill="white" stroke="#263238" stroke-linecap="round" stroke-linejoin="round" />
  <path
    d="M167.694 46.5995C167.694 46.7554 167.648 46.9077 167.561 47.0373C167.475 47.1669 167.352 47.2679 167.208 47.3275C167.064 47.3872 166.905 47.4028 166.752 47.3724C166.599 47.342 166.459 47.2669 166.349 47.1567C166.239 47.0465 166.164 46.9061 166.133 46.7532C166.103 46.6004 166.118 46.442 166.178 46.298C166.238 46.154 166.339 46.0309 166.468 45.9443C166.598 45.8577 166.75 45.8115 166.906 45.8115C167.115 45.8115 167.315 45.8945 167.463 46.0423C167.611 46.1901 167.694 46.3905 167.694 46.5995Z"
    fill="white" stroke="#263238" stroke-linecap="round" stroke-linejoin="round" />
  <path
    d="M152.289 50.6222C152.733 50.6222 153.092 50.2623 153.092 49.8184C153.092 49.3745 152.733 49.0146 152.289 49.0146C151.845 49.0146 151.485 49.3745 151.485 49.8184C151.485 50.2623 151.845 50.6222 152.289 50.6222Z"
    fill="white" stroke="#263238" stroke-linecap="round" stroke-linejoin="round" />
  <path
    d="M169.573 55.2594C169.573 55.4153 169.527 55.5677 169.441 55.6972C169.354 55.8268 169.231 55.9278 169.087 55.9875C168.943 56.0471 168.785 56.0627 168.632 56.0323C168.479 56.0019 168.338 55.9269 168.228 55.8166C168.118 55.7064 168.043 55.566 168.013 55.4132C167.982 55.2603 167.998 55.1019 168.057 54.9579C168.117 54.8139 168.218 54.6908 168.348 54.6042C168.477 54.5177 168.63 54.4714 168.785 54.4714C168.994 54.4714 169.195 54.5545 169.343 54.7022C169.49 54.85 169.573 55.0505 169.573 55.2594Z"
    fill="white" stroke="#263238" stroke-linecap="round" stroke-linejoin="round" />
  <path
    d="M163.687 71.0275C163.687 71.1834 163.641 71.3357 163.554 71.4653C163.468 71.5949 163.345 71.6959 163.201 71.7555C163.057 71.8152 162.898 71.8308 162.745 71.8004C162.592 71.77 162.452 71.6949 162.342 71.5847C162.232 71.4745 162.157 71.3341 162.126 71.1812C162.096 71.0284 162.111 70.8699 162.171 70.7259C162.231 70.582 162.332 70.4589 162.461 70.3723C162.591 70.2857 162.743 70.2395 162.899 70.2395C163.108 70.2395 163.309 70.3225 163.456 70.4703C163.604 70.6181 163.687 70.8185 163.687 71.0275Z"
    fill="white" stroke="#263238" stroke-linecap="round" stroke-linejoin="round" />
  <path
    d="M153.904 62.7968C153.904 62.9526 153.858 63.105 153.771 63.2346C153.685 63.3642 153.562 63.4652 153.418 63.5248C153.274 63.5844 153.115 63.6 152.962 63.5696C152.809 63.5392 152.669 63.4642 152.559 63.354C152.449 63.2438 152.374 63.1034 152.343 62.9505C152.313 62.7977 152.328 62.6392 152.388 62.4952C152.448 62.3512 152.549 62.2282 152.678 62.1416C152.808 62.055 152.96 62.0088 153.116 62.0088C153.325 62.0088 153.525 62.0918 153.673 62.2396C153.821 62.3874 153.904 62.5878 153.904 62.7968Z"
    fill="white" stroke="#263238" stroke-linecap="round" stroke-linejoin="round" />
  <path
    d="M153.116 69.5341C153.116 69.6891 153.07 69.8406 152.984 69.9698C152.899 70.0989 152.777 70.1999 152.634 70.26C152.491 70.3202 152.334 70.3369 152.181 70.3081C152.029 70.2792 151.889 70.2061 151.778 70.0979C151.667 69.9896 151.59 69.8511 151.558 69.6995C151.525 69.548 151.538 69.3902 151.595 69.2459C151.651 69.1017 151.749 68.9773 151.876 68.8884C152.003 68.7995 152.153 68.75 152.308 68.7461C152.519 68.746 152.722 68.8284 152.873 68.9757C153.024 69.1229 153.111 69.3233 153.116 69.5341V69.5341Z"
    fill="white" stroke="#263238" stroke-linecap="round" stroke-linejoin="round" />
  <path
    d="M158.482 30.154C158.482 30.3098 158.436 30.4622 158.349 30.5918C158.263 30.7213 158.14 30.8223 157.996 30.882C157.852 30.9416 157.693 30.9572 157.541 30.9268C157.388 30.8964 157.247 30.8214 157.137 30.7112C157.027 30.601 156.952 30.4606 156.921 30.3077C156.891 30.1548 156.907 29.9964 156.966 29.8524C157.026 29.7084 157.127 29.5854 157.256 29.4988C157.386 29.4122 157.538 29.366 157.694 29.366C157.903 29.366 158.104 29.449 158.251 29.5968C158.399 29.7445 158.482 29.945 158.482 30.154Z"
    fill="white" stroke="#263238" stroke-linecap="round" stroke-linejoin="round" />
  <path
    d="M150.358 32.9316C150.358 33.0874 150.312 33.2398 150.225 33.3693C150.139 33.4989 150.016 33.5999 149.872 33.6596C149.728 33.7192 149.569 33.7348 149.416 33.7044C149.263 33.674 149.123 33.599 149.013 33.4888C148.903 33.3786 148.828 33.2381 148.797 33.0853C148.767 32.9324 148.782 32.774 148.842 32.63C148.902 32.486 149.003 32.3629 149.132 32.2764C149.262 32.1898 149.414 32.1436 149.57 32.1436C149.779 32.1436 149.979 32.2266 150.127 32.3744C150.275 32.5221 150.358 32.7226 150.358 32.9316Z"
    fill="white" stroke="#263238" stroke-linecap="round" stroke-linejoin="round" />
  <path
    d="M170.933 49.6608C170.933 49.8167 170.886 49.969 170.8 50.0986C170.713 50.2282 170.59 50.3292 170.446 50.3888C170.302 50.4485 170.144 50.4641 169.991 50.4337C169.838 50.4033 169.698 50.3282 169.587 50.218C169.477 50.1078 169.402 49.9674 169.372 49.8145C169.341 49.6617 169.357 49.5032 169.417 49.3593C169.476 49.2153 169.577 49.0922 169.707 49.0056C169.836 48.919 169.989 48.8728 170.145 48.8728C170.354 48.8728 170.554 48.9558 170.702 49.1036C170.85 49.2514 170.933 49.4518 170.933 49.6608Z"
    fill="white" stroke="#263238" stroke-linecap="round" stroke-linejoin="round" />
  <path
    d="M149.728 65.3971C149.728 65.553 149.681 65.7053 149.595 65.8349C149.508 65.9645 149.385 66.0655 149.241 66.1252C149.097 66.1848 148.939 66.2004 148.786 66.17C148.633 66.1396 148.493 66.0645 148.382 65.9543C148.272 65.8441 148.197 65.7037 148.167 65.5509C148.136 65.398 148.152 65.2396 148.212 65.0956C148.271 64.9516 148.372 64.8285 148.502 64.7419C148.631 64.6553 148.784 64.6091 148.94 64.6091C149.149 64.6091 149.349 64.6922 149.497 64.8399C149.645 64.9877 149.728 65.1881 149.728 65.3971Z"
    fill="white" stroke="#263238" stroke-linecap="round" stroke-linejoin="round" />
  <path
    d="M149.57 27.2226C149.57 27.3784 149.524 27.5308 149.437 27.6604C149.351 27.79 149.228 27.891 149.084 27.9506C148.94 28.0102 148.781 28.0258 148.628 27.9954C148.475 27.965 148.335 27.89 148.225 27.7798C148.115 27.6696 148.04 27.5292 148.009 27.3763C147.979 27.2234 147.994 27.065 148.054 26.921C148.114 26.777 148.215 26.654 148.344 26.5674C148.474 26.4808 148.626 26.4346 148.782 26.4346C148.991 26.4346 149.191 26.5176 149.339 26.6654C149.487 26.8132 149.57 27.0136 149.57 27.2226Z"
    fill="white" stroke="#263238" stroke-linecap="round" stroke-linejoin="round" />
  <path
    d="M114.374 85.3691C114.374 85.3691 117.03 90.3966 119.059 99.7226C119.898 103.584 121.982 129.087 121.982 129.087H102.538L99.4847 121.026V129.103H83.047C83.047 129.103 80.7027 108.107 87.712 85.4637C94.7212 62.8205 114.374 85.3691 114.374 85.3691Z"
    fill="#263238" />
  <path
    d="M94.3155 44.1055C90.9901 45.0432 81.6641 54.7159 81.6641 54.7159C81.6641 54.7159 80.5688 53.5339 80.1827 53.7545C79.7966 53.9752 78.65 56.1619 78.65 56.1619C78.65 56.1619 76.4909 54.9799 74.9188 55.3226C73.3468 55.6654 69.4028 62.8284 69.4028 62.8284C69.4028 62.8284 68.2484 65.5864 69.4028 66.4492C70.002 66.9302 70.7298 67.2235 71.495 67.2924C72.0357 68.3109 72.659 69.2834 73.3586 70.2001C74.2924 71.3427 78.7603 70.2001 78.7603 70.2001L93.5826 62.0719C93.5826 62.0719 97.7866 51.3432 98.1136 50.1652C98.4406 48.9871 94.3155 44.1055 94.3155 44.1055Z"
    fill="#999999" />
  <path opacity="0.3"
    d="M91.8333 63.0293L78.7525 70.2001C78.7525 70.2001 74.2846 71.3427 73.3508 70.2001C72.6512 69.2834 72.0279 68.3109 71.4872 67.2923C70.722 67.2235 69.9941 66.9302 69.395 66.4492C69.2253 66.3044 69.0911 66.1224 69.003 65.9175C68.9149 65.7125 68.8751 65.49 68.8868 65.2672C73.465 68.1552 77.1214 62.4462 77.1962 63.6045C77.275 64.8535 76.227 69.2939 76.227 69.2939C76.227 69.2939 79.9582 69.5303 82.0267 64.9283C84.0952 60.3264 90.738 50.9768 90.738 50.9768L91.8333 63.0293Z"
    fill="black" fill-opacity="0.7" />
  <path
    d="M94.3155 44.1055C90.9901 45.0432 81.6641 54.7159 81.6641 54.7159C81.6641 54.7159 80.5688 53.5339 80.1827 53.7545C79.7966 53.9752 78.65 56.1619 78.65 56.1619C78.65 56.1619 76.4909 54.9799 74.9188 55.3226C73.3468 55.6654 69.4028 62.8284 69.4028 62.8284C69.4028 62.8284 68.2484 65.5864 69.4028 66.4492C70.002 66.9302 70.7298 67.2235 71.495 67.2924C72.0357 68.3109 72.659 69.2834 73.3586 70.2001C74.2924 71.3427 78.7603 70.2001 78.7603 70.2001L93.5826 62.0719C93.5826 62.0719 97.7866 51.3432 98.1136 50.1652C98.4406 48.9871 94.3155 44.1055 94.3155 44.1055Z"
    stroke="#263238" stroke-linecap="round" stroke-linejoin="round" />
  <path
    d="M71.6605 40.5476C71.6841 46.0124 73.6305 50.7522 74.2412 52.2336C75.6911 55.7127 76.5815 58.1082 76.089 59.2508C75.5965 60.3934 72.35 66.9377 69.2965 62.1073C66.243 57.2768 67.3265 41.8793 67.3265 41.8793L71.6605 40.5476Z"
    fill="white" stroke="#263238" stroke-linecap="round" stroke-linejoin="round" />
  <path
    d="M57.4331 35.3903C57.4331 35.3903 58.2211 38.1483 58.9027 38.6526C59.5844 39.1569 65.5574 41.6864 65.5574 41.6864L64.8955 49.5664C69.1152 51.1424 74.1466 48.5302 74.1466 48.5302C73.2961 45.9733 72.6634 43.3491 72.2554 40.6856C72.2554 40.6856 74.9582 36.7456 74.7494 35.3863C74.5406 34.027 57.4331 35.3903 57.4331 35.3903Z"
    fill="#FFC100" />
  <path opacity="0.3"
    d="M72.2555 40.6894C72.2555 40.6894 72.3067 41.1031 72.4446 41.8714C71.0026 42.8958 68.3746 43.6011 65.3723 43.8926L65.5299 42.0014C67.943 41.6897 70.3097 41.0877 72.5786 40.2087C72.3816 40.5042 72.2555 40.6894 72.2555 40.6894Z"
    fill="black" fill-opacity="0.7" />
  <path opacity="0.3"
    d="M73.4453 38.7825C72.7 38.8898 71.9485 38.949 71.1956 38.9598C71.1956 38.9598 68.9064 38.1285 67.8348 37.699C66.7631 37.2696 62.5709 38.2191 62.5709 38.2191C62.0207 37.9518 61.4936 37.6395 60.9949 37.2853C60.7349 37.0765 59.4189 37.2105 58.1424 37.4035C57.871 36.7461 57.6369 36.0739 57.441 35.3902C57.441 35.3902 74.5485 34.0388 74.7573 35.3902C74.8598 36.1112 74.1427 37.5769 73.4453 38.7825Z"
    fill="black" fill-opacity="0.7" />
  <path
    d="M57.4331 35.3903C57.4331 35.3903 58.2211 38.1483 58.9027 38.6526C59.5844 39.1569 65.5574 41.6864 65.5574 41.6864L64.8955 49.5664C69.1152 51.1424 74.1466 48.5302 74.1466 48.5302C73.2961 45.9733 72.6634 43.3491 72.2554 40.6856C72.2554 40.6856 74.9582 36.7456 74.7494 35.3863C74.5406 34.027 57.4331 35.3903 57.4331 35.3903Z"
    stroke="#263238" stroke-linecap="round" stroke-linejoin="round" />
  <path
    d="M107.877 20.2606C107.877 20.2606 109.894 15.2844 114.969 16.6318C120.044 17.9793 118.952 22.9792 117.014 27.4944C115.075 32.0096 115.521 35.2326 116.336 37.0016C117.152 38.7707 114.646 40.8431 113.251 40.6382C113.251 40.6382 114.283 40.2679 113.846 38.2191C113.409 36.1703 106.273 27.4156 107.877 20.2606Z"
    fill="#263238" />
  <path
    d="M92.9561 44.5901C92.9561 44.5901 96.2303 43.3411 97.5541 43.3411C98.8779 43.3411 101.75 43.9676 101.75 43.9676C101.75 43.9676 103.137 43.3608 107.089 42.6752C111.041 41.9897 112.605 44.07 112.605 44.07C112.605 44.07 122.404 45.2835 123.999 47.7933C125.595 50.3031 118.633 65.8897 111.785 72.7492L116.375 89.1948C116.375 89.1948 101.187 96.2868 86.1084 91.6612L90.797 73.8131C90.797 73.8131 87.7199 62.5446 87.1801 57.5172C86.6403 52.4898 93.8308 47.1865 93.8308 47.1865"
    fill="#999999" />
  <path opacity="0.3"
    d="M121.375 57.935C119.876 61.2003 118.117 64.3401 116.115 67.324C115.788 61.347 118.657 54.7554 118.657 54.7554L121.375 57.935Z"
    fill="black" fill-opacity="0.7" />
  <path
    d="M92.9561 44.5901C92.9561 44.5901 96.2303 43.3411 97.5541 43.3411C98.8779 43.3411 101.75 43.9676 101.75 43.9676C101.75 43.9676 103.137 43.3608 107.089 42.6752C111.041 41.9897 112.605 44.07 112.605 44.07C112.605 44.07 122.404 45.2835 123.999 47.7933C125.595 50.3031 118.633 65.8897 111.785 72.7492L116.375 89.1948C116.375 89.1948 101.187 96.2868 86.1084 91.6612L90.797 73.8131C90.797 73.8131 87.7199 62.5446 87.1801 57.5172C86.6403 52.4898 93.8308 47.1865 93.8308 47.1865"
    stroke="#263238" stroke-linecap="round" stroke-linejoin="round" />
  <path
    d="M111.037 43.8573L103.472 49.6609C103.472 49.6609 101.809 46.769 102.452 44.8975C102.522 44.6888 102.563 44.4713 102.574 44.2513C102.649 43.1836 102.16 41.9582 101.742 41.119C101.574 40.7753 101.388 40.4412 101.183 40.1182C101.183 40.1182 111.47 31.9073 110.016 33.9876C108.562 36.0679 111.037 43.8573 111.037 43.8573Z"
    fill="white" stroke="#263238" stroke-linecap="round" stroke-linejoin="round" />
  <path
    d="M112.593 44.066C112.908 48.4315 107.64 56.8473 107.64 56.8473C107.64 56.8473 95.7102 56.4139 91.2146 54.8773C91.2146 54.8773 94.9576 47.8168 101.75 43.9753L100.47 43.7192C100.47 43.7192 88.6497 51.6465 87.1564 54.8773C85.6632 58.1081 89.8396 74.0178 89.8396 74.0178C89.8396 74.0178 81.014 100.491 81.1085 115.144C81.1085 115.144 81.1085 127.034 94.6149 127.034C111.825 127.034 114.374 116.263 114.374 116.263C114.374 116.263 112.282 87.1893 110.414 78.7734C110.414 78.7734 108.795 64.6406 111.32 60.0702C113.846 55.4998 114.472 47.8562 113.862 44.2472L112.593 44.066Z"
    fill="white" />
  <path opacity="0.3"
    d="M107.251 76.9176C107.251 76.9176 93.9648 87.8787 85.8839 87.3783C87.9209 79.7545 89.8239 74.006 89.8239 74.006C89.8239 74.006 89.2329 71.7405 88.5749 68.7461C90.8562 71.3386 93.76 74.4118 94.7371 74.4433C96.4273 74.4985 99.0711 72.3157 100.426 73.7381C101.782 75.1604 107.251 76.9176 107.251 76.9176Z"
    fill="black" fill-opacity="0.7" />
  <path
    d="M112.593 44.066C112.908 48.4315 107.64 56.8473 107.64 56.8473C107.64 56.8473 95.7102 56.4139 91.2146 54.8773C91.2146 54.8773 94.9576 47.8168 101.75 43.9753L100.47 43.7192C100.47 43.7192 88.6497 51.6465 87.1564 54.8773C85.6632 58.1081 89.8396 74.0178 89.8396 74.0178C89.8396 74.0178 81.014 100.491 81.1085 115.144C81.1085 115.144 81.1085 127.034 94.6149 127.034C111.825 127.034 114.374 116.263 114.374 116.263C114.374 116.263 112.282 87.1893 110.414 78.7734C110.414 78.7734 108.795 64.6406 111.32 60.0702C113.846 55.4998 114.472 47.8562 113.862 44.2472L112.593 44.066Z"
    stroke="#263238" stroke-linecap="round" stroke-linejoin="round" />
  <path d="M67.8347 41.6548C67.8347 41.6548 70.6755 42.0921 72.2554 40.6895" stroke="#263238" stroke-linecap="round"
    stroke-linejoin="round" />
  <path d="M64.0287 37.892L66.6646 36.71C66.6646 36.71 69.5289 37.5177 70.0451 37.892" stroke="#263238"
    stroke-linecap="round" stroke-linejoin="round" />
  <path d="M60.132 37.8922C60.132 37.8922 62.2556 36.1428 64.0404 36.4541" stroke="#263238" stroke-linecap="round"
    stroke-linejoin="round" />
  <path
    d="M49.0015 26.2729C49.0015 26.2729 45.6013 25.1382 44.7857 24.5709C43.9702 24.0035 43.6037 22.8215 42.867 23.0461C42.681 23.101 42.5128 23.204 42.3794 23.3447C42.2459 23.4853 42.1519 23.6586 42.1067 23.8472C42.0616 24.0358 42.0669 24.2329 42.1222 24.4188C42.1775 24.6046 42.2808 24.7726 42.4218 24.9058C42.4218 24.9058 41.6338 25.1146 42.075 25.9262C42.5163 26.7379 43.1625 25.7568 44.2696 26.2493C45.3767 26.7418 48.1111 28.3414 48.1111 28.3414L49.0015 26.2729Z"
    fill="#BFBFBF" stroke="#263238" stroke-linecap="round" stroke-linejoin="round" />
  <path
    d="M64.3754 21.4111C64.3754 21.4111 60.9752 20.2803 60.1636 19.713C59.3519 19.1456 58.9816 17.9636 58.2408 18.1882C58.056 18.2446 57.8891 18.3485 57.7568 18.4894C57.6246 18.6303 57.5315 18.8034 57.4869 18.9915C57.4422 19.1795 57.4476 19.376 57.5025 19.5613C57.5573 19.7466 57.6598 19.9144 57.7996 20.0479C57.7996 20.0479 57.0116 20.2567 57.4528 21.0683C57.8941 21.88 58.5363 20.8989 59.6474 21.3914C60.7585 21.8839 63.4889 23.4835 63.4889 23.4835L64.3754 21.4111Z"
    fill="#BFBFBF" stroke="#263238" stroke-linecap="round" stroke-linejoin="round" />
  <path
    d="M57.6695 22.3448C57.6695 22.3448 66.5384 17.4316 71.2704 18.7594C76.0023 20.0872 77.9684 23.4874 77.9684 23.4874C79.423 24.3054 80.7503 25.3314 81.9084 26.533C83.8784 28.5661 82.8894 32.7346 81.9084 32.6203L80.9234 32.51H56.2905C56.2905 32.51 49.0685 30.2563 47.1615 28.9207C45.2545 27.585 49.1315 24.4015 48.9581 24.9098C48.7848 25.418 52.3505 25.9814 53.3355 24.9098C54.3205 23.8381 55.1085 21.4465 57.6695 22.3448Z"
    fill="#999999" stroke="#263238" stroke-linecap="round" stroke-linejoin="round" />
  <path
    d="M57.6696 22.3447C57.6696 22.3447 61.3416 22.7742 62.8191 24.9057C64.2966 27.0373 64.2966 29.7953 63.485 30.1538"
    stroke="#263238" stroke-linecap="round" stroke-linejoin="round" />
  <path
    d="M77.9684 23.4834C77.9684 23.4834 80.6318 26.8876 79.8911 28.8851C79.1504 30.8827 78.7091 30.1538 78.7091 30.1538"
    stroke="#263238" stroke-linecap="round" stroke-linejoin="round" />
  <path
    d="M90.076 31.5882V32.6835L81.0573 33.8379L78.9967 35.9222C78.9967 35.9222 64.6669 37.3248 51.5113 36.7575L48.9582 34.9687L40.7748 33.8182V32.6087C40.7748 32.6087 57.1297 30.4929 71.0222 30.5323C84.9146 30.5717 90.076 31.5882 90.076 31.5882Z"
    fill="#BFBFBF" />
  <path opacity="0.3"
    d="M78.9967 35.2207L81.073 33.8298L78.9967 35.922C78.9967 35.922 64.6669 37.3246 51.5112 36.7573C56.3002 35.6217 61.1771 34.8955 66.0892 34.5863C74.3159 34.0781 78.9967 35.2207 78.9967 35.2207Z"
    fill="black" fill-opacity="0.7" />
  <path opacity="0.3"
    d="M90.076 32.6755L81.0573 33.83C81.0573 33.83 64.8442 31.8324 48.9424 34.9804L40.759 33.83C40.759 33.83 68.3548 29.7126 90.076 32.6755Z"
    fill="black" fill-opacity="0.7" />
  <path
    d="M90.076 31.5882V32.6835L81.0573 33.8379L78.9967 35.9222C78.9967 35.9222 64.6669 37.3248 51.5113 36.7575L48.9582 34.9687L40.7748 33.8182V32.6087C40.7748 32.6087 57.1297 30.4929 71.0222 30.5323C84.9146 30.5717 90.076 31.5882 90.076 31.5882Z"
    stroke="#263238" stroke-linecap="round" stroke-linejoin="round" />
  <path
    d="M137.431 71.5003C137.431 71.5003 129.184 81.9925 121.927 89.9001L120.075 95.3018L120.93 96.4444C121.168 96.3279 121.43 96.2673 121.695 96.2673C121.959 96.2673 122.221 96.3279 122.459 96.4444C123.192 96.8621 120.93 97.9614 120.93 97.9614C120.93 97.9614 117.294 96.5351 116.781 95.5973C116.269 94.6596 113.298 91.5352 114.023 90.3887C114.748 89.2421 118.866 86.8703 118.866 86.8703C118.866 86.8703 123.16 81.0509 124.216 78.2456C125.272 75.4403 128.818 68.0725 128.818 68.0725L137.431 71.5003Z"
    fill="white" stroke="#263238" stroke-linecap="round" stroke-linejoin="round" />
  <path
    d="M123.988 47.7893C127.297 49.7278 138.172 65.8818 138.81 68.1827C139.448 70.4837 136.119 75.3772 136.119 75.3772L133.168 78.2534C133.168 78.2534 125.985 73.3717 125.682 72.9541C125.378 72.5364 126.651 70.4601 126.651 70.4601L125.694 69.2229L126.052 67.8794L119.07 61.8236C119.07 61.8236 117.782 52.9941 120.505 50.0036"
    fill="#999999" />
  <path opacity="0.3"
    d="M128.822 68.0804C127.739 68.5217 126.639 70.4444 126.639 70.4444L125.682 69.2073L126.04 67.8637L119.059 61.808C118.767 59.6129 118.691 57.3947 118.83 55.1848C119.428 56.7641 120.125 58.3038 120.918 59.7946C120.918 59.7946 127.305 62.8442 128.822 64.0931C130.339 65.3421 127.203 66.0631 127.246 66.3705C127.289 66.6778 129.906 67.6431 128.822 68.0804Z"
    fill="black" fill-opacity="0.7" />
  <path
    d="M123.988 47.7893C127.297 49.7278 138.172 65.8818 138.81 68.1827C139.448 70.4837 136.119 75.3772 136.119 75.3772L133.168 78.2534C133.168 78.2534 125.985 73.3717 125.682 72.9541C125.378 72.5364 126.651 70.4601 126.651 70.4601L125.694 69.2229L126.052 67.8794L119.07 61.8236C119.07 61.8236 117.782 52.9941 120.505 50.0036"
    stroke="#263238" stroke-linecap="round" stroke-linejoin="round" />
  <path
    d="M97.7945 64.7549L98.153 67.2608L98.7519 67.3081L98.5943 69.3253L98.9883 68.7383L98.5628 70.3931L99.796 69.1323L99.7369 69.9203L101.128 68.9156L101.08 69.5302L102.92 69.0535L102.235 70.5389L102.786 70.7319L101.396 71.7327L101.817 72.1622L99.9694 73.352L101.987 73.5096L101.471 73.88L102.408 73.9548L102.369 74.4473L103.22 74.5143C101.798 75.3588 100.116 75.6518 98.4919 75.3378L99.1971 75.85L98.9332 76.244L99.5872 76.9217C99.5872 76.9217 99.2484 77.6427 96.4352 75.4245C96.4352 75.4245 94.2761 76.4528 92.9128 76.4016L93.6654 75.8342L93.1492 75.7948L94.5007 74.8295C94.5007 74.8295 91.5141 74.5025 90.3912 73.1865L91.1083 73.0526L90.994 72.7138L91.9988 72.5562L91.9121 72.4379L93.8033 72.8753L91.4393 70.9407L92.0775 70.992L91.3329 69.6721L91.849 69.7115L91.4905 67.6351L92.9049 68.8762L92.9995 68.2615L94.3194 69.4829L94.6346 68.7225L95.0917 69.9676L95.2177 68.3719L95.5329 69.0811L95.5014 67.048L96.1594 67.0992L96.3722 64.9953L96.9356 65.6414L97.3768 63.6084L97.4675 65.1844L97.7945 64.7549Z"
    fill="#FFC100" stroke="#263238" stroke-linecap="round" stroke-linejoin="round" />
  <path d="M96.4391 75.4285C96.5159 76.4274 96.4375 77.4322 96.2067 78.4071Z" fill="#FFC100" />
  <path d="M96.4391 75.4285C96.5159 76.4274 96.4375 77.4322 96.2067 78.4071" stroke="#263238" stroke-linecap="round"
    stroke-linejoin="round" />
  <path
    d="M94.3155 59.1248C94.3155 59.1248 92.9837 57.8403 92.5188 57.9073C92.0539 57.9743 91.9633 62.1704 92.5188 63.0293C93.0743 63.8882 94.0554 63.0293 94.0554 63.0293"
    stroke="#263238" stroke-linecap="round" stroke-linejoin="round" />
  <path d="M93.8781 60.9529C93.8781 60.9529 94.0238 63.8567 94.3154 64.4674" stroke="#263238" stroke-linecap="round"
    stroke-linejoin="round" />
  <path d="M93.2241 60.9529H94.7529V61.6857" stroke="#263238" stroke-linecap="round" stroke-linejoin="round" />
  <path d="M95.7891 58.4155C95.6956 59.8745 95.6956 61.3379 95.7891 62.7968" stroke="#263238" stroke-linecap="round"
    stroke-linejoin="round" />
  <path
    d="M97.3492 58.7742C97.4749 60.2822 97.7575 61.773 98.1924 63.2224C98.1924 63.2224 99.3744 60.3738 100.103 59.4755"
    stroke="#263238" stroke-linecap="round" stroke-linejoin="round" />
  <path d="M103.22 64.4674L100.883 63.6124C101.427 62.6392 101.931 59.2114 101.931 59.2114H104.039" stroke="#263238"
    stroke-linecap="round" stroke-linejoin="round" />
  <path d="M101.569 61.2642L103.299 61.6266" stroke="#263238" stroke-linecap="round" stroke-linejoin="round" />
  <path d="M90.7379 78.6357L89.7135 82.0635" stroke="#263238" stroke-linecap="round" stroke-linejoin="round" />
  <path d="M90.1075 77.6072C90.8517 78.156 91.6323 78.6536 92.444 79.0965" stroke="#263238" stroke-linecap="round"
    stroke-linejoin="round" />
  <path d="M92.5701 79.0967L91.7427 83.017" stroke="#263238" stroke-linecap="round" stroke-linejoin="round" />
  <path d="M92.1564 81.0586L93.4841 81.1689" stroke="#263238" stroke-linecap="round" stroke-linejoin="round" />
  <path d="M93.9215 79.0967C93.9215 79.4355 93.4841 83.017 93.4841 83.017" stroke="#263238" stroke-linecap="round"
    stroke-linejoin="round" />
  <path d="M94.3588 83.6432L95.8126 79.7466L96.4154 83.1744" stroke="#263238" stroke-linecap="round"
    stroke-linejoin="round" />
  <path d="M95.3241 81.634H96.0727" stroke="#263238" stroke-linecap="round" stroke-linejoin="round" />
  <path d="M96.9552 83.9034L97.3492 79.5378L98.3303 83.0169L98.6494 79.5378" stroke="#263238" stroke-linecap="round"
    stroke-linejoin="round" />
  <path d="M99.532 79.0967L99.7093 83.6434" stroke="#263238" stroke-linecap="round" stroke-linejoin="round" />
  <path d="M101.175 79.0967L99.7094 81.634L100.73 82.8121" stroke="#263238" stroke-linecap="round"
    stroke-linejoin="round" />
  <path
    d="M102.649 78.6356C102.649 78.6356 102.318 78.2652 102.065 78.2416C101.813 78.218 101.333 81.1769 101.396 81.1572C101.459 81.1375 103.027 81.1572 102.905 81.6221C102.783 82.087 102.416 83.734 102.038 83.6315C101.66 83.5291 101.396 82.8002 101.396 82.8002"
    stroke="#263238" stroke-linecap="round" stroke-linejoin="round" />
  <path d="M104.039 50.4094L106.1 54.3493C106.1 54.3493 110.899 48.136 111.384 45.772" stroke="#263238"
    stroke-linecap="round" stroke-linejoin="round" />
  <path
    d="M102.432 49.8185C102.432 49.8185 97.2389 52.5765 97.3493 52.2889C97.4596 52.0013 98.0309 48.0613 99.8906 46.0125"
    stroke="#263238" stroke-linecap="round" stroke-linejoin="round" />
  <path
    d="M106.888 38.219C106.888 38.219 105.43 43.5616 102.554 44.2511C102.629 43.1834 102.14 41.9581 101.723 41.1188L106.888 38.219Z"
    fill="#263238" />
  <path
    d="M110.446 34.9647C111.333 33.239 111.805 31.3299 111.825 29.3896C111.825 20.9461 102.763 17.3883 97.0695 22.9083C91.2501 28.5622 97.2744 40.5319 99.7684 42.4625C101.179 43.5539 107.877 40.1418 107.877 37.5729"
    fill="white" />
  <path
    d="M110.446 34.9647C111.333 33.239 111.805 31.3299 111.825 29.3896C111.825 20.9461 102.763 17.3883 97.0695 22.9083C91.2501 28.5622 97.2744 40.5319 99.7684 42.4625C101.179 43.5539 107.877 40.1418 107.877 37.5729"
    stroke="#263238" stroke-linecap="round" stroke-linejoin="round" />
  <path d="M94.6622 30.5756C94.6622 30.5756 95.7418 30.1264 96.3682 30.5756" stroke="#263238" stroke-linecap="round"
    stroke-linejoin="round" />
  <path d="M99.4847 30.3745C99.4847 30.3745 101.396 29.0782 103.031 30.012" stroke="#263238" stroke-linecap="round"
    stroke-linejoin="round" />
  <path
    d="M101.664 32.3011C101.711 32.6478 101.577 32.9512 101.364 32.9788C101.151 33.0064 100.939 32.7542 100.891 32.4114C100.844 32.0687 100.978 31.7613 101.191 31.7338C101.404 31.7062 101.616 31.9583 101.664 32.3011Z"
    fill="#263238" />
  <path
    d="M96.774 32.7189C96.8213 33.0617 96.6873 33.3651 96.4746 33.3966C96.2618 33.4281 96.0491 33.172 96.0018 32.8253C95.9545 32.4786 96.0885 32.1791 96.3012 32.1476C96.514 32.1161 96.7071 32.3761 96.774 32.7189Z"
    fill="#263238" />
  <path
    d="M97.168 32.376C97.4517 33.227 97.6329 34.4484 96.5691 35.4098C95.5053 36.3711 97.0379 36.9858 97.8929 36.8361"
    fill="white" />
  <path
    d="M97.168 32.376C97.4517 33.227 97.6329 34.4484 96.5691 35.4098C95.5053 36.3711 97.0379 36.9858 97.8929 36.8361"
    stroke="#263238" stroke-linecap="round" stroke-linejoin="round" />
  <path
    d="M98.35 38.286C98.35 38.286 101.025 38.3609 102.609 37.0134C102.609 37.0134 102.349 38.8061 100.714 39.3223C99.0789 39.8384 99.0513 38.5343 99.0513 38.5343"
    fill="white" />
  <path
    d="M98.35 38.286C98.35 38.286 101.025 38.3609 102.609 37.0134C102.609 37.0134 102.349 38.8061 100.714 39.3223C99.0789 39.8384 99.0513 38.5343 99.0513 38.5343"
    stroke="#263238" stroke-linecap="round" stroke-linejoin="round" />
  <path
    d="M100.47 24.3227C100.47 24.3227 101.12 29.1807 106.419 31.5329L107.046 32.9867C107.046 32.9867 107.77 29.7638 109.122 30.5755C110.473 31.3871 109.599 36.4461 109.599 36.4461C109.599 36.4461 112.136 35.7881 113.487 30.5755C114.839 25.3628 112.534 20.7885 106.979 19.0234C101.423 17.2583 92.4006 20.4772 91.3525 27.0255C90.3045 33.5738 95.4541 34.5982 95.4541 34.5982C95.4541 34.5982 92.9128 28.0617 98.8346 24.2202C98.8346 24.2202 99.7684 31.4659 105.485 32.2578C105.485 32.2578 100.135 30.4533 100.47 24.3227Z"
    fill="#263238" />
  <path
    d="M107.877 31.5329C107.877 31.5329 108.949 28.5818 110.127 28.9995C111.305 29.4171 111.825 31.4659 110.682 32.9868C109.54 34.5076 109.224 36.1703 108.602 35.3508"
    fill="white" />
  <path
    d="M107.877 31.5329C107.877 31.5329 108.949 28.5818 110.127 28.9995C111.305 29.4171 111.825 31.4659 110.682 32.9868C109.54 34.5076 109.224 36.1703 108.602 35.3508"
    stroke="#263238" stroke-linecap="round" stroke-linejoin="round" />
  <g opacity="0.2">
    <path opacity="0.2" d="M100.883 20.8201C100.883 20.8201 102.459 27.8057 107.877 28.5267" stroke="white"
      stroke-linecap="round" stroke-linejoin="round" />
    <path opacity="0.2"
      d="M103.031 20.2646C103.031 20.2646 106.774 24.6499 110.316 26.2495C113.858 27.8492 112.763 30.1541 112.763 30.1541"
      stroke="white" stroke-linecap="round" stroke-linejoin="round" />
    <path opacity="0.2" d="M98.744 21.6042C98.744 21.6042 91.0413 25.426 92.1564 30.024" stroke="white"
      stroke-linecap="round" stroke-linejoin="round" />
    <path opacity="0.2"
      d="M111.825 19.8981C111.825 19.8981 114.614 16.1788 116.632 18.5428C118.649 20.9067 116.632 25.4771 115.45 28.9601C114.268 32.4431 115.528 36.6864 115.528 36.6864"
      stroke="white" stroke-linecap="round" stroke-linejoin="round" />
    <path opacity="0.2" d="M113.582 21.218C113.582 21.218 115.552 21.151 115.461 23.4835" stroke="white"
      stroke-linecap="round" stroke-linejoin="round" />
    <path opacity="0.2" d="M110.083 19.3465C110.083 19.3465 111.072 17.2426 111.825 17.1677" stroke="white"
      stroke-linecap="round" stroke-linejoin="round" />
  </g>
  <path d="M41.346 129.087H44.4665L40.2113 104.935H37.0908L41.346 129.087Z" fill="#BFBFBF" stroke="#263238"
    stroke-linecap="round" stroke-linejoin="round" />
  <path d="M13.6164 129.087H10.4959L8.97508 120.459L6.24072 104.935H9.3612L11.8237 118.91L13.6164 129.087Z"
    fill="#BFBFBF" />
  <path opacity="0.3" d="M11.8237 118.91L8.97508 120.459L6.24072 104.935H9.3612L11.8237 118.91Z" fill="black"
    fill-opacity="0.7" />
  <path d="M13.6164 129.087H10.4959L8.97508 120.459L6.24072 104.935H9.3612L11.8237 118.91L13.6164 129.087Z"
    stroke="#263238" stroke-linecap="round" stroke-linejoin="round" />
  <path d="M42.0001 107.055H4.85772L1.21716 86.3855H38.3596L42.0001 107.055Z" fill="#BFBFBF" />
  <path opacity="0.3"
    d="M42.008 107.055H10.5904C10.0704 106.18 9.80243 105.443 10.0467 105.085C10.9372 103.903 13.1081 96.0936 13.6164 93.111C13.9316 91.2553 15.87 88.32 17.2845 86.3657H38.3596L42.008 107.055Z"
    fill="black" fill-opacity="0.7" />
  <path d="M42.0001 107.055H4.85772L1.21716 86.3855H38.3596L42.0001 107.055Z" stroke="#263238" stroke-linecap="round"
    stroke-linejoin="round" />
  <path d="M3.19897 87.7368L6.33521 105.55" stroke="#263238" stroke-linecap="round" stroke-linejoin="round" />
  <path
    d="M44.6281 106.326C44.6281 107.606 46.4483 115.088 48.8635 116.337C51.2788 117.586 54.3795 115.155 56.4599 112.736C56.4599 112.736 52.6302 111.475 52.6302 111.306C52.6302 111.136 50.542 104.076 50.542 104.076"
    fill="white" />
  <path
    d="M44.6281 106.326C44.6281 107.606 46.4483 115.088 48.8635 116.337C51.2788 117.586 54.3795 115.155 56.4599 112.736C56.4599 112.736 52.6302 111.475 52.6302 111.306C52.6302 111.136 50.542 104.076 50.542 104.076"
    stroke="#263238" stroke-linecap="round" stroke-linejoin="round" />
  <path
    d="M50.3175 109.541C49.0922 110.636 47.721 111.562 46.9488 111.247C45.8298 110.786 45.2782 106.94 45.0418 104.525C44.9315 103.383 44.8882 102.555 44.8882 102.555L46.9488 91.4011C51.07 94.4546 51.7989 96.1685 52.0038 98.1976C52.2087 100.227 52.6815 106.393 52.8352 106.661C52.9179 106.81 51.7162 108.288 50.3175 109.541Z"
    fill="#FFC100" />
  <path opacity="0.3"
    d="M50.3174 109.541C49.0921 110.636 47.7209 111.562 46.9487 111.247C45.8297 110.786 45.2781 106.94 45.0417 104.525C46.3419 102.114 48.2332 100.51 49.494 102.232C49.494 102.232 50.1165 105.219 49.754 105.967C49.3915 106.716 48.442 108.185 48.6311 108.438C48.8202 108.69 50.1716 107.003 50.5578 107.429C50.676 107.587 50.6484 108.509 50.3174 109.541Z"
    fill="black" fill-opacity="0.7" />
  <path
    d="M50.3175 109.541C49.0922 110.636 47.721 111.562 46.9488 111.247C45.8298 110.786 45.2782 106.94 45.0418 104.525C44.9315 103.383 44.8882 102.555 44.8882 102.555L46.9488 91.4011C51.07 94.4546 51.7989 96.1685 52.0038 98.1976C52.2087 100.227 52.6815 106.393 52.8352 106.661C52.9179 106.81 51.7162 108.288 50.3175 109.541Z"
    stroke="#263238" stroke-linecap="round" stroke-linejoin="round" />
  <path
    d="M53.1463 115.707C55.3201 114.181 57.1506 112.218 58.5205 109.943L56.4717 104.084C56.4717 104.084 54.6553 107.331 53.3197 107.63C51.984 107.929 48.3829 109.844 48.6429 112.504"
    fill="white" />
  <path
    d="M53.1463 115.707C55.3201 114.181 57.1506 112.218 58.5205 109.943L56.4717 104.084C56.4717 104.084 54.6553 107.331 53.3197 107.63C51.984 107.929 48.3829 109.844 48.6429 112.504"
    stroke="#263238" stroke-linecap="round" stroke-linejoin="round" />
  <path
    d="M48.5366 103.717C48.2884 104.805 48.0284 106.062 47.7683 107.429C46.3617 114.781 44.8882 125.269 44.8882 129.099H17.5446C17.5446 129.099 17.3476 119.734 17.5446 110.246C17.6904 103.493 18.0371 96.6806 18.8054 93.1425C18.8054 93.1425 24.8572 85.7274 36.5078 87.1104C42.3311 87.8038 45.7747 90.1048 47.7644 92.2324"
    fill="#FFC100" />
  <path opacity="0.3"
    d="M47.7683 107.429C46.3617 114.781 44.8882 125.269 44.8882 129.099H17.5446C17.5446 129.099 17.3476 119.734 17.5446 110.246C19.9874 110.325 22.7296 108.209 24.6051 107.606C32.9854 104.903 29.8807 108.059 30.7121 108.449C31.5434 108.839 40.8418 104.758 41.7953 105.979C42.6424 107.066 40.9561 108.828 41.9883 109.229C43.0206 109.631 47.7683 107.429 47.7683 107.429Z"
    fill="black" fill-opacity="0.7" />
  <path
    d="M48.5366 103.717C48.2884 104.805 48.0284 106.062 47.7683 107.429C46.3617 114.781 44.8882 125.269 44.8882 129.099H17.5446C17.5446 129.099 17.3476 119.734 17.5446 110.246C17.6904 103.493 18.0371 96.6806 18.8054 93.1425C18.8054 93.1425 24.8572 85.7274 36.5078 87.1104C42.3311 87.8038 45.7747 90.1048 47.7644 92.2324"
    stroke="#263238" stroke-linecap="round" stroke-linejoin="round" />
  <path
    d="M24.1046 94.4113C24.231 95.1743 24.2903 95.9468 24.2819 96.7201C24.2696 99.1055 23.5855 101.439 22.308 103.454C21.7288 105.171 20.6965 108.182 18.561 110.845C18.5138 110.912 18.4586 110.975 18.4074 111.038C16.1734 113.741 16.1182 108.78 13.573 107.39C11.0278 105.999 11.1893 104.959 11.1893 104.959C13.3169 101.846 13.246 100.341 14.4595 98.4104C17.4263 93.706 16.9535 92.3349 24.4986 88.978"
    fill="#FFC100" />
  <path opacity="0.3"
    d="M24.278 96.7201C24.2669 99.105 23.5842 101.439 22.308 103.454C21.7289 105.171 20.6966 108.182 18.5611 110.845C18.0911 110.568 17.715 110.156 17.4815 109.663C16.1695 106.866 19.2585 105.293 19.5697 104.513C19.881 103.733 19.5185 98.6034 20.2317 98.434C20.9448 98.2645 22.0637 101.759 22.375 101.342C22.6863 100.924 23.2379 96.0621 24.278 96.7201Z"
    fill="black" fill-opacity="0.7" />
  <path
    d="M24.1046 94.4113C24.231 95.1743 24.2903 95.9468 24.2819 96.7201C24.2696 99.1055 23.5855 101.439 22.308 103.454C21.7288 105.171 20.6965 108.182 18.561 110.845C18.5138 110.912 18.4586 110.975 18.4074 111.038C16.1734 113.741 16.1182 108.78 13.573 107.39C11.0278 105.999 11.1893 104.959 11.1893 104.959C13.3169 101.846 13.246 100.341 14.4595 98.4104C17.4263 93.706 16.9535 92.3349 24.4986 88.978"
    stroke="#263238" stroke-linecap="round" stroke-linejoin="round" />
  <path
    d="M42.0986 85.0733C41.7046 85.3097 41.3461 86.015 41.0703 86.7518C40.8131 87.4412 40.6012 88.1466 40.4359 88.8636L41.6179 89.8959C41.6179 89.8959 40.5738 93.1306 36.1256 93.1306C31.6773 93.1306 30.7159 88.769 30.7159 88.769C32.8002 87.4413 32.9933 83.8322 32.8948 82.5123C32.8948 82.5123 38.1113 77.678 39.3406 77.7528C40.3059 77.808 42.0277 81.9174 42.272 83.9701C42.3508 84.5375 42.3035 84.9512 42.0986 85.0733Z"
    fill="white" stroke="#263238" stroke-linecap="round" stroke-linejoin="round" />
  <path
    d="M24.9556 101.582C24.9556 101.582 25.1329 100.03 25.1645 95.9201C25.196 91.8107 24.3055 90.1362 24.3055 90.1362L23.2654 99.1116L22.111 109.08L23.3166 109.218L24.1716 101.834L24.9556 101.582Z"
    fill="#263238" />
  <path
    d="M59.0012 96.4877C58.8909 95.9439 58.7609 95.4002 58.6072 94.8604C58.4536 94.3207 58.3039 93.7848 58.1069 93.2529C58.0864 93.8151 58.0956 94.378 58.1344 94.9392C58.166 95.4948 58.2132 96.0503 58.2802 96.6019V96.5704C58.2766 96.6548 58.2533 96.7372 58.2123 96.8111C58.1713 96.885 58.1136 96.9482 58.0438 96.9959C57.9758 97.0417 57.897 97.0689 57.8153 97.0747H57.768L57.1613 93.316L57.0352 97.122H56.98C56.8985 97.1262 56.8172 97.11 56.7436 97.0747C56.6675 97.037 56.6017 96.9815 56.5516 96.9129C56.5015 96.8444 56.4687 96.7647 56.456 96.6807V96.7162C56.456 96.1606 56.4284 95.6051 56.389 95.0456C56.3496 94.4861 56.2984 93.9306 56.2078 93.3711C56.0807 93.9186 55.9821 94.4722 55.9123 95.0299C55.8374 95.5854 55.7744 96.137 55.735 96.6925V96.7241C55.7345 97.0263 55.8498 97.3172 56.0572 97.5371C56.2646 97.7569 56.5483 97.8889 56.85 97.9061L57.4528 107.394L58.6663 107.315L58.0635 97.8312C58.2261 97.7961 58.38 97.7291 58.5166 97.6342C58.691 97.5098 58.8295 97.3415 58.918 97.1464C59.0066 96.9513 59.0421 96.7363 59.0209 96.5231L59.0012 96.4877Z"
    fill="#263238" />
  <path
    d="M56.322 102.563C56.322 102.563 59.6395 101.704 60.3566 101.866C60.6835 101.963 60.9663 102.171 61.1561 102.455C61.346 102.738 61.4311 103.079 61.3968 103.418C61.2904 103.954 61.0028 104.379 61.3968 104.754C61.7908 105.128 61.3613 105.821 61.3968 106.196C61.4236 106.574 61.4829 106.95 61.5741 107.319C61.7041 107.851 61.2234 107.894 61.1801 108.461C61.1367 109.029 61.4992 108.997 61.2352 109.454C60.7191 110.333 57.0588 110.447 56.3181 110.018C54.7066 109.092 55.408 106.669 55.408 106.669C55.408 106.669 54.159 107.212 54.0565 105.672C53.9541 104.131 53.1149 103.363 53.9147 102.52C54.7145 101.677 56.322 102.563 56.322 102.563Z"
    fill="white" stroke="#263238" stroke-linecap="round" stroke-linejoin="round" />
  <path
    d="M56.322 102.563C56.322 102.563 55.4552 102.882 55.5931 103.662C55.6402 104.043 55.762 104.412 55.9517 104.746C55.9517 104.746 55.7153 105.065 55.8532 105.904C55.9911 106.743 55.8532 107.129 55.9517 107.429C56.0502 107.728 55.9753 108.469 56.0541 108.91C56.1329 109.352 57.1061 110.486 58.5205 110.301"
    stroke="#263238" stroke-linecap="round" stroke-linejoin="round" />
  <path d="M55.9517 104.746C55.9517 104.746 57.9217 105.227 59.3204 104.746" stroke="#263238" stroke-linecap="round"
    stroke-linejoin="round" />
  <path d="M56.0935 106.787C57.2097 106.942 58.3421 106.942 59.4583 106.787" stroke="#263238" stroke-linecap="round"
    stroke-linejoin="round" />
  <path d="M56.0935 108.371C57.1364 108.694 58.2329 108.81 59.3204 108.709" stroke="#263238" stroke-linecap="round"
    stroke-linejoin="round" />
  <path d="M55.4039 106.669C55.6981 106.263 55.8378 105.765 55.7979 105.266Z" fill="white" />
  <path d="M55.4039 106.669C55.6981 106.263 55.8378 105.765 55.7979 105.266" stroke="#263238" stroke-linecap="round"
    stroke-linejoin="round" />
  <path
    d="M17.5445 107.39C15.9163 106.305 14.019 105.694 12.064 105.625C12.064 105.625 8.38006 111.763 11.0002 114.155C13.6203 116.546 17.5445 107.39 17.5445 107.39Z"
    fill="white" stroke="#263238" stroke-linecap="round" stroke-linejoin="round" />
  <path
    d="M10.3895 112.389C10.5432 116.692 17.2806 116.298 21.914 110.66L20.9684 104.084C20.9684 105.971 14.1798 107.398 14.1798 107.398C12.2098 108.032 11.0278 108.93 11.2248 110.045"
    fill="white" />
  <path
    d="M10.3895 112.389C10.5432 116.692 17.2806 116.298 21.914 110.66L20.9684 104.084C20.9684 105.971 14.1798 107.398 14.1798 107.398C12.2098 108.032 11.0278 108.93 11.2248 110.045"
    stroke="#263238" stroke-linecap="round" stroke-linejoin="round" />
  <path
    d="M24.1047 102.921C24.1047 102.921 20.7911 102.063 20.0701 102.224C19.7436 102.322 19.4613 102.53 19.2715 102.814C19.0818 103.097 18.9964 103.437 19.03 103.776C19.1403 104.312 19.424 104.738 19.03 105.112C18.636 105.486 19.0694 106.18 19.03 106.554C19.0067 106.933 18.9487 107.309 18.8566 107.677C18.7266 108.209 19.2072 108.252 19.2506 108.82C19.2939 109.387 18.9275 109.359 19.1954 109.813C19.7116 110.691 23.3679 110.805 24.1086 110.376C25.7201 109.45 25.0187 107.027 25.0187 107.027C25.0187 107.027 26.2717 107.571 26.3741 106.03C26.4765 104.49 27.3158 103.721 26.512 102.878C25.7082 102.035 24.1047 102.921 24.1047 102.921Z"
    fill="white" stroke="#263238" stroke-linecap="round" stroke-linejoin="round" />
  <path
    d="M24.1046 102.922C24.1046 102.922 24.9754 103.241 24.8375 104.021C24.7904 104.402 24.6685 104.77 24.4789 105.104C24.4789 105.104 24.7153 105.424 24.5774 106.286C24.4395 107.149 24.5774 107.508 24.4789 107.807C24.3804 108.107 24.4553 108.847 24.3765 109.289C24.2977 109.73 23.3245 110.865 21.91 110.679"
    stroke="#263238" stroke-linecap="round" stroke-linejoin="round" />
  <path d="M24.4789 105.104C24.4789 105.104 22.5089 105.585 21.1102 105.104" stroke="#263238" stroke-linecap="round"
    stroke-linejoin="round" />
  <path d="M24.3371 107.145C23.2196 107.301 22.0859 107.301 20.9684 107.145" stroke="#263238" stroke-linecap="round"
    stroke-linejoin="round" />
  <path d="M24.3371 108.729C23.2946 109.055 22.1977 109.17 21.1102 109.068" stroke="#263238" stroke-linecap="round"
    stroke-linejoin="round" />
  <path d="M25.0147 107.027C24.7189 106.622 24.5791 106.124 24.6207 105.625Z" fill="white" />
  <path d="M25.0147 107.027C24.7189 106.622 24.5791 106.124 24.6207 105.625" stroke="#263238" stroke-linecap="round"
    stroke-linejoin="round" />
  <path
    d="M42.0986 85.0733C41.7046 85.3097 41.3461 86.015 41.0703 86.7517C39.5809 85.2388 39.3958 83.0166 39.3958 83.0166L42.2798 83.9701C42.3508 84.5375 42.3035 84.9511 42.0986 85.0733Z"
    fill="#263238" />
  <path
    d="M39.0136 84.0686C41.413 87.0118 45.9992 86.4917 46.539 85.814C47.0118 85.2191 46.8936 83.7652 46.8936 83.7652C47.851 83.4933 47.3624 82.8511 47.3624 82.8511C43.7613 83.1387 43.9583 79.7307 43.9583 79.7307C47.2324 80.0025 47.7958 78.9427 47.7958 78.9427L47.3585 77.2524C47.3585 77.2524 48.8084 76.0113 48.2962 75.4518C48.0007 75.1287 46.7833 74.5811 46.4326 74.321C44.5414 72.9184 45.9401 70.0501 43.3752 67.9776C40.9599 66.0076 35.7316 64.4986 32.4653 67.3078C29.4433 69.9082 28.4977 78.2492 30.7238 80.7038C32.9499 83.1585 34.1359 83.0245 34.1359 83.0245"
    fill="white" />
  <path
    d="M39.0136 84.0686C41.413 87.0118 45.9992 86.4917 46.539 85.814C47.0118 85.2191 46.8936 83.7652 46.8936 83.7652C47.851 83.4933 47.3624 82.8511 47.3624 82.8511C43.7613 83.1387 43.9583 79.7307 43.9583 79.7307C47.2324 80.0025 47.7958 78.9427 47.7958 78.9427L47.3585 77.2524C47.3585 77.2524 48.8084 76.0113 48.2962 75.4518C48.0007 75.1287 46.7833 74.5811 46.4326 74.321C44.5414 72.9184 45.9401 70.0501 43.3752 67.9776C40.9599 66.0076 35.7316 64.4986 32.4653 67.3078C29.4433 69.9082 28.4977 78.2492 30.7238 80.7038C32.9499 83.1585 34.1359 83.0245 34.1359 83.0245"
    stroke="#263238" stroke-linecap="round" stroke-linejoin="round" />
  <path
    d="M44.2932 73.6278C44.3917 74.0888 44.2932 74.5064 44.045 74.5576C43.7968 74.6088 43.5367 74.2739 43.4422 73.809C43.3476 73.3441 43.4422 72.9343 43.6904 72.8831C43.9386 72.8319 44.1947 73.1668 44.2932 73.6278Z"
    fill="#263238" />
  <path d="M44.3207 70.6846C43.93 70.7083 43.5535 70.8398 43.2329 71.0644C42.9123 71.289 42.6601 71.598 42.5044 71.9572"
    stroke="#263238" stroke-linecap="round" stroke-linejoin="round" />
  <path
    d="M40.432 62.8991C33.0169 62.4617 29.2975 67.4813 29.2975 67.4813L29.5142 66.1574C24.932 69.1952 27.5442 73.3716 27.5442 73.3716C24.4868 75.2194 26.1258 78.8285 26.1258 78.8285L27.2172 77.9578C28.8523 84.5021 33.1823 83.8677 33.1823 83.8677L36.5077 80.5857C35.4163 80.4754 32.6701 79.7189 33.4345 76.2517C34.0137 73.6395 35.7552 75.247 36.6102 76.0547L37.3469 75.7868C36.3265 72.3708 39.6558 70.1053 39.6558 70.1053L39.0017 71.3228L44.3207 69.0179L43.8676 70.0029C47.9574 68.683 47.851 63.3364 40.432 62.8991Z"
    fill="#263238" />
  <path
    d="M37.0279 76.634C37.0279 76.634 35.4164 74.0297 34.1832 74.5024C32.95 74.9752 33.0445 78.7222 33.5213 79.4314C33.998 80.1406 35.771 80.4282 36.5196 81.1374C37.2682 81.8466 37.8828 81.1847 37.7371 80.7119"
    fill="white" />
  <path
    d="M37.0279 76.634C37.0279 76.634 35.4164 74.0297 34.1832 74.5024C32.95 74.9752 33.0445 78.7222 33.5213 79.4314C33.998 80.1406 35.771 80.4282 36.5196 81.1374C37.2682 81.8466 37.8828 81.1847 37.7371 80.7119"
    stroke="#263238" stroke-linecap="round" stroke-linejoin="round" />
  <path opacity="0.2" d="M40.8535 63.8604C40.8535 63.8604 45.8061 64.3174 44.8881 68.0564" stroke="white"
    stroke-linecap="round" stroke-linejoin="round" />
  <path opacity="0.2" d="M39.644 63.6399C39.644 63.6399 43.7377 65.866 40.5936 69.412" stroke="white"
    stroke-linecap="round" stroke-linejoin="round" />
  <path opacity="0.2" d="M38.202 63.6399C38.202 63.6399 41.1688 68.624 33.734 71.5908" stroke="white"
    stroke-linecap="round" stroke-linejoin="round" />
  <path d="M43.8677 103.871C43.8677 103.871 37.146 112.539 25.7003 115.691" stroke="#263238" stroke-linecap="round"
    stroke-linejoin="round" />
  <path
    d="M30.0461 90.5342C30.0461 90.5342 32.4929 94.3363 36.5156 94.3363C40.5384 94.3363 42.0001 91.9723 42.0001 91.9723"
    stroke="#263238" stroke-linecap="round" stroke-linejoin="round" />
  <path d="M50.5421 94.6516C50.5421 94.6516 50.6209 98.501 49.4783 99.9548" stroke="#263238" stroke-linecap="round"
    stroke-linejoin="round" />
  <path d="M18.8171 92.1575C18.8171 92.1575 21.4845 94.683 21.6106 96.6451" stroke="#263238" stroke-linecap="round"
    stroke-linejoin="round" />
  <path
    d="M87.9011 97.9533C87.9011 97.9533 89.1501 94.3364 83.9612 91.0583C83.9769 91.0583 82.8343 98.0046 87.9011 97.9533Z"
    fill="#FFC100" stroke="#263238" stroke-linecap="round" stroke-linejoin="round" />
  <path
    d="M101.309 103.871C101.463 103.359 106.214 97.4372 106.947 98.5167C107.68 99.5963 104.914 100.96 105.517 101.129C106.12 101.298 109.276 99.8524 109.579 100.79C109.882 101.728 105.442 102.563 105.442 102.563C105.442 102.563 108.243 102.425 107.775 103.517C107.306 104.608 101.309 103.871 101.309 103.871Z"
    fill="#263238" />
  <path
    d="M81.7508 104.746C81.7508 104.746 79.3395 100.341 81.7508 97.9533C84.162 95.5657 86.924 97.6223 86.924 97.6223C86.924 97.6223 92.0184 94.9944 93.7717 96.7989C95.525 98.6034 96.3997 106.42 90.8561 107.776C85.3125 109.131 81.7547 108.544 81.7508 104.746Z"
    fill="#999999" stroke="#263238" stroke-linecap="round" stroke-linejoin="round" />
  <path
    d="M77.3025 102.078C77.3025 101.413 75.821 95.7233 74.8872 94.9431C73.9535 94.163 74.4932 97.516 74.4184 97.2047C74.3435 96.8935 71.4594 93.2293 70.6793 93.6981C69.8992 94.167 71.4673 96.8895 71.4673 96.8895C71.4673 96.8895 68.7369 95.1047 68.5832 96.1527C68.4296 97.2008 70.6084 98.5167 70.6084 98.5167C70.6084 98.5167 66.8339 98.0597 67.3973 99.4623C67.9607 100.865 70.1553 100.944 70.1553 100.944C70.1553 100.944 67.7007 101.456 67.9528 102.563C68.205 103.67 75.2773 105.266 75.2773 105.266L77.3025 102.078Z"
    fill="#FFC100" stroke="#263238" stroke-linecap="round" stroke-linejoin="round" />
  <path
    d="M68.4966 107.39C67.2516 105.62 68.2642 104.632 69.588 104.746C69.5299 104.05 69.7437 103.359 70.1845 102.817C70.6254 102.276 71.2589 101.926 71.952 101.842C74.5603 101.413 74.5603 102.563 74.5603 102.563C74.5603 102.563 76.0811 98.9777 78.323 99.1825C80.5648 99.3874 81.2622 100.554 80.5609 102.232C80.5609 102.232 83.3544 101.803 83.5947 103.048C83.7515 103.675 83.7515 104.331 83.5947 104.959C83.5947 104.959 84.8634 103.757 85.3638 106.054C85.8641 108.351 83.5947 108.568 83.5947 108.568L68.4966 107.39Z"
    fill="#263238" />
  <path
    d="M89.15 107.39C89.4613 107.201 95.9032 103.213 98.4918 101.846C101.08 100.479 104.189 104.131 103.023 105.967C101.857 107.803 89.15 107.39 89.15 107.39Z"
    fill="#BFBFBF" stroke="#263238" stroke-linecap="round" stroke-linejoin="round" />
  <path
    d="M64.5487 107.2H110.178V108.564L104.437 109.356L103.366 110.427H71.9677L70.4272 109.159L64.5487 108.564V107.2Z"
    fill="#BFBFBF" stroke="#263238" stroke-linecap="round" stroke-linejoin="round" />
  <path
    d="M170.952 129.875V114.17C170.952 113.179 170.558 112.228 169.857 111.527C169.156 110.825 168.205 110.431 167.213 110.431H4.97197C3.98031 110.431 3.02927 110.825 2.32806 111.527C1.62685 112.228 1.23291 113.179 1.23291 114.17V129.875"
    fill="white" />
  <path
    d="M170.952 129.875V114.17C170.952 113.179 170.558 112.228 169.857 111.527C169.156 110.825 168.205 110.431 167.213 110.431H4.97197C3.98031 110.431 3.02927 110.825 2.32806 111.527C1.62685 112.228 1.23291 113.179 1.23291 114.17V129.875"
    stroke="#263238" stroke-linecap="round" stroke-linejoin="round" />
  <path
    d="M116.647 66.386C116.647 66.386 116.876 72.0044 117.459 72.4654C118.042 72.9264 119.823 79.581 119.823 79.581L114.977 81.0901L112.534 74.4393L116.647 66.386Z"
    fill="white" stroke="#263238" stroke-linecap="round" stroke-linejoin="round" />
  <path
    d="M102.325 80.9325C102.325 80.9325 105.942 75.6174 105.631 74.6876C105.32 73.7578 105.15 67.2489 105.15 67.2489C105.15 67.2489 107.053 63.2498 107.64 63.4153C107.64 63.4153 109.398 61.6383 110.205 61.3783C111.013 61.1182 113.582 61.3783 113.582 61.3783C113.582 61.3783 111.781 63.5807 111.825 64.2545C111.868 64.9282 112.699 69.6168 112.699 69.6168C112.655 70.9451 112.807 72.2726 113.149 73.5568C113.688 75.2195 106.451 86.7361 106.451 86.7361L102.325 80.9325Z"
    fill="white" stroke="#263238" stroke-linecap="round" stroke-linejoin="round" />
  <path
    d="M110.958 62.9621C110.958 62.9621 112.928 60.6257 113.988 60.8306C115.048 61.0355 115.17 62.2884 115.375 62.4421C115.58 62.5957 116.391 63.1394 116.663 64.7391C116.935 66.3387 116.726 66.9612 116.986 67.6901C117.246 68.419 116.88 69.6601 116.726 69.9241C116.572 70.1881 112.199 71.7326 111.888 71.0549C111.705 70.489 111.665 69.8864 111.774 69.3016C111.774 69.3016 109.713 68.7303 111.38 66.7012C111.38 66.7012 110.292 65.8186 111.277 64.4672C111.281 64.4672 110.812 64.0023 110.958 62.9621Z"
    fill="white" stroke="#263238" stroke-linecap="round" stroke-linejoin="round" />
  <path d="M111.785 69.3014C111.785 69.3014 115.075 67.4812 116.218 67.7254" stroke="#263238" stroke-linecap="round"
    stroke-linejoin="round" />
  <path d="M111.384 66.7011C111.384 66.7011 114.398 65.2985 114.969 65.196" stroke="#263238" stroke-linecap="round"
    stroke-linejoin="round" />
  <path d="M111.281 64.4673C111.592 64.2072 113.736 62.6509 114.244 62.8046" stroke="#263238" stroke-linecap="round"
    stroke-linejoin="round" />
  <path
    d="M112.282 71.7364C112.282 71.7364 113.759 70.6963 114.252 69.9713C114.744 69.2463 115.095 65.6688 116.033 65.196C116.97 64.7232 117.14 65.0069 117.384 65.196C117.628 65.3851 117.286 67.4654 117.089 68.5095C116.892 69.5536 117.735 70.645 116.226 72.7253C114.717 74.8057 110.958 77.1184 110.958 77.1184"
    fill="white" />
  <path
    d="M112.282 71.7364C112.282 71.7364 113.759 70.6963 114.252 69.9713C114.744 69.2463 115.095 65.6688 116.033 65.196C116.97 64.7232 117.14 65.0069 117.384 65.196C117.628 65.3851 117.286 67.4654 117.089 68.5095C116.892 69.5536 117.735 70.645 116.226 72.7253C114.717 74.8057 110.958 77.1184 110.958 77.1184"
    stroke="#263238" stroke-linecap="round" stroke-linejoin="round" />
  <path
    d="M122.845 50.2594C122.762 51.4059 122.037 52.2846 121.222 52.2294C120.406 52.1742 119.815 51.1971 119.898 50.0506C119.981 48.904 120.686 48.0254 121.517 48.0806C122.349 48.1357 122.924 49.1129 122.845 50.2594Z"
    fill="white" stroke="#263238" stroke-linecap="round" stroke-linejoin="round" />
  <path
    d="M121.757 43.2582C122.151 42.4269 124.515 41.4576 125.059 40.8075C129.787 34.9527 139.744 36.182 141.962 43.1715C144.424 50.9609 134.637 63.6241 132.372 64.2939C129.188 65.2316 121.115 65.8069 121.032 62.2845C120.899 56.4809 119.91 54.0932 121.34 51.4889C122.565 49.2825 120.375 46.296 121.757 43.2582Z"
    fill="white" stroke="#263238" stroke-linecap="round" stroke-linejoin="round" />
  <path
    d="M124.713 63.2024C125.382 63.7776 127.175 69.3961 126.021 73.7222L139.665 74.6875C139.665 74.6875 136.95 63.7343 137.628 62.3435C138.306 60.9526 131.903 58.5689 130.016 60.598"
    fill="white" />
  <path
    d="M124.713 63.2024C125.382 63.7776 127.175 69.3961 126.021 73.7222L139.665 74.6875C139.665 74.6875 136.95 63.7343 137.628 62.3435C138.306 60.9526 131.903 58.5689 130.016 60.598"
    stroke="#263238" stroke-linecap="round" stroke-linejoin="round" />
  <path
    d="M138.341 35.8746C136.551 34.7039 134.535 33.921 132.424 33.5763C130.313 33.2315 128.153 33.3326 126.084 33.8731C126.084 33.8731 128.168 33.8534 128.877 34.405C128.877 34.405 125.406 34.074 122.281 38.2622C119.157 42.4504 120.705 47.3873 120.705 47.3873L121.151 45.8388C121.151 45.8388 121.939 49.9364 124.508 51.2603C127.076 52.5841 126.478 58.9433 127.076 60.8187C127.675 62.6942 135.043 63.8959 137.521 63.1079C139.491 62.4735 143.94 57.8204 144.968 52.7102L145.248 54.6172C145.248 54.6172 147.336 46.2801 144.747 42.9351L146.394 44.0501C146.394 44.0501 144.688 40.2046 142.344 39.2787C142.344 39.2787 142.198 36.6114 136.064 33.9637C136.957 34.4202 137.736 35.0736 138.341 35.8746V35.8746Z"
    fill="#263238" />
  <path d="M125.469 59.7036C125.469 59.7036 125.737 61.0826 122.605 63.0526" stroke="#263238" stroke-linecap="round"
    stroke-linejoin="round" />
  <path d="M119.898 50.0508L124.929 50.4093" stroke="#263238" stroke-linecap="round" stroke-linejoin="round" />
  <path
    d="M124.476 51.8987C124.476 51.8987 125.331 48.0453 126.155 48.1872C126.612 48.266 126.876 49.1328 126.962 50.3148C127.216 50.6828 127.395 51.0976 127.489 51.5351C127.582 51.9725 127.588 52.4242 127.506 52.8639C127.112 55.4171 126.493 55.7835 126.493 55.7835C126.178 57.1822 125.768 58.1239 125.331 57.8678C124.681 57.4738 124.484 56.7251 124.98 55.5983"
    fill="white" />
  <path
    d="M124.476 51.8987C124.476 51.8987 125.331 48.0453 126.155 48.1872C126.612 48.266 126.876 49.1328 126.962 50.3148C127.216 50.6828 127.395 51.0976 127.489 51.5351C127.582 51.9725 127.588 52.4242 127.506 52.8639C127.112 55.4171 126.493 55.7835 126.493 55.7835C126.178 57.1822 125.768 58.1239 125.331 57.8678C124.681 57.4738 124.484 56.7251 124.98 55.5983"
    stroke="#263238" stroke-linecap="round" stroke-linejoin="round" />
  <path d="M125.662 49.8184C125.824 49.8696 125.981 53.5417 125.528 55.2595" stroke="#263238" stroke-linecap="round"
    stroke-linejoin="round" />
  <path d="M126.962 50.3147C126.962 50.3147 126.942 52.4068 126.789 52.7693" stroke="#263238" stroke-linecap="round"
    stroke-linejoin="round" />
  <path
    d="M154.731 129.481C154.731 129.481 153.782 102.449 155.326 92.9377C156.396 86.4456 154.92 79.791 151.205 74.3606C149.661 72.1463 141.075 69.9675 141.075 69.9675C141.075 69.9675 139.7 68.1551 134.377 68.3127C129.054 68.4703 121.832 71.6262 121.832 71.6262C118.917 72.3394 116.75 73.4071 115.134 74.6876C113.058 75.1092 110.58 77.2013 108.042 80.0263C106.884 78.8443 104.591 77.6229 103.783 77.6623C103.184 77.7017 102.566 78.667 102.172 79.4156C99.2089 78.6276 99.3901 81.7796 99.3901 81.7796C99.3901 81.7796 84.8121 103.69 94.7133 109.722V109.821L95.1073 109.962C96.8094 110.865 98.283 110.873 99.5635 110.254C103.594 109.289 107.089 104.848 112.999 98.5167C113.523 105.234 113.984 129.481 113.984 129.481"
    fill="#FFC100" />
  <path opacity="0.3"
    d="M155.326 92.9376C153.782 102.449 154.731 129.481 154.731 129.481H120.02C120.221 126.27 120.611 123.043 121.375 121.881C123.074 119.277 120.607 117.153 121.375 113.816C122.144 110.479 125.906 104.687 124.717 103.871C123.527 103.056 123.728 85.9796 128.16 82.8118C131.442 80.4675 146.32 79.5574 153.821 79.2422C155.57 83.5829 156.09 88.3208 155.326 92.9376V92.9376Z"
    fill="black" fill-opacity="0.7" />
  <path opacity="0.3"
    d="M113.113 99.9586C113.078 99.4189 113.046 98.9342 113.015 98.5166C107.105 104.848 103.61 109.289 99.5792 110.254C98.9732 110.552 98.3039 110.698 97.6289 110.679C102.113 109.517 105.737 104.068 106.549 102.598C107.613 100.668 110.682 92.9967 111.785 92.6854C112.889 92.3741 112.55 96.7357 113.582 94.5057C114.614 92.2756 115.587 86.4523 116.218 91.0582C116.651 94.2338 114.579 97.8035 113.113 99.9586Z"
    fill="black" fill-opacity="0.7" />
  <path opacity="0.3"
    d="M107.258 80.9522C106.223 80.5544 105.141 80.2897 104.039 80.1642C101.979 79.8924 104.827 81.953 104.685 82.481C104.544 83.0089 101.896 82.7765 102.321 83.6314C102.747 84.4864 100.769 90.3294 98.6455 92.5949C96.5218 94.8604 95.2886 95.8257 95.2019 96.665C95.2019 96.665 97.2271 95.9164 97.7393 95.3608C98.2515 94.8053 101.226 91.9961 102.467 88.8677C103.708 85.7393 107.258 80.9522 107.258 80.9522Z"
    fill="black" fill-opacity="0.7" />
  <path
    d="M154.731 129.481C154.731 129.481 153.782 102.449 155.326 92.9377C156.396 86.4456 154.92 79.791 151.205 74.3606C149.661 72.1463 141.075 69.9675 141.075 69.9675C141.075 69.9675 139.7 68.1551 134.377 68.3127C129.054 68.4703 121.832 71.6262 121.832 71.6262C118.917 72.3394 116.75 73.4071 115.134 74.6876C113.058 75.1092 110.58 77.2013 108.042 80.0263C106.884 78.8443 104.591 77.6229 103.783 77.6623C103.184 77.7017 102.566 78.667 102.172 79.4156C99.2089 78.6276 99.3901 81.7796 99.3901 81.7796C99.3901 81.7796 84.8121 103.69 94.7133 109.722V109.821L95.1073 109.962C96.8094 110.865 98.283 110.873 99.5635 110.254C103.594 109.289 107.089 104.848 112.999 98.5167C113.523 105.234 113.984 129.481 113.984 129.481"
    stroke="#263238" stroke-linecap="round" stroke-linejoin="round" />
  <path
    d="M114.244 79.0964C117.865 88.1584 113.015 98.5167 113.015 98.5167C113.842 98.3906 116.399 96.787 117.459 93.899"
    stroke="#263238" stroke-linecap="round" stroke-linejoin="round" />
  <path d="M130.374 69.6168C130.374 69.6168 137.549 68.2535 141.075 69.9674" stroke="#263238" stroke-linecap="round"
    stroke-linejoin="round" />
  <path d="M150.417 94.3364C150.417 94.3364 132.876 101.034 126.962 109.821" stroke="#263238" stroke-linecap="round"
    stroke-linejoin="round" />
  <path d="M97.0498 96.1526C97.0498 96.1526 95.0798 96.3378 93.8071 97.6222" stroke="#263238" stroke-linecap="round"
    stroke-linejoin="round" />
  <path d="M99.4177 81.7913C99.4177 81.7913 101.474 81.1412 102.826 82.4926" stroke="#263238" stroke-linecap="round"
    stroke-linejoin="round" />
  <path
    d="M108.07 80.0261C104.083 85.7155 100.887 92.0156 98.7046 94.3362C96.5219 96.6569 95.0759 98.2171 95.2177 100.321"
    stroke="#263238" stroke-linecap="round" stroke-linejoin="round" />
  <g opacity="0.2">
    <path opacity="0.2" d="M138.889 39.4365C138.889 39.4365 143.983 44.8461 141.879 51.5402" stroke="white"
      stroke-linecap="round" stroke-linejoin="round" />
    <path opacity="0.2" d="M137.443 39.9211C137.754 42.6791 135.957 45.7602 133.621 47.8011" stroke="white"
      stroke-linecap="round" stroke-linejoin="round" />
    <path opacity="0.2" d="M137.431 38.6799C137.671 38.5223 134.566 33.8219 128.822 35.5634" stroke="white"
      stroke-linecap="round" stroke-linejoin="round" />
    <path opacity="0.2"
      d="M136.347 38.6801C136.347 38.6801 131.434 34.9371 126.891 37.6675C122.349 40.3979 123.038 44.1094 123.038 44.1094"
      stroke="white" stroke-linecap="round" stroke-linejoin="round" />
    <path opacity="0.2" d="M135.878 39.4365C135.878 39.4365 127.293 40.0787 127.534 45.1456" stroke="white"
      stroke-linecap="round" stroke-linejoin="round" />
    <path opacity="0.2" d="M138.889 38.219C138.889 38.219 140.386 38.0378 139.153 36.446" stroke="white"
      stroke-linecap="round" stroke-linejoin="round" />
    <path opacity="0.2" d="M140.086 39.4365C140.086 39.4365 142.738 39.8305 143.597 43.0416" stroke="white"
      stroke-linecap="round" stroke-linejoin="round" />
  </g>
  <path d="M102.199 79.4314C102.483 79.5141 104.784 80.2194 106.305 81.7205" stroke="#263238" stroke-linecap="round"
    stroke-linejoin="round" />
  <path d="M122.605 129.481L127.939 99.1826H131.852L126.517 129.481" fill="#BFBFBF" />
  <path opacity="0.3"
    d="M129.188 99.1826H131.84L126.505 129.481H124.062C125.579 120.742 128.207 105.045 129.188 99.1826Z" fill="black"
    fill-opacity="0.7" />
  <path d="M122.605 129.481L127.939 99.1826H131.852L126.517 129.481" stroke="#263238" stroke-linecap="round"
    stroke-linejoin="round" />
  <path d="M161.303 129.481L166.453 100.231L166.638 99.1826H170.554L170.31 100.581L165.22 129.481" fill="#BFBFBF" />
  <path opacity="0.3" d="M170.31 100.581L165.22 129.481H161.303L166.453 100.23L170.31 100.581Z" fill="black"
    fill-opacity="0.7" />
  <path d="M161.303 129.481L166.453 100.231L166.638 99.1826H170.554L170.31 100.581L165.22 129.481" stroke="#263238"
    stroke-linecap="round" stroke-linejoin="round" />
  <path d="M176.858 75.9128L176.429 78.3517L172.292 101.842H125.694L130.26 75.9128H176.858Z" fill="#BFBFBF" />
  <path opacity="0.3" d="M176.429 78.3518L172.292 101.842H128.972L133.621 78.3518H176.429Z" fill="black"
    fill-opacity="0.7" />
  <path d="M176.858 75.9128L176.429 78.3517L172.292 101.842H125.694L130.26 75.9128H176.858Z" stroke="#263238"
    stroke-linecap="round" stroke-linejoin="round" />
  <path d="M132.967 77.6072L129.031 99.9549" stroke="#263238" stroke-linecap="round" stroke-linejoin="round" />
</svg>