<svg width="163" height="130" viewBox="0 0 163 130" fill="none" xmlns="http://www.w3.org/2000/svg">
  <path
    d="M161.854 77.4155H0.285278C0.652622 84.696 2.30176 91.656 5.30304 97.5569C7.07406 101.052 9.1535 104.381 11.5166 107.506H150.947C157.036 98.9169 160.478 88.4906 161.854 77.4155Z"
    fill="#FFC100" />
  <path opacity="0.5"
    d="M161.854 77.4155H0.285278C0.652622 84.696 2.30176 91.656 5.30304 97.5569C7.07406 101.052 9.1535 104.381 11.5166 107.506H150.947C157.036 98.9169 160.478 88.4906 161.854 77.4155Z"
    fill="white" />
  <path d="M0 73.5076H162.049" stroke="#263238" stroke-miterlimit="10" />
  <path d="M8.14026 84.0747H31.4783" stroke="#263238" stroke-linecap="round" stroke-linejoin="round" />
  <path d="M132.541 84.0747H143.792" stroke="#263238" stroke-linecap="round" stroke-linejoin="round" />
  <path d="M146.711 92.2031H157.962" stroke="#263238" stroke-linecap="round" stroke-linejoin="round" />
  <path d="M139.833 100.121H151.084" stroke="#263238" stroke-linecap="round" stroke-linejoin="round" />
  <path d="M16.2648 86.9941H20.6416" stroke="#263238" stroke-linecap="round" stroke-linejoin="round" />
  <path d="M22.0992 86.9941H41.4786" stroke="#263238" stroke-linecap="round" stroke-linejoin="round" />
  <path d="M129.414 86.9941H133.791" stroke="#263238" stroke-linecap="round" stroke-linejoin="round" />
  <path d="M135.249 86.9941H154.628" stroke="#263238" stroke-linecap="round" stroke-linejoin="round" />
  <path d="M12.5132 102.622H31.8925" stroke="#263238" stroke-linecap="round" stroke-linejoin="round" />
  <path d="M27.1016 100.953H30.2279" stroke="#263238" stroke-linecap="round" stroke-linejoin="round" />
  <path d="M137.539 98.6628H140.665" stroke="#263238" stroke-linecap="round" stroke-linejoin="round" />
  <path d="M34.7999 93.8679H40.7595" stroke="#263238" stroke-linecap="round" stroke-linejoin="round" />
  <path d="M8.12842 93.8679H14.088" stroke="#263238" stroke-linecap="round" stroke-linejoin="round" />
  <path d="M153.577 80.5339H159.533" stroke="#263238" stroke-linecap="round" stroke-linejoin="round" />
  <path d="M105.869 95.3296H125.245" stroke="#263238" stroke-linecap="round" stroke-linejoin="round" />
  <path d="M155.363 77.3804H159.724" stroke="#263238" stroke-linecap="round" stroke-linejoin="round" />
  <path d="M15.6433 77.3804H151.822" stroke="#263238" stroke-linecap="round" stroke-linejoin="round" />
  <path d="M2.45032 77.3804H12.8884" stroke="#263238" stroke-linecap="round" stroke-linejoin="round" />
  <path d="M22.4862 56.2112H22.1111V73.6483H22.4862V56.2112Z" fill="#263238" />
  <path d="M22.3844 53.4404L8.53088 60.4434H36.2341L22.3844 53.4404Z" fill="#263238" />
  <path d="M24.9873 73.3511L25.6751 71.5613H34.2061L34.6203 73.4214" stroke="#263238" stroke-linecap="round"
    stroke-linejoin="round" />
  <path d="M34.2061 71.5615L40.1226 66.9541" stroke="#263238" stroke-linecap="round" stroke-linejoin="round" />
  <path d="M37.9224 68.6736L39.4347 73.4217" stroke="#263238" stroke-linecap="round" stroke-linejoin="round" />
  <path d="M14.4594 73.3511L15.1471 71.5613H23.6781L24.0924 73.4214" stroke="#263238" stroke-linecap="round"
    stroke-linejoin="round" />
  <path d="M23.678 71.5615L29.5946 66.9541" stroke="#263238" stroke-linecap="round" stroke-linejoin="round" />
  <path d="M27.3945 68.6736L28.9069 73.4217" stroke="#263238" stroke-linecap="round" stroke-linejoin="round" />
  <path d="M136.503 56.2112H136.128V73.6483H136.503V56.2112Z" fill="#263238" />
  <path d="M136.398 53.4404L122.544 60.4434H150.247L136.398 53.4404Z" fill="#263238" />
  <path d="M139 73.3511L139.688 71.5613H148.219L148.633 73.4214" stroke="#263238" stroke-linecap="round"
    stroke-linejoin="round" />
  <path d="M148.219 71.5615L154.136 66.9541" stroke="#263238" stroke-linecap="round" stroke-linejoin="round" />
  <path d="M151.936 68.6736L153.448 73.4217" stroke="#263238" stroke-linecap="round" stroke-linejoin="round" />
  <path d="M128.473 73.3511L129.16 71.5613H137.691L138.106 73.4214" stroke="#263238" stroke-linecap="round"
    stroke-linejoin="round" />
  <path d="M137.691 71.5615L143.608 66.9541" stroke="#263238" stroke-linecap="round" stroke-linejoin="round" />
  <path d="M141.408 68.6736L142.92 73.4217" stroke="#263238" stroke-linecap="round" stroke-linejoin="round" />
  <path
    d="M119.855 33.346C119.66 32.5483 119.202 31.8393 118.556 31.3324C117.91 30.8255 117.113 30.55 116.291 30.55C115.47 30.55 114.673 30.8255 114.027 31.3324C113.38 31.8393 112.923 32.5483 112.727 33.346H119.855Z"
    fill="#FFC100" />
  <path
    d="M155.855 33.3463C155.639 32.4371 155.148 31.6165 154.448 30.9963C153.749 30.3761 152.876 29.9863 151.947 29.88C152.215 28.4958 152.205 27.0723 151.919 25.6918C151.633 24.3114 151.076 23.0013 150.28 21.8375C149.485 20.6737 148.466 19.6791 147.284 18.9115C146.101 18.1438 144.778 17.6181 143.391 17.365C142.004 17.1118 140.581 17.1362 139.204 17.4366C137.826 17.7371 136.522 18.3076 135.367 19.1153C134.211 19.923 133.227 20.9518 132.472 22.1421C131.716 23.3325 131.204 24.6608 130.966 26.0503C129.829 25.1587 128.439 24.6517 126.995 24.6026C125.551 24.5536 124.13 24.9649 122.935 25.7773C121.741 26.5896 120.836 27.7608 120.351 29.1215C119.866 30.4822 119.827 31.9618 120.238 33.3463H155.855Z"
    fill="#FFC100" />
  <path
    d="M26.2648 44.4407C26.1737 44.0664 25.9594 43.7336 25.6565 43.4956C25.3536 43.2575 24.9795 43.1282 24.5942 43.1282C24.209 43.1282 23.8349 43.2575 23.5319 43.4956C23.229 43.7336 23.0148 44.0664 22.9236 44.4407H26.2648Z"
    fill="#FFC100" />
  <path
    d="M43.155 44.441C43.053 44.0149 42.8224 43.6303 42.4946 43.3396C42.1668 43.0488 41.7575 42.8658 41.3222 42.8153C41.4519 42.1645 41.4507 41.4944 41.3189 40.844C41.1871 40.1936 40.9271 39.5759 40.5542 39.027C40.1813 38.4781 39.7029 38.0088 39.1468 37.6466C38.5908 37.2844 37.9682 37.0364 37.3154 36.9171C36.6626 36.7979 35.9926 36.8097 35.3444 36.9519C34.6962 37.0942 34.0828 37.364 33.5399 37.7456C32.997 38.1272 32.5354 38.6131 32.1821 39.1748C31.8288 39.7366 31.5909 40.3631 31.4821 41.0177C31.01 40.6503 30.4445 40.4226 29.8496 40.3603C29.2548 40.298 28.6543 40.4037 28.1164 40.6653C27.5786 40.9269 27.1248 41.334 26.8065 41.8405C26.4882 42.3469 26.3182 42.9324 26.3158 43.5305C26.3157 43.8363 26.3605 44.1404 26.4487 44.4332L43.155 44.441Z"
    fill="#FFC100" />
  <path
    d="M41.4549 49.7281C41.397 49.4919 41.2615 49.282 41.0702 49.132C40.879 48.9819 40.6429 48.9004 40.3997 48.9004C40.1566 48.9004 39.9205 48.9819 39.7292 49.132C39.5379 49.282 39.4025 49.4919 39.3446 49.7281H41.4549Z"
    fill="#FFC100" />
  <path
    d="M52.1117 49.7282C52.0466 49.457 51.8988 49.2128 51.6888 49.0294C51.4787 48.8459 51.2168 48.7323 50.9393 48.7044C51.0279 48.291 51.0326 47.864 50.953 47.4488C50.8735 47.0335 50.7113 46.6385 50.4763 46.2871C50.2412 45.9357 49.9379 45.6351 49.5845 45.4031C49.2311 45.1711 48.8346 45.0125 48.4187 44.9366C48.0028 44.8607 47.5759 44.869 47.1633 44.9612C46.7507 45.0534 46.3608 45.2275 46.0168 45.4732C45.6727 45.7189 45.3815 46.0312 45.1604 46.3916C44.9393 46.7519 44.7928 47.153 44.7297 47.5711C44.4318 47.338 44.0744 47.1934 43.6983 47.1537C43.3222 47.1141 42.9425 47.181 42.6026 47.3469C42.2627 47.5128 41.9763 47.7709 41.7761 48.0918C41.5759 48.4126 41.47 48.7834 41.4705 49.1616C41.4699 49.3535 41.4975 49.5444 41.5525 49.7282H52.1117Z"
    fill="#FFC100" />
  <path d="M7.7417 107.417H157.36" stroke="#263238" stroke-linecap="round" stroke-linejoin="round" />
  <path d="M31.7831 107.635V119.101" stroke="#263238" stroke-linecap="round" stroke-linejoin="round" />
  <path d="M35.9529 107.635V112.067" stroke="#263238" stroke-linecap="round" stroke-linejoin="round" />
  <path d="M125.573 107.635V123.267" stroke="#263238" stroke-linecap="round" stroke-linejoin="round" />
  <path d="M128.961 107.635V119.101" stroke="#263238" stroke-linecap="round" stroke-linejoin="round" />
  <path d="M120.364 107.635V119.101" stroke="#263238" stroke-linecap="round" stroke-linejoin="round" />
  <path d="M64.6096 107.635V115.451" stroke="#263238" stroke-linecap="round" stroke-linejoin="round" />
  <path d="M78.9399 107.635V128.48" stroke="#263238" stroke-linecap="round" stroke-linejoin="round" />
  <path d="M84.9307 107.635V128.48" stroke="#263238" stroke-linecap="round" stroke-linejoin="round" />
  <path d="M88.0571 107.635V121.966" stroke="#263238" stroke-linecap="round" stroke-linejoin="round" />
  <path d="M106.557 107.635V129" stroke="#263238" stroke-linecap="round" stroke-linejoin="round" />
  <path
    d="M77.0405 10.6334C77.0405 10.6334 78.3927 6.48315 83.7035 6.67464C89.0144 6.86613 99.4446 14.596 102.247 17.8786C105.049 21.1613 103.982 26.5698 103.982 26.5698C103.982 26.5698 91.1403 12.1809 77.0405 10.6334Z"
    fill="#FFC100" stroke="#263238" stroke-linecap="round" stroke-linejoin="round" />
  <path
    d="M109.393 45.1236C114.341 36.4941 107.136 23.0669 93.2991 15.133C79.4627 7.19921 64.2348 7.76318 59.2866 16.3927C54.3384 25.0222 61.5438 38.4495 75.3802 46.3833C89.2167 54.3171 104.445 53.7531 109.393 45.1236Z"
    fill="#FFC100" stroke="#263238" stroke-linecap="round" stroke-linejoin="round" />
  <path
    d="M108.562 45.7137C113.511 37.0842 106.305 23.657 92.4689 15.7231C78.6324 7.7893 63.4045 8.35327 58.4563 16.9828C53.5081 25.6123 60.7135 39.0395 74.5499 46.9734C88.3864 54.9072 103.614 54.3432 108.562 45.7137Z"
    fill="#FFC100" />
  <path opacity="0.15"
    d="M80.1123 19.0623L59.08 31.5168C61.9015 37.1911 67.3139 42.8497 74.5397 46.9804C88.3776 54.9174 103.603 54.3546 108.538 45.7259C109.133 44.6817 109.562 43.552 109.812 42.3769C95.5603 19.4101 80.1123 19.0623 80.1123 19.0623Z"
    fill="black" />
  <path
    d="M108.562 45.7137C113.511 37.0842 106.305 23.657 92.4689 15.7231C78.6324 7.7893 63.4045 8.35327 58.4563 16.9828C53.5081 25.6123 60.7135 39.0395 74.5499 46.9734C88.3864 54.9072 103.614 54.3432 108.562 45.7137Z"
    stroke="#263238" stroke-linecap="round" stroke-linejoin="round" />
  <path
    d="M84.5477 19.2381C80.1521 17.9598 75.5242 17.6926 71.0107 18.4566C63.742 19.7696 57.1688 25.8034 56.2427 30.4421C55.3165 35.0808 67.6069 38.4963 68.3885 38.7269C69.17 38.9575 78.4396 48.1606 77.5134 53.0338C76.5873 57.9069 71.1709 63.7063 70.0884 67.7275C69.0059 71.7488 87.1816 77.1065 95.2241 76.1569C103.267 75.2073 109.683 66.8013 107.675 55.8944C105.666 44.9874 100.64 33.9319 94.9896 27.0501C89.3388 20.1682 84.5477 19.2381 84.5477 19.2381Z"
    fill="#263238" stroke="#263238" stroke-linecap="round" stroke-linejoin="round" />
  <path d="M100.793 61.9246C100.896 62.4325 100.964 62.9469 100.996 63.4643" stroke="white" stroke-linecap="round"
    stroke-linejoin="round" />
  <path d="M92.3324 48.4031C92.3324 48.4031 97.8035 53.7296 100.043 59.4585" stroke="white" stroke-linecap="round"
    stroke-linejoin="round" />
  <path
    d="M71.9992 25.999C71.9992 25.999 57.3172 30.8956 58.4466 31.8374C59.576 32.7793 65.9772 32.5878 65.2229 31.8374C64.4687 31.0871 62.9642 31.0832 62.9642 31.0832"
    stroke="white" stroke-linecap="round" stroke-linejoin="round" />
  <path d="M102.356 65.1758C102.24 65.4407 102.088 65.688 101.903 65.9105" stroke="white" stroke-linecap="round"
    stroke-linejoin="round" />
  <path
    d="M94.2159 39.3132C95.6267 42.4161 97.9128 47.0509 100.566 50.9471C102.936 54.4025 103.843 58.6546 103.091 62.7763"
    stroke="white" stroke-linecap="round" stroke-linejoin="round" />
  <path d="M92.7152 35.8352C92.7152 35.8352 92.9419 36.4097 93.36 37.3788" stroke="white" stroke-linecap="round"
    stroke-linejoin="round" />
  <path d="M76.861 23.8342C76.861 23.8342 79.5262 20.278 84.1219 19.981" stroke="white" stroke-linecap="round"
    stroke-linejoin="round" />
  <path d="M58.7712 27.9724C58.5024 28.2496 58.2591 28.5504 58.0443 28.8712" stroke="white" stroke-linecap="round"
    stroke-linejoin="round" />
  <path
    d="M75.3798 25.0179C73.1038 25.0861 70.8259 24.9869 68.5644 24.7209C65.6885 24.4533 62.8045 25.1399 60.3578 26.6749"
    stroke="white" stroke-linecap="round" stroke-linejoin="round" />
  <path
    d="M78.8227 58.9898C78.8227 58.9898 79.3659 63.7848 78.8227 65.6333C78.2795 67.4817 76.349 67.8764 73.4103 67.4114C70.4715 66.9464 67.4546 64.0858 63.0465 66.6298C58.6384 69.1739 58.6384 82.5624 57.3253 86.5836C56.0123 90.6049 50.4396 107.233 50.4396 107.233H97.1509C97.1509 107.233 104.81 95.013 107.515 88.1311C110.219 81.2493 112.001 74.5941 109.078 71.1943C106.155 67.7944 100.727 68.7948 96.4709 67.7905C92.2151 66.7861 92.0627 65.8365 91.2147 60.596C90.3667 55.3555 90.4331 48.9973 90.4331 48.9973C90.4331 48.9973 84.0906 55.3399 81.8357 56.6529C79.5809 57.966 78.8227 58.9898 78.8227 58.9898Z"
    fill="white" />
  <path
    d="M87.0644 61.6433C88.7097 60.8617 90.0188 60.1896 91.0505 59.6229C90.6143 56.1034 90.4055 52.5594 90.4252 49.0129C90.4252 49.0129 84.0827 55.3555 81.8278 56.6685C79.573 57.9816 78.8109 58.9898 78.8109 58.9898C78.9775 60.5238 79.0558 62.0661 79.0454 63.609C81.8214 63.4856 84.5461 62.8177 87.0644 61.6433Z"
    fill="#FFC100" />
  <path opacity="0.5"
    d="M87.0644 61.6433C88.7097 60.8617 90.0188 60.1896 91.0505 59.6229C90.6143 56.1034 90.4055 52.5594 90.4252 49.0129C90.4252 49.0129 84.0827 55.3555 81.8278 56.6685C79.573 57.9816 78.8109 58.9898 78.8109 58.9898C78.9775 60.5238 79.0558 62.0661 79.0454 63.609C81.8214 63.4856 84.5461 62.8177 87.0644 61.6433Z"
    fill="white" />
  <path
    d="M105.658 81.7259C105.658 81.7259 102.215 82.4019 100.527 84.9304C98.8388 87.4588 97.8579 91.1088 98.28 92.9338C98.702 94.7588 102.774 96.3063 103.618 95.1808C104.462 94.0554 108.816 85.0671 108.816 85.0671C108.816 85.0671 107.28 81.6125 105.658 81.7259Z"
    fill="#FFC100" />
  <path opacity="0.5"
    d="M105.658 81.7259C105.658 81.7259 102.215 82.4019 100.527 84.9304C98.8388 87.4588 97.8579 91.1088 98.28 92.9338C98.702 94.7588 102.774 96.3063 103.618 95.1808C104.462 94.0554 108.816 85.0671 108.816 85.0671C108.816 85.0671 107.28 81.6125 105.658 81.7259Z"
    fill="white" />
  <path
    d="M78.8227 58.9898C78.8227 58.9898 79.3659 63.7848 78.8227 65.6333C78.2795 67.4817 76.349 67.8764 73.4103 67.4114C70.4715 66.9464 67.4546 64.0858 63.0465 66.6298C58.6384 69.1739 58.6384 82.5624 57.3253 86.5836C56.0123 90.6049 50.4396 107.233 50.4396 107.233H97.1509C97.1509 107.233 104.81 95.013 107.515 88.1311C110.219 81.2493 112.001 74.5941 109.078 71.1943C106.155 67.7944 100.727 68.7948 96.4709 67.7905C92.2151 66.7861 92.0627 65.8365 91.2147 60.596C90.3667 55.3555 90.4331 48.9973 90.4331 48.9973C90.4331 48.9973 84.0906 55.3399 81.8357 56.6529C79.5809 57.966 78.8227 58.9898 78.8227 58.9898Z"
    stroke="#263238" stroke-linecap="round" stroke-linejoin="round" />
  <path d="M95.1656 70.3618C95.1656 70.3618 86.0523 73.1443 83.5825 74.0704" stroke="#263238" stroke-linecap="round"
    stroke-linejoin="round" />
  <path d="M73.5431 70.6704C73.5431 70.6704 76.7867 72.6791 78.0216 73.4528" stroke="#263238" stroke-linecap="round"
    stroke-linejoin="round" />
  <path d="M74.778 92.1405C74.778 92.1405 75.5595 88.7445 79.7215 86.1184" stroke="#263238" stroke-linecap="round"
    stroke-linejoin="round" />
  <path
    d="M76.2045 24.729C76.2045 24.729 67.3882 28.5939 66.4621 32.4628C65.5359 36.3316 66.1533 45.6871 67.5445 49.6302C68.9358 53.5733 73.2657 61.8503 76.2826 61.6197C79.2995 61.3891 84.2509 57.2116 87.1115 54.8903C89.972 52.569 91.5196 47.774 91.5196 47.774C91.5196 47.774 89.1983 44.4483 86.9551 38.4966C84.712 32.5448 84.2509 28.7502 80.6126 26.7377C76.9743 24.7251 76.2045 24.729 76.2045 24.729Z"
    fill="white" />
  <path
    d="M80.2295 60.0213C82.6797 58.5363 85.3097 56.3478 87.0996 54.8902C89.9602 52.5689 91.5077 47.7739 91.5077 47.7739C91.5077 47.7739 89.1864 44.4482 86.9432 38.4965C84.7001 32.5447 84.239 28.7502 80.6007 26.7376C79.6081 26.1905 78.8343 25.7958 78.2247 25.5027C80.6436 27.2972 82.5107 29.7343 83.6137 32.5369C85.4152 37.1873 85.3019 41.3375 84.2155 42.7366C83.1291 44.1356 76.8647 43.6354 76.8647 43.6354C76.8647 43.6354 80.163 46.6367 84.0631 45.7378C87.9632 44.839 88.1156 49.7864 86.615 52.7721C85.4817 55.0582 82.1287 58.0908 80.2295 60.0213Z"
    fill="#FFC100" />
  <path opacity="0.5"
    d="M80.2295 60.0213C82.6797 58.5363 85.3097 56.3478 87.0996 54.8902C89.9602 52.5689 91.5077 47.7739 91.5077 47.7739C91.5077 47.7739 89.1864 44.4482 86.9432 38.4965C84.7001 32.5447 84.239 28.7502 80.6007 26.7376C79.6081 26.1905 78.8343 25.7958 78.2247 25.5027C80.6436 27.2972 82.5107 29.7343 83.6137 32.5369C85.4152 37.1873 85.3019 41.3375 84.2155 42.7366C83.1291 44.1356 76.8647 43.6354 76.8647 43.6354C76.8647 43.6354 80.163 46.6367 84.0631 45.7378C87.9632 44.839 88.1156 49.7864 86.615 52.7721C85.4817 55.0582 82.1287 58.0908 80.2295 60.0213Z"
    fill="white" />
  <path
    d="M76.2045 24.729C76.2045 24.729 67.3882 28.5939 66.4621 32.4628C65.5359 36.3316 66.1533 45.6871 67.5445 49.6302C68.9358 53.5733 73.2657 61.8503 76.2826 61.6197C79.2995 61.3891 84.2509 57.2116 87.1114 54.8903C89.972 52.569 91.5196 47.774 91.5196 47.774C91.5196 47.774 89.1983 44.4483 86.9551 38.4966C84.712 32.5448 84.2509 28.7502 80.6126 26.7377C76.9743 24.7251 76.2045 24.729 76.2045 24.729Z"
    stroke="#263238" stroke-linecap="round" stroke-linejoin="round" />
  <path
    d="M73.7971 40.8142C73.8465 41.2758 73.7959 41.7426 73.6489 42.1829C73.502 42.6232 73.2619 43.0267 72.9452 43.3661C71.8627 44.5385 70.8584 44.9292 71.2453 45.6092C71.6321 46.2892 74.0277 46.3048 74.0277 46.3048"
    stroke="#263238" stroke-linecap="round" stroke-linejoin="round" />
  <path
    d="M73.5666 50.404C73.5666 50.404 72.6365 47.9303 71.7845 49.4778C70.9326 51.0254 72.2496 51.9515 72.2496 52.3384C72.2496 52.7253 72.6404 54.8121 74.7233 54.4253C76.8062 54.0384 76.8922 51.4083 76.8922 51.4083C76.8922 51.4083 76.1927 48.7822 74.8796 48.7822C73.5666 48.7822 73.5666 50.404 73.5666 50.404Z"
    fill="#263238" stroke="#263238" stroke-linecap="round" stroke-linejoin="round" />
  <path d="M73.9535 38.1838L87.8617 38.262" stroke="#263238" stroke-linecap="round" stroke-linejoin="round" />
  <path
    d="M68.1384 44.8472C71.3219 44.8472 73.9026 42.2665 73.9026 39.083C73.9026 35.8996 71.3219 33.3188 68.1384 33.3188C64.955 33.3188 62.3743 35.8996 62.3743 39.083C62.3743 42.2665 64.955 44.8472 68.1384 44.8472Z"
    fill="#FFC100" stroke="#263238" stroke-linecap="round" stroke-linejoin="round" />
  <path
    d="M67.525 34.0923C67.7287 34.0687 67.9335 34.0569 68.1386 34.0571C68.6022 34.0573 69.0636 34.1204 69.5102 34.2447"
    stroke="white" stroke-linecap="round" stroke-linejoin="round" />
  <path
    d="M63.1091 39.0829C63.1091 38.1674 63.3592 37.2693 63.8323 36.4856C64.3055 35.7018 64.9837 35.0622 65.7939 34.6357"
    stroke="white" stroke-linecap="round" stroke-linejoin="round" />
  <path
    d="M67.6069 41.0288C70.1822 41.2125 71.6711 41.9863 73.078 42.041C73.2453 41.7616 73.3891 41.4688 73.5078 41.1656C71.7297 41.3844 70.5808 40.3293 67.646 39.7392C65.9228 39.4093 64.1391 39.6508 62.5657 40.427C62.7127 41.0483 62.9637 41.6402 63.3082 42.1777C64.5752 41.3312 66.0865 40.9273 67.6069 41.0288Z"
    fill="#263238" stroke="#263238" stroke-linecap="round" stroke-linejoin="round" />
  <path
    d="M68.6583 42.5179C67.0725 42.21 65.4307 42.3898 63.9492 43.0337C64.4304 43.5449 65.0013 43.9634 65.6335 44.2686C66.5847 43.8893 67.6097 43.7316 68.6309 43.8075C69.3937 43.8637 70.1512 43.976 70.8975 44.1436C71.2433 43.9558 71.5682 43.7318 71.8666 43.4753C70.8247 43.0704 69.7517 42.7502 68.6583 42.5179Z"
    fill="#263238" stroke="#263238" stroke-linecap="round" stroke-linejoin="round" />
  <path
    d="M80.3663 44.8472C83.5498 44.8472 86.1305 42.2665 86.1305 39.083C86.1305 35.8996 83.5498 33.3188 80.3663 33.3188C77.1829 33.3188 74.6022 35.8996 74.6022 39.083C74.6022 42.2665 77.1829 44.8472 80.3663 44.8472Z"
    fill="#FFC100" stroke="#263238" stroke-linecap="round" stroke-linejoin="round" />
  <path d="M79.7528 34.0923C79.9565 34.0688 80.1613 34.057 80.3663 34.0571C80.83 34.0568 81.2915 34.1199 81.738 34.2447"
    stroke="white" stroke-linecap="round" stroke-linejoin="round" />
  <path
    d="M75.3407 39.0829C75.3407 38.1679 75.5904 37.2703 76.0628 36.4866C76.5352 35.703 77.2124 35.063 78.0215 34.6357"
    stroke="white" stroke-linecap="round" stroke-linejoin="round" />
  <path
    d="M79.8347 41.0289C82.4139 41.2125 83.9028 41.9863 85.3058 42.041C85.4734 41.768 85.6185 41.4818 85.7395 41.1852C83.9575 41.404 82.8086 40.3489 79.8777 39.7588C78.1545 39.4292 76.3708 39.6707 74.7974 40.4466C74.9479 41.0667 75.1987 41.6581 75.5399 42.1973C76.8035 41.345 78.3134 40.9343 79.8347 41.0289Z"
    fill="#263238" stroke="#263238" stroke-linecap="round" stroke-linejoin="round" />
  <path
    d="M80.894 42.5179C79.3145 42.2145 77.6802 42.3943 76.2045 43.0337C76.6864 43.544 77.2571 43.9625 77.8888 44.2686C78.8399 43.8893 79.865 43.7316 80.8861 43.8075C81.6502 43.864 82.409 43.9763 83.1566 44.1436C83.5013 43.9539 83.826 43.73 84.1258 43.4753C83.076 43.07 81.9952 42.7498 80.894 42.5179Z"
    fill="#263238" stroke="#263238" stroke-linecap="round" stroke-linejoin="round" />
  <path
    d="M102.833 83.1484C103.529 82.5035 104.904 81.6086 105.658 81.7259C106.667 81.8822 108.3 83.7423 110.078 88.7601C111.723 93.4066 115.264 97.5998 115.475 97.975C117.155 97.5373 128.316 95.81 133.705 99.2997C131.709 89.9716 123.193 84.2816 120.645 75.4967C118.621 68.5288 112.618 65.7269 108.14 66.02C104.939 66.2388 99.2963 67.5245 96.3263 68.2397"
    fill="white" />
  <path
    d="M120.645 75.5047C119.953 72.9987 118.549 70.7469 116.605 69.0215L116.542 69.0567C116.542 69.0567 120.059 73.1326 118.926 75.3797C117.793 77.6267 111.344 76.6419 113.873 79.8738C116.401 83.1056 121.298 82.5429 124.686 86.1929C127.371 89.1003 129.344 91.0308 131.384 93.2544C128.039 87.1425 122.595 82.2185 120.645 75.5047Z"
    fill="#FFC100" />
  <path opacity="0.5"
    d="M120.645 75.5047C119.953 72.9987 118.549 70.7469 116.605 69.0215L116.542 69.0567C116.542 69.0567 120.059 73.1326 118.926 75.3797C117.793 77.6267 111.344 76.6419 113.873 79.8738C116.401 83.1056 121.298 82.5429 124.686 86.1929C127.371 89.1003 129.344 91.0308 131.384 93.2544C128.039 87.1425 122.595 82.2185 120.645 75.5047Z"
    fill="white" />
  <path
    d="M102.833 83.1484C103.529 82.5035 104.904 81.6086 105.658 81.7259C106.667 81.8822 108.3 83.7423 110.078 88.7601C111.723 93.4066 115.264 97.5998 115.475 97.975C117.155 97.5373 128.316 95.81 133.705 99.2997C131.709 89.9716 123.193 84.2816 120.645 75.4967C118.621 68.5288 112.618 65.7269 108.14 66.02C104.939 66.2388 99.2963 67.5245 96.3263 68.2397"
    stroke="#263238" stroke-linecap="round" stroke-linejoin="round" />
  <path
    d="M97.9011 67.6107L93.1687 83.8364L74.2505 95.5054L63.617 85.1885L73.4689 67.7084L72.1207 67.3176C72.1207 67.3176 62.6557 83.9302 61.3035 85.3761C59.9514 86.822 55.4925 91.5623 54.0544 96.4863C52.6163 101.41 56.4695 106.917 56.4695 106.917H97.1508L104.576 94.4581C104.576 94.4581 100.043 88.182 98.4795 86.6383C96.9164 85.0947 95.2907 83.6449 95.2907 83.6449L99.1556 67.5169L97.9011 67.6107Z"
    fill="#263238" stroke="#263238" stroke-linecap="round" stroke-linejoin="round" />
  <path
    d="M51.1938 107.362C51.3188 105.666 51.6471 101.238 52.0692 96.3413C52.4789 92.2205 53.3078 88.1522 54.5429 84.1995L49.0522 84.8951C49.0522 84.8951 45.9611 92.3983 42.866 97.1933C40.9218 100.134 39.7264 103.505 39.3841 107.014C39.3743 107.13 39.3743 107.246 39.3841 107.362H51.1938Z"
    fill="white" stroke="#263238" stroke-linecap="round" stroke-linejoin="round" />
  <path
    d="M53.6128 84.356C53.8981 84.4967 56.1646 83.7385 57.3253 82.191C58.4859 80.6435 59.1815 77.0091 60.4164 75.231C61.6513 73.4529 64.4377 70.8971 65.5202 68.5876C66.6027 66.278 66.0634 65.6488 64.8246 66.6336C63.5858 67.6184 62.1945 70.3461 61.5771 71.5068C60.9596 72.6674 59.334 74.1368 57.7122 74.9106C56.0904 75.6843 56.2428 74.8324 54.6953 76.8411C53.1477 78.8497 52.839 83.9691 53.6128 84.356Z"
    fill="white" stroke="#263238" stroke-linecap="round" stroke-linejoin="round" />
  <path
    d="M60.6509 84.7035C60.6159 84.7074 60.5805 84.7074 60.5454 84.7035C60.4705 84.6904 60.399 84.6625 60.335 84.6215C60.271 84.5804 60.2157 84.5271 60.1725 84.4646C60.1292 84.4021 60.0988 84.3316 60.083 84.2572C60.0672 84.1829 60.0663 84.1061 60.0804 84.0314L65.2623 55.5036C65.2775 55.4105 65.3159 55.3226 65.3739 55.2482C65.4319 55.1737 65.5078 55.1151 65.5944 55.0777L73.0781 51.6934C73.2162 51.6431 73.3683 51.6468 73.5038 51.704C73.6392 51.7611 73.7481 51.8674 73.8084 52.0015C73.8688 52.1355 73.8762 52.2875 73.8292 52.4268C73.7821 52.5661 73.6841 52.6824 73.5549 52.7525L66.3291 55.9882L61.2058 84.2268C61.1818 84.3577 61.1136 84.4764 61.0126 84.5632C60.9116 84.6499 60.784 84.6995 60.6509 84.7035Z"
    fill="white" stroke="#263238" stroke-linecap="round" stroke-linejoin="round" />
  <path
    d="M55.469 68.5797C55.469 68.5797 57.4777 65.9496 58.1733 65.3322C58.8689 64.7147 63.6444 60.459 64.3635 59.6852C65.0825 58.9115 65.5358 59.5289 64.9809 60.9241C64.426 62.3192 63.1246 63.2415 62.5814 63.9371C62.0382 64.6327 60.0296 67.2627 59.7209 67.6496C59.4121 68.0365 56.9384 71.284 55.8559 71.4403C54.7734 71.5966 55.469 68.5797 55.469 68.5797Z"
    fill="white" stroke="#263238" stroke-linecap="round" stroke-linejoin="round" />
  <path
    d="M52.9172 85.1298C52.9172 85.1298 55.2346 83.2735 55.7778 81.6478C56.1528 80.2843 56.3859 78.8856 56.4734 77.4742C56.4734 77.4742 60.8816 78.0135 62.8941 77.7048C64.9067 77.396 65.3679 76.9232 65.5984 76.1416C65.829 75.36 64.5941 75.446 64.129 75.6023C63.664 75.7586 56.2429 74.8207 56.2429 74.8207C56.2429 74.8207 56.8603 74.1251 58.7947 73.8164C60.7292 73.5076 64.6566 73.195 65.9071 72.73C67.1577 72.2649 67.5328 71.3388 67.4703 70.8737C67.4078 70.4087 66.0009 70.8737 64.6879 70.8737C63.3748 70.8737 57.4153 71.1082 57.4153 71.1082C57.4153 71.1082 59.1973 69.545 60.2016 69.0956C61.2059 68.6462 64.6879 66.7001 65.6922 65.6957C66.6965 64.6914 66.3878 64.1326 66.2354 63.6832C66.083 63.2338 64.5316 64.3006 62.4447 65.0744C60.3579 65.8481 55.4847 68.5563 55.4847 68.5563C55.4847 68.5563 50.5959 77.4742 49.5135 80.6552C48.431 83.8363 49.1227 87.6152 48.9703 87.8458"
    fill="white" />
  <path
    d="M52.9172 85.1298C52.9172 85.1298 55.2346 83.2735 55.7778 81.6478C56.1528 80.2843 56.3859 78.8856 56.4734 77.4742C56.4734 77.4742 60.8816 78.0135 62.8941 77.7048C64.9067 77.396 65.3679 76.9232 65.5984 76.1416C65.829 75.36 64.5941 75.446 64.129 75.6023C63.664 75.7586 56.2429 74.8207 56.2429 74.8207C56.2429 74.8207 56.8603 74.1251 58.7947 73.8164C60.7292 73.5076 64.6566 73.195 65.9071 72.73C67.1577 72.2649 67.5328 71.3388 67.4703 70.8737C67.4078 70.4087 66.0009 70.8737 64.6879 70.8737C63.3748 70.8737 57.4153 71.1082 57.4153 71.1082C57.4153 71.1082 59.1973 69.545 60.2016 69.0956C61.2059 68.6462 64.6879 66.7001 65.6922 65.6957C66.6965 64.6914 66.3878 64.1326 66.2354 63.6832C66.083 63.2338 64.5316 64.3006 62.4447 65.0744C60.3579 65.8481 55.4847 68.5563 55.4847 68.5563C55.4847 68.5563 50.5959 77.4742 49.5135 80.6552C48.431 83.8363 49.1227 87.6152 48.9703 87.8458"
    stroke="#263238" stroke-linecap="round" stroke-linejoin="round" />
  <path
    d="M54.7109 112.516H59.6818C62.458 112.52 65.1318 111.468 67.1615 109.574C68.7372 108.077 69.9898 106.274 70.842 104.275C71.6942 102.277 72.128 100.124 72.1167 97.9516C72.1167 93.1956 70.0807 88.9399 66.8762 83.8323H47.4891C44.2846 88.9399 42.2525 93.2113 42.2525 97.9516C42.2393 100.191 42.6998 102.409 43.6036 104.458C44.5074 106.507 45.8341 108.343 47.4969 109.843C49.4907 111.592 52.0592 112.544 54.7109 112.516Z"
    fill="#FFC100" stroke="#263238" stroke-linecap="round" stroke-linejoin="round" />
  <path d="M127.308 94.8997C124.37 94.5089 117.484 95.9822 117.484 95.9822L127.308 94.8997Z" fill="white" />
  <path d="M127.308 94.8997C124.37 94.5089 117.484 95.9822 117.484 95.9822" stroke="#263238" stroke-linecap="round"
    stroke-linejoin="round" />
  <path
    d="M126.488 93.489C120.645 94.8373 118.742 95.5954 117.456 95.9315L117.484 95.9823C117.484 95.9823 107.499 99.0695 101.985 99.3353C98.0496 99.5228 89.8039 100.211 87.1778 99.9019C84.5517 99.5932 81.8396 97.5806 80.7571 96.2676C79.6746 94.9545 75.2665 91.7031 73.9535 90.9294C72.8193 90.3043 71.8403 89.4322 71.089 88.3775C70.6278 87.5959 69.6977 86.9863 69.1584 87.9867C68.6192 88.9871 69.389 90.3861 70.1628 91.3123C70.9365 92.2385 74.2505 95.5055 74.2505 95.5055C74.2505 95.5055 73.7073 95.8963 70.5379 96.6779C67.3686 97.4595 60.3266 97.3735 59.0917 97.3735C57.8568 97.3735 56.6922 97.9128 56.6922 98.3778C56.6922 98.8429 58.3961 98.9953 61.5654 99.5502C64.7347 100.105 68.9904 101.328 68.9904 101.328C68.9904 101.328 66.4346 103.071 64.594 103.321C62.7534 103.571 56.3874 104.638 55.5472 104.716C54.707 104.795 54.2302 105.178 54.539 105.721C54.8477 106.264 57.7122 106.338 61.0378 106.112C64.3634 105.885 67.1459 105.416 67.1459 105.416L64.3634 107.272C62.5072 108.507 56.9384 110.055 56.6297 110.672C56.321 111.29 57.9427 111.372 57.9427 111.372C57.9427 111.372 56.4734 112.067 58.9471 111.833C61.4208 111.598 68.2284 110.66 72.019 109.437C75.8097 108.214 77.2752 107.503 80.9134 107.116C84.5517 106.729 91.6172 110.457 105.846 111.075C120.075 111.692 128.438 110.367 130.989 109.902C133.541 109.437 135.89 108.531 135.738 107.526C135.644 106.924 134.796 102.864 133.393 98.0379"
    fill="white" />
  <path
    d="M133.385 98.0178L131.591 96.8455C131.271 98.4321 130.567 100.331 129.039 101.648C125.952 104.317 113.017 104.88 102.075 104.88C91.1327 104.88 75.1103 102.352 73 102.352C70.8897 102.352 66.3995 104.036 61.3427 105.161C59.4122 105.591 57.9741 105.943 56.9346 106.201C58.3032 106.235 59.6728 106.2 61.0379 106.095H61.2567L67.1459 105.416C67.1459 105.416 69.4907 105.025 68.6466 105.74C67.8025 106.455 64.4339 108.409 60.6393 109.812C59.4903 110.238 58.3141 110.754 57.2316 111.27C57.4657 111.322 57.7035 111.356 57.9428 111.371C57.9428 111.371 56.4734 112.067 58.9471 111.832C61.4209 111.598 68.2284 110.66 72.0191 109.437C75.8098 108.214 77.2753 107.502 80.9135 107.115C84.5518 106.729 91.6173 110.457 105.846 111.074C120.075 111.692 128.438 110.367 130.99 109.902C133.541 109.437 135.89 108.53 135.738 107.526C135.644 106.904 134.796 102.844 133.385 98.0178Z"
    fill="#FFC100" />
  <path opacity="0.5"
    d="M133.385 98.0178L131.591 96.8455C131.271 98.4321 130.567 100.331 129.039 101.648C125.952 104.317 113.017 104.88 102.075 104.88C91.1327 104.88 75.1103 102.352 73 102.352C70.8897 102.352 66.3995 104.036 61.3427 105.161C59.4122 105.591 57.9741 105.943 56.9346 106.201C58.3032 106.235 59.6728 106.2 61.0379 106.095H61.2567L67.1459 105.416C67.1459 105.416 69.4907 105.025 68.6466 105.74C67.8025 106.455 64.4339 108.409 60.6393 109.812C59.4903 110.238 58.3141 110.754 57.2316 111.27C57.4657 111.322 57.7035 111.356 57.9428 111.371C57.9428 111.371 56.4734 112.067 58.9471 111.832C61.4209 111.598 68.2284 110.66 72.0191 109.437C75.8098 108.214 77.2753 107.502 80.9135 107.115C84.5518 106.729 91.6173 110.457 105.846 111.074C120.075 111.692 128.438 110.367 130.99 109.902C133.541 109.437 135.89 108.53 135.738 107.526C135.644 106.904 134.796 102.844 133.385 98.0178Z"
    fill="white" />
  <path
    d="M126.488 93.489C120.645 94.8373 118.742 95.5954 117.456 95.9315L117.484 95.9823C117.484 95.9823 107.499 99.0695 101.985 99.3353C98.0496 99.5228 89.8039 100.211 87.1778 99.9019C84.5517 99.5932 81.8396 97.5806 80.7571 96.2676C79.6746 94.9545 75.2665 91.7031 73.9535 90.9294C72.8193 90.3043 71.8403 89.4322 71.089 88.3775C70.6278 87.5959 69.6977 86.9863 69.1584 87.9867C68.6192 88.9871 69.389 90.3861 70.1628 91.3123C70.9365 92.2385 74.2505 95.5055 74.2505 95.5055C74.2505 95.5055 73.7073 95.8963 70.5379 96.6779C67.3686 97.4595 60.3266 97.3735 59.0917 97.3735C57.8568 97.3735 56.6922 97.9128 56.6922 98.3778C56.6922 98.8429 58.3961 98.9953 61.5654 99.5502C64.7347 100.105 68.9904 101.328 68.9904 101.328C68.9904 101.328 66.4346 103.071 64.594 103.321C62.7534 103.571 56.3874 104.638 55.5472 104.716C54.707 104.795 54.2302 105.178 54.539 105.721C54.8477 106.264 57.7122 106.338 61.0378 106.112C64.3634 105.885 67.1459 105.416 67.1459 105.416L64.3634 107.272C62.5072 108.507 56.9384 110.055 56.6297 110.672C56.321 111.29 57.9427 111.372 57.9427 111.372C57.9427 111.372 56.4734 112.067 58.9471 111.833C61.4208 111.598 68.2284 110.66 72.019 109.437C75.8097 108.214 77.2752 107.503 80.9134 107.116C84.5517 106.729 91.6172 110.457 105.846 111.075C120.075 111.692 128.438 110.367 130.989 109.902C133.541 109.437 135.89 108.531 135.738 107.526C135.644 106.924 134.796 102.864 133.393 98.0379"
    stroke="#263238" stroke-linecap="round" stroke-linejoin="round" />
  <path d="M68.0722 108.792C65.3679 109.965 57.9429 111.344 57.9429 111.344" stroke="#263238" stroke-linecap="round"
    stroke-linejoin="round" />
  <path
    d="M48.5872 80.7138C48.5872 80.7138 46.8326 78.6895 45.6016 79.7447C44.3706 80.7998 46.9186 81.5032 46.9186 81.5032C46.9186 81.5032 44.6324 81.8549 45.3358 83.1758C46.0393 84.4967 48.0714 82.7342 48.0714 82.7342C48.0714 82.7342 47.0592 84.864 49.0601 84.8953C51.0609 84.9265 50.1817 82.0308 50.1817 82.0308C50.1817 82.0308 52.4678 82.2965 51.9402 79.9205C51.4126 77.5445 48.8491 78.9553 48.5872 80.7138Z"
    fill="white" stroke="#263238" stroke-linecap="round" stroke-linejoin="round" />
  <path
    d="M49.2046 81.8276C49.2046 81.9234 49.1762 82.0171 49.123 82.0968C49.0697 82.1765 48.994 82.2386 48.9055 82.2753C48.8169 82.312 48.7195 82.3216 48.6255 82.3029C48.5315 82.2842 48.4452 82.238 48.3774 82.1702C48.3096 82.1025 48.2635 82.0161 48.2448 81.9221C48.2261 81.8281 48.2357 81.7307 48.2724 81.6422C48.309 81.5536 48.3711 81.4779 48.4508 81.4247C48.5305 81.3714 48.6242 81.343 48.72 81.343C48.8482 81.344 48.9709 81.3954 49.0616 81.4861C49.1522 81.5767 49.2036 81.6994 49.2046 81.8276Z"
    fill="white" stroke="#263238" stroke-linecap="round" stroke-linejoin="round" />
  <path
    d="M62.3898 81.0656C62.3898 81.0656 60.6313 79.0413 59.4003 80.0965C58.1693 81.1516 60.7173 81.855 60.7173 81.855C60.7173 81.855 58.4311 82.2067 59.1346 83.5276C59.838 84.8485 61.8701 83.086 61.8701 83.086C61.8701 83.086 60.854 85.2158 62.8549 85.2471C64.8557 85.2783 63.9764 82.3826 63.9764 82.3826C63.9764 82.3826 66.2626 82.6483 65.735 80.2723C65.2074 77.8963 62.6517 79.3071 62.3898 81.0656Z"
    fill="white" stroke="#263238" stroke-linecap="round" stroke-linejoin="round" />
  <path
    d="M62.5189 82.6484C62.7865 82.6484 63.0035 82.4314 63.0035 82.1638C63.0035 81.8962 62.7865 81.6792 62.5189 81.6792C62.2513 81.6792 62.0343 81.8962 62.0343 82.1638C62.0343 82.4314 62.2513 82.6484 62.5189 82.6484Z"
    fill="white" stroke="#263238" stroke-linecap="round" stroke-linejoin="round" />
  <path
    d="M55.5316 80.3623C55.5316 80.3623 53.773 78.3419 52.542 79.3931C51.311 80.4443 53.8629 81.1516 53.8629 81.1516C53.8629 81.1516 51.5768 81.5034 52.2802 82.8242C52.9836 84.1451 55.0157 82.3826 55.0157 82.3826C55.0157 82.3826 54.0036 84.5125 56.0044 84.5437C58.0053 84.575 57.126 81.6792 57.126 81.6792C57.126 81.6792 59.4121 81.945 58.8845 79.5689C58.357 77.1929 55.7973 78.6037 55.5316 80.3623Z"
    fill="white" stroke="#263238" stroke-linecap="round" stroke-linejoin="round" />
  <path
    d="M56.1491 81.4601C56.1491 81.556 56.1207 81.6497 56.0674 81.7294C56.0142 81.809 55.9385 81.8711 55.8499 81.9078C55.7614 81.9445 55.664 81.9541 55.57 81.9354C55.476 81.9167 55.3896 81.8706 55.3219 81.8028C55.2541 81.735 55.2079 81.6487 55.1892 81.5547C55.1705 81.4607 55.1801 81.3633 55.2168 81.2747C55.2535 81.1862 55.3156 81.1105 55.3953 81.0573C55.475 81.004 55.5687 80.9756 55.6645 80.9756C55.7927 80.9766 55.9154 81.028 56.006 81.1186C56.0967 81.2093 56.1481 81.3319 56.1491 81.4601Z"
    fill="white" stroke="#263238" stroke-linecap="round" stroke-linejoin="round" />
  <path
    d="M66.8722 81.593C66.8722 81.593 65.1136 79.5687 63.8826 80.6238C62.6517 81.6789 65.1996 82.3824 65.1996 82.3824C65.1996 82.3824 62.9174 82.7341 63.6169 84.051C64.3164 85.368 66.3524 83.6134 66.3524 83.6134C66.3524 83.6134 65.3364 85.7393 67.3372 85.7744C69.3381 85.8096 68.4588 82.9099 68.4588 82.9099C68.4588 82.9099 70.7449 83.1757 70.2174 80.7997C69.6898 78.4237 67.134 79.8344 66.8722 81.593Z"
    fill="white" stroke="#263238" stroke-linecap="round" stroke-linejoin="round" />
  <path
    d="M67.4858 82.6914C67.4858 82.7872 67.4573 82.8809 67.4041 82.9606C67.3508 83.0403 67.2752 83.1024 67.1866 83.1391C67.0981 83.1757 67.0006 83.1853 66.9066 83.1666C66.8126 83.1479 66.7263 83.1018 66.6585 83.034C66.5908 82.9663 66.5446 82.8799 66.5259 82.7859C66.5072 82.6919 66.5168 82.5945 66.5535 82.5059C66.5902 82.4174 66.6523 82.3417 66.732 82.2885C66.8117 82.2352 66.9053 82.2068 67.0012 82.2068C67.1297 82.2068 67.253 82.2578 67.3438 82.3487C67.4347 82.4396 67.4858 82.5628 67.4858 82.6914Z"
    fill="white" stroke="#263238" stroke-linecap="round" stroke-linejoin="round" />
  <path
    d="M52.8938 83.1759C52.8938 83.1759 51.1391 81.1516 49.9081 82.2067C48.6771 83.2619 51.2251 83.9653 51.2251 83.9653C51.2251 83.9653 48.9389 84.317 49.6424 85.634C50.3458 86.9509 52.3779 85.1963 52.3779 85.1963C52.3779 85.1963 51.3618 87.3222 53.3627 87.3573C55.3636 87.3925 54.4843 84.4929 54.4843 84.4929C54.4843 84.4929 56.7704 84.7547 56.2428 82.3826C55.7153 80.0105 53.1478 81.4369 52.8938 83.1759Z"
    fill="white" stroke="#263238" stroke-linecap="round" stroke-linejoin="round" />
  <path
    d="M53.5112 84.2737C53.5112 84.3695 53.4827 84.4632 53.4295 84.5429C53.3762 84.6226 53.3006 84.6847 53.212 84.7214C53.1235 84.7581 53.026 84.7676 52.932 84.7489C52.838 84.7302 52.7517 84.6841 52.6839 84.6163C52.6162 84.5486 52.57 84.4622 52.5513 84.3682C52.5326 84.2742 52.5422 84.1768 52.5789 84.0882C52.6156 83.9997 52.6777 83.924 52.7574 83.8707C52.837 83.8175 52.9307 83.7891 53.0266 83.7891C53.0904 83.7886 53.1536 83.8007 53.2126 83.8249C53.2717 83.8491 53.3253 83.8848 53.3704 83.9299C53.4155 83.975 53.4512 84.0286 53.4753 84.0876C53.4995 84.1466 53.5117 84.2099 53.5112 84.2737Z"
    fill="white" stroke="#263238" stroke-linecap="round" stroke-linejoin="round" />
  <path
    d="M59.0095 83.6485C59.0095 83.6485 60.5727 81.4875 59.2909 80.5222C58.0091 79.557 57.8684 82.1948 57.8684 82.1948C57.8684 82.1948 57.0204 80.0454 55.891 81.0224C54.7617 81.9994 56.9227 83.5821 56.9227 83.5821C56.9227 83.5821 54.621 83.0662 55.0313 85.0241C55.4416 86.982 58.0716 85.4852 58.0716 85.4852C58.0716 85.4852 58.3218 87.7714 60.518 86.7319C62.7142 85.6924 60.7876 83.5196 59.0095 83.6485Z"
    fill="white" stroke="#263238" stroke-linecap="round" stroke-linejoin="round" />
  <path
    d="M58.0795 84.4925C58.0177 84.5064 57.9537 84.5079 57.8913 84.4971C57.8289 84.4862 57.7692 84.4632 57.7157 84.4292C57.6621 84.3953 57.6158 84.3512 57.5794 84.2993C57.5429 84.2475 57.517 84.189 57.5031 84.1272C57.4893 84.0653 57.4877 84.0014 57.4986 83.9389C57.5095 83.8765 57.5325 83.8168 57.5664 83.7633C57.6004 83.7097 57.6445 83.6634 57.6963 83.627C57.7482 83.5905 57.8067 83.5646 57.8685 83.5507C57.9304 83.5369 57.9943 83.5353 58.0568 83.5462C58.1192 83.5571 58.1789 83.5801 58.2324 83.6141C58.2859 83.648 58.3323 83.6921 58.3687 83.744C58.4052 83.7958 58.4311 83.8543 58.4449 83.9161C58.4588 83.978 58.4603 84.0419 58.4495 84.1044C58.4386 84.1668 58.4156 84.2265 58.3816 84.28C58.3477 84.3335 58.3036 84.3798 58.2517 84.4163C58.1999 84.4528 58.1414 84.4787 58.0795 84.4925Z"
    fill="white" stroke="#263238" stroke-linecap="round" stroke-linejoin="round" />
  <path
    d="M63.492 83.9848C63.492 83.9848 60.9089 83.2774 60.4712 84.8406C60.0335 86.4037 62.5424 85.5714 62.5424 85.5714C62.5424 85.5714 60.8385 87.1345 62.1516 87.838C63.4646 88.5414 64.172 85.9583 64.172 85.9583C64.172 85.9583 64.512 88.303 66.1963 87.2088C67.8806 86.1146 65.5358 84.2036 65.5358 84.2036C65.5358 84.2036 67.5836 83.1524 65.8289 81.4681C64.0743 79.7837 62.7378 82.3747 63.492 83.9848Z"
    fill="white" stroke="#263238" stroke-linecap="round" stroke-linejoin="round" />
  <path
    d="M64.6136 84.5631C64.6674 84.6427 64.6964 84.7365 64.6968 84.8325C64.6972 84.9286 64.6691 85.0226 64.6159 85.1027C64.5628 85.1827 64.4871 85.2452 64.3984 85.2821C64.3097 85.319 64.212 85.3287 64.1177 85.31C64.0235 85.2912 63.937 85.2449 63.8691 85.1769C63.8013 85.1088 63.7552 85.0222 63.7367 84.9279C63.7182 84.8336 63.7282 84.7359 63.7653 84.6473C63.8025 84.5587 63.8651 84.4832 63.9453 84.4302C64.0518 84.36 64.1816 84.3345 64.3067 84.3594C64.4318 84.3843 64.5421 84.4575 64.6136 84.5631Z"
    fill="white" stroke="#263238" stroke-linecap="round" stroke-linejoin="round" />
</svg>