<svg width="174" height="119" viewBox="0 0 174 119" fill="none" xmlns="http://www.w3.org/2000/svg">
  <path
    d="M111.068 2.47914C111.068 2.47914 88.5686 -5.52118 66.4829 7.22176C44.3972 19.9647 33.2532 45.2368 23.6825 65.4927C14.1117 85.7486 19.6211 106.349 36.4796 115.743C53.3381 125.137 64.8042 111.289 88.4574 110.613C112.111 109.938 118.469 113.321 138.095 99.9593C157.721 86.5979 161.27 55.0441 145.791 31.6958C130.312 8.34756 111.068 2.47914 111.068 2.47914Z"
    fill="#FFC100" />
  <path
    d="M109.351 91.8399C140.294 91.8399 165.378 78.7259 165.378 62.5491C165.378 46.3722 140.294 33.2583 109.351 33.2583C78.4084 33.2583 53.3242 46.3722 53.3242 62.5491C53.3242 78.7259 78.4084 91.8399 109.351 91.8399Z"
    fill="white" stroke="#263238" stroke-linecap="round" stroke-linejoin="round" />
  <path
    d="M109.351 90.201C144.339 90.201 172.703 77.087 172.703 60.9102C172.703 44.7333 144.339 31.6194 109.351 31.6194C74.3634 31.6194 46 44.7333 46 60.9102C46 77.087 74.3634 90.201 109.351 90.201Z"
    fill="white" stroke="#263238" stroke-linecap="round" stroke-linejoin="round" />
  <path
    d="M109.351 88.562C144.339 88.562 172.703 75.4481 172.703 59.2713C172.703 43.0944 144.339 29.9805 109.351 29.9805C74.3634 29.9805 46 43.0944 46 59.2713C46 75.4481 74.3634 88.562 109.351 88.562Z"
    fill="white" stroke="#263238" stroke-linecap="round" stroke-linejoin="round" />
  <path
    d="M109.351 81.4105C135.796 81.4105 157.235 71.4984 157.235 59.2712C157.235 47.044 135.796 37.1318 109.351 37.1318C82.9061 37.1318 61.4681 47.044 61.4681 59.2712C61.4681 71.4984 82.9061 81.4105 109.351 81.4105Z"
    fill="white" stroke="#263238" stroke-width="0.5" stroke-linecap="round" stroke-linejoin="round" />
  <path
    d="M127.668 55.436C127.668 55.436 138.328 45.5956 154.309 45.1923C170.289 44.7889 171.518 54.2132 170.315 56.6717C169.111 59.1302 162.939 57.9009 155.973 59.5399C149.007 61.1789 131.286 63.4582 128.264 61.0893C125.242 58.7204 126.439 57.075 127.668 55.436Z"
    fill="white" stroke="#263238" stroke-linecap="round" stroke-linejoin="round" />
  <path d="M145.217 51.5754C145.217 51.5754 149.833 53.1184 151.754 57.3376" stroke="#263238" stroke-linecap="round"
    stroke-linejoin="round" />
  <path d="M151.562 50.8069C153.988 51.8774 156.008 53.6971 157.324 55.9992" stroke="#263238" stroke-linecap="round"
    stroke-linejoin="round" />
  <path d="M158.291 49.2834C158.291 49.2834 161.947 50.4359 165.026 55.8202" stroke="#263238" stroke-linecap="round"
    stroke-linejoin="round" />
  <path d="M131.753 55.4233C131.753 55.4233 144.833 47.3628 156.946 47.9262" stroke="#263238" stroke-linecap="round"
    stroke-linejoin="round" />
  <path
    d="M127.861 46.5048C128.756 46.9964 129.767 47.2358 130.788 47.1975C131.808 47.1591 132.799 46.8445 133.655 46.2871C135.94 44.8594 140.326 42.7018 146.933 41.9079C157.177 40.6787 155.948 35.7616 150.621 33.7129C145.294 31.6641 134.615 32.0739 130.543 36.5812C127.239 40.2113 124.205 44.3792 127.861 46.5048Z"
    fill="white" stroke="#263238" stroke-linecap="round" stroke-linejoin="round" />
  <path d="M130.409 43.1178C130.409 43.1178 134.641 34.8459 144.257 34.8459" stroke="#263238" stroke-linecap="round"
    stroke-linejoin="round" />
  <path d="M135.217 37.9255C137.827 38.2472 140.327 39.1675 142.522 40.6145" stroke="#263238" stroke-linecap="round"
    stroke-linejoin="round" />
  <path d="M144.065 35.9985C146.117 36.5312 148.022 37.518 149.641 38.886" stroke="#263238" stroke-linecap="round"
    stroke-linejoin="round" />
  <path d="M132.72 40.8069C132.72 40.8069 136.177 41.7672 136.945 42.7276" stroke="#263238" stroke-linecap="round"
    stroke-linejoin="round" />
  <path
    d="M119.473 41.0883C119.473 41.0883 120.703 35.3262 116.605 31.2543C112.508 27.1824 101.444 27.5666 99.3957 30.8446C97.3469 34.1226 107.181 35.7616 107.181 40.2688C107.181 44.7761 111.663 48.88 115.786 47.241C119.909 45.602 119.473 41.0883 119.473 41.0883Z"
    fill="white" stroke="#263238" stroke-linecap="round" stroke-linejoin="round" />
  <path d="M110.606 30.6141C107.991 30.4677 105.388 31.0696 103.103 32.3491" stroke="#263238" stroke-linecap="round"
    stroke-linejoin="round" />
  <path d="M112.335 34.0778C112.335 34.0778 108.103 33.6937 105.606 34.8461" stroke="#263238" stroke-linecap="round"
    stroke-linejoin="round" />
  <path d="M113.103 37.5415C113.103 37.5415 109.832 37.9256 108.679 38.6939" stroke="#263238" stroke-linecap="round"
    stroke-linejoin="round" />
  <path
    d="M99.7094 46.5048C98.8186 46.9916 97.8127 47.2283 96.7983 47.19C95.784 47.1517 94.7988 46.8397 93.9473 46.2871C91.6616 44.8594 87.2696 42.7018 80.6688 41.9079C70.425 40.6787 71.6479 35.7616 76.981 33.7129C82.3142 31.6641 92.9869 32.0739 97.0588 36.5812C100.337 40.2113 103.372 44.3792 99.7094 46.5048Z"
    fill="white" stroke="#263238" stroke-linecap="round" stroke-linejoin="round" />
  <path d="M82.1414 35.9982C82.1414 35.9982 87.9035 34.0775 91.3736 34.6537" stroke="#263238" stroke-linecap="round"
    stroke-linejoin="round" />
  <path d="M88.8766 37.1573C90.8724 36.4853 93.0334 36.4853 95.0293 37.1573" stroke="#263238" stroke-linecap="round"
    stroke-linejoin="round" />
  <path d="M91.7576 40.4225C92.3338 40.4225 95.0292 39.6542 97.5198 40.4225" stroke="#263238" stroke-linecap="round"
    stroke-linejoin="round" />
  <path
    d="M49.3868 53.3872C49.3868 53.3872 60.0403 43.5468 76.0206 43.1434C92.0009 42.7401 93.2366 52.1643 92.0265 54.6228C90.8165 57.0814 84.651 55.8521 77.6788 57.4911C70.7067 59.1301 52.9978 61.4093 49.9694 59.0405C46.9411 56.6716 48.1704 55.0454 49.3868 53.3872Z"
    fill="white" stroke="#263238" stroke-linecap="round" stroke-linejoin="round" />
  <path d="M53.1066 55.2314C53.1066 55.2314 53.2986 52.1519 59.0672 48.6946" stroke="#263238" stroke-linecap="round"
    stroke-linejoin="round" />
  <path d="M59.8355 52.9201C59.8355 52.9201 60.6038 50.039 65.5976 46.3833" stroke="#263238" stroke-linecap="round"
    stroke-linejoin="round" />
  <path d="M66.9485 50.9993C66.9485 50.9993 68.229 46.5561 72.1408 44.8467" stroke="#263238" stroke-linecap="round"
    stroke-linejoin="round" />
  <path d="M77.1411 44.6545C77.1411 44.6545 74.8362 46.5753 74.26 48.3103" stroke="#263238" stroke-linecap="round"
    stroke-linejoin="round" />
  <path
    d="M113.218 59.1235C121.828 59.1235 128.808 55.3628 128.808 50.7236C128.808 46.0845 121.828 42.3237 113.218 42.3237C104.608 42.3237 97.6286 46.0845 97.6286 50.7236C97.6286 55.3628 104.608 59.1235 113.218 59.1235Z"
    fill="white" stroke="#263238" stroke-linecap="round" stroke-linejoin="round" />
  <path
    d="M113.218 56.9341C122.5 56.9341 130.025 53.1733 130.025 48.5342C130.025 43.895 122.5 40.1343 113.218 40.1343C103.937 40.1343 96.4122 43.895 96.4122 48.5342C96.4122 53.1733 103.937 56.9341 113.218 56.9341Z"
    fill="white" stroke="#263238" stroke-linecap="round" stroke-linejoin="round" />
  <path
    d="M113.218 56.9341C120.615 56.9341 126.612 53.9903 126.612 50.3589C126.612 46.7275 120.615 43.7837 113.218 43.7837C105.821 43.7837 99.8246 46.7275 99.8246 50.3589C99.8246 53.9903 105.821 56.9341 113.218 56.9341Z"
    fill="#263238" stroke="#263238" stroke-linecap="round" stroke-linejoin="round" />
  <path
    d="M73.8246 52.395V59.6169C73.8246 62.1778 78.031 64.2458 83.2233 64.2458C88.4156 64.2458 92.622 62.1714 92.622 59.6169V52.395H73.8246Z"
    fill="#263238" stroke="#263238" stroke-linecap="round" stroke-linejoin="round" />
  <path
    d="M83.2233 57.0174C88.414 57.0174 92.622 54.9479 92.622 52.3949C92.622 49.842 88.414 47.7725 83.2233 47.7725C78.0326 47.7725 73.8246 49.842 73.8246 52.3949C73.8246 54.9479 78.0326 57.0174 83.2233 57.0174Z"
    fill="white" stroke="#263238" stroke-linecap="round" stroke-linejoin="round" />
  <path
    d="M83.2233 54.591C85.6878 54.591 87.6858 53.6078 87.6858 52.395C87.6858 51.1822 85.6878 50.199 83.2233 50.199C80.7588 50.199 78.7609 51.1822 78.7609 52.395C78.7609 53.6078 80.7588 54.591 83.2233 54.591Z"
    fill="#FFC100" stroke="#263238" stroke-linecap="round" stroke-linejoin="round" />
  <path
    d="M59.2977 59.6936V66.9155C59.2977 69.4764 63.5041 71.5444 68.69 71.5444C73.8759 71.5444 78.0887 69.47 78.0887 66.9155V59.6936H59.2977Z"
    fill="#263238" stroke="#263238" stroke-linecap="round" stroke-linejoin="round" />
  <path
    d="M68.6899 64.3161C73.8807 64.3161 78.0886 62.2465 78.0886 59.6935C78.0886 57.1406 73.8807 55.071 68.6899 55.071C63.4992 55.071 59.2913 57.1406 59.2913 59.6935C59.2913 62.2465 63.4992 64.3161 68.6899 64.3161Z"
    fill="white" stroke="#263238" stroke-linecap="round" stroke-linejoin="round" />
  <path
    d="M73.1524 59.6936C73.1524 60.91 71.1549 61.8896 68.6708 61.8896C66.1867 61.8896 64.1891 60.91 64.1891 59.6936C64.1891 58.4771 66.1867 57.4976 68.6708 57.4976C71.1549 57.4976 73.1524 58.4835 73.1524 59.6936Z"
    fill="#FFC100" stroke="#263238" stroke-linecap="round" stroke-linejoin="round" />
  <path
    d="M89.9778 60.6475V67.8501C89.9778 70.4111 94.1841 72.4726 99.37 72.4726C104.556 72.4726 108.769 70.4111 108.769 67.8501V60.6475H89.9778Z"
    fill="#263238" stroke="#263238" stroke-linecap="round" stroke-linejoin="round" />
  <path
    d="M99.37 65.2702C104.561 65.2702 108.769 63.2006 108.769 60.6476C108.769 58.0947 104.561 56.0251 99.37 56.0251C94.1793 56.0251 89.9714 58.0947 89.9714 60.6476C89.9714 63.2006 94.1793 65.2702 99.37 65.2702Z"
    fill="white" stroke="#263238" stroke-linecap="round" stroke-linejoin="round" />
  <path
    d="M103.807 60.6477C103.807 61.8577 101.809 62.8437 99.3252 62.8437C96.8411 62.8437 94.8436 61.8577 94.8436 60.6477C94.8436 59.4376 96.8475 58.4517 99.3252 58.4517C101.803 58.4517 103.807 59.4312 103.807 60.6477Z"
    fill="#FFC100" stroke="#263238" stroke-linecap="round" stroke-linejoin="round" />
  <path
    d="M128.238 61.083V68.3049C128.238 70.8658 132.445 72.9338 137.637 72.9338C142.829 72.9338 147.029 70.8594 147.029 68.3049V61.083H128.238Z"
    fill="#263238" stroke="#263238" stroke-linecap="round" stroke-linejoin="round" />
  <path
    d="M147.029 61.083C147.029 63.6439 142.823 65.7055 137.637 65.7055C132.451 65.7055 128.238 63.6375 128.238 61.083C128.238 58.5284 132.445 56.4604 137.637 56.4604C142.829 56.4604 147.029 58.5284 147.029 61.083Z"
    fill="white" stroke="#263238" stroke-linecap="round" stroke-linejoin="round" />
  <path
    d="M142.093 61.083C142.093 62.293 140.095 63.279 137.611 63.279C135.127 63.279 133.13 62.293 133.13 61.083C133.13 59.8729 135.127 58.887 137.611 58.887C140.095 58.887 142.093 59.8729 142.093 61.083Z"
    fill="#FFC100" stroke="#263238" stroke-linecap="round" stroke-linejoin="round" />
  <path
    d="M75.5469 67.4404V74.6623C75.5469 77.2233 79.7532 79.2848 84.9455 79.2848C90.1378 79.2848 94.3378 77.2168 94.3378 74.6623V67.4404H75.5469Z"
    fill="#263238" stroke="#263238" stroke-linecap="round" stroke-linejoin="round" />
  <path
    d="M84.9455 72.0629C90.1363 72.0629 94.3442 69.9933 94.3442 67.4404C94.3442 64.8874 90.1363 62.8179 84.9455 62.8179C79.7548 62.8179 75.5469 64.8874 75.5469 67.4404C75.5469 69.9933 79.7548 72.0629 84.9455 72.0629Z"
    fill="white" stroke="#263238" stroke-linecap="round" stroke-linejoin="round" />
  <path
    d="M84.9456 69.6364C87.4101 69.6364 89.408 68.6532 89.408 67.4404C89.408 66.2276 87.4101 65.2444 84.9456 65.2444C82.481 65.2444 80.4832 66.2276 80.4832 67.4404C80.4832 68.6532 82.481 69.6364 84.9456 69.6364Z"
    fill="#FFC100" stroke="#263238" stroke-linecap="round" stroke-linejoin="round" />
  <path
    d="M109.774 65.0012V72.2231C109.774 74.784 113.98 76.852 119.173 76.852C124.365 76.852 128.571 74.7776 128.571 72.2231V65.0012H109.774Z"
    fill="#263238" stroke="#263238" stroke-linecap="round" stroke-linejoin="round" />
  <path
    d="M119.173 69.6239C124.363 69.6239 128.571 67.5543 128.571 65.0014C128.571 62.4485 124.363 60.3789 119.173 60.3789C113.982 60.3789 109.774 62.4485 109.774 65.0014C109.774 67.5543 113.982 69.6239 119.173 69.6239Z"
    fill="white" stroke="#263238" stroke-linecap="round" stroke-linejoin="round" />
  <path
    d="M119.173 67.1972C121.637 67.1972 123.635 66.214 123.635 65.0012C123.635 63.7884 121.637 62.8052 119.173 62.8052C116.708 62.8052 114.71 63.7884 114.71 65.0012C114.71 66.214 116.708 67.1972 119.173 67.1972Z"
    fill="#FFC100" stroke="#263238" stroke-linecap="round" stroke-linejoin="round" />
  <path
    d="M96.585 72.0181V79.2463C96.585 81.8073 100.791 83.8688 105.984 83.8688C111.176 83.8688 115.382 81.8009 115.382 79.2463V72.0181H96.585Z"
    fill="#263238" stroke="#263238" stroke-linecap="round" stroke-linejoin="round" />
  <path
    d="M105.984 76.6408C111.174 76.6408 115.382 74.5712 115.382 72.0183C115.382 69.4653 111.174 67.3958 105.984 67.3958C100.793 67.3958 96.585 69.4653 96.585 72.0183C96.585 74.5712 100.793 76.6408 105.984 76.6408Z"
    fill="white" stroke="#263238" stroke-linecap="round" stroke-linejoin="round" />
  <path
    d="M105.984 74.2143C108.448 74.2143 110.446 73.2311 110.446 72.0183C110.446 70.8055 108.448 69.8223 105.984 69.8223C103.519 69.8223 101.521 70.8055 101.521 72.0183C101.521 73.2311 103.519 74.2143 105.984 74.2143Z"
    fill="#FFC100" stroke="#263238" stroke-linecap="round" stroke-linejoin="round" />
  <path
    d="M34.4912 105.712C34.4912 107.735 28.9929 109.38 22.175 109.38C15.3572 109.38 9.85889 107.735 9.85889 105.712C9.85889 103.688 15.3572 102.034 22.175 102.034C28.9929 102.034 34.4912 103.68 34.4912 105.712Z"
    fill="#8A8A8A" stroke="white" stroke-linecap="round" stroke-linejoin="round" />
  <path
    d="M1.00882 90.3779C1.00882 90.3779 0.815278 95.2868 7.16689 102.298C10.6154 105.588 15.9641 107.26 21.7879 107.26C28.0867 107.26 33.6554 105.905 36.0834 103.072C36.0834 103.072 39.0833 100.732 43.4291 90.3779H1.00882Z"
    fill="#8A8A8A" stroke="white" stroke-linecap="round" stroke-linejoin="round" />
  <path
    d="M22.2102 96.6856C33.9242 96.6856 43.4203 93.8458 43.4203 90.3428C43.4203 86.8398 33.9242 84 22.2102 84C10.4961 84 1 86.8398 1 90.3428C1 93.8458 10.4961 96.6856 22.2102 96.6856Z"
    fill="#8A8A8A" stroke="white" stroke-linecap="round" stroke-linejoin="round" />
</svg>