<svg width="134" height="108" viewBox="0 0 134 108" fill="none" xmlns="http://www.w3.org/2000/svg">
  <path
    d="M113.276 12.7578C113.276 12.7578 99.4783 -0.74918 67.7303 4.01961C35.9822 8.78839 35.6586 24.586 28.3723 30.6807C21.0861 36.7754 4.28123 38.6416 0.853873 52.7136C-2.57349 66.7857 3.79161 104.208 29.5563 107.585C55.3209 110.962 62.0788 92.6419 75.7523 92.0216C89.4258 91.4014 103.636 98.8992 121.611 93.1739C139.586 87.4486 134.186 45.067 128.95 32.5303C123.713 19.9937 113.276 12.7578 113.276 12.7578Z"
    fill="#FFC100" />
  <path
    d="M50.1677 31.8219C50.1677 52.9996 42.3487 61.4707 32.7005 61.4707C23.0522 61.4707 15.2332 54.875 15.2332 31.8219C15.2332 13.5698 23.0522 8.89575 32.7005 8.89575C42.3487 8.89575 50.1677 15.0586 50.1677 31.8219Z"
    fill="#FFC100" stroke="#263238" stroke-linecap="round" stroke-linejoin="round" />
  <path
    d="M31.8984 10.0554C30.5726 10.9263 29.577 12.2164 29.0708 13.7197C28.3719 15.6377 28.0334 17.6684 28.0725 19.7094C28.0277 20.9004 27.802 22.0775 27.4031 23.2006C27.0742 24.0315 26.9069 22.7043 26.9069 27.1938C26.9069 31.6832 26.4049 33.0162 26.0759 34.1818C25.747 35.3475 24.9218 36.3458 25.245 38.175C25.5681 40.0042 27.5532 43.9974 27.5532 43.9974C27.2086 44.675 26.9841 45.4071 26.8896 46.1613C26.9634 47.2829 27.1294 48.3966 27.3858 49.4909C27.5209 50.5934 27.5768 51.7042 27.5532 52.8147C27.6583 53.5491 27.8263 54.273 28.0552 54.9786C28.2226 55.648 27.8879 55.4807 28.5515 57.2868C28.9834 58.4606 29.5366 59.5862 30.2018 60.6453L29.2093 55.9827V53.4899L28.6323 49.3467C28.6963 48.8438 28.7965 48.3463 28.9323 47.8579C29.09 47.0309 29.1288 46.1857 29.0477 45.3477C28.93 44.9683 28.8318 44.5831 28.7534 44.1936L28.211 42.5837L27.4955 40.4947L27.4378 38.527L27.4955 36.6747L27.3801 34.0491C27.3937 33.6085 27.5167 33.1782 27.7378 32.7969C28.0321 32.4968 28.3149 27.7247 28.3149 27.7247L28.5572 25.578L28.9727 23.3737L29.0304 21.1059C29.0304 21.1059 28.7361 22.537 29.1516 19.9518C29.5671 17.3666 29.8671 15.7163 29.8671 15.7163L29.9248 14.5218L30.5827 12.7906L31.1193 11.6365L31.8984 10.0554Z"
    fill="white" />
  <path
    d="M33.1332 9.69775C33.1332 9.69775 35.4934 11.0711 37.7035 16.5589C39.1068 20.3266 39.9543 24.2784 40.2194 28.2903C40.2194 28.2903 39.9136 37.2864 39.7578 37.6673C39.602 38.0481 39.9136 42.6184 39.9886 42.9992C40.0636 43.3801 40.0636 45.4401 40.0636 45.4401C40.0636 45.4401 39.6077 48.2561 39.4577 48.562C39.3077 48.8678 38.9961 50.8702 38.6152 51.8396C38.2343 52.809 37.0918 55.4981 36.9418 55.8039C36.7917 56.1098 35.7877 57.7082 35.7877 57.7082C35.7877 57.7082 34.3393 59.7625 34.1835 60.0164L33.6526 60.7781C33.6526 60.7781 36.5147 58.9142 36.8667 58.2391C37.2187 57.5639 39.4 52.6763 39.4 52.6763L40.1617 51.1529L41.0042 47.5695L41.2292 43.7609V36.9864L41.46 34.6263V28.9827L41.0042 23.5758L40.4675 19.3806L39.1749 16.1088L37.8016 13.6679C37.8016 13.6679 38.1074 13.212 36.734 12.1445C35.3606 11.0769 33.1332 9.69775 33.1332 9.69775Z"
    fill="white" />
  <path
    d="M30.7443 9.77271C30.7443 9.77271 25.7932 11.4519 23.5081 13.2812C21.223 15.1104 18.5513 18.4746 18.4012 22.2716C18.2512 26.0686 18.3262 27.9093 18.1704 28.6711C17.8926 29.5386 17.7145 30.4349 17.6395 31.3428V35.1513L17.7145 37.8173L17.9454 39.9524C17.9454 39.9524 18.5224 45.2093 18.7821 45.7229C19.0418 46.2364 19.1629 46.7096 19.6188 47.7771C19.9223 48.6102 20.1031 49.483 20.1555 50.3681L20.9922 52.5782L22.2848 54.7133L23.1273 56.2367L24.189 57.5293L26.5549 59.0584L28.8631 60.6569C28.8631 60.6569 25.2796 56.8483 25.1296 56.6175C24.9796 56.3867 24.4429 55.7 24.4429 55.7L23.4504 53.5707L22.6656 51.4125L22.1347 50.1892L20.8364 47.2174L20.3055 45.3131L18.8571 41.5796L18.5513 39.6754V33.247L19.0071 31.5678L19.1629 29.9694C19.1629 29.9694 19.5438 29.9694 19.6938 27.6612C19.8439 25.353 19.8496 24.5336 19.8496 24.5336V19.6749C19.8496 19.6749 20.9172 17.7706 21.373 17.1589C21.8289 16.5473 20.9172 17.0089 22.2098 15.8663C23.3249 14.9419 24.5247 14.1246 25.7932 13.4254L27.3917 12.5137L30.7443 9.77271Z"
    fill="white" />
  <path
    d="M35.8742 9.69775C35.8742 9.69775 40.9003 12.2137 42.2737 13.3562C43.6471 14.4988 45.3205 17.7764 46.163 19.8365C46.916 21.7707 47.5274 23.7572 47.9922 25.7801V28.7519C47.8873 29.6869 47.8353 30.627 47.8364 31.5679C47.9114 32.1045 48.0672 34.2396 48.1423 35.0764C48.2173 35.9131 48.5231 37.8173 48.5231 37.8173L48.5981 39.5485L48.2923 42.2895L47.1382 46.6346L46.1514 48.9948L45.0839 51.1299L44.1029 53.7208C43.8718 54.3197 43.5919 54.8987 43.2662 55.4519C43.0354 55.677 42.5045 56.2887 42.5045 56.2887L41.437 57.5813L40.2194 58.2679L39.2269 58.8046L37.6284 59.5663L36.7109 60.253C36.7109 60.253 42.3487 55.602 42.4814 55.2961C42.6141 54.9903 43.6355 51.6377 43.6355 51.6377L47.1497 42.7569L47.4556 37.725L46.8785 30.4831L46.4919 26.3687C46.4919 26.3687 44.5126 19.1325 44.3626 18.4458C44.2126 17.7591 42.8392 15.7048 42.8392 15.7048C42.4831 15.2475 42.0975 14.8138 41.6851 14.4065L38.9383 12.3464L35.8742 9.69775Z"
    fill="white" />
  <path
    d="M71.9859 8.73982C88.0105 22.589 89.2973 34.0376 83.0075 41.3431C76.7177 48.6485 66.6135 50.2585 49.1463 35.186C35.3606 23.2584 36.9071 14.2795 43.2142 6.97983C49.5214 -0.319842 59.2735 -2.25296 71.9859 8.73982Z"
    fill="#FFC100" stroke="#263238" stroke-linecap="round" stroke-linejoin="round" />
  <path
    d="M43.549 8.37036C43.3422 9.94105 43.6672 11.5358 44.4723 12.9002C45.4652 14.6842 46.78 16.269 48.35 17.5743C49.2239 18.3858 49.9692 19.3256 50.5601 20.3614C50.9756 21.1578 49.8561 20.4134 53.2607 23.3505C56.6653 26.2877 57.3405 27.5341 58.0041 28.544C58.6677 29.5538 58.8812 30.8522 60.4796 31.7812C62.078 32.7103 66.4117 33.8297 66.4117 33.8297C66.6971 34.5334 67.1033 35.1817 67.6119 35.7455C68.5075 36.4235 69.4592 37.0238 70.4568 37.5402C71.3793 38.1626 72.2584 38.847 73.0881 39.5887C73.7113 39.9902 74.3677 40.3377 75.0501 40.6274C75.6617 40.9332 75.3155 41.0775 77.139 41.7815C78.3054 42.2137 79.5143 42.5213 80.7455 42.699L76.5677 40.3908L74.675 38.7577L71.1781 36.4495C70.8404 36.072 70.5299 35.6709 70.249 35.2493C69.7289 34.5884 69.1168 34.0054 68.4313 33.5181C68.0704 33.366 67.7179 33.1946 67.3753 33.0046L65.8058 32.3698L63.7572 31.5446L62.2281 30.304L60.8662 29.0518L58.8004 27.4245C58.8004 27.4245 58.1195 26.7551 58.0906 26.3339C58.0618 25.9126 54.6283 22.5715 54.6283 22.5715L53.1568 20.9846L51.7604 19.2246L50.0812 17.7012C50.0812 17.7012 50.9698 18.8553 49.3022 16.8703C47.6345 14.8852 46.567 13.558 46.567 13.558L45.7014 12.7328L44.8185 11.1056L44.3165 9.95147L43.549 8.37036Z"
    fill="white" />
  <path
    d="M44.103 7.18163C44.103 7.18163 46.6824 6.2872 52.2797 8.203C56.0503 9.60403 59.5962 11.548 62.8051 13.9735C62.8051 13.9735 69.4065 20.0787 69.6027 20.4422C69.7989 20.8057 73.4517 23.564 73.7921 23.7545C74.1326 23.9449 75.6848 25.2894 75.6848 25.2894C75.6848 25.2894 77.5198 27.4764 77.6526 27.7938C77.7853 28.1112 79.0837 29.6346 79.5857 30.5694C80.0877 31.5042 81.3572 34.1125 81.4842 34.4299C81.6111 34.7472 82.1824 36.5361 82.1824 36.5361C82.1824 36.5361 82.7941 38.977 82.8633 39.2424L83.0941 40.1426C83.0941 40.1426 83.55 36.8131 83.2846 36.1033C83.0191 35.3935 80.7167 30.5636 80.7167 30.5636L80.0589 28.9883L77.8949 26.0223L75.177 23.3274L73.9075 22.2311L70.0413 18.8957L68.4025 17.1646L64.1323 13.4772L59.741 10.2862L56.221 7.9491L52.8914 6.795L50.1504 6.21795C50.1504 6.21795 50.0062 5.68708 48.2981 6.02753C46.59 6.36799 44.103 7.18163 44.103 7.18163Z"
    fill="white" />
  <path
    d="M42.6142 9.01709C42.6142 9.01709 40.6464 13.8643 40.5541 16.7899C40.4618 19.7156 41.2408 23.9223 44.0164 26.5305C46.792 29.1388 48.2346 30.2698 48.7136 30.8872C49.1875 31.6629 49.7469 32.3829 50.3813 33.0338L53.2665 35.5209L55.3381 37.2059L57.0981 38.4293C57.0981 38.4293 61.4779 41.4068 62.0319 41.5799C62.5858 41.753 63.0302 41.9377 64.1381 42.2897C64.9664 42.6058 65.744 43.0412 66.4463 43.5823L68.6679 44.3902L71.1261 44.8056L72.8284 45.1634L74.5077 45.2038L77.2025 44.4132L79.9088 43.7266C79.9088 43.7266 74.6865 43.9516 74.4153 43.917C74.1441 43.8824 73.2612 43.8362 73.2612 43.8362L70.9992 43.1899L68.8295 42.3243L67.5542 41.9319L64.4612 40.9683L62.6724 40.1258L58.8985 38.7812L57.2539 37.7714L54.8938 35.7287L52.4125 33.5878L51.443 32.1452L50.3293 30.9911C50.3293 30.9911 50.5774 30.7026 48.9502 29.0926C47.3229 27.4826 46.6824 26.9344 46.6824 26.9344L45.4706 25.89L42.995 23.7145C42.995 23.7145 42.2506 21.666 42.0833 20.9216C41.9159 20.1772 41.6736 21.164 41.6505 19.4386C41.6816 17.9913 41.8477 16.5502 42.1468 15.1338C42.2679 14.5568 42.5045 13.3276 42.5045 13.3276L42.6142 9.01709Z"
    fill="white" />
  <path
    d="M45.8976 5.10463C45.8976 5.10463 51.091 2.9407 52.8222 2.65218C54.5533 2.36365 58.1599 3.22922 60.2661 3.94476C62.2232 4.63697 64.1269 5.47211 65.9616 6.44339L68.212 8.38227C68.8528 9.07282 69.5309 9.72779 70.2433 10.3442C70.6991 10.6328 72.413 11.9138 73.0997 12.4043C73.7863 12.8948 75.4078 13.9104 75.4078 13.9104L76.7812 14.9953L78.6566 17.0207L81.2014 20.7253L82.3555 23.0335L83.273 25.2379L84.5887 27.6788C84.877 28.2347 85.1182 28.8138 85.31 29.4099C85.31 29.7331 85.4427 30.564 85.4427 30.564L85.7312 32.2144L85.4485 33.5878L85.2061 34.6842L84.7387 36.4153L84.6579 37.5694C84.6579 37.5694 84.8253 30.264 84.6983 29.9524C84.5714 29.6407 82.6787 26.5997 82.6787 26.5997L78.2816 18.169L74.675 14.6548L68.8295 10.3962L65.4653 7.99565C65.4653 7.99565 58.6908 4.76417 58.0733 4.42948C57.4559 4.09479 55.0034 3.78896 55.0034 3.78896C54.427 3.74941 53.8486 3.74941 53.2723 3.78896L49.9254 4.52181L45.8976 5.10463Z"
    fill="white" />
  <path
    d="M75.5578 32.9759C75.5578 54.1536 67.7388 62.6247 58.0906 62.6247C48.4423 62.6247 40.6176 56.029 40.6176 32.9759C40.6176 14.7239 48.4423 10.0498 58.0906 10.0498C67.7388 10.0498 75.5578 16.2127 75.5578 32.9759Z"
    fill="#FFC100" stroke="#263238" stroke-linecap="round" stroke-linejoin="round" />
  <path
    d="M57.2885 11.2156C55.9637 12.085 54.9683 13.3729 54.4609 14.8741C53.762 16.7921 53.4235 18.8228 53.4626 20.8638C53.4178 22.0548 53.1921 23.2319 52.7933 24.355C52.4643 25.1917 52.297 23.8587 52.297 28.3482C52.297 32.8376 51.795 34.1764 51.466 35.3362C51.1371 36.4961 50.3119 37.5002 50.6293 39.3294C50.9467 41.1586 52.9375 45.1576 52.9375 45.1576C52.5926 45.833 52.368 46.5633 52.2739 47.3158C52.3449 48.4376 52.5109 49.5515 52.7702 50.6453C52.9054 51.7498 52.9613 52.8625 52.9375 53.9749C53.0434 54.7072 53.2113 55.4292 53.4396 56.1331C53.6011 56.8024 53.2722 56.6351 53.9358 58.4413C54.3706 59.6067 54.9276 60.7228 55.5977 61.7708L54.5994 57.1083V54.6154L54.0224 50.4722C54.0868 49.9699 54.1851 49.4725 54.3167 48.9834C54.479 48.1571 54.5198 47.3114 54.4378 46.4733C54.3161 46.0946 54.2159 45.7092 54.1378 45.3192L53.6011 43.7092L52.8856 41.6203L52.8279 39.6525L52.8856 37.8002L52.7702 35.1746C52.7838 34.734 52.9068 34.3038 53.1279 33.9225C53.4222 33.6282 53.705 28.8502 53.705 28.8502L53.9416 26.7036L54.3628 24.4992L54.4205 22.2314C54.4205 22.2314 54.1205 23.6625 54.5417 21.0773C54.963 18.4922 55.2573 16.8418 55.2573 16.8418L55.315 15.6473L55.9728 13.9162L56.5095 12.7621L57.2885 11.2156Z"
    fill="white" />
  <path
    d="M58.5176 10.8516C58.5176 10.8516 60.8835 12.2249 63.0936 17.7127C64.4971 21.4823 65.3447 25.4361 65.6095 29.4498C65.6095 29.4498 65.3037 38.4403 65.1479 38.8211C64.9921 39.202 65.3037 43.7722 65.3787 44.1531C65.4537 44.5339 65.4537 46.594 65.4537 46.594C65.4537 46.594 64.9978 49.41 64.8478 49.7158C64.6978 50.0216 64.3862 52.024 64.0053 52.9934C63.6245 53.9629 62.4819 56.6519 62.3319 56.9578C62.1818 57.2636 61.1778 58.862 61.1778 58.862L59.5736 61.1702L59.0427 61.9319C59.0427 61.9319 61.8587 60.1027 62.2453 59.416C62.6319 58.7293 64.7555 53.8532 64.7555 53.8532L65.5172 52.3298L66.3597 48.7521L66.5847 44.9378V38.1402L66.8155 35.7801V30.1365L66.3597 24.7296L65.823 20.5402L64.5304 17.2626L63.1571 14.8217C63.1571 14.8217 63.4629 14.3658 62.0895 13.2983C60.7161 12.2307 58.5176 10.8516 58.5176 10.8516Z"
    fill="white" />
  <path
    d="M56.1344 10.9326C56.1344 10.9326 51.1834 12.6061 48.8982 14.4353C46.6131 16.2646 43.9414 19.6287 43.7914 23.4257C43.6413 27.2227 43.7163 29.0693 43.5605 29.831C43.2822 30.6964 43.1041 31.5909 43.0297 32.4969V36.3055L43.1047 38.9714L43.3355 41.1065C43.3355 41.1065 43.9125 46.3634 44.1722 46.877C44.4319 47.3906 44.5531 47.8638 45.0089 48.9313C45.3119 49.7643 45.4907 50.6372 45.5398 51.5222L46.3823 53.7323L47.6749 55.8674L48.5174 57.3908L49.5792 58.6892L51.9451 60.2126L54.2533 61.811C54.2533 61.811 50.6698 58.0025 50.5198 57.7717C50.3697 57.5409 49.8331 56.8599 49.8331 56.8599L48.8405 54.7249L48.0558 52.5667L47.5249 51.3491L46.2265 48.3773L45.6956 46.4673L44.2472 42.7338L43.9414 40.8295V34.4012L44.3973 32.722L44.5531 31.1236C44.5531 31.1236 44.9339 31.1236 45.084 28.8154C45.234 26.5072 45.2398 25.6935 45.2398 25.6935V20.829C45.2398 20.829 46.3073 18.9247 46.7632 18.3188C47.219 17.7129 46.3073 18.163 47.5999 17.0205C48.7133 16.0954 49.9133 15.2799 51.1834 14.5853L52.7818 13.6678L56.1344 10.9326Z"
    fill="white" />
  <path
    d="M61.2643 10.8516C61.2643 10.8516 66.2904 13.3675 67.6638 14.51C69.0372 15.6526 70.7106 18.9302 71.5531 20.9903C72.3062 22.9245 72.9175 24.911 73.3824 26.9339V29.9057C73.2774 30.8407 73.2254 31.7809 73.2266 32.7217C73.3016 33.2584 73.4574 35.3935 73.5324 36.2302C73.6074 37.0669 73.9133 38.9712 73.9133 38.9712L73.9883 40.7023L73.6824 43.4433L72.5283 47.7885L71.5416 50.1544L70.474 52.2837L69.4931 54.8746C69.2619 55.4735 68.9821 56.0525 68.6563 56.6058C68.4255 56.8308 67.8946 57.4425 67.8946 57.4425L66.8271 58.7408L65.6095 59.4218L64.617 59.9584L63.0186 60.7201L62.1011 61.4068C62.1011 61.4068 67.7388 56.7558 67.8716 56.45C68.0043 56.1441 69.0257 52.7972 69.0257 52.7972L72.5399 43.9107L72.8457 38.8788L72.234 31.6426L71.8532 27.5225C71.8532 27.5225 69.8739 20.2863 69.7239 19.5996C69.5739 18.9129 68.2005 16.8586 68.2005 16.8586C67.8456 16.4003 67.46 15.9665 67.0464 15.5603L64.3054 13.506L61.2643 10.8516Z"
    fill="white" />
  <path d="M91.4382 26.3689H13V80.5595H91.4382V26.3689Z" fill="#8A8A8A" stroke="#263238" stroke-linecap="round"
    stroke-linejoin="round" />
  <path d="M91.4382 26.3689H34.4835V80.5595H91.4382V26.3689Z" fill="white" stroke="#263238" stroke-linecap="round"
    stroke-linejoin="round" />
  <path d="M39.9078 26.3804L40.2136 49.6931L69.5277 49.3065L69.2276 26.3804H39.9078Z" fill="white" stroke="#263238"
    stroke-linecap="round" stroke-linejoin="round" />
  <path d="M46.8959 38.0021L63.6072 37.7251" stroke="#263238" stroke-linecap="round" stroke-linejoin="round" />
  <path
    d="M74.2538 59.2232C74.2538 59.2232 73.4063 60.0706 75.6564 62.5032C77.9064 64.9359 82.5014 69.2533 98.9968 69.1657C115.492 69.078 125.062 64.7825 125.902 62.0357C126.742 59.2889 124.872 55.198 111.562 54.2556C102.837 53.7398 94.0825 54.0234 85.4089 55.103C85.4089 55.103 77.2562 55.4756 74.2538 59.2232Z"
    stroke="#263238" stroke-linecap="round" stroke-linejoin="round" />
  <path
    d="M72.3324 62.4741C72.3324 62.4741 72.61 74.7689 81.369 82.0742C90.1281 89.3795 104.381 88.649 109.86 87.1368C112.667 86.442 115.293 85.1541 117.561 83.3597C119.829 81.5654 121.687 79.3062 123.009 76.7341C125.887 71.1163 127.261 62.759 127.261 62.759C127.261 62.759 94.6647 68.3768 84.5322 65.7761C74.3998 63.1754 72.3324 62.4741 72.3324 62.4741Z"
    fill="white" stroke="#263238" stroke-linecap="round" stroke-linejoin="round" />
  <path
    d="M129 60.6184C128.89 68.0406 115.748 70.5463 99.6323 70.1956C83.0201 69.845 69.6076 67.4562 71.6969 60.3043C73.2457 54.9933 83.5169 53.3643 100.261 53.3643C117.004 53.3643 129.08 55.775 129 60.6184Z"
    fill="white" stroke="#263238" stroke-linecap="round" stroke-linejoin="round" />
  <path
    d="M100.261 64.5562C114.051 64.5562 125.23 62.4139 125.23 59.7713C125.23 57.1286 114.051 54.9863 100.261 54.9863C86.4703 54.9863 75.2911 57.1286 75.2911 59.7713C75.2911 62.4139 86.4703 64.5562 100.261 64.5562Z"
    stroke="#263238" stroke-linecap="round" stroke-linejoin="round" />
  <path d="M75.291 59.7712C75.291 59.7712 72.5443 61.9628 74.3633 65.6958" stroke="#263238" stroke-linecap="round"
    stroke-linejoin="round" />
  <path
    d="M78.9656 62.3499C78.8089 63.4437 78.9088 64.559 79.2575 65.6076C79.6062 66.6561 80.194 67.6091 80.9746 68.3913"
    stroke="#263238" stroke-linecap="round" stroke-linejoin="round" />
  <path d="M85.6719 63.8767C85.6719 63.8767 86.534 67.8069 89.4123 69.7209" stroke="#263238" stroke-linecap="round"
    stroke-linejoin="round" />
  <path d="M94.6866 64.4539C94.6866 64.4539 96.5349 68.2745 99.6323 70.1958" stroke="#263238" stroke-linecap="round"
    stroke-linejoin="round" />
  <path
    d="M105.703 64.4539C105.983 65.7218 106.592 66.894 107.467 67.8529C108.343 68.8119 109.455 69.5241 110.693 69.9182"
    stroke="#263238" stroke-linecap="round" stroke-linejoin="round" />
  <path d="M114.236 64.1616C114.236 64.1616 116.157 67.3248 121.424 67.9969" stroke="#263238" stroke-linecap="round"
    stroke-linejoin="round" />
  <path d="M121.409 62.2476C121.409 62.2476 126.399 62.7297 125.727 65.7906" stroke="#263238" stroke-linecap="round"
    stroke-linejoin="round" />
  <path d="M125.23 59.7711C125.23 59.7711 128.152 57.7402 129 60.6185" stroke="#263238" stroke-linecap="round"
    stroke-linejoin="round" />
  <path d="M76.7595 58.1275C76.7595 58.1275 74.1588 57.0975 72.9242 58.7047" stroke="#263238" stroke-linecap="round"
    stroke-linejoin="round" />
  <path
    d="M80.6897 54.7743C81.2391 54.7663 81.7833 54.8823 82.2816 55.1138C82.78 55.3453 83.2197 55.6862 83.568 56.1112"
    stroke="#263238" stroke-linecap="round" stroke-linejoin="round" />
  <path
    d="M90.5592 53.8101C90.8514 53.9139 91.0978 54.1171 91.2554 54.3841C91.413 54.6512 91.4717 54.9652 91.4212 55.2711"
    stroke="#263238" stroke-linecap="round" stroke-linejoin="round" />
  <path d="M98.8068 54.9641C98.8068 54.9641 99.5373 53.2108 100.268 53.3642" stroke="#263238" stroke-linecap="round"
    stroke-linejoin="round" />
  <path d="M105.703 54.9643C106.619 54.4096 107.626 54.019 108.676 53.8101" stroke="#263238" stroke-linecap="round"
    stroke-linejoin="round" />
  <path d="M113.856 55.4392C114.535 54.9407 115.324 54.6125 116.157 54.4822" stroke="#263238" stroke-linecap="round"
    stroke-linejoin="round" />
  <path
    d="M120.854 56.9731C121.341 56.609 121.909 56.3673 122.509 56.2681C123.109 56.169 123.724 56.2153 124.302 56.4033"
    stroke="#263238" stroke-linecap="round" stroke-linejoin="round" />
  <path
    d="M102.226 68.311C106.474 68.311 109.918 64.8669 109.918 60.6185C109.918 56.3701 106.474 52.926 102.226 52.926C97.9772 52.926 94.5332 56.3701 94.5332 60.6185C94.5332 64.8669 97.9772 68.311 102.226 68.311Z"
    fill="white" stroke="#263238" stroke-linecap="round" stroke-linejoin="round" />
  <path
    d="M102.226 52.9186C102.037 51.4872 101.716 50.0762 101.269 48.7035L100.589 46.7895L102.386 46.5703C102.386 46.5703 103.511 51.5087 103.175 53.4227L102.226 52.9186Z"
    fill="#FFC100" stroke="#263238" stroke-linecap="round" stroke-linejoin="round" />
  <path
    d="M101.831 50.9462C101.831 50.9462 100.253 48.7035 98.3466 48.2506C96.4399 47.7977 92.8457 50.5006 92.3928 50.6102C91.9399 50.7197 93.2914 52.5242 96.0966 52.6337C98.9018 52.7433 101.831 50.9462 101.831 50.9462Z"
    fill="#FFC100" stroke="#263238" stroke-linecap="round" stroke-linejoin="round" />
  <path
    d="M115.339 69.1292C113.953 69.7576 112.412 69.9611 110.911 69.7138C109.41 69.4666 108.016 68.7797 106.905 67.7402C105.794 66.7006 105.017 65.355 104.671 63.8734C104.325 62.3919 104.426 60.8411 104.961 59.4169C105.496 57.9928 106.442 56.7595 107.678 55.8727C108.914 54.986 110.386 54.4858 111.906 54.4354C113.427 54.3849 114.928 54.7865 116.221 55.5893C117.513 56.3922 118.538 57.5602 119.167 58.9457C119.584 59.8657 119.816 60.8589 119.85 61.8685C119.883 62.8782 119.717 63.8846 119.362 64.8303C119.006 65.7759 118.468 66.6423 117.778 67.3799C117.088 68.1175 116.259 68.7119 115.339 69.1292Z"
    fill="white" stroke="#263238" stroke-linecap="round" stroke-linejoin="round" />
  <path
    d="M119.167 58.9454C120.393 58.178 121.548 57.3002 122.615 56.3228L124.076 54.9202L125.025 56.4616C125.025 56.4616 120.993 59.5298 119.115 60.012L119.167 58.9454Z"
    fill="#FFC100" stroke="#263238" stroke-linecap="round" stroke-linejoin="round" />
  <path
    d="M120.796 57.7622C120.796 57.7622 122.191 55.4026 121.811 53.4813C121.431 51.56 117.494 49.3977 117.202 49.0324C116.909 48.6672 115.836 50.6396 116.895 53.2476C117.954 55.8556 120.796 57.7622 120.796 57.7622Z"
    fill="#FFC100" stroke="#263238" stroke-linecap="round" stroke-linejoin="round" />
  <path
    d="M101.605 60.7208C99.6908 60.7208 97.6745 58.4708 97.6745 58.4708L97.3531 58.2224C96.6864 56.565 95.4636 55.1914 93.8946 54.3372C92.3256 53.483 90.5082 53.2016 88.7543 53.5411C87.0004 53.8807 85.4194 54.8201 84.2826 56.1981C83.1457 57.5762 82.524 59.3069 82.524 61.0934C82.524 62.8798 83.1457 64.6106 84.2826 65.9886C85.4194 67.3666 87.0004 68.3061 88.7543 68.6456C90.5082 68.9852 92.3256 68.7037 93.8946 67.8495C95.4636 66.9953 96.6864 65.6217 97.3531 63.9643C98.0341 63.5032 98.7497 63.0953 99.4936 62.7444C100.772 62.1768 102.085 61.6888 103.424 61.2833C103.424 61.2833 103.511 60.7208 101.605 60.7208Z"
    fill="white" stroke="#263238" stroke-linecap="round" stroke-linejoin="round" />
  <path
    d="M125.12 59.793C125.062 62.4302 113.907 64.5414 100.151 64.5414C87.0964 64.5414 76.3869 62.6201 75.313 60.1582C74.6482 60.9764 73.7205 62.7224 74.0419 65.7979C78.5347 68.72 88.3091 69.9254 99.5593 70.1811C115.675 70.5318 128.78 68.026 128.927 60.6038C128.93 60.3974 128.908 60.1912 128.861 59.9902C128.05 59.4277 126.852 59.077 125.12 59.793Z"
    fill="white" stroke="#263238" stroke-linecap="round" stroke-linejoin="round" />
  <path
    d="M78.8487 62.3499C78.6946 63.4442 78.7965 64.5594 79.1464 65.6077C79.4963 66.656 80.0845 67.6088 80.865 68.3913"
    stroke="#263238" stroke-linecap="round" stroke-linejoin="round" />
  <path d="M85.5623 63.8767C85.5623 63.8767 86.4243 67.8069 89.3026 69.7209" stroke="#263238" stroke-linecap="round"
    stroke-linejoin="round" />
  <path d="M94.5698 64.4539C94.5698 64.4539 96.4253 68.2745 99.5228 70.1958" stroke="#263238" stroke-linecap="round"
    stroke-linejoin="round" />
  <path d="M105.593 64.4539C105.873 65.721 106.48 66.8926 107.355 67.8515C108.229 68.8104 109.34 69.523 110.576 69.9182"
    stroke="#263238" stroke-linecap="round" stroke-linejoin="round" />
  <path d="M114.104 64.1616C114.104 64.1616 116.018 67.3248 121.293 67.9969" stroke="#263238" stroke-linecap="round"
    stroke-linejoin="round" />
  <path d="M121.314 62.2476C121.314 62.2476 126.297 62.7297 125.625 65.7906" stroke="#263238" stroke-linecap="round"
    stroke-linejoin="round" />
  <path d="M109.385 61.5098C109.385 61.5098 112.964 59.3182 114.499 53.1379" stroke="#263238" stroke-linecap="round"
    stroke-linejoin="round" />
  <path
    d="M85.1825 59.4279C85.1825 59.4279 76.9494 56.8272 70.2359 54.2046C63.5223 51.582 60.739 53.1088 61.6887 55.1251C62.6384 57.1413 66.8024 56.0455 66.8024 56.0455C66.8024 56.0455 66.3349 57.2071 63.5004 58.522C60.666 59.837 58.3429 60.2095 57.7877 63.5627C57.2325 66.9158 57.1375 67.6975 60.3007 67.0692C63.4639 66.441 64.1067 62.3354 65.4947 61.4661C66.8827 60.5967 66.0499 62.2477 64.7642 65.2721C63.4785 68.2965 64.0337 71.6862 67.153 70.7584C70.2724 69.8306 69.4834 70.3858 69.3885 73.8777C69.2935 77.3697 70.4696 80.657 73.5086 79.3056C76.5476 77.9541 78.5128 75.2511 76.4307 71.6716C74.3487 68.092 72.705 65.9661 72.8219 63.9937C72.9388 62.0213 73.6036 64.432 75.1889 63.833C76.7741 63.2339 73.4502 62.6641 75.8025 61.1958C78.1548 59.7274 85.6135 61.0935 85.6135 61.0935C85.6135 61.0935 85.8765 56.9076 85.1825 59.4279Z"
    fill="#FFC100" stroke="#263238" stroke-linecap="round" stroke-linejoin="round" />
</svg>