<svg width="153" height="136" viewBox="0 0 153 136" fill="none" xmlns="http://www.w3.org/2000/svg">
  <path
    d="M117.814 104.123C117.814 104.123 135.704 98.7716 140.651 77.374C145.599 55.9763 128.135 39.1901 112.626 36.5889C97.117 33.9877 90.9969 39.096 78.0209 37.6428C65.0449 36.1897 44.8436 23.75 28.3646 31.3816C11.8855 39.0132 15.9496 66.1398 27.3173 87.2207C38.685 108.302 86.7976 120.598 117.814 104.123Z"
    fill="#FFC100" />
  <path
    d="M23.8709 40.4784C23.8417 40.4783 23.8129 40.4711 23.787 40.4574C23.7611 40.4438 23.7389 40.424 23.7221 40.3999L22.1002 38.1559L19.4962 39.0198C19.4588 39.0316 19.4187 39.0315 19.3814 39.0194C19.3441 39.0073 19.3115 38.984 19.2879 38.9525C19.2641 38.9207 19.2512 38.882 19.2512 38.8422C19.2512 38.8024 19.2641 38.7636 19.2879 38.7318L20.8949 36.4879L19.273 34.2439C19.2498 34.2119 19.2372 34.1733 19.2372 34.1337C19.2371 34.0941 19.2496 34.0555 19.2728 34.0235C19.2959 33.9915 19.3286 33.9677 19.3661 33.9555C19.4036 33.9434 19.4439 33.9435 19.4813 33.9559L22.0853 34.8011L23.6924 32.5571C23.7155 32.525 23.7479 32.5009 23.7853 32.4881C23.8226 32.4754 23.8629 32.4747 23.9007 32.4861C23.9378 32.4995 23.97 32.5238 23.9932 32.5558C24.0164 32.5878 24.0295 32.626 24.0309 32.6656V35.4257L26.6349 36.2709C26.6728 36.2829 26.706 36.3068 26.7294 36.3391C26.7528 36.3715 26.7653 36.4105 26.7651 36.4505C26.7648 36.4893 26.7525 36.5272 26.7298 36.5587C26.7071 36.5902 26.6753 36.6138 26.6386 36.6262L24.0346 37.4902V40.254C24.0361 40.2933 24.0245 40.332 24.0016 40.3639C23.9786 40.3957 23.9457 40.419 23.9081 40.4298C23.8991 40.4484 23.8865 40.4649 23.8709 40.4784ZM22.1709 37.7632C22.2001 37.7636 22.2288 37.771 22.2546 37.7846C22.2805 37.7982 22.3028 37.8178 22.3197 37.8417L23.6849 39.7117V37.3892C23.685 37.3498 23.6972 37.3114 23.7199 37.2793C23.7425 37.2471 23.7745 37.2228 23.8114 37.2097L26.0062 36.4841L23.8077 35.7735C23.7697 35.7628 23.7364 35.7397 23.7128 35.7079C23.6893 35.6761 23.6769 35.6374 23.6775 35.5977V33.2752L22.3271 35.1452C22.304 35.1771 22.2713 35.2008 22.2339 35.2129C22.1964 35.225 22.1562 35.2249 22.1188 35.2125L19.9166 34.5019L21.2818 36.3719C21.3057 36.4037 21.3186 36.4424 21.3186 36.4822C21.3186 36.5221 21.3057 36.5608 21.2818 36.5926L19.9315 38.4626L22.1263 37.737C22.1424 37.7434 22.1575 37.7522 22.1709 37.7632Z"
    fill="#263238" />
  <path
    d="M80.8167 9.94871C80.7782 9.94901 80.7405 9.93724 80.7088 9.91505L78.8823 8.57987L77.0595 9.91505C77.0271 9.93692 76.9889 9.9486 76.9498 9.9486C76.9107 9.9486 76.8725 9.93692 76.8401 9.91505C76.8078 9.89213 76.7839 9.85932 76.7718 9.82156C76.7598 9.78379 76.7602 9.74311 76.7731 9.70561L77.4687 7.54763L75.6422 6.21246C75.611 6.18891 75.5879 6.15608 75.5763 6.11861C75.5646 6.08115 75.565 6.04096 75.5774 6.00372C75.5897 5.96649 75.6134 5.9341 75.6451 5.91115C75.6767 5.88821 75.7148 5.87586 75.7538 5.87586H78.0081L78.7075 3.71788C78.7227 3.68354 78.7475 3.65437 78.7789 3.6339C78.8102 3.61343 78.8468 3.60254 78.8842 3.60254C78.9216 3.60254 78.9582 3.61343 78.9895 3.6339C79.0209 3.65437 79.0457 3.68354 79.0609 3.71788L79.7565 5.87586H82.0108C82.0506 5.87562 82.0894 5.8882 82.1216 5.91176C82.1537 5.93532 82.1775 5.96861 82.1894 6.00676C82.2014 6.04375 82.2014 6.08363 82.1894 6.12061C82.1773 6.15759 82.1539 6.18976 82.1224 6.21246L80.2959 7.54763L80.9953 9.70561C81.0066 9.74358 81.0059 9.78415 80.9932 9.82168C80.9806 9.85922 80.9566 9.89185 80.9246 9.91505C80.893 9.93724 80.8553 9.94901 80.8167 9.94871ZM78.8823 8.161C78.9226 8.16072 78.9619 8.17387 78.9939 8.1984L80.4633 9.27177L79.9016 7.53268C79.8899 7.49509 79.89 7.45477 79.902 7.41727C79.914 7.37977 79.9373 7.34692 79.9686 7.32323L81.4566 6.24986H79.6375C79.5977 6.2501 79.5589 6.23752 79.5268 6.21396C79.4946 6.1904 79.4709 6.1571 79.4589 6.11896L78.8972 4.37986L78.3355 6.11896C78.3236 6.1571 78.2998 6.1904 78.2676 6.21396C78.2355 6.23752 78.1967 6.2501 78.1569 6.24986H76.3416L77.811 7.32323C77.8432 7.34616 77.8671 7.37896 77.8792 7.41673C77.8913 7.4545 77.8908 7.49518 77.8779 7.53268L77.3162 9.27177L78.8042 8.1984C78.8266 8.17941 78.8535 8.16653 78.8823 8.161Z"
    fill="#263238" />
  <path
    d="M111.737 114.029C111.7 114.03 111.663 114.018 111.633 113.997C111.602 113.975 111.579 113.945 111.566 113.909L110.692 111.703L108.334 111.86C108.294 111.863 108.254 111.852 108.221 111.831C108.187 111.809 108.162 111.778 108.148 111.74C108.133 111.704 108.131 111.663 108.14 111.625C108.149 111.587 108.17 111.553 108.2 111.527L110.019 110.009L109.144 107.802C109.13 107.765 109.127 107.725 109.137 107.687C109.146 107.648 109.168 107.614 109.198 107.589C109.228 107.563 109.265 107.548 109.305 107.546C109.344 107.543 109.383 107.553 109.416 107.574L111.414 108.842L113.233 107.327C113.264 107.303 113.302 107.291 113.341 107.291C113.38 107.291 113.417 107.303 113.449 107.327C113.483 107.346 113.51 107.377 113.524 107.414C113.539 107.45 113.541 107.491 113.53 107.529L112.946 109.833L114.948 111.101C114.981 111.122 115.006 111.154 115.02 111.191C115.034 111.228 115.036 111.268 115.026 111.306C115.017 111.345 114.996 111.379 114.965 111.404C114.935 111.429 114.898 111.443 114.858 111.445L112.5 111.602L111.92 113.902C111.91 113.941 111.888 113.975 111.857 114.001C111.826 114.026 111.788 114.041 111.748 114.044L111.737 114.029ZM110.815 111.321C110.852 111.321 110.888 111.333 110.919 111.354C110.95 111.376 110.973 111.406 110.986 111.441L111.7 113.236L112.173 111.366C112.183 111.328 112.205 111.293 112.236 111.268C112.266 111.243 112.304 111.227 112.344 111.224L114.263 111.101L112.634 110.065C112.601 110.044 112.575 110.013 112.561 109.977C112.547 109.94 112.545 109.9 112.556 109.863L113.028 107.993L111.54 109.231C111.508 109.254 111.47 109.266 111.43 109.266C111.391 109.266 111.353 109.254 111.321 109.231L109.695 108.198L110.406 109.997C110.42 110.034 110.422 110.074 110.413 110.112C110.404 110.15 110.383 110.185 110.353 110.211L108.865 111.448L110.785 111.321H110.815Z"
    fill="#263238" />
  <path
    d="M149.492 18.6068C149.466 18.6065 149.44 18.6007 149.416 18.5898C149.392 18.5788 149.371 18.563 149.354 18.5433L148.004 17.0772L146.192 17.9149C146.157 17.9317 146.117 17.9367 146.079 17.9293C146.041 17.9219 146.006 17.9025 145.98 17.8738C145.953 17.8447 145.935 17.8075 145.931 17.7678C145.926 17.7281 145.934 17.6879 145.954 17.6531L146.925 15.9103L145.574 14.4405C145.547 14.4122 145.53 14.3757 145.525 14.3365C145.52 14.2972 145.528 14.2576 145.548 14.2236C145.567 14.1891 145.597 14.1615 145.632 14.1447C145.667 14.1279 145.707 14.1228 145.746 14.1301L147.699 14.5041L148.67 12.7612C148.688 12.7264 148.717 12.6984 148.753 12.6816C148.788 12.6647 148.828 12.6599 148.867 12.6677C148.905 12.6758 148.94 12.6957 148.966 12.7244C148.993 12.7532 149.01 12.7896 149.015 12.8285L149.25 14.8145L151.199 15.1885C151.238 15.1955 151.273 15.215 151.3 15.244C151.327 15.273 151.344 15.3099 151.348 15.3493C151.353 15.3886 151.346 15.4287 151.327 15.4637C151.309 15.4986 151.279 15.5267 151.244 15.5438L149.436 16.3815L149.67 18.3675C149.675 18.4062 149.667 18.4454 149.649 18.4796C149.63 18.5139 149.601 18.5413 149.566 18.5582C149.545 18.5798 149.52 18.5964 149.492 18.6068ZM148.048 16.662C148.1 16.6634 148.149 16.6848 148.186 16.7219L149.239 17.8701L149.056 16.318C149.05 16.2766 149.057 16.2342 149.077 16.1976C149.098 16.161 149.13 16.1322 149.168 16.116L150.578 15.4615L149.056 15.1586C149.018 15.1504 148.983 15.1306 148.957 15.1018C148.93 15.0731 148.913 15.0367 148.908 14.9977L148.725 13.4494L147.981 14.8107C147.963 14.8453 147.933 14.8729 147.898 14.8891C147.862 14.9053 147.822 14.9093 147.784 14.9005L146.263 14.5976L147.308 15.742C147.335 15.7714 147.352 15.8085 147.356 15.8481C147.361 15.8877 147.353 15.9278 147.334 15.9627L146.59 17.324L148 16.6695C148.017 16.6647 148.034 16.6622 148.052 16.662H148.048Z"
    fill="#263238" />
  <path
    d="M143.752 88.0662C143.713 88.0665 143.674 88.0533 143.644 88.0288C143.611 88.0063 143.587 87.9735 143.575 87.9356C143.563 87.8977 143.563 87.8568 143.577 87.8194L144.663 84.4534L141.814 82.3702C141.782 82.3469 141.758 82.3141 141.746 82.2764C141.734 82.2388 141.734 82.1983 141.747 82.1608C141.76 82.1236 141.784 82.0915 141.816 82.0687C141.848 82.0459 141.886 82.0337 141.925 82.0336H145.448L146.534 78.6676C146.549 78.6333 146.574 78.6041 146.606 78.5836C146.637 78.5631 146.674 78.5522 146.711 78.5522C146.748 78.5522 146.785 78.5631 146.816 78.5836C146.848 78.6041 146.872 78.6333 146.888 78.6676L147.978 82.0336H151.5C151.539 82.0339 151.577 82.0463 151.608 82.0691C151.639 82.0919 151.663 82.1239 151.675 82.1608C151.689 82.1982 151.69 82.2391 151.677 82.277C151.665 82.3149 151.641 82.3477 151.608 82.3702L148.759 84.4534L149.849 87.8194C149.86 87.857 149.86 87.8973 149.848 87.9348C149.836 87.9723 149.813 88.0051 149.782 88.0288C149.75 88.0528 149.712 88.0658 149.672 88.0658C149.632 88.0658 149.594 88.0528 149.562 88.0288L146.713 85.9494L143.863 88.0288C143.832 88.0539 143.792 88.0671 143.752 88.0662ZM142.494 82.4076L144.99 84.229C145.022 84.2522 145.046 84.2848 145.059 84.3224C145.072 84.3599 145.072 84.4005 145.061 84.4384L144.105 87.3893L146.601 85.5679C146.633 85.5445 146.672 85.5319 146.711 85.5319C146.75 85.5319 146.789 85.5445 146.821 85.5679L149.317 87.3893L148.365 84.4384C148.352 84.4009 148.351 84.3602 148.363 84.3225C148.375 84.2847 148.399 84.2519 148.431 84.229L150.928 82.4076H147.84C147.801 82.407 147.763 82.3941 147.731 82.3706C147.7 82.3471 147.677 82.3142 147.665 82.2767L146.713 79.3221L145.757 82.2692C145.746 82.3074 145.723 82.3409 145.692 82.3646C145.66 82.3883 145.621 82.4008 145.582 82.4001L142.494 82.4076Z"
    fill="#263238" />
  <path
    d="M5.84383 84.6402L3.34399 85.4107L10.2446 101.216C10.2446 101.216 36.3144 91.002 46.4737 85.4107C56.633 79.8194 64.7017 77.7773 64.7017 77.7773C62.3543 73.9176 60.0368 68.5021 59.0435 64.7434L5.84383 84.6402Z"
    fill="#263238" />
  <path
    d="M10.252 101.388C10.2164 101.387 10.1816 101.377 10.1519 101.357C10.1223 101.337 10.0989 101.309 10.0846 101.276L3.18404 85.4855C3.17309 85.4621 3.16742 85.4366 3.16742 85.4107C3.16742 85.3848 3.17309 85.3593 3.18404 85.3359C3.19484 85.3117 3.21075 85.2901 3.23066 85.2727C3.25057 85.2552 3.27401 85.2423 3.29936 85.2349L5.78432 84.4645L58.9803 64.5677C59.0045 64.5575 59.0304 64.5522 59.0566 64.5522C59.0828 64.5522 59.1087 64.5575 59.1328 64.5677C59.1552 64.5799 59.1749 64.5964 59.1908 64.6163C59.2068 64.6362 59.2187 64.6591 59.2258 64.6836C60.2488 68.5582 62.5738 73.8952 64.8616 77.6689C64.8753 77.6941 64.8825 77.7224 64.8825 77.7512C64.8825 77.7799 64.8753 77.8082 64.8616 77.8335C64.8506 77.8607 64.8334 77.885 64.8115 77.9045C64.7895 77.9239 64.7634 77.938 64.7352 77.9457C64.6533 77.9681 56.5512 80.0513 46.5481 85.564C36.545 91.0768 10.5608 101.272 10.3004 101.377C10.285 101.383 10.2686 101.387 10.252 101.388ZM3.60812 85.5304L10.3525 100.977C12.5845 100.09 36.7645 90.5345 46.3918 85.2461C55.4872 80.2458 62.9979 78.0504 64.4227 77.6614C62.0814 73.6802 60.2361 69.4245 58.9282 64.9903L5.9108 84.8123L3.60812 85.5304Z"
    fill="#263238" />
  <path
    d="M63.7345 58.2395C63.7345 58.2395 56.0676 62.2862 50.123 65.1772C44.1784 68.0682 30.1875 71.9092 24.6298 75.1967C19.0721 78.4841 3.54486 82.3139 3.54486 82.3139L10.2409 99.6563C10.2409 99.6563 34.7929 90.4072 42.8281 87.131C50.8633 83.8548 68.1241 73.8353 68.7081 73.4463C69.2922 73.0574 63.7345 58.2395 63.7345 58.2395Z"
    fill="white" />
  <path
    d="M10.252 99.862C10.2149 99.8615 10.1787 99.8499 10.1482 99.8285C10.1177 99.8072 10.0943 99.7772 10.0809 99.7423L3.38491 82.3962C3.37478 82.3719 3.36957 82.3459 3.36957 82.3196C3.36957 82.2932 3.37478 82.2672 3.38491 82.2429C3.39788 82.2192 3.41542 82.1985 3.4365 82.1818C3.45759 82.1651 3.48179 82.1528 3.50767 82.1456C3.66391 82.1082 19.0722 78.2598 24.5443 75.0396C27.6802 73.1921 33.4351 71.18 39.0002 69.2314C43.3489 67.7092 47.4558 66.2731 50.0523 65.0127C55.9225 62.1553 63.5782 58.1161 63.6564 58.075C63.6805 58.0648 63.7064 58.0596 63.7326 58.0596C63.7588 58.0596 63.7847 58.0648 63.8089 58.075C63.8332 58.0848 63.8554 58.0994 63.8739 58.1181C63.8924 58.1367 63.907 58.159 63.9168 58.1835C63.9168 58.2209 65.3229 61.9235 66.6249 65.6635C69.3108 73.3155 69.0318 73.5175 68.8309 73.6371C68.3101 73.985 50.9488 84.0717 42.9174 87.3368C34.9566 90.5793 10.5534 99.776 10.3264 99.8658C10.3017 99.871 10.2761 99.8698 10.252 99.862ZM3.79411 82.4598L10.3599 99.4319C12.5659 98.6016 35.1686 90.0819 42.7723 86.974C50.6475 83.7688 67.5252 73.9887 68.5742 73.3342C68.6895 72.459 65.654 63.9019 63.634 58.5014C62.425 59.1409 55.5728 62.735 50.2048 65.3456C47.6008 66.6172 43.4754 68.0571 39.1155 69.583C33.5653 71.5203 27.829 73.5287 24.7228 75.3575C19.552 78.4056 5.65411 81.9886 3.79411 82.4598Z"
    fill="#263238" />
  <path
    d="M18.1533 90.7401C17.8038 90.8995 17.4124 90.9415 17.0373 90.8597C16.7081 90.7691 16.417 90.5736 16.2078 90.3025C15.9447 89.9639 15.7375 89.5851 15.594 89.1805L14.757 87.0225C14.5928 86.623 14.4911 86.2004 14.4556 85.7696C14.4254 85.4212 14.5176 85.0732 14.716 84.786C14.9737 84.4612 15.3203 84.2194 15.713 84.0903C16.0629 83.9327 16.4472 83.8683 16.829 83.9033C17.1374 83.9466 17.4213 84.0959 17.6325 84.326C17.8927 84.6011 18.094 84.927 18.224 85.2834L18.3542 85.62L17.2382 86.0538L17.108 85.6798C17.0413 85.5003 16.9579 85.3274 16.8588 85.1637C16.7897 85.0423 16.6824 84.9476 16.5537 84.8944C16.3967 84.8537 16.2304 84.871 16.085 84.9431C16.0045 84.9695 15.9301 85.0119 15.8662 85.0678C15.8023 85.1237 15.7502 85.1919 15.713 85.2684C15.6659 85.4194 15.6659 85.5813 15.713 85.7322C15.7573 85.9204 15.8145 86.1054 15.8841 86.2857L16.9257 88.9785C16.9998 89.1733 17.0932 89.36 17.2047 89.5358C17.2886 89.6693 17.4123 89.7727 17.5581 89.8312C17.7156 89.8789 17.885 89.8669 18.0343 89.7976C18.1938 89.7447 18.3269 89.6322 18.4063 89.4834C18.4718 89.333 18.4912 89.1663 18.4621 89.0047C18.4271 88.7906 18.3685 88.5811 18.2872 88.3801L18.0529 87.7742L17.3684 88.0435L17.082 87.2955L18.8192 86.6148L20.0803 89.8799L19.3363 90.1716L19.0015 89.5694C19.0029 89.8052 18.9398 90.0367 18.8192 90.2389C18.6647 90.4812 18.4282 90.6592 18.1533 90.7401Z"
    fill="#FFC100" />
  <path
    d="M22.688 88.96C22.3181 89.125 21.9097 89.1833 21.5087 89.1283C21.1731 89.0641 20.8697 88.8859 20.6494 88.6234C20.3887 88.3037 20.186 87.9403 20.0505 87.55L19.1205 85.1452C18.9647 84.7699 18.8765 84.3697 18.8601 83.9633C18.8521 83.6252 18.9583 83.2942 19.1614 83.0246C19.4259 82.7166 19.7675 82.4854 20.1509 82.3551C20.5228 82.1875 20.9332 82.1254 21.3376 82.1756C21.6675 82.2354 21.9677 82.4054 22.1895 82.6581C22.4543 82.9671 22.661 83.3219 22.7996 83.7053L23.7333 86.1176C23.8868 86.4946 23.9725 86.896 23.9863 87.3031C23.9966 87.6451 23.8932 87.9807 23.6924 88.2569C23.4327 88.5844 23.0837 88.8288 22.688 88.96ZM22.3532 88.0923C22.5102 88.0453 22.6434 87.9396 22.7252 87.7968C22.7868 87.6664 22.805 87.5196 22.7773 87.378C22.7491 87.2049 22.7017 87.0355 22.6359 86.8731L21.4901 83.9147C21.431 83.75 21.3523 83.593 21.2558 83.4472C21.1818 83.3266 21.0708 83.2334 20.9396 83.1817C20.7806 83.1392 20.6118 83.1552 20.4634 83.2265C20.3094 83.2751 20.1775 83.3772 20.0914 83.5145C20.0276 83.6415 20.0067 83.7859 20.0319 83.9259C20.0616 84.0987 20.1089 84.2679 20.1733 84.4308L21.319 87.3892C21.3801 87.5524 21.4573 87.709 21.5497 87.8567C21.6226 87.9823 21.7352 88.0797 21.8696 88.1334C22.0336 88.1844 22.2109 88.1696 22.3643 88.0923H22.3532Z"
    fill="#FFC100" />
  <path
    d="M27.152 87.2208C26.782 87.3855 26.3738 87.4438 25.9728 87.3892C25.6372 87.325 25.3337 87.1467 25.1134 86.8843C24.8502 86.5699 24.6438 86.2117 24.5034 85.8258L23.5734 83.421C23.4153 83.0451 23.3271 82.6433 23.313 82.2354C23.3058 81.8986 23.412 81.5691 23.6143 81.3005C23.8913 81.005 24.2304 80.7754 24.6069 80.6285C24.9834 80.4816 25.3878 80.4211 25.7905 80.4515C26.1204 80.5112 26.4206 80.6812 26.6424 80.9339C26.9058 81.2439 27.1124 81.5985 27.2524 81.9811L28.1862 84.3934C28.3397 84.7704 28.4254 85.1719 28.4391 85.579C28.4494 85.9209 28.346 86.2565 28.1452 86.5327C27.885 86.8513 27.5408 87.0898 27.152 87.2208ZM26.8172 86.3532C26.9737 86.3052 27.1065 86.1997 27.1892 86.0577C27.2508 85.9273 27.269 85.7805 27.2413 85.6388C27.2113 85.4662 27.164 85.297 27.0999 85.1339L25.9542 82.1756C25.8919 82.0122 25.8134 81.8556 25.7198 81.7081C25.6448 81.5884 25.5341 81.4955 25.4036 81.4426C25.2446 81.4002 25.0758 81.4161 24.9274 81.4874C24.7734 81.5361 24.6416 81.6381 24.5554 81.7754C24.4917 81.9024 24.4708 82.0468 24.4959 82.1868C24.5232 82.3601 24.5707 82.5296 24.6373 82.6917L25.783 85.6501C25.8441 85.8133 25.9214 85.9699 26.0137 86.1176C26.0866 86.2432 26.1992 86.3406 26.3336 86.3943C26.4919 86.4403 26.6616 86.4256 26.8098 86.3532H26.8172Z"
    fill="#FFC100" />
  <path
    d="M29.8192 86.0726L27.3306 79.6435L28.8186 79.0526C29.2282 78.8704 29.6727 78.781 30.1206 78.7908C30.4555 78.8145 30.7697 78.9624 31.0022 79.2059C31.2756 79.5135 31.4866 79.8717 31.6235 80.2606L32.5311 82.6093C32.6964 83.0001 32.7861 83.419 32.7953 83.8435C32.7976 84.1861 32.6744 84.5176 32.4493 84.7748C32.1441 85.088 31.7692 85.3239 31.3556 85.463L29.8192 86.0726ZM30.6711 84.7972L31.0431 84.6589C31.2531 84.5956 31.4363 84.4641 31.5639 84.2849C31.6375 84.138 31.656 83.9693 31.616 83.8099C31.5598 83.5754 31.4864 83.3454 31.3965 83.1217L30.4442 80.6645C30.3678 80.452 30.268 80.2488 30.1466 80.0586C30.1053 79.9921 30.0511 79.9346 29.9871 79.8896C29.9232 79.8447 29.8509 79.8131 29.7746 79.7968C29.5677 79.7792 29.3599 79.8166 29.172 79.9053L28.8334 80.0399L30.6711 84.7972Z"
    fill="#FFC100" />
  <path
    d="M36.1321 83.6004L33.6471 77.1714L34.8152 76.7039L36.9877 82.3139L38.5352 81.708L38.8514 82.5158L36.1321 83.6004Z"
    fill="#FFC100" />
  <path
    d="M41.1801 81.7267C40.8036 81.9009 40.3847 81.9607 39.9748 81.8988C39.6424 81.8265 39.3467 81.6367 39.1416 81.3639C38.8867 81.0307 38.6847 80.6598 38.5426 80.2644L36.8575 75.9148L37.9958 75.4697L39.733 79.9577C39.806 80.1479 39.8918 80.3328 39.9897 80.5112C40.0743 80.6654 40.2042 80.7895 40.3617 80.8665C40.5256 80.9208 40.7031 80.9162 40.8639 80.8534C41.0247 80.7907 41.1589 80.6737 41.2434 80.5224C41.2887 80.3585 41.2887 80.1852 41.2434 80.0213C41.1988 79.8225 41.1391 79.6274 41.0648 79.4378L39.3313 74.9499L40.4473 74.5085L42.1324 78.8544C42.2913 79.2437 42.3916 79.6546 42.43 80.0736C42.4617 80.4129 42.372 80.7523 42.1771 81.0311C41.9188 81.3552 41.5725 81.5969 41.1801 81.7267Z"
    fill="#FFC100" />
  <path
    d="M45.6181 79.9914C45.24 80.165 44.8182 80.2185 44.4091 80.1448C44.0739 80.0643 43.7745 79.875 43.5572 79.6062C43.3088 79.2903 43.1117 78.9369 42.9732 78.559L42.0841 76.2664C41.9267 75.8826 41.8312 75.4761 41.8014 75.0621C41.7726 74.7185 41.8676 74.3761 42.0692 74.0972C42.328 73.7744 42.6743 73.5341 43.0662 73.4053C43.4154 73.2455 43.8006 73.1823 44.1822 73.222C44.4861 73.2752 44.7629 73.4308 44.9671 73.6633C45.1977 73.9334 45.3791 74.2423 45.5028 74.5759L45.7111 75.1144L44.5951 75.5558L44.3831 74.9985C44.3193 74.8347 44.246 74.6749 44.1636 74.5198C44.1027 74.3925 44.0021 74.2887 43.8771 74.2243C43.8003 74.1973 43.7187 74.1864 43.6375 74.1922C43.5562 74.198 43.477 74.2204 43.4047 74.258C43.2462 74.3106 43.1134 74.4215 43.0327 74.5684C42.9758 74.7084 42.9641 74.8627 42.9992 75.0097C43.0399 75.1949 43.0959 75.3763 43.1666 75.552L44.2454 78.3495C44.3192 78.5432 44.4127 78.7287 44.5244 78.9031C44.6036 79.0257 44.7215 79.1179 44.8592 79.1649C45.0072 79.2019 45.1632 79.1874 45.3019 79.1237C45.3823 79.1039 45.4573 79.0665 45.5216 79.0141C45.5859 78.9617 45.6379 78.8957 45.6739 78.8208C45.715 78.6817 45.715 78.5335 45.6739 78.3944C45.6313 78.2135 45.5753 78.0359 45.5065 77.8633L45.2833 77.2836L46.3993 76.8461L46.6002 77.3622C46.7371 77.7035 46.8187 78.0646 46.842 78.4318C46.8575 78.7519 46.7658 79.0679 46.5816 79.3294C46.3325 79.6409 45.9972 79.8713 45.6181 79.9914Z"
    fill="#FFC100" />
  <path
    d="M48.1253 78.9106L45.6367 72.4815L46.8047 72.0215L47.8984 74.849L48.0695 71.5278L49.1855 71.094L49.0739 74.46L51.8007 77.4894L50.6401 77.942L48.4341 75.4324L48.356 76.0308L49.2971 78.4693L48.1253 78.9106Z"
    fill="#FFC100" />
  <path
    d="M51.9012 75.6979L49.6692 70.9107L50.7406 70.488L52.2658 75.552L51.9012 75.6979ZM52.1542 77.3322L51.7487 76.285L52.7903 75.8774L53.192 76.9283L52.1542 77.3322Z"
    fill="#FFC100" />
  <path
    d="M122.797 82.4224C124.352 68.7377 116.291 55.7823 103.453 51.0064C91.8353 46.6717 78.2983 42.8644 72.9489 46.1107C62.7896 52.278 60.4906 64.2273 60.4906 64.2273L59.0547 64.7359C59.6313 66.9275 59.7987 68.2964 60.6654 70.6563C62.6726 75.9284 66.1803 80.4891 70.7504 83.7688C73.5106 85.7697 76.9293 87.7331 80.6047 88.6794C108.97 95.9948 101.306 86.368 101.306 86.368L101.879 71.913C101.879 71.913 103.799 68.0608 106.098 69.9869C108.397 71.913 110.112 78.3869 111.655 82.1269C114.494 88.9898 119.467 87.6022 121.789 85.9267C122.261 85.5939 122.585 84.2886 122.797 82.4224Z"
    fill="#263238" />
  <path
    d="M96.7569 91.6264C93.0964 91.6264 87.6838 90.7064 80.5563 88.8701C77.3683 88.0473 74.0314 86.383 70.6425 83.9258C66.0375 80.6273 62.5065 76.0323 60.4944 70.7198C60.009 69.4107 59.6222 68.0668 59.3374 66.6993C59.1998 66.1009 59.0584 65.4838 58.8724 64.7807C58.8611 64.7356 58.8666 64.6879 58.8879 64.6466C58.9091 64.6052 58.9446 64.5731 58.9878 64.5563L60.3158 64.0626C60.5762 62.8696 63.2286 51.758 72.841 45.9236C78.3727 42.5576 92.557 46.724 103.509 50.8043C109.811 53.1184 115.158 57.495 118.689 63.2311C122.22 68.9673 123.731 75.7301 122.979 82.4335C122.737 84.5578 122.395 85.7172 121.897 86.0725C121.242 86.5475 118.902 88.0248 116.253 87.2693C114.245 86.6934 112.638 84.9879 111.484 82.1942C111.068 81.1881 110.644 79.995 110.194 78.7309C108.988 75.3425 107.623 71.5052 105.979 70.1289C105.778 69.9373 105.536 69.7959 105.271 69.716C105.006 69.636 104.726 69.6199 104.454 69.6689C103.178 69.9344 102.222 71.6922 102.065 71.9615L101.492 86.3082C101.757 86.6597 103.036 88.4998 102.103 89.9547C101.388 91.0729 99.599 91.6264 96.7569 91.6264ZM59.2742 64.8593C59.4416 65.5025 59.5718 66.0748 59.6983 66.6283C61.1348 73.5132 65.1252 79.5898 70.8583 83.6228C74.2063 86.0538 77.5059 87.6957 80.6493 88.5073C96.2064 92.5166 100.737 91.402 101.786 89.7602C102.657 88.4063 101.176 86.5101 101.161 86.4914C101.147 86.4747 101.135 86.4552 101.128 86.4339C101.121 86.4127 101.119 86.3903 101.12 86.368L101.693 71.9129C101.697 71.8869 101.704 71.8617 101.716 71.8381C101.76 71.7483 102.832 69.6352 104.375 69.3099C104.706 69.2456 105.047 69.2612 105.371 69.3555C105.694 69.4498 105.99 69.62 106.235 69.8522C107.958 71.2921 109.342 75.1854 110.562 78.615C111.012 79.8754 111.436 81.0647 111.849 82.0633C112.965 84.7448 114.479 86.3792 116.376 86.9253C118.861 87.6358 121.078 86.2334 121.7 85.7846C121.971 85.5901 122.351 84.8458 122.63 82.4186C123.371 75.798 121.878 69.119 118.39 63.4542C114.902 57.7893 109.622 53.4673 103.397 51.1821C87.8215 45.3739 77.3274 43.6759 73.0494 46.2715C63.0835 52.3228 60.699 64.1449 60.6766 64.2646C60.6709 64.2957 60.6573 64.3248 60.6371 64.3491C60.6169 64.3733 60.5908 64.3919 60.5613 64.403L59.2742 64.8593Z"
    fill="#263238" />
  <path
    d="M134.526 38.5559C127.272 30.7019 118.043 24.9161 108.174 20.9966C96.5784 16.3889 86.5418 15.3267 76.9851 24.4561C71.6628 29.5483 67.2112 35.4871 63.8089 42.0341C61.3388 46.7876 58.1656 52.8801 58.1322 58.3741C58.054 69.8746 66.889 80.8141 76.8661 85.5415C82.2713 88.1071 88.0521 89.2628 93.8925 90.3362C96.9318 90.8934 102.449 92.1463 104.461 88.7691C106.41 85.5004 101.857 65.2483 104.026 63.7111C106.195 62.174 111.176 76.5618 113.125 81.3527C115.074 86.1436 118.973 88.1034 121.789 85.9267C124.605 83.75 137.603 69.5904 141.505 56.9604C143.525 50.4229 139.347 43.7545 134.526 38.5559Z"
    fill="white" />
  <path
    d="M139.053 47.532C140.497 52.293 136.996 65.1325 131.844 72.3806C126.692 79.6287 121.837 84.4383 118.452 81.0761C115.067 77.7138 105.272 49.402 101.571 49.402C97.8692 49.402 102.188 74.0449 101.571 79.6362C100.953 85.2275 96.2138 87.09 84.2688 81.5062C72.3239 75.9223 72.495 49.8882 78.488 36.8431C84.4809 23.798 86.9658 18.9659 86.9658 18.9659L87.5164 18.2478C83.9192 19.209 80.4298 21.165 77.0037 24.4375C71.6814 29.5297 67.2297 35.4685 63.8274 42.0155C61.3574 46.769 58.1842 52.8615 58.1507 58.3556C58.0726 69.8561 66.9076 80.7956 76.8846 85.5229C82.2898 88.0886 88.0707 89.2442 93.9111 90.3176C96.9503 90.8749 102.467 92.1278 104.48 88.7505C106.429 85.4818 101.876 65.2297 104.044 63.6925C106.213 62.1554 111.194 76.5432 113.143 81.3341C115.093 86.1251 118.991 88.0848 121.807 85.9081C124.623 83.7315 137.621 69.5718 141.523 56.9418C143.261 51.3318 140.407 45.5947 136.52 40.785C137.49 42.9842 138.336 45.2368 139.053 47.532Z"
    fill="#FFC100" />
  <path
    d="M99.2939 91.2076C97.6414 91.1589 95.9967 90.9599 94.3798 90.613L93.859 90.5157C87.6689 89.3937 82.1113 88.2343 76.7879 85.7061C67.3615 81.2181 57.8643 70.402 57.9461 58.3667C57.9833 52.8427 61.1044 46.8325 63.6117 42.0042L63.6452 41.9444C67.0486 35.3704 71.5124 29.4091 76.8549 24.3028C87.2337 14.3918 98.0589 16.7629 108.241 20.8059C118.887 25.0321 127.774 30.9562 134.653 38.4101C141.003 45.2804 143.365 51.5412 141.672 57.024C137.614 70.1776 124.304 84.2176 121.897 86.0801C121.371 86.5025 120.752 86.7925 120.092 86.9258C119.432 87.0592 118.75 87.0321 118.102 86.8468C116.023 86.2821 114.096 84.2587 112.946 81.4313C112.623 80.6384 112.221 79.5949 111.756 78.3869C109.743 73.1509 106.377 64.3881 104.517 63.8009C104.452 63.7777 104.383 63.7707 104.315 63.7805C104.247 63.7903 104.182 63.8165 104.126 63.857C103.129 64.5564 103.777 70.4245 104.346 75.5969C104.971 81.2854 105.618 87.161 104.614 88.844C103.527 90.6878 101.455 91.2076 99.2939 91.2076ZM93.2899 17.6942C87.8735 17.6942 82.4275 19.4969 77.1116 24.5721C71.8024 29.6525 67.3654 35.5806 63.98 42.1164L63.9502 42.1762C61.4615 46.9709 58.3702 52.9362 58.3256 58.3704C58.2437 70.2487 67.6256 80.9413 76.9516 85.3658C82.2377 87.8753 87.7694 89.016 93.9334 90.1455L94.4542 90.2427C97.4525 90.8075 102.471 91.7387 104.309 88.6682C105.25 87.0936 104.61 81.2779 103.989 75.653C103.219 68.648 102.832 64.3395 103.929 63.5653C104.031 63.4923 104.148 63.4447 104.272 63.4265C104.395 63.4082 104.521 63.4199 104.64 63.4606C106.671 64.0814 109.948 72.6086 112.121 78.2523C112.582 79.4566 112.984 80.4963 113.303 81.2892C114.419 84.0081 116.246 85.9492 118.214 86.484C118.806 86.6538 119.43 86.6789 120.034 86.5573C120.637 86.4356 121.203 86.1707 121.685 85.7846C124.575 83.5406 137.506 69.3062 141.334 56.9118C142.982 51.5674 140.649 45.43 134.396 38.6644C127.547 31.2517 118.705 25.3612 108.114 21.1537C103.278 19.2351 98.297 17.6942 93.2899 17.6942Z"
    fill="#263238" />
  <path
    d="M106.34 63.6363C106.3 63.6359 106.261 63.6231 106.229 63.5996C106.197 63.5762 106.174 63.5432 106.161 63.5054C106.161 63.5054 105.99 62.9556 105.722 62.2038C105.713 62.1808 105.709 62.1562 105.71 62.1315C105.711 62.1068 105.717 62.0826 105.727 62.0603C105.738 62.0379 105.752 62.0179 105.771 62.0014C105.789 61.985 105.81 61.9724 105.834 61.9645C105.88 61.9486 105.931 61.9515 105.975 61.9724C106.02 61.9933 106.054 62.0307 106.072 62.0767C106.343 62.8247 106.514 63.3857 106.518 63.3932C106.532 63.4408 106.527 63.492 106.504 63.536C106.481 63.58 106.442 63.6133 106.395 63.6288L106.34 63.6363Z"
    fill="#263238" />
  <path
    d="M99.7292 90.1157H99.5134C99.4641 90.1157 99.4168 90.096 99.3819 90.0609C99.347 90.0259 99.3274 89.9783 99.3274 89.9287C99.3274 89.8791 99.347 89.8315 99.3819 89.7965C99.4168 89.7614 99.4641 89.7417 99.5134 89.7417C99.5826 89.7342 99.6525 89.7342 99.7217 89.7417C100.654 89.7496 101.587 89.7084 102.515 89.6183C102.564 89.6119 102.614 89.6252 102.653 89.6554C102.692 89.6855 102.717 89.73 102.724 89.7791C102.727 89.8037 102.725 89.8286 102.719 89.8525C102.712 89.8764 102.701 89.8987 102.686 89.9182C102.67 89.9377 102.651 89.954 102.63 89.966C102.608 89.9781 102.585 89.9858 102.56 89.9885C101.619 90.082 100.674 90.1245 99.7292 90.1157Z"
    fill="#263238" />
  <path
    d="M96.7792 90.0072C90.6697 89.567 84.6976 87.9721 79.1762 85.306C66.6286 79.2247 63.2695 73.222 60.8998 67.597C60.2066 65.8681 59.7499 64.0526 59.542 62.2002C59.5389 62.1756 59.5407 62.1507 59.5472 62.1268C59.5538 62.1029 59.565 62.0806 59.5803 62.0611C59.5955 62.0416 59.6144 62.0253 59.636 62.0133C59.6575 62.0012 59.6812 61.9936 59.7057 61.9908C59.7297 61.9877 59.754 61.9893 59.7773 61.9958C59.8006 62.0022 59.8224 62.0132 59.8415 62.0281C59.8605 62.0431 59.8764 62.0617 59.8882 62.0829C59.9 62.1041 59.9075 62.1275 59.9103 62.1516C60.1124 63.9712 60.5618 65.7543 61.2458 67.4512C63.6824 73.2445 66.8965 78.9405 79.3399 84.9694C84.8118 87.6204 90.7323 89.209 96.7904 89.6518C96.8397 89.6518 96.887 89.6716 96.9219 89.7066C96.9568 89.7417 96.9764 89.7893 96.9764 89.8388C96.9764 89.8884 96.9568 89.936 96.9219 89.9711C96.887 90.0061 96.8397 90.0258 96.7904 90.0258L96.7792 90.0072Z"
    fill="#263238" />
  <path
    d="M59.5346 60.1133C59.4871 60.1134 59.4414 60.0952 59.4069 60.0626C59.3723 60.0299 59.3514 59.9851 59.3486 59.9375C59.2469 57.9156 59.3165 55.8887 59.5569 53.8787C59.5651 53.83 59.5918 53.7865 59.6314 53.7572C59.6709 53.7279 59.7202 53.7151 59.7689 53.7216C59.8171 53.729 59.8604 53.7551 59.8896 53.7943C59.9188 53.8334 59.9316 53.8826 59.9252 53.9311C59.6876 55.9162 59.6191 57.9182 59.7206 59.9151C59.7226 59.9641 59.7054 60.0119 59.6727 60.0483C59.64 60.0846 59.5944 60.1067 59.5457 60.1096L59.5346 60.1133Z"
    fill="#263238" />
  <path
    d="M118.694 85.8294C118.351 85.831 118.012 85.7675 117.693 85.6424C117.647 85.6241 117.61 85.5882 117.591 85.5426C117.571 85.497 117.571 85.4455 117.589 85.3993C117.607 85.3532 117.643 85.3163 117.688 85.2966C117.734 85.277 117.785 85.2763 117.831 85.2946C118.82 85.6686 120.063 85.3657 121.737 84.2923C121.779 84.266 121.829 84.2575 121.877 84.2688C121.926 84.28 121.967 84.31 121.993 84.3521C122.02 84.3943 122.028 84.4452 122.017 84.4935C122.006 84.5419 121.976 84.5839 121.934 84.6102C120.654 85.4293 119.598 85.8294 118.694 85.8294Z"
    fill="#263238" />
  <path
    d="M116.674 84.887C116.623 84.8855 116.575 84.864 116.54 84.8272C115.777 84.0118 115.204 82.7963 114.539 81.3901C114.338 80.9637 114.129 80.5224 113.906 80.0736C111.931 76.1017 108.613 68.1056 108.579 68.0233C108.56 67.9772 108.561 67.9255 108.58 67.8795C108.599 67.8336 108.635 67.7972 108.681 67.7784C108.727 67.7595 108.779 67.7598 108.824 67.779C108.87 67.7983 108.906 67.8351 108.925 67.8812C108.955 67.9598 112.273 75.9484 114.241 79.9091C114.464 80.3579 114.672 80.7992 114.873 81.2293C115.524 82.6056 116.09 83.7987 116.811 84.5691C116.829 84.5865 116.843 84.6072 116.852 84.63C116.862 84.6527 116.866 84.6772 116.866 84.7019C116.866 84.7266 116.862 84.751 116.852 84.7738C116.843 84.7966 116.829 84.8172 116.811 84.8346C116.794 84.8527 116.772 84.8667 116.748 84.8757C116.724 84.8848 116.699 84.8886 116.674 84.887Z"
    fill="#263238" />
  <path
    d="M103.412 66.5797C103.369 66.5797 103.328 66.5648 103.294 66.5376C103.261 66.5103 103.238 66.4724 103.23 66.4301C103.073 65.6185 101.701 58.4564 102.638 57.312C102.684 57.2506 102.744 57.2007 102.812 57.1663C102.881 57.1319 102.956 57.1139 103.033 57.1138C103.297 57.1138 104.1 57.1138 105.573 60.764C105.583 60.7866 105.588 60.8108 105.588 60.8354C105.588 60.8599 105.584 60.8843 105.574 60.9069C105.565 60.9296 105.551 60.9502 105.534 60.9674C105.516 60.9846 105.496 60.9981 105.473 61.0071C105.45 61.0162 105.426 61.0207 105.401 61.0204C105.377 61.0201 105.353 61.0149 105.33 61.0052C105.308 60.9954 105.288 60.9814 105.27 60.9637C105.253 60.9461 105.24 60.9252 105.231 60.9024C103.985 57.8206 103.278 57.4878 103.033 57.4878C103.011 57.4884 102.989 57.4946 102.97 57.5057C102.952 57.5168 102.936 57.5325 102.925 57.5513C102.3 58.2993 102.984 63.2362 103.594 66.3591C103.6 66.3829 103.6 66.4077 103.596 66.4317C103.591 66.4558 103.582 66.4787 103.568 66.499C103.555 66.5193 103.537 66.5366 103.517 66.5499C103.496 66.5631 103.473 66.572 103.449 66.576L103.412 66.5797Z"
    fill="#263238" />
  <path
    d="M118.188 71.756C118.041 71.756 117.897 71.7121 117.775 71.6299C117.652 71.5477 117.557 71.4309 117.5 71.2942C117.444 71.1576 117.429 71.0072 117.458 70.8621C117.487 70.717 117.558 70.5837 117.662 70.4791C117.766 70.3745 117.898 70.3032 118.043 70.2744C118.187 70.2455 118.337 70.2603 118.473 70.3169C118.609 70.3736 118.725 70.4694 118.806 70.5924C118.888 70.7154 118.932 70.8601 118.932 71.008C118.932 71.2064 118.853 71.3966 118.714 71.5369C118.574 71.6772 118.385 71.756 118.188 71.756ZM118.188 70.634C118.114 70.634 118.042 70.6559 117.981 70.697C117.92 70.7381 117.872 70.7965 117.844 70.8649C117.816 70.9332 117.809 71.0084 117.823 71.081C117.837 71.1535 117.873 71.2202 117.925 71.2725C117.977 71.3248 118.043 71.3604 118.115 71.3748C118.187 71.3892 118.262 71.3818 118.33 71.3535C118.398 71.3252 118.456 71.2773 118.497 71.2158C118.538 71.1543 118.56 71.082 118.56 71.008C118.556 70.9114 118.515 70.8201 118.446 70.7532C118.376 70.6862 118.284 70.6489 118.188 70.649V70.634Z"
    fill="#263238" />
  <path
    d="M127.108 62.8884C127.002 62.8884 126.899 62.8568 126.811 62.7976C126.723 62.7385 126.654 62.6543 126.613 62.5559C126.573 62.4575 126.562 62.3492 126.583 62.2448C126.604 62.1403 126.655 62.0443 126.73 61.969C126.805 61.8937 126.9 61.8424 127.004 61.8216C127.108 61.8008 127.215 61.8115 127.313 61.8523C127.411 61.893 127.495 61.9621 127.554 62.0506C127.613 62.1392 127.644 62.2433 127.644 62.3498C127.644 62.4927 127.588 62.6297 127.487 62.7307C127.387 62.8317 127.25 62.8884 127.108 62.8884ZM127.108 62.1853C127.065 62.1853 127.023 62.2025 126.991 62.2332C126.96 62.264 126.942 62.3058 126.941 62.3498C126.94 62.3833 126.949 62.4162 126.967 62.4443C126.985 62.4725 127.011 62.4947 127.042 62.508C127.072 62.5213 127.106 62.5251 127.139 62.5191C127.171 62.513 127.202 62.4973 127.225 62.4739C127.249 62.4505 127.265 62.4206 127.272 62.3878C127.279 62.3551 127.276 62.321 127.263 62.2901C127.251 62.2591 127.229 62.2326 127.202 62.2139C127.174 62.1953 127.142 62.1853 127.108 62.1853Z"
    fill="#263238" />
  <path
    d="M119.94 61.9832C119.804 61.9832 119.671 61.9426 119.558 61.8666C119.444 61.7905 119.356 61.6825 119.304 61.5561C119.252 61.4296 119.238 61.2905 119.265 61.1563C119.291 61.0221 119.357 60.8988 119.453 60.802C119.55 60.7053 119.672 60.6394 119.806 60.6127C119.939 60.586 120.078 60.5997 120.203 60.652C120.329 60.7044 120.437 60.7931 120.512 60.9069C120.588 61.0207 120.628 61.1544 120.628 61.2913C120.629 61.3823 120.611 61.4725 120.577 61.5566C120.542 61.6408 120.492 61.7173 120.428 61.7816C120.364 61.846 120.288 61.8969 120.204 61.9315C120.12 61.9661 120.03 61.9837 119.94 61.9832ZM119.94 60.9771C119.862 60.9856 119.791 61.0225 119.739 61.0809C119.687 61.1392 119.658 61.2148 119.658 61.2931C119.658 61.3715 119.687 61.4471 119.739 61.5054C119.791 61.5637 119.862 61.6007 119.94 61.6092C119.984 61.614 120.029 61.6094 120.071 61.5958C120.113 61.5821 120.152 61.5596 120.185 61.5298C120.218 61.5 120.245 61.4635 120.263 61.4227C120.281 61.3819 120.29 61.3378 120.29 61.2931C120.29 61.2485 120.281 61.2043 120.263 61.1636C120.245 61.1228 120.218 61.0863 120.185 61.0565C120.152 61.0267 120.113 61.0042 120.071 60.9905C120.029 60.9768 119.984 60.9723 119.94 60.9771Z"
    fill="#263238" />
  <path
    d="M125.955 75.9897C125.759 75.9904 125.568 75.9327 125.404 75.8238C125.241 75.715 125.114 75.5599 125.038 75.3781C124.963 75.1964 124.943 74.9963 124.981 74.803C125.018 74.6098 125.112 74.4322 125.25 74.2927C125.389 74.1532 125.565 74.0581 125.757 74.0194C125.949 73.9807 126.148 74.0002 126.329 74.0754C126.51 74.1506 126.665 74.2781 126.774 74.4417C126.883 74.6054 126.941 74.7979 126.941 74.9948C126.941 75.258 126.837 75.5105 126.652 75.697C126.468 75.8834 126.217 75.9887 125.955 75.9897ZM125.955 74.3777C125.833 74.377 125.713 74.4129 125.611 74.4808C125.509 74.5487 125.429 74.6457 125.382 74.7593C125.335 74.8728 125.322 74.998 125.346 75.1188C125.369 75.2395 125.428 75.3505 125.515 75.4376C125.601 75.5246 125.712 75.5838 125.832 75.6077C125.952 75.6315 126.077 75.6189 126.19 75.5714C126.302 75.524 126.399 75.4438 126.466 75.3412C126.534 75.2385 126.57 75.1179 126.569 74.9948C126.569 74.8312 126.504 74.6742 126.389 74.5585C126.274 74.4427 126.118 74.3777 125.955 74.3777Z"
    fill="#263238" />
  <path
    d="M127.659 44.4502C127.523 44.4509 127.389 44.411 127.276 44.3354C127.162 44.2598 127.073 44.152 127.021 44.0257C126.968 43.8993 126.954 43.7601 126.98 43.6256C127.006 43.4912 127.071 43.3675 127.167 43.2704C127.263 43.1732 127.386 43.107 127.52 43.08C127.653 43.053 127.792 43.0665 127.918 43.1187C128.044 43.171 128.151 43.2596 128.227 43.3735C128.303 43.4874 128.343 43.6213 128.343 43.7583C128.343 43.9412 128.271 44.1166 128.143 44.2462C128.015 44.3759 127.841 44.4492 127.659 44.4502ZM127.659 43.4441C127.596 43.4434 127.534 43.4615 127.482 43.4962C127.429 43.5308 127.388 43.5804 127.364 43.6386C127.339 43.6969 127.333 43.7611 127.345 43.8231C127.357 43.8851 127.387 43.9421 127.432 43.9868C127.476 44.0315 127.533 44.0618 127.594 44.074C127.656 44.0861 127.72 44.0795 127.778 44.055C127.836 44.0305 127.885 43.9892 127.92 43.9363C127.954 43.8835 127.972 43.8215 127.971 43.7583C127.97 43.6753 127.937 43.5959 127.879 43.5372C127.82 43.4785 127.742 43.4451 127.659 43.4441Z"
    fill="#263238" />
  <path
    d="M136.978 53.8226C136.881 53.8226 136.787 53.7939 136.707 53.7401C136.627 53.6862 136.564 53.6097 136.527 53.5202C136.49 53.4307 136.481 53.3322 136.5 53.2371C136.518 53.1421 136.565 53.0548 136.633 52.9863C136.701 52.9178 136.788 52.8711 136.882 52.8522C136.977 52.8333 137.075 52.843 137.164 52.8801C137.253 52.9171 137.329 52.9799 137.383 53.0605C137.436 53.1411 137.465 53.2358 137.465 53.3327C137.465 53.4626 137.414 53.5873 137.322 53.6791C137.231 53.771 137.107 53.8226 136.978 53.8226ZM136.978 53.2168C136.955 53.2168 136.932 53.2236 136.913 53.2363C136.895 53.249 136.88 53.2672 136.871 53.2883C136.862 53.3095 136.86 53.3328 136.864 53.3553C136.869 53.3778 136.88 53.3985 136.896 53.4147C136.912 53.4309 136.933 53.4419 136.955 53.4464C136.977 53.4509 137.001 53.4486 137.022 53.4398C137.043 53.431 137.061 53.4162 137.073 53.3971C137.086 53.3781 137.093 53.3556 137.093 53.3327C137.093 53.302 137.081 53.2725 137.059 53.2507C137.037 53.229 137.008 53.2168 136.978 53.2168Z"
    fill="#263238" />
  <path
    d="M117.987 51.3018C117.861 51.3018 117.738 51.2643 117.634 51.194C117.529 51.1237 117.447 51.0239 117.399 50.907C117.351 50.7901 117.339 50.6615 117.363 50.5375C117.388 50.4134 117.448 50.2995 117.537 50.21C117.626 50.1206 117.739 50.0597 117.863 50.035C117.986 50.0103 118.114 50.023 118.23 50.0714C118.347 50.1198 118.446 50.2018 118.516 50.3069C118.586 50.4121 118.623 50.5358 118.623 50.6623C118.623 50.8319 118.556 50.9945 118.437 51.1145C118.317 51.2344 118.156 51.3018 117.987 51.3018ZM117.987 50.3967C117.935 50.3967 117.884 50.4123 117.84 50.4415C117.797 50.4706 117.763 50.5121 117.743 50.5606C117.723 50.6092 117.718 50.6625 117.728 50.7141C117.738 50.7656 117.763 50.8129 117.8 50.85C117.837 50.8872 117.884 50.9125 117.935 50.9227C117.987 50.9329 118.04 50.9277 118.088 50.9076C118.136 50.8875 118.178 50.8534 118.207 50.8098C118.236 50.7661 118.251 50.7148 118.251 50.6623C118.251 50.6274 118.244 50.5929 118.231 50.5606C118.218 50.5284 118.198 50.4991 118.174 50.4745C118.149 50.4498 118.12 50.4303 118.088 50.4169C118.056 50.4036 118.022 50.3967 117.987 50.3967Z"
    fill="#263238" />
  <path
    d="M72.536 62.9892C72.4196 62.9892 72.3058 62.9545 72.2091 62.8894C72.1123 62.8243 72.037 62.7317 71.9926 62.6235C71.9483 62.5154 71.9368 62.3963 71.9598 62.2816C71.9828 62.1669 72.0391 62.0616 72.1217 61.9791C72.2043 61.8966 72.3094 61.8407 72.4236 61.8183C72.5379 61.7959 72.6562 61.8081 72.7635 61.8534C72.8708 61.8987 72.9624 61.9751 73.0265 62.0727C73.0907 62.1704 73.1245 62.285 73.1238 62.402C73.1238 62.4795 73.1085 62.5561 73.079 62.6276C73.0494 62.6991 73.006 62.764 72.9514 62.8186C72.8968 62.8731 72.8319 62.9163 72.7606 62.9456C72.6894 62.9749 72.613 62.9897 72.536 62.9892ZM72.536 62.1851C72.4933 62.1851 72.4516 62.1978 72.4161 62.2217C72.3806 62.2455 72.353 62.2794 72.3367 62.319C72.3203 62.3587 72.3161 62.4023 72.3244 62.4443C72.3327 62.4864 72.3533 62.5251 72.3834 62.5554C72.4136 62.5858 72.452 62.6064 72.4939 62.6148C72.5358 62.6231 72.5791 62.6188 72.6186 62.6024C72.658 62.586 72.6917 62.5582 72.7154 62.5225C72.7391 62.4869 72.7518 62.4449 72.7518 62.402C72.7518 62.3445 72.729 62.2893 72.6886 62.2486C72.6481 62.208 72.5932 62.1851 72.536 62.1851Z"
    fill="#263238" />
  <path
    d="M70.2817 69.841C70.1345 69.841 69.9907 69.7971 69.8683 69.7149C69.746 69.6327 69.6506 69.5159 69.5943 69.3792C69.538 69.2426 69.5232 69.0922 69.552 68.9471C69.5807 68.802 69.6515 68.6687 69.7556 68.5641C69.8596 68.4594 69.9922 68.3882 70.1365 68.3593C70.2808 68.3305 70.4304 68.3453 70.5664 68.4019C70.7023 68.4585 70.8185 68.5544 70.9003 68.6774C70.982 68.8004 71.0257 68.945 71.0257 69.093C71.0257 69.2914 70.9473 69.4816 70.8078 69.6219C70.6682 69.7622 70.479 69.841 70.2817 69.841ZM70.2817 68.719C70.2081 68.719 70.1362 68.7409 70.075 68.782C70.0138 68.8231 69.9661 68.8815 69.938 68.9498C69.9098 69.0182 69.9025 69.0934 69.9168 69.1659C69.9312 69.2385 69.9666 69.3051 70.0186 69.3574C70.0706 69.4097 70.1369 69.4454 70.2091 69.4598C70.2813 69.4742 70.356 69.4668 70.424 69.4385C70.492 69.4102 70.5501 69.3623 70.591 69.3008C70.6319 69.2393 70.6537 69.1669 70.6537 69.093C70.6498 68.9964 70.6089 68.9051 70.5396 68.8381C70.4702 68.7712 70.3778 68.7339 70.2817 68.7339V68.719Z"
    fill="#263238" />
  <path
    d="M80.6047 76.1916C80.478 76.1923 80.3539 76.1552 80.2482 76.085C80.1425 76.0147 80.0599 75.9145 80.0109 75.7971C79.9619 75.6796 79.9487 75.5501 79.973 75.4251C79.9972 75.3001 80.0579 75.1851 80.1472 75.0948C80.2365 75.0044 80.3505 74.9428 80.4748 74.9177C80.599 74.8925 80.7278 74.9051 80.8449 74.9536C80.9621 75.0022 81.0622 75.0847 81.1327 75.1905C81.2032 75.2964 81.2408 75.4209 81.2408 75.5483C81.2413 75.6326 81.2252 75.7162 81.1934 75.7942C81.1617 75.8722 81.1149 75.9431 81.0558 76.0029C80.9967 76.0627 80.9264 76.1101 80.849 76.1425C80.7715 76.1749 80.6885 76.1916 80.6047 76.1916ZM80.6047 75.2828C80.5514 75.282 80.4991 75.2973 80.4545 75.3266C80.4099 75.3559 80.375 75.3979 80.3542 75.4472C80.3335 75.4966 80.3279 75.551 80.3381 75.6036C80.3483 75.6562 80.3739 75.7045 80.4116 75.7424C80.4493 75.7803 80.4973 75.806 80.5496 75.8163C80.6019 75.8266 80.6561 75.8209 80.7052 75.8001C80.7543 75.7792 80.7961 75.7441 80.8252 75.6993C80.8544 75.6544 80.8695 75.6019 80.8688 75.5483C80.8688 75.4779 80.841 75.4103 80.7914 75.3605C80.7419 75.3107 80.6747 75.2828 80.6047 75.2828Z"
    fill="#263238" />
  <path
    d="M79.4998 69.1378C79.3932 69.1378 79.2889 69.106 79.2002 69.0464C79.1115 68.9868 79.0423 68.9021 79.0015 68.803C78.9607 68.7039 78.95 68.5949 78.9708 68.4897C78.9916 68.3845 79.043 68.2879 79.1184 68.2121C79.1939 68.1362 79.29 68.0846 79.3946 68.0636C79.4993 68.0427 79.6077 68.0535 79.7063 68.0945C79.8048 68.1355 79.8891 68.2051 79.9483 68.2942C80.0076 68.3834 80.0393 68.4883 80.0393 68.5955C80.0393 68.7393 79.9824 68.8773 79.8813 68.979C79.7801 69.0807 79.6429 69.1378 79.4998 69.1378ZM79.4998 68.431C79.4666 68.431 79.4341 68.4409 79.4065 68.4596C79.3789 68.4783 79.3574 68.5048 79.3449 68.5357C79.3323 68.5667 79.3292 68.6007 79.336 68.6335C79.3428 68.6662 79.3591 68.6962 79.3829 68.7196C79.4066 68.743 79.4368 68.7587 79.4695 68.7648C79.5022 68.7708 79.536 68.767 79.5665 68.7536C79.597 68.7403 79.6229 68.7182 79.6409 68.69C79.6588 68.6618 79.668 68.629 79.6673 68.5955C79.6673 68.5736 79.6629 68.5519 79.6544 68.5317C79.646 68.5115 79.6336 68.4931 79.618 68.4778C79.6024 68.4625 79.5839 68.4504 79.5636 68.4424C79.5433 68.4344 79.5217 68.4305 79.4998 68.431Z"
    fill="#263238" />
  <path
    d="M66.7216 54.3236C66.6251 54.3236 66.5307 54.2948 66.4505 54.2408C66.3703 54.1868 66.3078 54.11 66.271 54.0203C66.2343 53.9306 66.2248 53.8319 66.244 53.7367C66.2631 53.6416 66.3098 53.5543 66.3784 53.4859C66.4469 53.4176 66.5341 53.3712 66.6288 53.3527C66.7236 53.3342 66.8217 53.3445 66.9107 53.3821C66.9997 53.4198 67.0755 53.4832 67.1286 53.5642C67.1817 53.6453 67.2097 53.7404 67.2089 53.8374C67.2089 53.9016 67.1963 53.9651 67.1718 54.0244C67.1472 54.0836 67.1113 54.1374 67.066 54.1825C67.0207 54.2277 66.9669 54.2635 66.9078 54.2877C66.8487 54.3119 66.7854 54.3241 66.7216 54.3236ZM66.7216 53.7215C66.7066 53.7215 66.6918 53.7245 66.678 53.7304C66.6642 53.7362 66.6518 53.7448 66.6414 53.7557C66.6309 53.7665 66.6228 53.7793 66.6174 53.7933C66.612 53.8074 66.6095 53.8224 66.61 53.8374C66.6095 53.8523 66.612 53.8671 66.6175 53.881C66.6229 53.8948 66.6311 53.9074 66.6415 53.9179C66.652 53.9285 66.6645 53.9367 66.6783 53.9422C66.6921 53.9476 66.7068 53.9501 66.7216 53.9496C66.7366 53.9501 66.7515 53.9476 66.7655 53.9422C66.7794 53.9368 66.7922 53.9286 66.8029 53.9181C66.8137 53.9076 66.8223 53.8951 66.8281 53.8812C66.8339 53.8674 66.8369 53.8525 66.8369 53.8374C66.8369 53.8067 66.8248 53.7772 66.8032 53.7554C66.7815 53.7337 66.7522 53.7215 66.7216 53.7215Z"
    fill="#263238" />
  <path
    d="M64.8207 70.9519C64.7043 70.9526 64.5903 70.9186 64.4932 70.8541C64.396 70.7896 64.3201 70.6976 64.2751 70.5897C64.23 70.4818 64.2178 70.3628 64.2401 70.248C64.2623 70.1331 64.318 70.0274 64.4001 69.9444C64.4821 69.8614 64.5869 69.8048 64.701 69.7816C64.8151 69.7585 64.9335 69.77 65.0411 69.8146C65.1487 69.8593 65.2407 69.935 65.3055 70.0322C65.3702 70.1295 65.4048 70.2439 65.4048 70.3609C65.4048 70.517 65.3434 70.6668 65.2339 70.7775C65.1245 70.8882 64.976 70.9509 64.8207 70.9519ZM64.8207 70.144C64.7779 70.1433 64.7358 70.1554 64.6999 70.1787C64.6639 70.2021 64.6357 70.2357 64.6188 70.2753C64.6019 70.3149 64.5971 70.3586 64.605 70.4009C64.6129 70.4432 64.6331 70.4822 64.6631 70.5129C64.6932 70.5437 64.7316 70.5647 64.7735 70.5734C64.8155 70.582 64.8591 70.578 64.8987 70.5617C64.9383 70.5454 64.9723 70.5176 64.9961 70.4818C65.02 70.4461 65.0328 70.404 65.0328 70.3609C65.0328 70.3041 65.0106 70.2494 64.9709 70.2089C64.9312 70.1683 64.8773 70.145 64.8207 70.144Z"
    fill="#263238" />
  <path
    d="M75.6943 81.1283C75.5674 81.129 75.4432 81.0919 75.3374 81.0215C75.2316 80.9511 75.149 80.8506 75.1001 80.733C75.0513 80.6153 75.0383 80.4856 75.0628 80.3605C75.0874 80.2353 75.1484 80.1204 75.2381 80.0302C75.3278 79.94 75.4422 79.8787 75.5666 79.854C75.6911 79.8293 75.8201 79.8423 75.9371 79.8915C76.0542 79.9406 76.1541 80.0237 76.2241 80.13C76.2941 80.2364 76.3311 80.3612 76.3304 80.4888C76.3294 80.6581 76.2621 80.8202 76.143 80.9399C76.0239 81.0596 75.8627 81.1273 75.6943 81.1283ZM75.6943 80.2195C75.6411 80.2188 75.589 80.2339 75.5445 80.2631C75.4999 80.2922 75.465 80.334 75.4442 80.3831C75.4233 80.4323 75.4175 80.4865 75.4274 80.539C75.4373 80.5915 75.4625 80.6398 75.4998 80.6778C75.5371 80.7159 75.5849 80.7419 75.6369 80.7526C75.689 80.7633 75.743 80.7582 75.7922 80.7379C75.8413 80.7176 75.8834 80.6831 75.913 80.6388C75.9426 80.5944 75.9584 80.5422 75.9584 80.4888C75.9584 80.418 75.9307 80.3501 75.8813 80.2997C75.8318 80.2493 75.7647 80.2205 75.6943 80.2195Z"
    fill="#263238" />
  <path
    d="M96.7904 79.2134C96.6343 79.2142 96.4814 79.1683 96.3512 79.0816C96.2211 78.9949 96.1194 78.8714 96.0591 78.7266C95.9989 78.5818 95.9827 78.4222 96.0128 78.2682C96.0428 78.1141 96.1176 77.9725 96.2277 77.8612C96.3379 77.75 96.4784 77.6741 96.6314 77.6432C96.7845 77.6123 96.9433 77.6278 97.0876 77.6877C97.2319 77.7476 97.3553 77.8492 97.4421 77.9797C97.529 78.1101 97.5753 78.2636 97.5753 78.4205C97.5753 78.6302 97.4927 78.8313 97.3456 78.9799C97.1986 79.1285 96.9989 79.2124 96.7904 79.2134ZM96.7904 78.0054C96.7077 78.0047 96.6266 78.0287 96.5575 78.0744C96.4885 78.1202 96.4345 78.1856 96.4025 78.2623C96.3705 78.3389 96.3619 78.4235 96.3779 78.5051C96.3938 78.5867 96.4336 78.6617 96.4921 78.7205C96.5506 78.7793 96.6252 78.8192 96.7063 78.8353C96.7875 78.8513 96.8716 78.8427 96.9478 78.8105C97.0241 78.7784 97.0892 78.7241 97.1347 78.6547C97.1802 78.5852 97.2041 78.5037 97.2033 78.4205C97.2023 78.3107 97.1585 78.2057 97.0813 78.1281C97.0041 78.0504 96.8996 78.0064 96.7904 78.0054Z"
    fill="#263238" />
  <path
    d="M94.737 83.1441C94.6301 83.1449 94.5255 83.1137 94.4363 83.0546C94.3471 82.9954 94.2774 82.911 94.236 82.812C94.1946 82.713 94.1834 82.6038 94.2038 82.4984C94.2242 82.3929 94.2752 82.296 94.3505 82.2197C94.4258 82.1435 94.5219 82.0915 94.6267 82.0703C94.7314 82.049 94.84 82.0596 94.9388 82.1005C95.0376 82.1414 95.1221 82.2109 95.1815 82.3002C95.2409 82.3894 95.2727 82.4944 95.2727 82.6018C95.2727 82.745 95.2164 82.8824 95.116 82.984C95.0156 83.0856 94.8794 83.1431 94.737 83.1441ZM94.737 82.4373C94.7036 82.4365 94.6707 82.4459 94.6426 82.4641C94.6145 82.4823 94.5925 82.5085 94.5794 82.5394C94.5662 82.5703 94.5626 82.6045 94.5689 82.6375C94.5753 82.6705 94.5913 82.7008 94.6149 82.7245C94.6386 82.7483 94.6687 82.7644 94.7015 82.7708C94.7344 82.7772 94.7683 82.7735 94.7991 82.7603C94.8298 82.7471 94.8559 82.725 94.874 82.6967C94.8921 82.6685 94.9014 82.6354 94.9007 82.6018C94.8997 82.5585 94.8822 82.5172 94.8517 82.4865C94.8212 82.4559 94.7801 82.4382 94.737 82.4373Z"
    fill="#263238" />
  <path
    d="M50.4726 57.8804L49.7286 59.5821C49.7286 59.5821 50.8446 60.9023 51.7932 60.7041C52.7418 60.5059 53.4821 58.4414 53.4821 58.4414L50.4726 57.8804Z"
    fill="#FFC100" />
  <path
    d="M51.5998 60.9174C50.6289 60.9174 49.6245 59.7543 49.5798 59.7019C49.5563 59.6754 49.5409 59.6425 49.5356 59.6073C49.5303 59.5721 49.5354 59.5361 49.5501 59.5037L50.2941 57.8058C50.311 57.7671 50.3404 57.7354 50.3776 57.7157C50.4147 57.696 50.4574 57.6895 50.4987 57.6973L53.5044 58.2658C53.5309 58.27 53.5562 58.2803 53.5781 58.2958C53.6 58.3114 53.6181 58.3318 53.6309 58.3556C53.642 58.3802 53.6477 58.407 53.6477 58.4341C53.6477 58.4612 53.642 58.488 53.6309 58.5126C53.5528 58.7333 52.8162 60.6931 51.8044 60.895C51.737 60.9087 51.6685 60.9162 51.5998 60.9174ZM49.9407 59.5449C50.3127 59.9189 51.1236 60.6669 51.7486 60.5285C52.3735 60.3901 52.9576 59.2307 53.2366 58.5912L50.5954 58.0938L49.9407 59.5449Z"
    fill="#263238" />
  <path
    d="M53.6645 53.1606C53.6645 53.1606 52.7233 54.1069 52.9205 54.8623C53.1176 55.6178 54.6093 55.6103 54.6093 55.6103L53.6645 53.1606Z"
    fill="#FFC100" />
  <path
    d="M54.6018 55.8049C54.4344 55.8049 52.9502 55.7787 52.7418 54.9073C52.5335 54.0358 53.4858 53.0709 53.5416 53.0373C53.5637 53.0151 53.591 52.9991 53.6209 52.9906C53.6509 52.982 53.6825 52.9814 53.7128 52.9886C53.7433 52.9943 53.7718 53.008 53.7954 53.0283C53.8189 53.0487 53.8366 53.075 53.8467 53.1046L54.7878 55.558C54.7979 55.5865 54.801 55.6169 54.7971 55.6468C54.7931 55.6767 54.7821 55.7053 54.7651 55.7301C54.748 55.7549 54.7253 55.7753 54.6989 55.7896C54.6724 55.8039 54.643 55.8117 54.613 55.8123L54.6018 55.8049ZM53.6012 53.516C53.3296 53.8526 52.9874 54.3986 53.0915 54.8175C53.1957 55.2364 53.8764 55.371 54.3266 55.4159L53.6012 53.516Z"
    fill="#263238" />
  <path
    d="M61.5434 86.1138C61.5434 86.1138 60.6059 87.0562 60.7994 87.8117C60.9928 88.5672 62.492 88.5597 62.492 88.5597L61.5434 86.1138Z"
    fill="#FFC100" />
  <path
    d="M62.492 88.7542C62.3209 88.7542 60.8366 88.7318 60.632 87.8566C60.4274 86.9815 61.376 86.024 61.4318 85.9866C61.454 85.9647 61.4812 85.9485 61.511 85.9393C61.5408 85.9302 61.5723 85.9285 61.6029 85.9342C61.6329 85.9412 61.6608 85.9554 61.6841 85.9756C61.7075 85.9958 61.7256 86.0214 61.7368 86.0502L62.6743 88.5036C62.686 88.5317 62.6906 88.5624 62.6877 88.5927C62.6847 88.623 62.6742 88.6522 62.6572 88.6774C62.6403 88.7027 62.6173 88.7233 62.5904 88.7373C62.5635 88.7514 62.5335 88.7585 62.5032 88.758L62.492 88.7542ZM61.4876 86.4691C61.2198 86.8019 60.8775 87.3517 60.9817 87.7669C61.0858 88.182 61.7592 88.3241 62.213 88.3653L61.4876 86.4691Z"
    fill="#263238" />
  <path
    d="M48.2183 63.3559C48.2183 63.3559 50.6661 63.4606 50.4169 62.8285C50.1676 62.1965 48.5569 61.5308 48.5569 61.5308L45.5809 62.2002L48.2183 63.3559Z"
    fill="#FFC100" />
  <path
    d="M48.6573 63.5542C48.4713 63.5542 48.3151 63.5542 48.2109 63.5542C48.1887 63.5577 48.1661 63.5577 48.1439 63.5542L45.5139 62.3948C45.4788 62.3786 45.4496 62.3518 45.4304 62.3181C45.4111 62.2845 45.4027 62.2457 45.4064 62.207C45.4101 62.1684 45.4257 62.1319 45.4509 62.1025C45.4762 62.0732 45.5099 62.0524 45.5474 62.0432L48.5234 61.3737C48.5598 61.3627 48.5986 61.3627 48.635 61.3737C48.8061 61.4448 50.3164 62.0881 50.5843 62.7763C50.6109 62.8367 50.6212 62.9031 50.614 62.9688C50.6068 63.0345 50.5824 63.0971 50.5433 63.1503C50.2978 63.4906 49.3083 63.5542 48.6573 63.5542ZM48.2593 63.1802C49.3232 63.225 50.1974 63.0792 50.2495 62.9258C50.0895 62.5144 49.1335 61.9908 48.5531 61.7365L46.1835 62.2676L48.2593 63.1802Z"
    fill="#263238" />
  <path d="M68.6858 87.707L67.9343 89.405L69.6232 90.5382L70.7504 88.4625L68.6858 87.707Z" fill="#FFC100" />
  <path
    d="M69.6232 90.7251C69.5865 90.7244 69.5506 90.7141 69.5191 90.6952L67.8302 89.5732C67.7936 89.5487 67.7668 89.512 67.7545 89.4696C67.7423 89.4271 67.7453 89.3817 67.7632 89.3413L68.5072 87.6433C68.5262 87.5997 68.5609 87.5649 68.6045 87.5461C68.6481 87.5274 68.6971 87.526 68.7416 87.5424L70.8062 88.2904C70.8311 88.2999 70.8539 88.3145 70.8731 88.3331C70.8922 88.3517 70.9075 88.3741 70.9178 88.3988C70.9289 88.4235 70.9346 88.4503 70.9346 88.4774C70.9346 88.5045 70.9289 88.5312 70.9178 88.5559L69.8018 90.6316C69.7757 90.6772 69.733 90.7107 69.6828 90.7251H69.6232ZM68.1687 89.3376L69.5563 90.2688L70.4826 88.5634L68.7825 87.9425L68.1687 89.3376Z"
    fill="#263238" />
  <path d="M64.1771 82.8L63.236 84.498C63.236 84.498 64.1734 85.246 64.724 85.0627L64.1771 82.8Z" fill="#FFC100" />
  <path
    d="M64.5417 85.2798C63.9353 85.2798 63.2136 84.7188 63.1244 84.644C63.09 84.6167 63.0663 84.5781 63.0575 84.535C63.0486 84.4919 63.0552 84.4471 63.076 84.4084L64.0172 82.7066C64.0354 82.6742 64.0628 82.648 64.096 82.6313C64.1291 82.6147 64.1664 82.6083 64.2032 82.6131C64.2403 82.6187 64.2749 82.6351 64.3027 82.6604C64.3305 82.6857 64.3502 82.7187 64.3594 82.7553L64.9211 85.018C64.9331 85.0636 64.9275 85.112 64.9054 85.1536C64.8833 85.1953 64.8464 85.2269 64.8021 85.2424C64.7177 85.2681 64.6299 85.2808 64.5417 85.2798ZM63.4815 84.4458C63.7823 84.6816 64.1361 84.8396 64.5119 84.9058L64.1139 83.305L63.4815 84.4458Z"
    fill="#263238" />
  <path
    d="M86.6571 44.2034C88.5123 44.2034 90.0163 42.6914 90.0163 40.8262C90.0163 38.961 88.5123 37.449 86.6571 37.449C84.8019 37.449 83.298 38.961 83.298 40.8262C83.298 42.6914 84.8019 44.2034 86.6571 44.2034Z"
    fill="#263238" />
  <path
    d="M85.9912 40.5683C85.9912 40.7948 85.9244 41.0162 85.7991 41.2045C85.6739 41.3928 85.4959 41.5395 85.2877 41.626C85.0795 41.7125 84.8504 41.7349 84.6295 41.6905C84.4086 41.646 84.2057 41.5366 84.0467 41.3762C83.8876 41.2158 83.7795 41.0115 83.736 40.7893C83.6925 40.567 83.7156 40.3368 83.8023 40.1277C83.889 39.9187 84.0355 39.7402 84.2232 39.6149C84.4109 39.4896 84.6313 39.4231 84.8566 39.4238C85.1579 39.4248 85.4465 39.5458 85.6592 39.7604C85.8718 39.9749 85.9913 40.2654 85.9912 40.5683Z"
    fill="white" />
  <path
    d="M87.747 42.5915C87.747 42.6655 87.7252 42.7378 87.6843 42.7993C87.6435 42.8608 87.5854 42.9088 87.5174 42.9371C87.4494 42.9654 87.3746 42.9728 87.3025 42.9583C87.2303 42.9439 87.164 42.9083 87.112 42.856C87.06 42.8037 87.0246 42.737 87.0102 42.6645C86.9958 42.5919 87.0032 42.5167 87.0314 42.4484C87.0595 42.3801 87.1072 42.3217 87.1684 42.2806C87.2296 42.2395 87.3015 42.2175 87.3751 42.2175C87.4737 42.2175 87.5683 42.2569 87.6381 42.3271C87.7078 42.3972 87.747 42.4923 87.747 42.5915Z"
    fill="white" />
  <path
    d="M102.85 38.8252C104.705 38.8252 106.209 37.3132 106.209 35.448C106.209 33.5828 104.705 32.0708 102.85 32.0708C100.995 32.0708 99.4911 33.5828 99.4911 35.448C99.4911 37.3132 100.995 38.8252 102.85 38.8252Z"
    fill="#263238" />
  <path
    d="M102.188 35.1901C102.188 35.4164 102.121 35.6377 101.996 35.8259C101.871 36.0141 101.693 36.1608 101.485 36.2474C101.277 36.334 101.049 36.3567 100.828 36.3125C100.607 36.2684 100.404 36.1594 100.245 35.9993C100.086 35.8393 99.9773 35.6354 99.9334 35.4134C99.8894 35.1914 99.912 34.9613 99.9981 34.7521C100.084 34.543 100.23 34.3643 100.417 34.2385C100.605 34.1128 100.825 34.0457 101.05 34.0457C101.352 34.0457 101.641 34.1662 101.855 34.3809C102.068 34.5955 102.188 34.8866 102.188 35.1901Z"
    fill="white" />
  <path
    d="M103.944 37.2134C103.944 37.2873 103.922 37.3596 103.881 37.4211C103.84 37.4826 103.782 37.5306 103.714 37.5589C103.646 37.5872 103.572 37.5946 103.499 37.5802C103.427 37.5657 103.361 37.5301 103.309 37.4778C103.257 37.4255 103.221 37.3589 103.207 37.2863C103.193 37.2138 103.2 37.1386 103.228 37.0702C103.256 37.0019 103.304 36.9435 103.365 36.9024C103.426 36.8613 103.498 36.8394 103.572 36.8394C103.671 36.8394 103.765 36.8788 103.835 36.9489C103.905 37.019 103.944 37.1142 103.944 37.2134Z"
    fill="white" />
  <path
    d="M79.8942 36.544H79.8012C79.6548 36.5184 79.5245 36.4356 79.4387 36.3136C79.353 36.1916 79.3188 36.0405 79.3436 35.8932C79.4839 35.0139 79.8415 34.184 80.3835 33.4797C80.9255 32.7753 81.6347 32.2189 82.4461 31.8615C83.6611 31.347 85.0251 31.3149 86.2628 31.7718C86.3367 31.7922 86.4057 31.8277 86.4654 31.8761C86.5251 31.9246 86.5742 31.9848 86.6097 32.0532C86.6452 32.1215 86.6663 32.1965 86.6717 32.2734C86.677 32.3504 86.6666 32.4276 86.6409 32.5002C86.6153 32.5729 86.575 32.6395 86.5227 32.6958C86.4703 32.7522 86.4069 32.797 86.3366 32.8276C86.2662 32.8583 86.1902 32.8739 86.1135 32.8737C86.0368 32.8735 85.961 32.8574 85.8908 32.8264C84.9189 32.4666 83.8474 32.4906 82.8925 32.8938C82.2526 33.1776 81.6939 33.6185 81.2675 34.1759C80.8411 34.7333 80.5608 35.3894 80.4522 36.084C80.4277 36.2143 80.3584 36.3319 80.2563 36.416C80.1543 36.5001 80.0261 36.5454 79.8942 36.544Z"
    fill="#263238" />
  <path
    d="M96.716 30.4852C96.6459 30.4841 96.5765 30.4702 96.5114 30.444C96.4433 30.4172 96.3812 30.3771 96.3286 30.3261C96.2761 30.275 96.234 30.214 96.205 30.1466C96.1759 30.0792 96.1605 30.0066 96.1594 29.9331C96.1584 29.8597 96.1718 29.7867 96.1989 29.7184C96.5124 28.8818 97.0311 28.1383 97.7068 27.5571C98.3825 26.9758 99.1933 26.5756 100.064 26.3936C101.357 26.1353 102.7 26.3799 103.821 27.078C103.947 27.1559 104.038 27.281 104.072 27.4258C104.107 27.5706 104.083 27.7233 104.005 27.8503C103.928 27.9773 103.803 28.0681 103.659 28.1028C103.515 28.1375 103.363 28.1133 103.237 28.0354C102.358 27.4859 101.303 27.2921 100.287 27.4931C99.6052 27.6406 98.9707 27.9575 98.4418 28.4148C97.9129 28.8721 97.5063 29.4553 97.2591 30.1111C97.2197 30.2233 97.1459 30.32 97.0483 30.3872C96.9506 30.4545 96.8343 30.4888 96.716 30.4852Z"
    fill="#263238" />
  <path
    d="M95.6 46.2604C94.5032 46.2545 93.4385 45.888 92.5682 45.2169C92.5287 45.1871 92.5026 45.1428 92.4956 45.0938C92.4887 45.0447 92.5014 44.9948 92.531 44.9551C92.5612 44.9162 92.6051 44.8906 92.6537 44.8837C92.7022 44.8767 92.7516 44.8889 92.7914 44.9177C93.3925 45.3885 94.1018 45.6996 94.854 45.8225C95.6061 45.9454 96.3769 45.876 97.0954 45.6208C97.9652 45.2884 98.7148 44.6995 99.2458 43.9313C99.7769 43.1631 100.065 42.2516 100.071 41.3161C100.073 41.2668 100.094 41.2202 100.13 41.186C100.165 41.1518 100.212 41.1328 100.261 41.1328C100.286 41.1333 100.31 41.1387 100.333 41.1488C100.356 41.1589 100.376 41.1734 100.393 41.1915C100.41 41.2096 100.423 41.231 100.432 41.2543C100.44 41.2776 100.444 41.3024 100.443 41.3273C100.435 42.3364 100.124 43.3195 99.5517 44.1483C98.979 44.977 98.1709 45.6127 97.2331 45.9724C96.7101 46.1655 96.1571 46.263 95.6 46.2604Z"
    fill="#263238" />
  <path
    d="M94.7704 46.1108C94.7704 46.1108 96.1059 49.8508 98.7471 48.8485C101.574 47.7676 99.6511 43.7322 99.6511 43.7322C99.6511 43.7322 98.5314 46.1108 94.7704 46.1108Z"
    fill="#263238" />
  <path
    d="M97.8618 49.2075C97.5148 49.2069 97.172 49.1303 96.8574 48.9831C95.3694 48.2912 94.6254 46.2604 94.5956 46.1744L94.5063 45.9238H94.7705C98.3603 45.9238 99.4391 43.7434 99.4837 43.6536L99.6511 43.2983L99.8185 43.6499C99.8631 43.7471 100.934 45.9911 100.261 47.6405C100.133 47.9619 99.9379 48.2517 99.6881 48.4899C99.4383 48.7282 99.1401 48.9092 98.8141 49.0205C98.5107 49.1408 98.1879 49.2042 97.8618 49.2075ZM95.0458 46.2941C95.2876 46.8439 95.9534 48.1641 97.0136 48.6428C97.2745 48.7624 97.5571 48.8268 97.8438 48.832C98.1305 48.8371 98.4152 48.7829 98.6802 48.6727C98.9576 48.5783 99.2115 48.4248 99.4246 48.2228C99.6378 48.0208 99.8051 47.775 99.9152 47.5021C100.373 46.3539 99.8817 44.8093 99.6213 44.1361C99.1675 44.8018 97.8729 46.2081 95.0458 46.2941Z"
    fill="#263238" />
  <path
    d="M86.8803 50.6439C89.4279 50.6439 91.4931 49.5253 91.4931 48.1455C91.4931 46.7658 89.4279 45.6472 86.8803 45.6472C84.3327 45.6472 82.2675 46.7658 82.2675 48.1455C82.2675 49.5253 84.3327 50.6439 86.8803 50.6439Z"
    fill="#FFC100" />
  <path
    d="M108.667 42.7712C110.646 41.1573 111.548 38.9804 110.683 37.909C109.819 36.8376 107.514 37.2775 105.536 38.8914C103.558 40.5054 102.655 42.6822 103.52 43.7536C104.385 44.825 106.689 44.3852 108.667 42.7712Z"
    fill="#FFC100" />
  <path
    d="M100.198 47.2179C99.9819 47.1682 99.7611 47.1431 99.5395 47.1431C98.9892 47.1461 98.45 47.2998 97.9801 47.5878C97.5101 47.8758 97.1271 48.287 96.8723 48.7774C97.1589 48.9232 97.4735 49.0049 97.7945 49.0172C98.1155 49.0295 98.4354 48.9719 98.7323 48.8485C99.0962 48.7278 99.4228 48.5141 99.6797 48.2282C99.9367 47.9423 100.115 47.5941 100.198 47.2179Z"
    fill="#FFC100" />
  <path
    d="M97.8655 49.2075C97.4906 49.2052 97.1213 49.1156 96.7867 48.9457C96.7428 48.9231 96.7095 48.8842 96.6937 48.8372C96.6835 48.8143 96.6783 48.7894 96.6783 48.7643C96.6783 48.7392 96.6835 48.7143 96.6937 48.6914C97.0177 48.0624 97.5399 47.559 98.1786 47.2599C98.8173 46.9608 99.5365 46.8829 100.224 47.0383C100.273 47.0492 100.315 47.0787 100.343 47.1206C100.356 47.1416 100.364 47.165 100.368 47.1894C100.372 47.2138 100.371 47.2387 100.365 47.2627C100.277 47.6663 100.086 48.0401 99.8115 48.348C99.5372 48.6559 99.1885 48.8875 98.7992 49.0205C98.5016 49.1386 98.1854 49.202 97.8655 49.2075ZM97.1215 48.6914C97.6172 48.8894 98.1695 48.8894 98.6653 48.6914C98.9661 48.5892 99.2389 48.4176 99.4618 48.1903C99.6846 47.9629 99.8514 47.6862 99.9487 47.3824C99.4039 47.2991 98.8468 47.3788 98.3467 47.6116C97.8466 47.8444 97.4257 48.2199 97.1364 48.6914H97.1215Z"
    fill="#263238" />
</svg>